G04 Layer_Color=16711935*
%FSLAX44Y44*%
%MOMM*%
G71*
G01*
G75*
%ADD27C,0.2540*%
%ADD28C,0.2032*%
%ADD46C,1.2032*%
%ADD57C,1.8032*%
%ADD58R,1.8032X1.8032*%
%ADD59R,1.8032X1.8032*%
%ADD60C,3.5052*%
%ADD61C,0.9032*%
%ADD62C,1.4732*%
%ADD63R,1.5032X1.7532*%
D27*
X0Y-1990000D02*
Y-1274D01*
Y-1990000D02*
X359410D01*
X0Y-1274D02*
X359410D01*
Y-1990000D02*
Y-1274D01*
D28*
X162070Y-1912627D02*
Y-1921091D01*
X163763Y-1922784D01*
X167148D01*
X168841Y-1921091D01*
Y-1912627D01*
X172227Y-1922784D02*
X175612D01*
X173920D01*
Y-1912627D01*
X172227Y-1914320D01*
X180691Y-1924477D02*
X187462D01*
X190847Y-1912627D02*
Y-1922784D01*
Y-1917706D01*
X197619D01*
Y-1912627D01*
Y-1922784D01*
D46*
X67310Y-1887224D02*
D03*
X295910Y-1891034D02*
D03*
X267970Y-1761494D02*
D03*
X193040Y-1710694D02*
D03*
X176580Y-1602740D02*
D03*
X205740Y-1532894D02*
D03*
X300990Y-1546864D02*
D03*
X224790Y-1379224D02*
D03*
X186690Y-1163324D02*
D03*
X191770Y-1108714D02*
D03*
X105410Y-1130304D02*
D03*
X220980Y-904244D02*
D03*
X171450Y-996950D02*
D03*
X68580Y-963934D02*
D03*
X12700Y-853444D02*
D03*
X276860Y-876304D02*
D03*
X105410Y-706124D02*
D03*
X195580Y-627384D02*
D03*
X280670Y-594364D02*
D03*
X189230Y-546104D02*
D03*
X163830Y-350524D02*
D03*
X43180Y-414024D02*
D03*
X278130Y-316234D02*
D03*
X100330Y-289564D02*
D03*
X39370Y-128274D02*
D03*
X97790Y-95254D02*
D03*
X176530Y-133354D02*
D03*
X175260Y-95254D02*
D03*
X275590Y-134620D02*
D03*
D57*
X334010Y-1924434D02*
D03*
X16510D02*
D03*
Y-1567184D02*
D03*
X341630Y-1398434D02*
D03*
X15240D02*
D03*
X344170Y-1179834D02*
D03*
X16510D02*
D03*
X344170Y-909324D02*
D03*
X19050D02*
D03*
X345440Y-632464D02*
D03*
X16510D02*
D03*
X344170Y-350524D02*
D03*
X21590Y-351794D02*
D03*
X168910Y-20324D02*
D03*
X346710Y-1592584D02*
D03*
X15240Y-1765144D02*
D03*
X339090Y-1764034D02*
D03*
D58*
X334010Y-1899034D02*
D03*
X16510D02*
D03*
Y-1592584D02*
D03*
X341630Y-1423834D02*
D03*
X15240D02*
D03*
X344170Y-1205234D02*
D03*
X16510D02*
D03*
X344170Y-934724D02*
D03*
X19050D02*
D03*
X345440Y-657864D02*
D03*
X16510D02*
D03*
X344170Y-375924D02*
D03*
X21590Y-377194D02*
D03*
X346710Y-1567184D02*
D03*
X15240Y-1739744D02*
D03*
X339090Y-1738634D02*
D03*
D59*
X194310Y-20324D02*
D03*
D60*
X30000Y-30000D02*
D03*
X330000D02*
D03*
X331978Y-1960000D02*
D03*
X31978D02*
D03*
D61*
X161290Y-1250950D02*
D03*
X168910Y-967740D02*
D03*
X180340Y-966634D02*
D03*
X120650Y-237494D02*
D03*
X146050Y-864874D02*
D03*
X327660Y-990604D02*
D03*
X116840Y-1075694D02*
D03*
X140970Y-1140464D02*
D03*
X322580Y-1264924D02*
D03*
X298450D02*
D03*
X203200Y-1252224D02*
D03*
X93980Y-1233174D02*
D03*
X116840Y-1339854D02*
D03*
X288290Y-1424944D02*
D03*
X146050Y-1400814D02*
D03*
X99060Y-1422404D02*
D03*
X222250Y-1939294D02*
D03*
X146050Y-1921514D02*
D03*
X97790Y-1936754D02*
D03*
X118110Y-1849124D02*
D03*
X119380Y-1673864D02*
D03*
X127000Y-1504954D02*
D03*
X152400Y-1573534D02*
D03*
X102870Y-1592584D02*
D03*
X227330D02*
D03*
X151130Y-295914D02*
D03*
X40640Y-288294D02*
D03*
X92710Y-417834D02*
D03*
X161290Y-414024D02*
D03*
X193040Y-411484D02*
D03*
X311150Y-438154D02*
D03*
X289560Y-434344D02*
D03*
X120650Y-518164D02*
D03*
X142240Y-580394D02*
D03*
X318770Y-716124D02*
D03*
X294640Y-713744D02*
D03*
X213360Y-694694D02*
D03*
X171450Y-678184D02*
D03*
X96520Y-679454D02*
D03*
X120650Y-798834D02*
D03*
X36830Y-838204D02*
D03*
X105410Y-958854D02*
D03*
X38100Y-1118874D02*
D03*
X225900Y-1767844D02*
D03*
X132080Y-1751334D02*
D03*
X92710Y-1770304D02*
D03*
X331470Y-471174D02*
D03*
X140970Y-323854D02*
D03*
X298450Y-1151894D02*
D03*
X281940Y-1369064D02*
D03*
X204470Y-1428754D02*
D03*
X179070Y-1873254D02*
D03*
X127000Y-1948184D02*
D03*
X183660Y-1951994D02*
D03*
X271780Y-1912784D02*
D03*
X236220Y-1766574D02*
D03*
X285750Y-1720854D02*
D03*
X331978Y-1801118D02*
D03*
X60960Y-1946914D02*
D03*
X329946Y-1625858D02*
D03*
X339090Y-1488444D02*
D03*
X128270Y-1428754D02*
D03*
X321310Y-1296674D02*
D03*
X124460Y-1107444D02*
D03*
X265430Y-998224D02*
D03*
X341630Y-1070614D02*
D03*
X102870Y-571504D02*
D03*
X320000Y-752694D02*
D03*
X102870Y-861064D02*
D03*
X40640Y-704854D02*
D03*
X107950Y-601984D02*
D03*
X39370Y-557534D02*
D03*
X229870Y-501654D02*
D03*
X275590Y-33024D02*
D03*
X316230Y-198124D02*
D03*
X54610Y-57154D02*
D03*
X115570Y-303534D02*
D03*
X299720Y-311154D02*
D03*
X24130Y-269244D02*
D03*
X105270Y-1774194D02*
D03*
X300990Y-1596394D02*
D03*
X201930Y-982984D02*
D03*
X71260Y-102874D02*
D03*
X204470Y-182880D02*
D03*
X7620Y-166374D02*
D03*
X345440Y-444504D02*
D03*
X339090Y-558804D02*
D03*
X146540Y-411324D02*
D03*
X43180Y-673104D02*
D03*
X39370Y-615954D02*
D03*
X41910Y-890274D02*
D03*
Y-1244604D02*
D03*
X46990Y-1167134D02*
D03*
X165100Y-1192534D02*
D03*
X285750Y-13970D02*
D03*
D62*
X266700Y-1676404D02*
D03*
X53340Y-205744D02*
D03*
X123190Y-144784D02*
D03*
X92590Y-148594D02*
D03*
X73660Y-147324D02*
D03*
X54610Y-1606554D02*
D03*
X274320Y-1226824D02*
D03*
X44450Y-450854D02*
D03*
X54610Y-1004574D02*
D03*
Y-1263654D02*
D03*
X52070Y-1443994D02*
D03*
X54610Y-1766414D02*
D03*
X273050Y-237494D02*
D03*
Y-207014D02*
D03*
X53340Y-232414D02*
D03*
X265430Y-1850394D02*
D03*
X262890Y-1814834D02*
D03*
X49530Y-1850394D02*
D03*
Y-1814834D02*
D03*
X267970Y-1644654D02*
D03*
X54610Y-1474474D02*
D03*
X49530Y-1680214D02*
D03*
Y-1642114D02*
D03*
X265430Y-1344934D02*
D03*
X262890Y-1309374D02*
D03*
X54610Y-1078234D02*
D03*
Y-1042674D02*
D03*
X283210D02*
D03*
Y-1078234D02*
D03*
X281940Y-953774D02*
D03*
X62230Y-717554D02*
D03*
X275590Y-768354D02*
D03*
Y-803914D02*
D03*
X285750Y-516894D02*
D03*
X54610Y-803914D02*
D03*
Y-768354D02*
D03*
X287020Y-668024D02*
D03*
X290830Y-481334D02*
D03*
X54610Y-516894D02*
D03*
Y-481334D02*
D03*
X266700Y-383544D02*
D03*
X69790Y-171394D02*
D03*
X278130Y-1474474D02*
D03*
Y-1510034D02*
D03*
X52070Y-1344934D02*
D03*
Y-1309374D02*
D03*
X54610Y-1510034D02*
D03*
D63*
X288450Y-1184914D02*
D03*
X308450D02*
D03*
X301150Y-941074D02*
D03*
X321150D02*
D03*
X275910Y-369574D02*
D03*
X295910D02*
D03*
X293530Y-651514D02*
D03*
X313530D02*
D03*
M02*
