G04 Layer_Physical_Order=2*
G04 Layer_Color=16711680*
%FSLAX44Y44*%
%MOMM*%
G71*
G01*
G75*
%ADD14C,1.0000*%
%ADD26C,0.7620*%
%ADD27C,0.2540*%
%ADD28C,0.2032*%
%ADD29C,1.6000*%
%ADD30R,1.6000X1.6000*%
%ADD31R,1.6000X1.6000*%
%ADD32C,3.3020*%
%ADD33C,0.7000*%
%ADD34C,1.2700*%
%ADD35R,1.3000X1.5500*%
G36*
X360000Y-1990000D02*
X0D01*
Y-1274D01*
X360000D01*
Y-1990000D01*
D02*
G37*
%LPC*%
G36*
X327216Y-1297944D02*
X322580D01*
Y-1302579D01*
X323667Y-1302363D01*
X325665Y-1301028D01*
X327000Y-1299030D01*
X327216Y-1297944D01*
D02*
G37*
G36*
X320040Y-1290768D02*
X318953Y-1290984D01*
X316955Y-1292319D01*
X315620Y-1294317D01*
X315404Y-1295404D01*
X320040D01*
Y-1290768D01*
D02*
G37*
G36*
X118110Y-1333948D02*
Y-1338584D01*
X122746D01*
X122529Y-1337497D01*
X121195Y-1335499D01*
X119197Y-1334164D01*
X118110Y-1333948D01*
D02*
G37*
G36*
X320040Y-1297944D02*
X315404D01*
X315620Y-1299030D01*
X316955Y-1301028D01*
X318953Y-1302363D01*
X320040Y-1302579D01*
Y-1297944D01*
D02*
G37*
G36*
X322580Y-1290768D02*
Y-1295404D01*
X327216D01*
X327000Y-1294317D01*
X325665Y-1292319D01*
X323667Y-1290984D01*
X322580Y-1290768D01*
D02*
G37*
G36*
X321310Y-1266194D02*
X316674D01*
X316891Y-1267281D01*
X318225Y-1269278D01*
X320223Y-1270613D01*
X321310Y-1270829D01*
Y-1266194D01*
D02*
G37*
G36*
X328486D02*
X323850D01*
Y-1270829D01*
X324937Y-1270613D01*
X326935Y-1269278D01*
X328270Y-1267281D01*
X328486Y-1266194D01*
D02*
G37*
G36*
X297180D02*
X292544D01*
X292761Y-1267281D01*
X294095Y-1269278D01*
X296093Y-1270613D01*
X297180Y-1270829D01*
Y-1266194D01*
D02*
G37*
G36*
X304356D02*
X299720D01*
Y-1270829D01*
X300807Y-1270613D01*
X302805Y-1269278D01*
X304139Y-1267281D01*
X304356Y-1266194D01*
D02*
G37*
G36*
X280670Y-1370334D02*
X276034D01*
X276250Y-1371420D01*
X277585Y-1373418D01*
X279583Y-1374753D01*
X280670Y-1374969D01*
Y-1370334D01*
D02*
G37*
G36*
X287846D02*
X283210D01*
Y-1374969D01*
X284297Y-1374753D01*
X286295Y-1373418D01*
X287630Y-1371420D01*
X287846Y-1370334D01*
D02*
G37*
G36*
X223520Y-1371786D02*
X222822Y-1371878D01*
X220987Y-1372638D01*
X219412Y-1373846D01*
X218204Y-1375421D01*
X217444Y-1377256D01*
X217352Y-1377954D01*
X223520D01*
Y-1371786D01*
D02*
G37*
G36*
X226060D02*
Y-1377954D01*
X232228D01*
X232136Y-1377256D01*
X231376Y-1375421D01*
X230168Y-1373846D01*
X228592Y-1372638D01*
X226758Y-1371878D01*
X226060Y-1371786D01*
D02*
G37*
G36*
X280670Y-1363158D02*
X279583Y-1363374D01*
X277585Y-1364709D01*
X276250Y-1366707D01*
X276034Y-1367794D01*
X280670D01*
Y-1363158D01*
D02*
G37*
G36*
X122746Y-1341124D02*
X118110D01*
Y-1345759D01*
X119197Y-1345543D01*
X121195Y-1344208D01*
X122529Y-1342211D01*
X122746Y-1341124D01*
D02*
G37*
G36*
X115570Y-1333948D02*
X114483Y-1334164D01*
X112485Y-1335499D01*
X111151Y-1337497D01*
X110934Y-1338584D01*
X115570D01*
Y-1333948D01*
D02*
G37*
G36*
X283210Y-1363158D02*
Y-1367794D01*
X287846D01*
X287630Y-1366707D01*
X286295Y-1364709D01*
X284297Y-1363374D01*
X283210Y-1363158D01*
D02*
G37*
G36*
X115570Y-1341124D02*
X110934D01*
X111151Y-1342211D01*
X112485Y-1344208D01*
X114483Y-1345543D01*
X115570Y-1345759D01*
Y-1341124D01*
D02*
G37*
G36*
X47816Y-1245874D02*
X43180D01*
Y-1250509D01*
X44267Y-1250293D01*
X46265Y-1248958D01*
X47600Y-1246961D01*
X47816Y-1245874D01*
D02*
G37*
G36*
X160020Y-1245044D02*
X158933Y-1245260D01*
X156935Y-1246595D01*
X155601Y-1248593D01*
X155384Y-1249680D01*
X160020D01*
Y-1245044D01*
D02*
G37*
G36*
X204470Y-1246318D02*
Y-1250954D01*
X209106D01*
X208890Y-1249867D01*
X207555Y-1247869D01*
X205557Y-1246534D01*
X204470Y-1246318D01*
D02*
G37*
G36*
X40640Y-1245874D02*
X36004D01*
X36221Y-1246961D01*
X37555Y-1248958D01*
X39553Y-1250293D01*
X40640Y-1250509D01*
Y-1245874D01*
D02*
G37*
G36*
X162560Y-1245044D02*
Y-1249680D01*
X167196D01*
X166980Y-1248593D01*
X165645Y-1246595D01*
X163647Y-1245260D01*
X162560Y-1245044D01*
D02*
G37*
G36*
X92710Y-1234444D02*
X88074D01*
X88291Y-1235530D01*
X89625Y-1237528D01*
X91623Y-1238863D01*
X92710Y-1239080D01*
Y-1234444D01*
D02*
G37*
G36*
X99886D02*
X95250D01*
Y-1239080D01*
X96337Y-1238863D01*
X98335Y-1237528D01*
X99670Y-1235530D01*
X99886Y-1234444D01*
D02*
G37*
G36*
X40640Y-1238698D02*
X39553Y-1238914D01*
X37555Y-1240249D01*
X36221Y-1242247D01*
X36004Y-1243334D01*
X40640D01*
Y-1238698D01*
D02*
G37*
G36*
X43180D02*
Y-1243334D01*
X47816D01*
X47600Y-1242247D01*
X46265Y-1240249D01*
X44267Y-1238914D01*
X43180Y-1238698D01*
D02*
G37*
G36*
X321310Y-1259018D02*
X320223Y-1259234D01*
X318225Y-1260569D01*
X316891Y-1262567D01*
X316674Y-1263654D01*
X321310D01*
Y-1259018D01*
D02*
G37*
G36*
X323850D02*
Y-1263654D01*
X328486D01*
X328270Y-1262567D01*
X326935Y-1260569D01*
X324937Y-1259234D01*
X323850Y-1259018D01*
D02*
G37*
G36*
X297180D02*
X296093Y-1259234D01*
X294095Y-1260569D01*
X292761Y-1262567D01*
X292544Y-1263654D01*
X297180D01*
Y-1259018D01*
D02*
G37*
G36*
X299720D02*
Y-1263654D01*
X304356D01*
X304139Y-1262567D01*
X302805Y-1260569D01*
X300807Y-1259234D01*
X299720Y-1259018D01*
D02*
G37*
G36*
X201930Y-1253494D02*
X197294D01*
X197511Y-1254581D01*
X198845Y-1256578D01*
X200843Y-1257913D01*
X201930Y-1258130D01*
Y-1253494D01*
D02*
G37*
G36*
X167196Y-1252220D02*
X162560D01*
Y-1256856D01*
X163647Y-1256639D01*
X165645Y-1255305D01*
X166980Y-1253307D01*
X167196Y-1252220D01*
D02*
G37*
G36*
X201930Y-1246318D02*
X200843Y-1246534D01*
X198845Y-1247869D01*
X197511Y-1249867D01*
X197294Y-1250954D01*
X201930D01*
Y-1246318D01*
D02*
G37*
G36*
X209106Y-1253494D02*
X204470D01*
Y-1258130D01*
X205557Y-1257913D01*
X207555Y-1256578D01*
X208890Y-1254581D01*
X209106Y-1253494D01*
D02*
G37*
G36*
X160020Y-1252220D02*
X155384D01*
X155601Y-1253307D01*
X156935Y-1255305D01*
X158933Y-1256639D01*
X160020Y-1256856D01*
Y-1252220D01*
D02*
G37*
G36*
X232228Y-1380494D02*
X226060D01*
Y-1386662D01*
X226758Y-1386570D01*
X228592Y-1385810D01*
X230168Y-1384601D01*
X231376Y-1383026D01*
X232136Y-1381192D01*
X232228Y-1380494D01*
D02*
G37*
G36*
X340360Y-1425104D02*
X331090D01*
Y-1434374D01*
X340360D01*
Y-1425104D01*
D02*
G37*
G36*
X352170D02*
X342900D01*
Y-1434374D01*
X352170D01*
Y-1425104D01*
D02*
G37*
G36*
X13970D02*
X4700D01*
Y-1434374D01*
X13970D01*
Y-1425104D01*
D02*
G37*
G36*
X25780D02*
X16510D01*
Y-1434374D01*
X25780D01*
Y-1425104D01*
D02*
G37*
G36*
X287020Y-1426214D02*
X282384D01*
X282600Y-1427301D01*
X283935Y-1429298D01*
X285933Y-1430633D01*
X287020Y-1430849D01*
Y-1426214D01*
D02*
G37*
G36*
X104966Y-1423674D02*
X100330D01*
Y-1428309D01*
X101417Y-1428093D01*
X103415Y-1426758D01*
X104749Y-1424760D01*
X104966Y-1423674D01*
D02*
G37*
G36*
X127000Y-1422848D02*
X125913Y-1423064D01*
X123915Y-1424399D01*
X122580Y-1426397D01*
X122364Y-1427484D01*
X127000D01*
Y-1422848D01*
D02*
G37*
G36*
X294196Y-1426214D02*
X289560D01*
Y-1430849D01*
X290647Y-1430633D01*
X292645Y-1429298D01*
X293979Y-1427301D01*
X294196Y-1426214D01*
D02*
G37*
G36*
X97790Y-1423674D02*
X93154D01*
X93371Y-1424760D01*
X94705Y-1426758D01*
X96703Y-1428093D01*
X97790Y-1428309D01*
Y-1423674D01*
D02*
G37*
G36*
X344996Y-1489714D02*
X340360D01*
Y-1494350D01*
X341447Y-1494133D01*
X343445Y-1492798D01*
X344780Y-1490800D01*
X344996Y-1489714D01*
D02*
G37*
G36*
X337820Y-1482538D02*
X336733Y-1482754D01*
X334735Y-1484089D01*
X333400Y-1486087D01*
X333184Y-1487174D01*
X337820D01*
Y-1482538D01*
D02*
G37*
G36*
X128270Y-1499048D02*
Y-1503684D01*
X132906D01*
X132690Y-1502597D01*
X131355Y-1500599D01*
X129357Y-1499264D01*
X128270Y-1499048D01*
D02*
G37*
G36*
X337820Y-1489714D02*
X333184D01*
X333400Y-1490800D01*
X334735Y-1492798D01*
X336733Y-1494133D01*
X337820Y-1494350D01*
Y-1489714D01*
D02*
G37*
G36*
X340360Y-1482538D02*
Y-1487174D01*
X344996D01*
X344780Y-1486087D01*
X343445Y-1484089D01*
X341447Y-1482754D01*
X340360Y-1482538D01*
D02*
G37*
G36*
X203200Y-1430024D02*
X198564D01*
X198780Y-1431111D01*
X200115Y-1433108D01*
X202113Y-1434443D01*
X203200Y-1434659D01*
Y-1430024D01*
D02*
G37*
G36*
X210376D02*
X205740D01*
Y-1434659D01*
X206827Y-1434443D01*
X208825Y-1433108D01*
X210159Y-1431111D01*
X210376Y-1430024D01*
D02*
G37*
G36*
X127000D02*
X122364D01*
X122580Y-1431111D01*
X123915Y-1433108D01*
X125913Y-1434443D01*
X127000Y-1434659D01*
Y-1430024D01*
D02*
G37*
G36*
X134176D02*
X129540D01*
Y-1434659D01*
X130627Y-1434443D01*
X132625Y-1433108D01*
X133960Y-1431111D01*
X134176Y-1430024D01*
D02*
G37*
G36*
X15240Y-1388315D02*
X12621Y-1388660D01*
X10181Y-1389671D01*
X8085Y-1391279D01*
X6477Y-1393374D01*
X5466Y-1395815D01*
X5121Y-1398434D01*
X5466Y-1401053D01*
X6477Y-1403493D01*
X8085Y-1405589D01*
X10181Y-1407197D01*
X12621Y-1408208D01*
X15240Y-1408552D01*
X17859Y-1408208D01*
X20299Y-1407197D01*
X22395Y-1405589D01*
X24003Y-1403493D01*
X25014Y-1401053D01*
X25359Y-1398434D01*
X25014Y-1395815D01*
X24003Y-1393374D01*
X22395Y-1391279D01*
X20299Y-1389671D01*
X17859Y-1388660D01*
X15240Y-1388315D01*
D02*
G37*
G36*
X341630D02*
X339011Y-1388660D01*
X336571Y-1389671D01*
X334475Y-1391279D01*
X332867Y-1393374D01*
X331856Y-1395815D01*
X331511Y-1398434D01*
X331856Y-1401053D01*
X332867Y-1403493D01*
X334475Y-1405589D01*
X336571Y-1407197D01*
X339011Y-1408208D01*
X341630Y-1408552D01*
X344249Y-1408208D01*
X346689Y-1407197D01*
X348785Y-1405589D01*
X350393Y-1403493D01*
X351404Y-1401053D01*
X351749Y-1398434D01*
X351404Y-1395815D01*
X350393Y-1393374D01*
X348785Y-1391279D01*
X346689Y-1389671D01*
X344249Y-1388660D01*
X341630Y-1388315D01*
D02*
G37*
G36*
X97790Y-1416498D02*
X96703Y-1416714D01*
X94705Y-1418049D01*
X93371Y-1420047D01*
X93154Y-1421134D01*
X97790D01*
Y-1416498D01*
D02*
G37*
G36*
X100330D02*
Y-1421134D01*
X104966D01*
X104749Y-1420047D01*
X103415Y-1418049D01*
X101417Y-1416714D01*
X100330Y-1416498D01*
D02*
G37*
G36*
X144780Y-1402084D02*
X140144D01*
X140360Y-1403170D01*
X141695Y-1405168D01*
X143693Y-1406503D01*
X144780Y-1406720D01*
Y-1402084D01*
D02*
G37*
G36*
X147320Y-1394908D02*
Y-1399544D01*
X151956D01*
X151740Y-1398457D01*
X150405Y-1396459D01*
X148407Y-1395124D01*
X147320Y-1394908D01*
D02*
G37*
G36*
X223520Y-1380494D02*
X217352D01*
X217444Y-1381192D01*
X218204Y-1383026D01*
X219412Y-1384601D01*
X220987Y-1385810D01*
X222822Y-1386570D01*
X223520Y-1386662D01*
Y-1380494D01*
D02*
G37*
G36*
X151956Y-1402084D02*
X147320D01*
Y-1406720D01*
X148407Y-1406503D01*
X150405Y-1405168D01*
X151740Y-1403170D01*
X151956Y-1402084D01*
D02*
G37*
G36*
X144780Y-1394908D02*
X143693Y-1395124D01*
X141695Y-1396459D01*
X140360Y-1398457D01*
X140144Y-1399544D01*
X144780D01*
Y-1394908D01*
D02*
G37*
G36*
X205740Y-1422848D02*
Y-1427484D01*
X210376D01*
X210159Y-1426397D01*
X208825Y-1424399D01*
X206827Y-1423064D01*
X205740Y-1422848D01*
D02*
G37*
G36*
X287020Y-1419038D02*
X285933Y-1419254D01*
X283935Y-1420589D01*
X282600Y-1422587D01*
X282384Y-1423674D01*
X287020D01*
Y-1419038D01*
D02*
G37*
G36*
X129540Y-1422848D02*
Y-1427484D01*
X134176D01*
X133960Y-1426397D01*
X132625Y-1424399D01*
X130627Y-1423064D01*
X129540Y-1422848D01*
D02*
G37*
G36*
X203200D02*
X202113Y-1423064D01*
X200115Y-1424399D01*
X198780Y-1426397D01*
X198564Y-1427484D01*
X203200D01*
Y-1422848D01*
D02*
G37*
G36*
X289560Y-1419038D02*
Y-1423674D01*
X294196D01*
X293979Y-1422587D01*
X292645Y-1420589D01*
X290647Y-1419254D01*
X289560Y-1419038D01*
D02*
G37*
G36*
X25780Y-1413294D02*
X16510D01*
Y-1422564D01*
X25780D01*
Y-1413294D01*
D02*
G37*
G36*
X352170D02*
X342900D01*
Y-1422564D01*
X352170D01*
Y-1413294D01*
D02*
G37*
G36*
X13970D02*
X4700D01*
Y-1422564D01*
X13970D01*
Y-1413294D01*
D02*
G37*
G36*
X340360D02*
X331090D01*
Y-1422564D01*
X340360D01*
Y-1413294D01*
D02*
G37*
G36*
X92710Y-1227268D02*
X91623Y-1227484D01*
X89625Y-1228819D01*
X88291Y-1230817D01*
X88074Y-1231904D01*
X92710D01*
Y-1227268D01*
D02*
G37*
G36*
X193040Y-1101276D02*
Y-1107444D01*
X199208D01*
X199116Y-1106746D01*
X198356Y-1104911D01*
X197148Y-1103336D01*
X195572Y-1102128D01*
X193738Y-1101368D01*
X193040Y-1101276D01*
D02*
G37*
G36*
X123190Y-1101538D02*
X122103Y-1101754D01*
X120105Y-1103089D01*
X118771Y-1105087D01*
X118554Y-1106174D01*
X123190D01*
Y-1101538D01*
D02*
G37*
G36*
X130366Y-1108714D02*
X125730D01*
Y-1113350D01*
X126817Y-1113133D01*
X128815Y-1111798D01*
X130149Y-1109800D01*
X130366Y-1108714D01*
D02*
G37*
G36*
X190500Y-1101276D02*
X189802Y-1101368D01*
X187967Y-1102128D01*
X186392Y-1103336D01*
X185184Y-1104911D01*
X184424Y-1106746D01*
X184332Y-1107444D01*
X190500D01*
Y-1101276D01*
D02*
G37*
G36*
X125730Y-1101538D02*
Y-1106174D01*
X130366D01*
X130149Y-1105087D01*
X128815Y-1103089D01*
X126817Y-1101754D01*
X125730Y-1101538D01*
D02*
G37*
G36*
X340360Y-1071884D02*
X335724D01*
X335941Y-1072971D01*
X337275Y-1074968D01*
X339273Y-1076303D01*
X340360Y-1076519D01*
Y-1071884D01*
D02*
G37*
G36*
X347536D02*
X342900D01*
Y-1076519D01*
X343987Y-1076303D01*
X345985Y-1074968D01*
X347319Y-1072971D01*
X347536Y-1071884D01*
D02*
G37*
G36*
X115570Y-1076964D02*
X110934D01*
X111151Y-1078051D01*
X112485Y-1080048D01*
X114483Y-1081383D01*
X115570Y-1081600D01*
Y-1076964D01*
D02*
G37*
G36*
X122746D02*
X118110D01*
Y-1081600D01*
X119197Y-1081383D01*
X121195Y-1080048D01*
X122529Y-1078051D01*
X122746Y-1076964D01*
D02*
G37*
G36*
X36830Y-1120144D02*
X32194D01*
X32411Y-1121230D01*
X33745Y-1123228D01*
X35743Y-1124563D01*
X36830Y-1124780D01*
Y-1120144D01*
D02*
G37*
G36*
X44006D02*
X39370D01*
Y-1124780D01*
X40457Y-1124563D01*
X42455Y-1123228D01*
X43790Y-1121230D01*
X44006Y-1120144D01*
D02*
G37*
G36*
X104140Y-1122866D02*
X103442Y-1122958D01*
X101608Y-1123718D01*
X100032Y-1124926D01*
X98824Y-1126501D01*
X98064Y-1128335D01*
X97972Y-1129034D01*
X104140D01*
Y-1122866D01*
D02*
G37*
G36*
X106680D02*
Y-1129034D01*
X112848D01*
X112756Y-1128335D01*
X111996Y-1126501D01*
X110788Y-1124926D01*
X109213Y-1123718D01*
X107378Y-1122958D01*
X106680Y-1122866D01*
D02*
G37*
G36*
X36830Y-1112968D02*
X35743Y-1113184D01*
X33745Y-1114519D01*
X32411Y-1116517D01*
X32194Y-1117604D01*
X36830D01*
Y-1112968D01*
D02*
G37*
G36*
X199208Y-1109984D02*
X193040D01*
Y-1116152D01*
X193738Y-1116060D01*
X195572Y-1115300D01*
X197148Y-1114091D01*
X198356Y-1112516D01*
X199116Y-1110682D01*
X199208Y-1109984D01*
D02*
G37*
G36*
X123190Y-1108714D02*
X118554D01*
X118771Y-1109800D01*
X120105Y-1111798D01*
X122103Y-1113133D01*
X123190Y-1113350D01*
Y-1108714D01*
D02*
G37*
G36*
X39370Y-1112968D02*
Y-1117604D01*
X44006D01*
X43790Y-1116517D01*
X42455Y-1114519D01*
X40457Y-1113184D01*
X39370Y-1112968D01*
D02*
G37*
G36*
X190500Y-1109984D02*
X184332D01*
X184424Y-1110682D01*
X185184Y-1112516D01*
X186392Y-1114091D01*
X187967Y-1115300D01*
X189802Y-1116060D01*
X190500Y-1116152D01*
Y-1109984D01*
D02*
G37*
G36*
X333566Y-991874D02*
X328930D01*
Y-996509D01*
X330017Y-996293D01*
X332015Y-994958D01*
X333349Y-992961D01*
X333566Y-991874D01*
D02*
G37*
G36*
X170180Y-989512D02*
X169482Y-989604D01*
X167647Y-990364D01*
X166072Y-991572D01*
X164864Y-993148D01*
X164104Y-994982D01*
X164012Y-995680D01*
X170180D01*
Y-989512D01*
D02*
G37*
G36*
X266700Y-992318D02*
Y-996954D01*
X271336D01*
X271119Y-995867D01*
X269785Y-993869D01*
X267787Y-992534D01*
X266700Y-992318D01*
D02*
G37*
G36*
X326390Y-991874D02*
X321754D01*
X321970Y-992961D01*
X323305Y-994958D01*
X325303Y-996293D01*
X326390Y-996509D01*
Y-991874D01*
D02*
G37*
G36*
X172720Y-989512D02*
Y-995680D01*
X178888D01*
X178796Y-994982D01*
X178036Y-993148D01*
X176828Y-991572D01*
X175252Y-990364D01*
X173418Y-989604D01*
X172720Y-989512D01*
D02*
G37*
G36*
X200660Y-984254D02*
X196024D01*
X196241Y-985340D01*
X197575Y-987338D01*
X199573Y-988673D01*
X200660Y-988889D01*
Y-984254D01*
D02*
G37*
G36*
X207836D02*
X203200D01*
Y-988889D01*
X204287Y-988673D01*
X206285Y-987338D01*
X207619Y-985340D01*
X207836Y-984254D01*
D02*
G37*
G36*
X326390Y-984698D02*
X325303Y-984914D01*
X323305Y-986249D01*
X321970Y-988247D01*
X321754Y-989334D01*
X326390D01*
Y-984698D01*
D02*
G37*
G36*
X328930D02*
Y-989334D01*
X333566D01*
X333349Y-988247D01*
X332015Y-986249D01*
X330017Y-984914D01*
X328930Y-984698D01*
D02*
G37*
G36*
X340360Y-1064708D02*
X339273Y-1064924D01*
X337275Y-1066259D01*
X335941Y-1068257D01*
X335724Y-1069344D01*
X340360D01*
Y-1064708D01*
D02*
G37*
G36*
X342900D02*
Y-1069344D01*
X347536D01*
X347319Y-1068257D01*
X345985Y-1066259D01*
X343987Y-1064924D01*
X342900Y-1064708D01*
D02*
G37*
G36*
X115570Y-1069788D02*
X114483Y-1070004D01*
X112485Y-1071339D01*
X111151Y-1073337D01*
X110934Y-1074424D01*
X115570D01*
Y-1069788D01*
D02*
G37*
G36*
X118110D02*
Y-1074424D01*
X122746D01*
X122529Y-1073337D01*
X121195Y-1071339D01*
X119197Y-1070004D01*
X118110Y-1069788D01*
D02*
G37*
G36*
X170180Y-998220D02*
X164012D01*
X164104Y-998918D01*
X164864Y-1000752D01*
X166072Y-1002328D01*
X167647Y-1003536D01*
X169482Y-1004296D01*
X170180Y-1004388D01*
Y-998220D01*
D02*
G37*
G36*
X271336Y-999494D02*
X266700D01*
Y-1004129D01*
X267787Y-1003913D01*
X269785Y-1002578D01*
X271119Y-1000581D01*
X271336Y-999494D01*
D02*
G37*
G36*
X264160Y-992318D02*
X263073Y-992534D01*
X261075Y-993869D01*
X259741Y-995867D01*
X259524Y-996954D01*
X264160D01*
Y-992318D01*
D02*
G37*
G36*
X178888Y-998220D02*
X172720D01*
Y-1004388D01*
X173418Y-1004296D01*
X175252Y-1003536D01*
X176828Y-1002328D01*
X178036Y-1000752D01*
X178796Y-998918D01*
X178888Y-998220D01*
D02*
G37*
G36*
X264160Y-999494D02*
X259524D01*
X259741Y-1000581D01*
X261075Y-1002578D01*
X263073Y-1003913D01*
X264160Y-1004129D01*
Y-999494D01*
D02*
G37*
G36*
X112848Y-1131574D02*
X106680D01*
Y-1137742D01*
X107378Y-1137650D01*
X109213Y-1136890D01*
X110788Y-1135681D01*
X111996Y-1134106D01*
X112756Y-1132272D01*
X112848Y-1131574D01*
D02*
G37*
G36*
X307180Y-1186184D02*
X299410D01*
Y-1195204D01*
X307180D01*
Y-1186184D01*
D02*
G37*
G36*
X317490D02*
X309720D01*
Y-1195204D01*
X317490D01*
Y-1186184D01*
D02*
G37*
G36*
X163830Y-1193804D02*
X159194D01*
X159410Y-1194891D01*
X160745Y-1196888D01*
X162743Y-1198223D01*
X163830Y-1198439D01*
Y-1193804D01*
D02*
G37*
G36*
X171006D02*
X166370D01*
Y-1198439D01*
X167457Y-1198223D01*
X169455Y-1196888D01*
X170790Y-1194891D01*
X171006Y-1193804D01*
D02*
G37*
G36*
X163830Y-1186628D02*
X162743Y-1186844D01*
X160745Y-1188179D01*
X159410Y-1190177D01*
X159194Y-1191264D01*
X163830D01*
Y-1186628D01*
D02*
G37*
G36*
X344170Y-1169715D02*
X341551Y-1170060D01*
X339111Y-1171071D01*
X337015Y-1172679D01*
X335407Y-1174774D01*
X334396Y-1177215D01*
X334052Y-1179834D01*
X334396Y-1182453D01*
X335407Y-1184893D01*
X337015Y-1186989D01*
X339111Y-1188597D01*
X341551Y-1189608D01*
X344170Y-1189952D01*
X346789Y-1189608D01*
X349229Y-1188597D01*
X351325Y-1186989D01*
X352933Y-1184893D01*
X353944Y-1182453D01*
X354288Y-1179834D01*
X353944Y-1177215D01*
X352933Y-1174774D01*
X351325Y-1172679D01*
X349229Y-1171071D01*
X346789Y-1170060D01*
X344170Y-1169715D01*
D02*
G37*
G36*
X307180Y-1174624D02*
X299410D01*
Y-1183644D01*
X307180D01*
Y-1174624D01*
D02*
G37*
G36*
X166370Y-1186628D02*
Y-1191264D01*
X171006D01*
X170790Y-1190177D01*
X169455Y-1188179D01*
X167457Y-1186844D01*
X166370Y-1186628D01*
D02*
G37*
G36*
X16510Y-1169715D02*
X13891Y-1170060D01*
X11451Y-1171071D01*
X9355Y-1172679D01*
X7747Y-1174774D01*
X6736Y-1177215D01*
X6392Y-1179834D01*
X6736Y-1182453D01*
X7747Y-1184893D01*
X9355Y-1186989D01*
X11451Y-1188597D01*
X13891Y-1189608D01*
X16510Y-1189952D01*
X19129Y-1189608D01*
X21569Y-1188597D01*
X23665Y-1186989D01*
X25273Y-1184893D01*
X26284Y-1182453D01*
X26628Y-1179834D01*
X26284Y-1177215D01*
X25273Y-1174774D01*
X23665Y-1172679D01*
X21569Y-1171071D01*
X19129Y-1170060D01*
X16510Y-1169715D01*
D02*
G37*
G36*
X27050Y-1206504D02*
X17780D01*
Y-1215774D01*
X27050D01*
Y-1206504D01*
D02*
G37*
G36*
X342900D02*
X333630D01*
Y-1215774D01*
X342900D01*
Y-1206504D01*
D02*
G37*
G36*
X95250Y-1227268D02*
Y-1231904D01*
X99886D01*
X99670Y-1230817D01*
X98335Y-1228819D01*
X96337Y-1227484D01*
X95250Y-1227268D01*
D02*
G37*
G36*
X15240Y-1206504D02*
X5970D01*
Y-1215774D01*
X15240D01*
Y-1206504D01*
D02*
G37*
G36*
X354710D02*
X345440D01*
Y-1215774D01*
X354710D01*
Y-1206504D01*
D02*
G37*
G36*
X27050Y-1194694D02*
X17780D01*
Y-1203964D01*
X27050D01*
Y-1194694D01*
D02*
G37*
G36*
X354710D02*
X345440D01*
Y-1203964D01*
X354710D01*
Y-1194694D01*
D02*
G37*
G36*
X15240D02*
X5970D01*
Y-1203964D01*
X15240D01*
Y-1194694D01*
D02*
G37*
G36*
X342900D02*
X333630D01*
Y-1203964D01*
X342900D01*
Y-1194694D01*
D02*
G37*
G36*
X297180Y-1145988D02*
X296093Y-1146204D01*
X294095Y-1147539D01*
X292761Y-1149537D01*
X292544Y-1150624D01*
X297180D01*
Y-1145988D01*
D02*
G37*
G36*
X299720D02*
Y-1150624D01*
X304356D01*
X304139Y-1149537D01*
X302805Y-1147539D01*
X300807Y-1146204D01*
X299720Y-1145988D01*
D02*
G37*
G36*
X297180Y-1153164D02*
X292544D01*
X292761Y-1154250D01*
X294095Y-1156248D01*
X296093Y-1157583D01*
X297180Y-1157800D01*
Y-1153164D01*
D02*
G37*
G36*
X304356D02*
X299720D01*
Y-1157800D01*
X300807Y-1157583D01*
X302805Y-1156248D01*
X304139Y-1154250D01*
X304356Y-1153164D01*
D02*
G37*
G36*
X139700Y-1141734D02*
X135064D01*
X135281Y-1142821D01*
X136615Y-1144818D01*
X138613Y-1146153D01*
X139700Y-1146369D01*
Y-1141734D01*
D02*
G37*
G36*
X142240Y-1134558D02*
Y-1139194D01*
X146876D01*
X146659Y-1138107D01*
X145325Y-1136109D01*
X143327Y-1134774D01*
X142240Y-1134558D01*
D02*
G37*
G36*
X104140Y-1131574D02*
X97972D01*
X98064Y-1132272D01*
X98824Y-1134106D01*
X100032Y-1135681D01*
X101608Y-1136890D01*
X103442Y-1137650D01*
X104140Y-1137742D01*
Y-1131574D01*
D02*
G37*
G36*
X146876Y-1141734D02*
X142240D01*
Y-1146369D01*
X143327Y-1146153D01*
X145325Y-1144818D01*
X146659Y-1142821D01*
X146876Y-1141734D01*
D02*
G37*
G36*
X139700Y-1134558D02*
X138613Y-1134774D01*
X136615Y-1136109D01*
X135281Y-1138107D01*
X135064Y-1139194D01*
X139700D01*
Y-1134558D01*
D02*
G37*
G36*
X52896Y-1168404D02*
X48260D01*
Y-1173039D01*
X49347Y-1172823D01*
X51345Y-1171488D01*
X52680Y-1169491D01*
X52896Y-1168404D01*
D02*
G37*
G36*
X185420Y-1164594D02*
X179252D01*
X179344Y-1165292D01*
X180104Y-1167126D01*
X181312Y-1168701D01*
X182887Y-1169910D01*
X184722Y-1170670D01*
X185420Y-1170762D01*
Y-1164594D01*
D02*
G37*
G36*
X317490Y-1174624D02*
X309720D01*
Y-1183644D01*
X317490D01*
Y-1174624D01*
D02*
G37*
G36*
X45720Y-1168404D02*
X41084D01*
X41301Y-1169491D01*
X42635Y-1171488D01*
X44633Y-1172823D01*
X45720Y-1173039D01*
Y-1168404D01*
D02*
G37*
G36*
X194128Y-1164594D02*
X187960D01*
Y-1170762D01*
X188658Y-1170670D01*
X190492Y-1169910D01*
X192068Y-1168701D01*
X193276Y-1167126D01*
X194036Y-1165292D01*
X194128Y-1164594D01*
D02*
G37*
G36*
X185420Y-1155886D02*
X184722Y-1155978D01*
X182887Y-1156738D01*
X181312Y-1157946D01*
X180104Y-1159521D01*
X179344Y-1161356D01*
X179252Y-1162054D01*
X185420D01*
Y-1155886D01*
D02*
G37*
G36*
X187960D02*
Y-1162054D01*
X194128D01*
X194036Y-1161356D01*
X193276Y-1159521D01*
X192068Y-1157946D01*
X190492Y-1156738D01*
X188658Y-1155978D01*
X187960Y-1155886D01*
D02*
G37*
G36*
X45720Y-1161228D02*
X44633Y-1161444D01*
X42635Y-1162779D01*
X41301Y-1164777D01*
X41084Y-1165864D01*
X45720D01*
Y-1161228D01*
D02*
G37*
G36*
X48260D02*
Y-1165864D01*
X52896D01*
X52680Y-1164777D01*
X51345Y-1162779D01*
X49347Y-1161444D01*
X48260Y-1161228D01*
D02*
G37*
G36*
X125730Y-1499048D02*
X124643Y-1499264D01*
X122645Y-1500599D01*
X121311Y-1502597D01*
X121094Y-1503684D01*
X125730D01*
Y-1499048D01*
D02*
G37*
G36*
X297180Y-1883596D02*
Y-1889764D01*
X303348D01*
X303256Y-1889066D01*
X302496Y-1887231D01*
X301288Y-1885656D01*
X299713Y-1884448D01*
X297878Y-1883688D01*
X297180Y-1883596D01*
D02*
G37*
G36*
X66040Y-1879786D02*
X65342Y-1879878D01*
X63507Y-1880638D01*
X61932Y-1881846D01*
X60724Y-1883421D01*
X59964Y-1885255D01*
X59872Y-1885954D01*
X66040D01*
Y-1879786D01*
D02*
G37*
G36*
X74748Y-1888494D02*
X68580D01*
Y-1894662D01*
X69278Y-1894570D01*
X71112Y-1893810D01*
X72688Y-1892601D01*
X73896Y-1891026D01*
X74656Y-1889192D01*
X74748Y-1888494D01*
D02*
G37*
G36*
X294640Y-1883596D02*
X293942Y-1883688D01*
X292108Y-1884448D01*
X290532Y-1885656D01*
X289324Y-1887231D01*
X288564Y-1889066D01*
X288472Y-1889764D01*
X294640D01*
Y-1883596D01*
D02*
G37*
G36*
X68580Y-1879786D02*
Y-1885954D01*
X74748D01*
X74656Y-1885255D01*
X73896Y-1883421D01*
X72688Y-1881846D01*
X71112Y-1880638D01*
X69278Y-1879878D01*
X68580Y-1879786D01*
D02*
G37*
G36*
X177800Y-1867348D02*
X176713Y-1867564D01*
X174715Y-1868899D01*
X173381Y-1870897D01*
X173164Y-1871984D01*
X177800D01*
Y-1867348D01*
D02*
G37*
G36*
X180340D02*
Y-1871984D01*
X184976D01*
X184760Y-1870897D01*
X183425Y-1868899D01*
X181427Y-1867564D01*
X180340Y-1867348D01*
D02*
G37*
G36*
X177800Y-1874524D02*
X173164D01*
X173381Y-1875611D01*
X174715Y-1877608D01*
X176713Y-1878943D01*
X177800Y-1879160D01*
Y-1874524D01*
D02*
G37*
G36*
X184976D02*
X180340D01*
Y-1879160D01*
X181427Y-1878943D01*
X183425Y-1877608D01*
X184760Y-1875611D01*
X184976Y-1874524D01*
D02*
G37*
G36*
X294640Y-1892304D02*
X288472D01*
X288564Y-1893002D01*
X289324Y-1894836D01*
X290532Y-1896411D01*
X292108Y-1897620D01*
X293942Y-1898380D01*
X294640Y-1898472D01*
Y-1892304D01*
D02*
G37*
G36*
X303348D02*
X297180D01*
Y-1898472D01*
X297878Y-1898380D01*
X299713Y-1897620D01*
X301288Y-1896411D01*
X302496Y-1894836D01*
X303256Y-1893002D01*
X303348Y-1892304D01*
D02*
G37*
G36*
X332740Y-1900304D02*
X323470D01*
Y-1909574D01*
X332740D01*
Y-1900304D01*
D02*
G37*
G36*
X344550D02*
X335280D01*
Y-1909574D01*
X344550D01*
Y-1900304D01*
D02*
G37*
G36*
X15240Y-1888494D02*
X5970D01*
Y-1897764D01*
X15240D01*
Y-1888494D01*
D02*
G37*
G36*
X344550D02*
X335280D01*
Y-1897764D01*
X344550D01*
Y-1888494D01*
D02*
G37*
G36*
X66040D02*
X59872D01*
X59964Y-1889192D01*
X60724Y-1891026D01*
X61932Y-1892601D01*
X63507Y-1893810D01*
X65342Y-1894570D01*
X66040Y-1894662D01*
Y-1888494D01*
D02*
G37*
G36*
X332740D02*
X323470D01*
Y-1897764D01*
X332740D01*
Y-1888494D01*
D02*
G37*
G36*
X27050D02*
X17780D01*
Y-1897764D01*
X27050D01*
Y-1888494D01*
D02*
G37*
G36*
X15240Y-1755025D02*
X12621Y-1755370D01*
X10181Y-1756381D01*
X8085Y-1757989D01*
X6477Y-1760085D01*
X5466Y-1762525D01*
X5121Y-1765144D01*
X5466Y-1767763D01*
X6477Y-1770203D01*
X8085Y-1772299D01*
X10181Y-1773907D01*
X12621Y-1774918D01*
X15240Y-1775262D01*
X17859Y-1774918D01*
X20299Y-1773907D01*
X22395Y-1772299D01*
X24003Y-1770203D01*
X25014Y-1767763D01*
X25359Y-1765144D01*
X25014Y-1762525D01*
X24003Y-1760085D01*
X22395Y-1757989D01*
X20299Y-1756381D01*
X17859Y-1755370D01*
X15240Y-1755025D01*
D02*
G37*
G36*
X339090Y-1753915D02*
X336471Y-1754260D01*
X334031Y-1755271D01*
X331935Y-1756879D01*
X330327Y-1758974D01*
X329316Y-1761415D01*
X328971Y-1764034D01*
X329316Y-1766653D01*
X330327Y-1769093D01*
X331935Y-1771189D01*
X334031Y-1772797D01*
X336471Y-1773808D01*
X339090Y-1774152D01*
X341709Y-1773808D01*
X344149Y-1772797D01*
X346245Y-1771189D01*
X347853Y-1769093D01*
X348864Y-1766653D01*
X349208Y-1764034D01*
X348864Y-1761415D01*
X347853Y-1758974D01*
X346245Y-1756879D01*
X344149Y-1755271D01*
X341709Y-1754260D01*
X339090Y-1753915D01*
D02*
G37*
G36*
X111176Y-1775464D02*
X106540D01*
Y-1780099D01*
X107627Y-1779883D01*
X109625Y-1778548D01*
X110960Y-1776550D01*
X111176Y-1775464D01*
D02*
G37*
G36*
X91440Y-1771574D02*
X86804D01*
X87021Y-1772661D01*
X88355Y-1774658D01*
X90353Y-1775993D01*
X91440Y-1776210D01*
Y-1771574D01*
D02*
G37*
G36*
X224630Y-1769114D02*
X219994D01*
X220210Y-1770201D01*
X221545Y-1772198D01*
X223543Y-1773533D01*
X224630Y-1773750D01*
Y-1769114D01*
D02*
G37*
G36*
X91440Y-1764398D02*
X90353Y-1764614D01*
X88355Y-1765949D01*
X87021Y-1767947D01*
X86804Y-1769034D01*
X91440D01*
Y-1764398D01*
D02*
G37*
G36*
X266700Y-1762764D02*
X260532D01*
X260624Y-1763462D01*
X261384Y-1765296D01*
X262592Y-1766871D01*
X264167Y-1768080D01*
X266002Y-1768840D01*
X266700Y-1768932D01*
Y-1762764D01*
D02*
G37*
G36*
X106540Y-1768288D02*
Y-1772924D01*
X111176D01*
X110960Y-1771837D01*
X109625Y-1769839D01*
X107627Y-1768504D01*
X106540Y-1768288D01*
D02*
G37*
G36*
X242126Y-1767844D02*
X237490D01*
Y-1772480D01*
X238577Y-1772263D01*
X240575Y-1770928D01*
X241910Y-1768931D01*
X242126Y-1767844D01*
D02*
G37*
G36*
X116840Y-1843218D02*
X115753Y-1843434D01*
X113755Y-1844769D01*
X112421Y-1846767D01*
X112204Y-1847854D01*
X116840D01*
Y-1843218D01*
D02*
G37*
G36*
X119380D02*
Y-1847854D01*
X124016D01*
X123799Y-1846767D01*
X122465Y-1844769D01*
X120467Y-1843434D01*
X119380Y-1843218D01*
D02*
G37*
G36*
X116840Y-1850394D02*
X112204D01*
X112421Y-1851481D01*
X113755Y-1853478D01*
X115753Y-1854813D01*
X116840Y-1855029D01*
Y-1850394D01*
D02*
G37*
G36*
X124016D02*
X119380D01*
Y-1855029D01*
X120467Y-1854813D01*
X122465Y-1853478D01*
X123799Y-1851481D01*
X124016Y-1850394D01*
D02*
G37*
G36*
X330708Y-1802388D02*
X326072D01*
X326288Y-1803474D01*
X327623Y-1805472D01*
X329621Y-1806807D01*
X330708Y-1807023D01*
Y-1802388D01*
D02*
G37*
G36*
X333248Y-1795212D02*
Y-1799848D01*
X337884D01*
X337668Y-1798761D01*
X336333Y-1796763D01*
X334335Y-1795428D01*
X333248Y-1795212D01*
D02*
G37*
G36*
X93980Y-1764398D02*
Y-1770304D01*
Y-1776210D01*
X95067Y-1775993D01*
X97065Y-1774658D01*
X98004Y-1773252D01*
X99200Y-1773748D01*
X99112Y-1774194D01*
X99580Y-1776550D01*
X100915Y-1778548D01*
X102913Y-1779883D01*
X104000Y-1780099D01*
Y-1774194D01*
Y-1768288D01*
X102913Y-1768504D01*
X100915Y-1769839D01*
X99976Y-1771245D01*
X98780Y-1770750D01*
X98868Y-1770304D01*
X98399Y-1767947D01*
X97065Y-1765949D01*
X95067Y-1764614D01*
X93980Y-1764398D01*
D02*
G37*
G36*
X337884Y-1802388D02*
X333248D01*
Y-1807023D01*
X334335Y-1806807D01*
X336333Y-1805472D01*
X337668Y-1803474D01*
X337884Y-1802388D01*
D02*
G37*
G36*
X330708Y-1795212D02*
X329621Y-1795428D01*
X327623Y-1796763D01*
X326288Y-1798761D01*
X326072Y-1799848D01*
X330708D01*
Y-1795212D01*
D02*
G37*
G36*
X27050Y-1900304D02*
X17780D01*
Y-1909574D01*
X27050D01*
Y-1900304D01*
D02*
G37*
G36*
X182390Y-1946088D02*
X181303Y-1946304D01*
X179305Y-1947639D01*
X177970Y-1949637D01*
X177754Y-1950724D01*
X182390D01*
Y-1946088D01*
D02*
G37*
G36*
X184930D02*
Y-1950724D01*
X189566D01*
X189349Y-1949637D01*
X188015Y-1947639D01*
X186017Y-1946304D01*
X184930Y-1946088D01*
D02*
G37*
G36*
X59690Y-1948184D02*
X55054D01*
X55271Y-1949270D01*
X56605Y-1951268D01*
X58603Y-1952603D01*
X59690Y-1952820D01*
Y-1948184D01*
D02*
G37*
G36*
X66866D02*
X62230D01*
Y-1952820D01*
X63317Y-1952603D01*
X65315Y-1951268D01*
X66649Y-1949270D01*
X66866Y-1948184D01*
D02*
G37*
G36*
X125730Y-1942278D02*
X124643Y-1942494D01*
X122645Y-1943829D01*
X121311Y-1945827D01*
X121094Y-1946914D01*
X125730D01*
Y-1942278D01*
D02*
G37*
G36*
X62230Y-1941008D02*
Y-1945644D01*
X66866D01*
X66649Y-1944557D01*
X65315Y-1942559D01*
X63317Y-1941224D01*
X62230Y-1941008D01*
D02*
G37*
G36*
X220980Y-1940564D02*
X216344D01*
X216560Y-1941651D01*
X217895Y-1943648D01*
X219893Y-1944983D01*
X220980Y-1945199D01*
Y-1940564D01*
D02*
G37*
G36*
X128270Y-1942278D02*
Y-1946914D01*
X132906D01*
X132690Y-1945827D01*
X131355Y-1943829D01*
X129357Y-1942494D01*
X128270Y-1942278D01*
D02*
G37*
G36*
X59690Y-1941008D02*
X58603Y-1941224D01*
X56605Y-1942559D01*
X55271Y-1944557D01*
X55054Y-1945644D01*
X59690D01*
Y-1941008D01*
D02*
G37*
G36*
X31978Y-1940347D02*
X28144Y-1940725D01*
X24457Y-1941843D01*
X21060Y-1943659D01*
X18082Y-1946104D01*
X15637Y-1949082D01*
X13821Y-1952479D01*
X12703Y-1956166D01*
X12325Y-1960000D01*
X12703Y-1963834D01*
X13821Y-1967521D01*
X15637Y-1970918D01*
X18082Y-1973896D01*
X21060Y-1976341D01*
X24457Y-1978157D01*
X28144Y-1979275D01*
X31978Y-1979653D01*
X35812Y-1979275D01*
X39499Y-1978157D01*
X42896Y-1976341D01*
X45875Y-1973896D01*
X48319Y-1970918D01*
X50135Y-1967521D01*
X51253Y-1963834D01*
X51631Y-1960000D01*
X51253Y-1956166D01*
X50135Y-1952479D01*
X48319Y-1949082D01*
X45875Y-1946104D01*
X42896Y-1943659D01*
X39499Y-1941843D01*
X35812Y-1940725D01*
X31978Y-1940347D01*
D02*
G37*
G36*
X330708Y-1939962D02*
X328044Y-1940224D01*
X324262Y-1941372D01*
X320776Y-1943235D01*
X317721Y-1945742D01*
X315213Y-1948798D01*
X313350Y-1952284D01*
X312202Y-1956066D01*
X311940Y-1958730D01*
X330708D01*
Y-1939962D01*
D02*
G37*
G36*
Y-1961270D02*
X311940D01*
X312202Y-1963934D01*
X313350Y-1967716D01*
X315213Y-1971202D01*
X317721Y-1974257D01*
X320776Y-1976765D01*
X324262Y-1978628D01*
X328044Y-1979776D01*
X330708Y-1980038D01*
Y-1961270D01*
D02*
G37*
G36*
X352016D02*
X333248D01*
Y-1980038D01*
X335912Y-1979776D01*
X339694Y-1978628D01*
X343180Y-1976765D01*
X346236Y-1974257D01*
X348743Y-1971202D01*
X350606Y-1967716D01*
X351754Y-1963934D01*
X352016Y-1961270D01*
D02*
G37*
G36*
X333248Y-1939962D02*
Y-1958730D01*
X352016D01*
X351754Y-1956066D01*
X350606Y-1952284D01*
X348743Y-1948798D01*
X346236Y-1945742D01*
X343180Y-1943235D01*
X339694Y-1941372D01*
X335912Y-1940224D01*
X333248Y-1939962D01*
D02*
G37*
G36*
X125730Y-1949454D02*
X121094D01*
X121311Y-1950540D01*
X122645Y-1952538D01*
X124643Y-1953873D01*
X125730Y-1954090D01*
Y-1949454D01*
D02*
G37*
G36*
X132906D02*
X128270D01*
Y-1954090D01*
X129357Y-1953873D01*
X131355Y-1952538D01*
X132690Y-1950540D01*
X132906Y-1949454D01*
D02*
G37*
G36*
X182390Y-1953264D02*
X177754D01*
X177970Y-1954350D01*
X179305Y-1956348D01*
X181303Y-1957683D01*
X182390Y-1957899D01*
Y-1953264D01*
D02*
G37*
G36*
X189566D02*
X184930D01*
Y-1957899D01*
X186017Y-1957683D01*
X188015Y-1956348D01*
X189349Y-1954350D01*
X189566Y-1953264D01*
D02*
G37*
G36*
X144780Y-1915608D02*
X143693Y-1915824D01*
X141695Y-1917159D01*
X140360Y-1919157D01*
X140144Y-1920244D01*
X144780D01*
Y-1915608D01*
D02*
G37*
G36*
X147320D02*
Y-1920244D01*
X151956D01*
X151740Y-1919157D01*
X150405Y-1917159D01*
X148407Y-1915824D01*
X147320Y-1915608D01*
D02*
G37*
G36*
X144780Y-1922784D02*
X140144D01*
X140360Y-1923871D01*
X141695Y-1925868D01*
X143693Y-1927203D01*
X144780Y-1927419D01*
Y-1922784D01*
D02*
G37*
G36*
X151956D02*
X147320D01*
Y-1927419D01*
X148407Y-1927203D01*
X150405Y-1925868D01*
X151740Y-1923871D01*
X151956Y-1922784D01*
D02*
G37*
G36*
X270510Y-1914054D02*
X265874D01*
X266091Y-1915141D01*
X267425Y-1917138D01*
X269423Y-1918473D01*
X270510Y-1918690D01*
Y-1914054D01*
D02*
G37*
G36*
X273050Y-1906878D02*
Y-1911514D01*
X277686D01*
X277470Y-1910427D01*
X276135Y-1908429D01*
X274137Y-1907094D01*
X273050Y-1906878D01*
D02*
G37*
G36*
X15240Y-1900304D02*
X5970D01*
Y-1909574D01*
X15240D01*
Y-1900304D01*
D02*
G37*
G36*
X277686Y-1914054D02*
X273050D01*
Y-1918690D01*
X274137Y-1918473D01*
X276135Y-1917138D01*
X277470Y-1915141D01*
X277686Y-1914054D01*
D02*
G37*
G36*
X270510Y-1906878D02*
X269423Y-1907094D01*
X267425Y-1908429D01*
X266091Y-1910427D01*
X265874Y-1911514D01*
X270510D01*
Y-1906878D01*
D02*
G37*
G36*
X103696Y-1938024D02*
X99060D01*
Y-1942659D01*
X100147Y-1942443D01*
X102145Y-1941108D01*
X103479Y-1939111D01*
X103696Y-1938024D01*
D02*
G37*
G36*
X220980Y-1933388D02*
X219893Y-1933604D01*
X217895Y-1934939D01*
X216560Y-1936937D01*
X216344Y-1938024D01*
X220980D01*
Y-1933388D01*
D02*
G37*
G36*
X228156Y-1940564D02*
X223520D01*
Y-1945199D01*
X224607Y-1944983D01*
X226605Y-1943648D01*
X227939Y-1941651D01*
X228156Y-1940564D01*
D02*
G37*
G36*
X96520Y-1938024D02*
X91884D01*
X92100Y-1939111D01*
X93435Y-1941108D01*
X95433Y-1942443D01*
X96520Y-1942659D01*
Y-1938024D01*
D02*
G37*
G36*
X223520Y-1933388D02*
Y-1938024D01*
X228156D01*
X227939Y-1936937D01*
X226605Y-1934939D01*
X224607Y-1933604D01*
X223520Y-1933388D01*
D02*
G37*
G36*
X16510Y-1914315D02*
X13891Y-1914660D01*
X11451Y-1915671D01*
X9355Y-1917279D01*
X7747Y-1919375D01*
X6736Y-1921815D01*
X6392Y-1924434D01*
X6736Y-1927053D01*
X7747Y-1929493D01*
X9355Y-1931589D01*
X11451Y-1933197D01*
X13891Y-1934208D01*
X16510Y-1934552D01*
X19129Y-1934208D01*
X21569Y-1933197D01*
X23665Y-1931589D01*
X25273Y-1929493D01*
X26284Y-1927053D01*
X26628Y-1924434D01*
X26284Y-1921815D01*
X25273Y-1919375D01*
X23665Y-1917279D01*
X21569Y-1915671D01*
X19129Y-1914660D01*
X16510Y-1914315D01*
D02*
G37*
G36*
X334010D02*
X331391Y-1914660D01*
X328951Y-1915671D01*
X326855Y-1917279D01*
X325247Y-1919375D01*
X324236Y-1921815D01*
X323891Y-1924434D01*
X324236Y-1927053D01*
X325247Y-1929493D01*
X326855Y-1931589D01*
X328951Y-1933197D01*
X331391Y-1934208D01*
X334010Y-1934552D01*
X336629Y-1934208D01*
X339069Y-1933197D01*
X341165Y-1931589D01*
X342773Y-1929493D01*
X343784Y-1927053D01*
X344128Y-1924434D01*
X343784Y-1921815D01*
X342773Y-1919375D01*
X341165Y-1917279D01*
X339069Y-1915671D01*
X336629Y-1914660D01*
X334010Y-1914315D01*
D02*
G37*
G36*
X96520Y-1930848D02*
X95433Y-1931064D01*
X93435Y-1932399D01*
X92100Y-1934397D01*
X91884Y-1935484D01*
X96520D01*
Y-1930848D01*
D02*
G37*
G36*
X99060D02*
Y-1935484D01*
X103696D01*
X103479Y-1934397D01*
X102145Y-1932399D01*
X100147Y-1931064D01*
X99060Y-1930848D01*
D02*
G37*
G36*
X275408Y-1762764D02*
X269240D01*
Y-1768932D01*
X269938Y-1768840D01*
X271772Y-1768080D01*
X273348Y-1766871D01*
X274556Y-1765296D01*
X275316Y-1763462D01*
X275408Y-1762764D01*
D02*
G37*
G36*
X15240Y-1582044D02*
X5970D01*
Y-1591314D01*
X15240D01*
Y-1582044D01*
D02*
G37*
G36*
X101600Y-1586678D02*
X100513Y-1586894D01*
X98515Y-1588229D01*
X97181Y-1590227D01*
X96964Y-1591314D01*
X101600D01*
Y-1586678D01*
D02*
G37*
G36*
X299720Y-1590488D02*
X298633Y-1590704D01*
X296635Y-1592039D01*
X295301Y-1594037D01*
X295084Y-1595124D01*
X299720D01*
Y-1590488D01*
D02*
G37*
G36*
X302260D02*
Y-1595124D01*
X306896D01*
X306679Y-1594037D01*
X305345Y-1592039D01*
X303347Y-1590704D01*
X302260Y-1590488D01*
D02*
G37*
G36*
X104140Y-1586678D02*
Y-1591314D01*
X108776D01*
X108560Y-1590227D01*
X107225Y-1588229D01*
X105227Y-1586894D01*
X104140Y-1586678D01*
D02*
G37*
G36*
X27050Y-1582044D02*
X17780D01*
Y-1591314D01*
X27050D01*
Y-1582044D01*
D02*
G37*
G36*
X151130Y-1574804D02*
X146494D01*
X146711Y-1575891D01*
X148045Y-1577888D01*
X150043Y-1579223D01*
X151130Y-1579440D01*
Y-1574804D01*
D02*
G37*
G36*
X226060Y-1586678D02*
X224973Y-1586894D01*
X222975Y-1588229D01*
X221640Y-1590227D01*
X221424Y-1591314D01*
X226060D01*
Y-1586678D01*
D02*
G37*
G36*
X228600D02*
Y-1591314D01*
X233236D01*
X233020Y-1590227D01*
X231685Y-1588229D01*
X229687Y-1586894D01*
X228600Y-1586678D01*
D02*
G37*
G36*
X306896Y-1597664D02*
X302260D01*
Y-1602299D01*
X303347Y-1602083D01*
X305345Y-1600748D01*
X306679Y-1598750D01*
X306896Y-1597664D01*
D02*
G37*
G36*
X175310Y-1595302D02*
X174612Y-1595394D01*
X172778Y-1596154D01*
X171202Y-1597362D01*
X169994Y-1598938D01*
X169234Y-1600772D01*
X169142Y-1601470D01*
X175310D01*
Y-1595302D01*
D02*
G37*
G36*
X346710Y-1582465D02*
X344091Y-1582810D01*
X341651Y-1583821D01*
X339555Y-1585429D01*
X337947Y-1587525D01*
X336936Y-1589965D01*
X336591Y-1592584D01*
X336936Y-1595203D01*
X337947Y-1597643D01*
X339555Y-1599739D01*
X341651Y-1601347D01*
X344091Y-1602358D01*
X346710Y-1602702D01*
X349329Y-1602358D01*
X351769Y-1601347D01*
X353865Y-1599739D01*
X355473Y-1597643D01*
X356484Y-1595203D01*
X356828Y-1592584D01*
X356484Y-1589965D01*
X355473Y-1587525D01*
X353865Y-1585429D01*
X351769Y-1583821D01*
X349329Y-1582810D01*
X346710Y-1582465D01*
D02*
G37*
G36*
X299720Y-1597664D02*
X295084D01*
X295301Y-1598750D01*
X296635Y-1600748D01*
X298633Y-1602083D01*
X299720Y-1602299D01*
Y-1597664D01*
D02*
G37*
G36*
X177850Y-1595302D02*
Y-1601470D01*
X184018D01*
X183926Y-1600772D01*
X183166Y-1598938D01*
X181958Y-1597362D01*
X180382Y-1596154D01*
X178548Y-1595394D01*
X177850Y-1595302D01*
D02*
G37*
G36*
X226060Y-1593854D02*
X221424D01*
X221640Y-1594940D01*
X222975Y-1596938D01*
X224973Y-1598273D01*
X226060Y-1598490D01*
Y-1593854D01*
D02*
G37*
G36*
X233236D02*
X228600D01*
Y-1598490D01*
X229687Y-1598273D01*
X231685Y-1596938D01*
X233020Y-1594940D01*
X233236Y-1593854D01*
D02*
G37*
G36*
X101600D02*
X96964D01*
X97181Y-1594940D01*
X98515Y-1596938D01*
X100513Y-1598273D01*
X101600Y-1598490D01*
Y-1593854D01*
D02*
G37*
G36*
X108776D02*
X104140D01*
Y-1598490D01*
X105227Y-1598273D01*
X107225Y-1596938D01*
X108560Y-1594940D01*
X108776Y-1593854D01*
D02*
G37*
G36*
X302260Y-1539426D02*
Y-1545594D01*
X308428D01*
X308336Y-1544895D01*
X307576Y-1543061D01*
X306368Y-1541486D01*
X304792Y-1540278D01*
X302958Y-1539518D01*
X302260Y-1539426D01*
D02*
G37*
G36*
X204470Y-1534164D02*
X198302D01*
X198394Y-1534862D01*
X199154Y-1536696D01*
X200362Y-1538271D01*
X201938Y-1539480D01*
X203772Y-1540240D01*
X204470Y-1540332D01*
Y-1534164D01*
D02*
G37*
G36*
X308428Y-1548134D02*
X302260D01*
Y-1554302D01*
X302958Y-1554210D01*
X304792Y-1553450D01*
X306368Y-1552241D01*
X307576Y-1550666D01*
X308336Y-1548832D01*
X308428Y-1548134D01*
D02*
G37*
G36*
X299720Y-1539426D02*
X299022Y-1539518D01*
X297188Y-1540278D01*
X295612Y-1541486D01*
X294404Y-1543061D01*
X293644Y-1544895D01*
X293552Y-1545594D01*
X299720D01*
Y-1539426D01*
D02*
G37*
G36*
X213178Y-1534164D02*
X207010D01*
Y-1540332D01*
X207708Y-1540240D01*
X209543Y-1539480D01*
X211118Y-1538271D01*
X212326Y-1536696D01*
X213086Y-1534862D01*
X213178Y-1534164D01*
D02*
G37*
G36*
X125730Y-1506224D02*
X121094D01*
X121311Y-1507310D01*
X122645Y-1509308D01*
X124643Y-1510643D01*
X125730Y-1510860D01*
Y-1506224D01*
D02*
G37*
G36*
X132906D02*
X128270D01*
Y-1510860D01*
X129357Y-1510643D01*
X131355Y-1509308D01*
X132690Y-1507310D01*
X132906Y-1506224D01*
D02*
G37*
G36*
X204470Y-1525456D02*
X203772Y-1525548D01*
X201938Y-1526308D01*
X200362Y-1527516D01*
X199154Y-1529091D01*
X198394Y-1530925D01*
X198302Y-1531624D01*
X204470D01*
Y-1525456D01*
D02*
G37*
G36*
X207010D02*
Y-1531624D01*
X213178D01*
X213086Y-1530925D01*
X212326Y-1529091D01*
X211118Y-1527516D01*
X209543Y-1526308D01*
X207708Y-1525548D01*
X207010Y-1525456D01*
D02*
G37*
G36*
X357250Y-1568454D02*
X347980D01*
Y-1577724D01*
X357250D01*
Y-1568454D01*
D02*
G37*
G36*
X16510Y-1557065D02*
X13891Y-1557410D01*
X11451Y-1558421D01*
X9355Y-1560029D01*
X7747Y-1562124D01*
X6736Y-1564565D01*
X6392Y-1567184D01*
X6736Y-1569803D01*
X7747Y-1572243D01*
X9355Y-1574339D01*
X11451Y-1575947D01*
X13891Y-1576958D01*
X16510Y-1577302D01*
X19129Y-1576958D01*
X21569Y-1575947D01*
X23665Y-1574339D01*
X25273Y-1572243D01*
X26284Y-1569803D01*
X26628Y-1567184D01*
X26284Y-1564565D01*
X25273Y-1562124D01*
X23665Y-1560029D01*
X21569Y-1558421D01*
X19129Y-1557410D01*
X16510Y-1557065D01*
D02*
G37*
G36*
X158306Y-1574804D02*
X153670D01*
Y-1579440D01*
X154757Y-1579223D01*
X156755Y-1577888D01*
X158090Y-1575891D01*
X158306Y-1574804D01*
D02*
G37*
G36*
X345440Y-1568454D02*
X336170D01*
Y-1577724D01*
X345440D01*
Y-1568454D01*
D02*
G37*
G36*
X151130Y-1567628D02*
X150043Y-1567844D01*
X148045Y-1569179D01*
X146711Y-1571177D01*
X146494Y-1572264D01*
X151130D01*
Y-1567628D01*
D02*
G37*
G36*
X357250Y-1556644D02*
X347980D01*
Y-1565914D01*
X357250D01*
Y-1556644D01*
D02*
G37*
G36*
X299720Y-1548134D02*
X293552D01*
X293644Y-1548832D01*
X294404Y-1550666D01*
X295612Y-1552241D01*
X297188Y-1553450D01*
X299022Y-1554210D01*
X299720Y-1554302D01*
Y-1548134D01*
D02*
G37*
G36*
X153670Y-1567628D02*
Y-1572264D01*
X158306D01*
X158090Y-1571177D01*
X156755Y-1569179D01*
X154757Y-1567844D01*
X153670Y-1567628D01*
D02*
G37*
G36*
X345440Y-1556644D02*
X336170D01*
Y-1565914D01*
X345440D01*
Y-1556644D01*
D02*
G37*
G36*
X27050Y-1593854D02*
X17780D01*
Y-1603124D01*
X27050D01*
Y-1593854D01*
D02*
G37*
G36*
X337820Y-1739904D02*
X328550D01*
Y-1749174D01*
X337820D01*
Y-1739904D01*
D02*
G37*
G36*
X349630D02*
X340360D01*
Y-1749174D01*
X349630D01*
Y-1739904D01*
D02*
G37*
G36*
X130810Y-1745428D02*
X129723Y-1745644D01*
X127725Y-1746979D01*
X126390Y-1748977D01*
X126174Y-1750064D01*
X130810D01*
Y-1745428D01*
D02*
G37*
G36*
X133350D02*
Y-1750064D01*
X137986D01*
X137769Y-1748977D01*
X136435Y-1746979D01*
X134437Y-1745644D01*
X133350Y-1745428D01*
D02*
G37*
G36*
X13970Y-1729204D02*
X4700D01*
Y-1738474D01*
X13970D01*
Y-1729204D01*
D02*
G37*
G36*
X349630Y-1728094D02*
X340360D01*
Y-1737364D01*
X349630D01*
Y-1728094D01*
D02*
G37*
G36*
X284480Y-1722124D02*
X279844D01*
X280061Y-1723210D01*
X281395Y-1725208D01*
X283393Y-1726543D01*
X284480Y-1726759D01*
Y-1722124D01*
D02*
G37*
G36*
X25780Y-1729204D02*
X16510D01*
Y-1738474D01*
X25780D01*
Y-1729204D01*
D02*
G37*
G36*
X337820Y-1728094D02*
X328550D01*
Y-1737364D01*
X337820D01*
Y-1728094D01*
D02*
G37*
G36*
X234950Y-1760668D02*
X233863Y-1760884D01*
X231865Y-1762219D01*
X231341Y-1763004D01*
X229871Y-1763233D01*
X228257Y-1762154D01*
X227170Y-1761938D01*
Y-1767844D01*
Y-1773750D01*
X228257Y-1773533D01*
X230255Y-1772198D01*
X230779Y-1771414D01*
X232249Y-1771184D01*
X233863Y-1772263D01*
X234950Y-1772480D01*
Y-1766574D01*
Y-1760668D01*
D02*
G37*
G36*
X266700Y-1754056D02*
X266002Y-1754148D01*
X264167Y-1754908D01*
X262592Y-1756116D01*
X261384Y-1757691D01*
X260624Y-1759525D01*
X260532Y-1760224D01*
X266700D01*
Y-1754056D01*
D02*
G37*
G36*
X224630Y-1761938D02*
X223543Y-1762154D01*
X221545Y-1763489D01*
X220210Y-1765487D01*
X219994Y-1766574D01*
X224630D01*
Y-1761938D01*
D02*
G37*
G36*
X237490Y-1760668D02*
Y-1765304D01*
X242126D01*
X241910Y-1764217D01*
X240575Y-1762219D01*
X238577Y-1760884D01*
X237490Y-1760668D01*
D02*
G37*
G36*
X269240Y-1754056D02*
Y-1760224D01*
X275408D01*
X275316Y-1759525D01*
X274556Y-1757691D01*
X273348Y-1756116D01*
X271772Y-1754908D01*
X269938Y-1754148D01*
X269240Y-1754056D01*
D02*
G37*
G36*
X13970Y-1741014D02*
X4700D01*
Y-1750284D01*
X13970D01*
Y-1741014D01*
D02*
G37*
G36*
X25780D02*
X16510D01*
Y-1750284D01*
X25780D01*
Y-1741014D01*
D02*
G37*
G36*
X130810Y-1752604D02*
X126174D01*
X126390Y-1753690D01*
X127725Y-1755688D01*
X129723Y-1757023D01*
X130810Y-1757240D01*
Y-1752604D01*
D02*
G37*
G36*
X137986D02*
X133350D01*
Y-1757240D01*
X134437Y-1757023D01*
X136435Y-1755688D01*
X137769Y-1753690D01*
X137986Y-1752604D01*
D02*
G37*
G36*
X328676Y-1627128D02*
X324040D01*
X324257Y-1628215D01*
X325591Y-1630212D01*
X327589Y-1631547D01*
X328676Y-1631763D01*
Y-1627128D01*
D02*
G37*
G36*
X335852D02*
X331216D01*
Y-1631763D01*
X332303Y-1631547D01*
X334301Y-1630212D01*
X335635Y-1628215D01*
X335852Y-1627128D01*
D02*
G37*
G36*
X118110Y-1667958D02*
X117023Y-1668174D01*
X115025Y-1669509D01*
X113691Y-1671507D01*
X113474Y-1672594D01*
X118110D01*
Y-1667958D01*
D02*
G37*
G36*
X120650D02*
Y-1672594D01*
X125286D01*
X125070Y-1671507D01*
X123735Y-1669509D01*
X121737Y-1668174D01*
X120650Y-1667958D01*
D02*
G37*
G36*
X328676Y-1619952D02*
X327589Y-1620168D01*
X325591Y-1621503D01*
X324257Y-1623501D01*
X324040Y-1624588D01*
X328676D01*
Y-1619952D01*
D02*
G37*
G36*
X184018Y-1604010D02*
X177850D01*
Y-1610178D01*
X178548Y-1610086D01*
X180382Y-1609326D01*
X181958Y-1608118D01*
X183166Y-1606543D01*
X183926Y-1604708D01*
X184018Y-1604010D01*
D02*
G37*
G36*
X15240Y-1593854D02*
X5970D01*
Y-1603124D01*
X15240D01*
Y-1593854D01*
D02*
G37*
G36*
X331216Y-1619952D02*
Y-1624588D01*
X335852D01*
X335635Y-1623501D01*
X334301Y-1621503D01*
X332303Y-1620168D01*
X331216Y-1619952D01*
D02*
G37*
G36*
X175310Y-1604010D02*
X169142D01*
X169234Y-1604708D01*
X169994Y-1606543D01*
X171202Y-1608118D01*
X172778Y-1609326D01*
X174612Y-1610086D01*
X175310Y-1610178D01*
Y-1604010D01*
D02*
G37*
G36*
X287020Y-1714948D02*
Y-1719584D01*
X291656D01*
X291439Y-1718497D01*
X290105Y-1716499D01*
X288107Y-1715164D01*
X287020Y-1714948D01*
D02*
G37*
G36*
X191770Y-1711964D02*
X185602D01*
X185694Y-1712662D01*
X186454Y-1714496D01*
X187662Y-1716071D01*
X189237Y-1717280D01*
X191072Y-1718040D01*
X191770Y-1718132D01*
Y-1711964D01*
D02*
G37*
G36*
X291656Y-1722124D02*
X287020D01*
Y-1726759D01*
X288107Y-1726543D01*
X290105Y-1725208D01*
X291439Y-1723210D01*
X291656Y-1722124D01*
D02*
G37*
G36*
X284480Y-1714948D02*
X283393Y-1715164D01*
X281395Y-1716499D01*
X280061Y-1718497D01*
X279844Y-1719584D01*
X284480D01*
Y-1714948D01*
D02*
G37*
G36*
X200478Y-1711964D02*
X194310D01*
Y-1718132D01*
X195008Y-1718040D01*
X196842Y-1717280D01*
X198418Y-1716071D01*
X199626Y-1714496D01*
X200386Y-1712662D01*
X200478Y-1711964D01*
D02*
G37*
G36*
X118110Y-1675134D02*
X113474D01*
X113691Y-1676221D01*
X115025Y-1678218D01*
X117023Y-1679553D01*
X118110Y-1679769D01*
Y-1675134D01*
D02*
G37*
G36*
X125286D02*
X120650D01*
Y-1679769D01*
X121737Y-1679553D01*
X123735Y-1678218D01*
X125070Y-1676221D01*
X125286Y-1675134D01*
D02*
G37*
G36*
X191770Y-1703256D02*
X191072Y-1703348D01*
X189237Y-1704108D01*
X187662Y-1705316D01*
X186454Y-1706891D01*
X185694Y-1708725D01*
X185602Y-1709424D01*
X191770D01*
Y-1703256D01*
D02*
G37*
G36*
X194310D02*
Y-1709424D01*
X200478D01*
X200386Y-1708725D01*
X199626Y-1706891D01*
X198418Y-1705316D01*
X196842Y-1704108D01*
X195008Y-1703348D01*
X194310Y-1703256D01*
D02*
G37*
G36*
X162560Y-343086D02*
X161862Y-343178D01*
X160028Y-343938D01*
X158452Y-345146D01*
X157244Y-346721D01*
X156484Y-348555D01*
X156392Y-349254D01*
X162560D01*
Y-343086D01*
D02*
G37*
G36*
X165100D02*
Y-349254D01*
X171268D01*
X171176Y-348555D01*
X170416Y-346721D01*
X169208Y-345146D01*
X167633Y-343938D01*
X165798Y-343178D01*
X165100Y-343086D01*
D02*
G37*
G36*
X162560Y-351794D02*
X156392D01*
X156484Y-352492D01*
X157244Y-354326D01*
X158452Y-355901D01*
X160028Y-357110D01*
X161862Y-357870D01*
X162560Y-357962D01*
Y-351794D01*
D02*
G37*
G36*
X171268D02*
X165100D01*
Y-357962D01*
X165798Y-357870D01*
X167633Y-357110D01*
X169208Y-355901D01*
X170416Y-354326D01*
X171176Y-352492D01*
X171268Y-351794D01*
D02*
G37*
G36*
X139700Y-325124D02*
X135064D01*
X135281Y-326211D01*
X136615Y-328208D01*
X138613Y-329543D01*
X139700Y-329759D01*
Y-325124D01*
D02*
G37*
G36*
X285568Y-317504D02*
X279400D01*
Y-323672D01*
X280098Y-323580D01*
X281933Y-322820D01*
X283508Y-321611D01*
X284716Y-320036D01*
X285476Y-318202D01*
X285568Y-317504D01*
D02*
G37*
G36*
X139700Y-317948D02*
X138613Y-318164D01*
X136615Y-319499D01*
X135281Y-321497D01*
X135064Y-322584D01*
X139700D01*
Y-317948D01*
D02*
G37*
G36*
X146876Y-325124D02*
X142240D01*
Y-329759D01*
X143327Y-329543D01*
X145325Y-328208D01*
X146659Y-326211D01*
X146876Y-325124D01*
D02*
G37*
G36*
X276860Y-317504D02*
X270692D01*
X270784Y-318202D01*
X271544Y-320036D01*
X272752Y-321611D01*
X274328Y-322820D01*
X276162Y-323580D01*
X276860Y-323672D01*
Y-317504D01*
D02*
G37*
G36*
X32130Y-366654D02*
X22860D01*
Y-375924D01*
X32130D01*
Y-366654D01*
D02*
G37*
G36*
X342900Y-365384D02*
X333630D01*
Y-374654D01*
X342900D01*
Y-365384D01*
D02*
G37*
G36*
X304950Y-370844D02*
X297180D01*
Y-379864D01*
X304950D01*
Y-370844D01*
D02*
G37*
G36*
X20320Y-366654D02*
X11050D01*
Y-375924D01*
X20320D01*
Y-366654D01*
D02*
G37*
G36*
X354710Y-365384D02*
X345440D01*
Y-374654D01*
X354710D01*
Y-365384D01*
D02*
G37*
G36*
X21590Y-341675D02*
X18971Y-342020D01*
X16531Y-343031D01*
X14435Y-344639D01*
X12827Y-346735D01*
X11816Y-349175D01*
X11472Y-351794D01*
X11816Y-354413D01*
X12827Y-356853D01*
X14435Y-358949D01*
X16531Y-360557D01*
X18971Y-361568D01*
X21590Y-361912D01*
X24209Y-361568D01*
X26649Y-360557D01*
X28745Y-358949D01*
X30353Y-356853D01*
X31364Y-354413D01*
X31709Y-351794D01*
X31364Y-349175D01*
X30353Y-346735D01*
X28745Y-344639D01*
X26649Y-343031D01*
X24209Y-342020D01*
X21590Y-341675D01*
D02*
G37*
G36*
X344170Y-340405D02*
X341551Y-340750D01*
X339111Y-341761D01*
X337015Y-343369D01*
X335407Y-345465D01*
X334396Y-347905D01*
X334052Y-350524D01*
X334396Y-353143D01*
X335407Y-355583D01*
X337015Y-357679D01*
X339111Y-359287D01*
X341551Y-360298D01*
X344170Y-360642D01*
X346789Y-360298D01*
X349229Y-359287D01*
X351325Y-357679D01*
X352933Y-355583D01*
X353944Y-353143D01*
X354288Y-350524D01*
X353944Y-347905D01*
X352933Y-345465D01*
X351325Y-343369D01*
X349229Y-341761D01*
X346789Y-340750D01*
X344170Y-340405D01*
D02*
G37*
G36*
X294640Y-359284D02*
X286870D01*
Y-368304D01*
X294640D01*
Y-359284D01*
D02*
G37*
G36*
X304950D02*
X297180D01*
Y-368304D01*
X304950D01*
Y-359284D01*
D02*
G37*
G36*
X142240Y-317948D02*
Y-322584D01*
X146876D01*
X146659Y-321497D01*
X145325Y-319499D01*
X143327Y-318164D01*
X142240Y-317948D01*
D02*
G37*
G36*
X157036Y-297184D02*
X152400D01*
Y-301819D01*
X153487Y-301603D01*
X155485Y-300268D01*
X156819Y-298270D01*
X157036Y-297184D01*
D02*
G37*
G36*
X99060Y-290834D02*
X92892D01*
X92984Y-291532D01*
X93744Y-293366D01*
X94952Y-294941D01*
X96528Y-296150D01*
X98362Y-296910D01*
X99060Y-297002D01*
Y-290834D01*
D02*
G37*
G36*
X116840Y-297628D02*
Y-302264D01*
X121476D01*
X121259Y-301177D01*
X119925Y-299179D01*
X117927Y-297844D01*
X116840Y-297628D01*
D02*
G37*
G36*
X149860Y-297184D02*
X145224D01*
X145441Y-298270D01*
X146775Y-300268D01*
X148773Y-301603D01*
X149860Y-301819D01*
Y-297184D01*
D02*
G37*
G36*
X107768Y-290834D02*
X101600D01*
Y-297002D01*
X102298Y-296910D01*
X104132Y-296150D01*
X105708Y-294941D01*
X106916Y-293366D01*
X107676Y-291532D01*
X107768Y-290834D01*
D02*
G37*
G36*
X39370Y-289564D02*
X34734D01*
X34950Y-290651D01*
X36285Y-292648D01*
X38283Y-293983D01*
X39370Y-294200D01*
Y-289564D01*
D02*
G37*
G36*
X46546D02*
X41910D01*
Y-294200D01*
X42997Y-293983D01*
X44995Y-292648D01*
X46329Y-290651D01*
X46546Y-289564D01*
D02*
G37*
G36*
X149860Y-290008D02*
X148773Y-290224D01*
X146775Y-291559D01*
X145441Y-293557D01*
X145224Y-294644D01*
X149860D01*
Y-290008D01*
D02*
G37*
G36*
X152400D02*
Y-294644D01*
X157036D01*
X156819Y-293557D01*
X155485Y-291559D01*
X153487Y-290224D01*
X152400Y-290008D01*
D02*
G37*
G36*
X276860Y-308796D02*
X276162Y-308888D01*
X274328Y-309648D01*
X272752Y-310856D01*
X271544Y-312431D01*
X270784Y-314265D01*
X270692Y-314964D01*
X276860D01*
Y-308796D01*
D02*
G37*
G36*
X279400D02*
Y-314964D01*
X285568D01*
X285476Y-314265D01*
X284716Y-312431D01*
X283508Y-310856D01*
X281933Y-309648D01*
X280098Y-308888D01*
X279400Y-308796D01*
D02*
G37*
G36*
X298450Y-312424D02*
X293814D01*
X294030Y-313510D01*
X295365Y-315508D01*
X297363Y-316843D01*
X298450Y-317059D01*
Y-312424D01*
D02*
G37*
G36*
X305626D02*
X300990D01*
Y-317059D01*
X302077Y-316843D01*
X304075Y-315508D01*
X305410Y-313510D01*
X305626Y-312424D01*
D02*
G37*
G36*
X298450Y-305248D02*
X297363Y-305464D01*
X295365Y-306799D01*
X294030Y-308797D01*
X293814Y-309884D01*
X298450D01*
Y-305248D01*
D02*
G37*
G36*
X121476Y-304804D02*
X116840D01*
Y-309440D01*
X117927Y-309223D01*
X119925Y-307888D01*
X121259Y-305891D01*
X121476Y-304804D01*
D02*
G37*
G36*
X114300Y-297628D02*
X113213Y-297844D01*
X111215Y-299179D01*
X109881Y-301177D01*
X109664Y-302264D01*
X114300D01*
Y-297628D01*
D02*
G37*
G36*
X300990Y-305248D02*
Y-309884D01*
X305626D01*
X305410Y-308797D01*
X304075Y-306799D01*
X302077Y-305464D01*
X300990Y-305248D01*
D02*
G37*
G36*
X114300Y-304804D02*
X109664D01*
X109881Y-305891D01*
X111215Y-307888D01*
X113213Y-309223D01*
X114300Y-309440D01*
Y-304804D01*
D02*
G37*
G36*
X288290Y-428438D02*
X287203Y-428654D01*
X285205Y-429989D01*
X283871Y-431987D01*
X283654Y-433074D01*
X288290D01*
Y-428438D01*
D02*
G37*
G36*
X290830D02*
Y-433074D01*
X295466D01*
X295250Y-431987D01*
X293915Y-429989D01*
X291917Y-428654D01*
X290830Y-428438D01*
D02*
G37*
G36*
X309880Y-432248D02*
X308793Y-432464D01*
X306795Y-433799D01*
X305460Y-435797D01*
X305244Y-436884D01*
X309880D01*
Y-432248D01*
D02*
G37*
G36*
X312420D02*
Y-436884D01*
X317056D01*
X316840Y-435797D01*
X315505Y-433799D01*
X313507Y-432464D01*
X312420Y-432248D01*
D02*
G37*
G36*
X73660Y-138357D02*
X71339Y-138663D01*
X69177Y-139558D01*
X67320Y-140983D01*
X65895Y-142840D01*
X64999Y-145003D01*
X64722Y-147106D01*
X32252Y-179576D01*
X30848Y-181676D01*
X30356Y-184154D01*
Y-215904D01*
X30848Y-218382D01*
X32252Y-220482D01*
X44402Y-232632D01*
X44679Y-234735D01*
X45575Y-236897D01*
X47000Y-238754D01*
X48857Y-240179D01*
X51019Y-241075D01*
X51479Y-241136D01*
X60836Y-254745D01*
Y-424542D01*
X43345Y-442033D01*
X42129Y-442193D01*
X39967Y-443088D01*
X38110Y-444513D01*
X36685Y-446371D01*
X35789Y-448533D01*
X35512Y-450636D01*
X22092Y-464056D01*
X20688Y-466156D01*
X20196Y-468634D01*
Y-509274D01*
X20688Y-511752D01*
X22092Y-513852D01*
X29712Y-521472D01*
X31812Y-522875D01*
X34290Y-523368D01*
X48136D01*
Y-532134D01*
X48628Y-534612D01*
X50032Y-536712D01*
X55756Y-542436D01*
Y-711388D01*
X54465Y-713071D01*
X53569Y-715233D01*
X53263Y-717554D01*
X53569Y-719875D01*
X53743Y-720296D01*
X24632Y-749407D01*
X23228Y-751508D01*
X22736Y-753985D01*
Y-788674D01*
X23228Y-791152D01*
X24632Y-793252D01*
X39872Y-808492D01*
X41972Y-809895D01*
X44450Y-810388D01*
X48136D01*
Y-886433D01*
X46866Y-886819D01*
X46265Y-885919D01*
X44267Y-884584D01*
X43180Y-884368D01*
Y-890274D01*
Y-896180D01*
X44267Y-895963D01*
X46265Y-894628D01*
X46866Y-893729D01*
X48136Y-894114D01*
Y-998408D01*
X46845Y-1000090D01*
X46454Y-1001034D01*
X19552Y-1027936D01*
X18148Y-1030036D01*
X17656Y-1032514D01*
Y-1060454D01*
X18148Y-1062932D01*
X19552Y-1065032D01*
X37332Y-1082812D01*
X39432Y-1084215D01*
X41910Y-1084708D01*
X48444D01*
X50127Y-1085999D01*
X52289Y-1086895D01*
X54392Y-1087172D01*
X55756Y-1088536D01*
Y-1253352D01*
X54392Y-1254716D01*
X52289Y-1254993D01*
X50127Y-1255888D01*
X48270Y-1257313D01*
X46845Y-1259171D01*
X45949Y-1261333D01*
X45672Y-1263436D01*
X22092Y-1287016D01*
X20688Y-1289116D01*
X20196Y-1291594D01*
Y-1332234D01*
X20688Y-1334711D01*
X22092Y-1336812D01*
X34792Y-1349512D01*
X36892Y-1350915D01*
X39370Y-1351408D01*
X45596D01*
Y-1437828D01*
X44305Y-1439510D01*
X43409Y-1441673D01*
X43103Y-1443994D01*
X43162Y-1444437D01*
X24632Y-1462967D01*
X23228Y-1465067D01*
X22736Y-1467545D01*
Y-1491382D01*
X23228Y-1493860D01*
X24632Y-1495960D01*
X43284Y-1514612D01*
X45384Y-1516015D01*
X47862Y-1516508D01*
X48136D01*
Y-1600388D01*
X46845Y-1602070D01*
X45949Y-1604233D01*
X45672Y-1606336D01*
X19552Y-1632456D01*
X18148Y-1634556D01*
X17656Y-1637034D01*
Y-1662434D01*
X18148Y-1664911D01*
X19552Y-1667012D01*
X37332Y-1684792D01*
X39432Y-1686195D01*
X41910Y-1686688D01*
X43364D01*
X45047Y-1687979D01*
X47209Y-1688875D01*
X48136Y-1688997D01*
Y-1760248D01*
X46845Y-1761931D01*
X45949Y-1764093D01*
X45643Y-1766414D01*
X45949Y-1768735D01*
X46170Y-1769269D01*
X22092Y-1793347D01*
X20688Y-1795448D01*
X20196Y-1797925D01*
Y-1837694D01*
X20688Y-1840172D01*
X22092Y-1842272D01*
X34792Y-1854972D01*
X36892Y-1856375D01*
X39370Y-1856868D01*
X43364D01*
X45047Y-1858159D01*
X47209Y-1859055D01*
X49530Y-1859361D01*
X51851Y-1859055D01*
X54013Y-1858159D01*
X55696Y-1856868D01*
X56278D01*
X58756Y-1856375D01*
X60856Y-1854972D01*
X74200Y-1841628D01*
X244968D01*
X245249Y-1841909D01*
X245612Y-1842452D01*
X253051Y-1849892D01*
X255152Y-1851295D01*
X256620Y-1851588D01*
X256769Y-1852715D01*
X257665Y-1854877D01*
X259090Y-1856734D01*
X260947Y-1858159D01*
X263109Y-1859055D01*
X265430Y-1859361D01*
X267751Y-1859055D01*
X269913Y-1858159D01*
X271770Y-1856734D01*
X273195Y-1854877D01*
X274091Y-1852715D01*
X274397Y-1850394D01*
X274091Y-1848073D01*
X273195Y-1845910D01*
X271770Y-1844053D01*
X269913Y-1842628D01*
X267751Y-1841733D01*
X265648Y-1841456D01*
X264928Y-1840736D01*
X262828Y-1839332D01*
X260350Y-1838839D01*
X260311D01*
X255132Y-1833660D01*
X254768Y-1833116D01*
X252228Y-1830576D01*
X250128Y-1829172D01*
X247650Y-1828679D01*
X71518D01*
X69041Y-1829172D01*
X66940Y-1830576D01*
X54508Y-1843008D01*
X54013Y-1842628D01*
X51851Y-1841733D01*
X49530Y-1841427D01*
X47209Y-1841733D01*
X45047Y-1842628D01*
X43364Y-1843919D01*
X42052D01*
X33144Y-1835012D01*
Y-1800607D01*
X59188Y-1774563D01*
X59815Y-1773626D01*
X60950Y-1772754D01*
X62375Y-1770897D01*
X63271Y-1768735D01*
X63577Y-1766414D01*
X63271Y-1764093D01*
X62375Y-1761931D01*
X61084Y-1760248D01*
Y-1685294D01*
X60592Y-1682816D01*
X59188Y-1680716D01*
X58468Y-1679996D01*
X58191Y-1677893D01*
X57295Y-1675730D01*
X55870Y-1673873D01*
X54013Y-1672448D01*
X51851Y-1671553D01*
X49530Y-1671247D01*
X47209Y-1671553D01*
X45047Y-1672448D01*
X44059Y-1673206D01*
X30604Y-1659752D01*
Y-1639716D01*
X54828Y-1615492D01*
X56931Y-1615215D01*
X59093Y-1614319D01*
X60950Y-1612894D01*
X62375Y-1611037D01*
X63271Y-1608875D01*
X63577Y-1606554D01*
X63271Y-1604233D01*
X62375Y-1602070D01*
X61084Y-1600388D01*
Y-1516200D01*
X62375Y-1514517D01*
X63271Y-1512355D01*
X63577Y-1510034D01*
X63271Y-1507713D01*
X62375Y-1505551D01*
X60950Y-1503693D01*
X59093Y-1502268D01*
X56931Y-1501373D01*
X54610Y-1501067D01*
X52289Y-1501373D01*
X50127Y-1502268D01*
X49632Y-1502648D01*
X35684Y-1488700D01*
Y-1470227D01*
X53084Y-1452827D01*
X54391Y-1452655D01*
X56553Y-1451759D01*
X58410Y-1450334D01*
X59835Y-1448477D01*
X60731Y-1446315D01*
X61037Y-1443994D01*
X60731Y-1441673D01*
X59835Y-1439510D01*
X58544Y-1437828D01*
Y-1351100D01*
X59835Y-1349417D01*
X60731Y-1347255D01*
X61037Y-1344934D01*
X60731Y-1342613D01*
X59835Y-1340450D01*
X58410Y-1338593D01*
X56553Y-1337168D01*
X54391Y-1336273D01*
X52070Y-1335967D01*
X49749Y-1336273D01*
X47587Y-1337168D01*
X45904Y-1338459D01*
X42052D01*
X33144Y-1329552D01*
Y-1294276D01*
X54828Y-1272592D01*
X56931Y-1272315D01*
X59093Y-1271419D01*
X60950Y-1269994D01*
X62375Y-1268137D01*
X63271Y-1265975D01*
X63548Y-1263872D01*
X66808Y-1260612D01*
X68212Y-1258512D01*
X68456Y-1257285D01*
X69726Y-1257410D01*
Y-1282562D01*
X51852Y-1300436D01*
X49749Y-1300713D01*
X47587Y-1301608D01*
X45730Y-1303033D01*
X44305Y-1304890D01*
X43409Y-1307053D01*
X43103Y-1309374D01*
X43409Y-1311695D01*
X44305Y-1313857D01*
X45730Y-1315714D01*
X47587Y-1317139D01*
X49749Y-1318035D01*
X51852Y-1318312D01*
X52572Y-1319032D01*
X54672Y-1320435D01*
X56973Y-1320893D01*
X70996Y-1334916D01*
Y-1448932D01*
X54392Y-1465536D01*
X52289Y-1465813D01*
X50127Y-1466708D01*
X48270Y-1468133D01*
X46845Y-1469991D01*
X45949Y-1472153D01*
X45643Y-1474474D01*
X45949Y-1476795D01*
X46845Y-1478957D01*
X48270Y-1480814D01*
X50127Y-1482239D01*
X52289Y-1483135D01*
X54610Y-1483441D01*
X56931Y-1483135D01*
X59093Y-1482239D01*
X60776Y-1480948D01*
X64628D01*
X76076Y-1492396D01*
Y-1606412D01*
X49312Y-1633176D01*
X47209Y-1633453D01*
X45047Y-1634348D01*
X43190Y-1635773D01*
X41765Y-1637630D01*
X40869Y-1639793D01*
X40563Y-1642114D01*
X40869Y-1644435D01*
X41765Y-1646597D01*
X43190Y-1648454D01*
X45047Y-1649879D01*
X47209Y-1650775D01*
X49530Y-1651080D01*
X51851Y-1650775D01*
X54013Y-1649879D01*
X55696Y-1648588D01*
X62088D01*
X70996Y-1657496D01*
Y-1784212D01*
X49312Y-1805896D01*
X47209Y-1806173D01*
X45047Y-1807068D01*
X43190Y-1808493D01*
X41765Y-1810350D01*
X40869Y-1812513D01*
X40563Y-1814834D01*
X40869Y-1817155D01*
X41765Y-1819317D01*
X43190Y-1821174D01*
X45047Y-1822599D01*
X47209Y-1823495D01*
X49530Y-1823801D01*
X51851Y-1823495D01*
X54013Y-1822599D01*
X55696Y-1821308D01*
X256724D01*
X258407Y-1822599D01*
X260569Y-1823495D01*
X262890Y-1823801D01*
X265211Y-1823495D01*
X267373Y-1822599D01*
X269230Y-1821174D01*
X270655Y-1819317D01*
X271551Y-1817155D01*
X271857Y-1814834D01*
X271551Y-1812513D01*
X270655Y-1810350D01*
X269230Y-1808493D01*
X267373Y-1807068D01*
X265211Y-1806173D01*
X262890Y-1805867D01*
X260569Y-1806173D01*
X258407Y-1807068D01*
X256724Y-1808359D01*
X66820D01*
X66334Y-1807186D01*
X82048Y-1791472D01*
X83452Y-1789371D01*
X83944Y-1786894D01*
Y-1654814D01*
X83452Y-1652336D01*
X82048Y-1650236D01*
X69348Y-1637536D01*
X67248Y-1636132D01*
X66417Y-1635967D01*
X66048Y-1634752D01*
X87128Y-1613672D01*
X88532Y-1611572D01*
X89024Y-1609094D01*
Y-1489714D01*
X88532Y-1487236D01*
X87128Y-1485136D01*
X71888Y-1469896D01*
X70840Y-1469196D01*
X70679Y-1467561D01*
X82048Y-1456192D01*
X83452Y-1454091D01*
X83944Y-1451614D01*
Y-1332234D01*
X83452Y-1329756D01*
X82048Y-1327656D01*
X64268Y-1309876D01*
X63220Y-1309176D01*
X63059Y-1307541D01*
X80778Y-1289822D01*
X82182Y-1287722D01*
X82674Y-1285244D01*
Y-1056644D01*
X82182Y-1054166D01*
X80778Y-1052066D01*
X67576Y-1038864D01*
X89668Y-1016772D01*
X91072Y-1014671D01*
X91564Y-1012194D01*
Y-798834D01*
X91072Y-796356D01*
X89668Y-794256D01*
X63766Y-768354D01*
X89668Y-742452D01*
X91072Y-740351D01*
X91564Y-737874D01*
Y-684934D01*
X92834Y-684255D01*
X94163Y-685143D01*
X95250Y-685359D01*
Y-679454D01*
Y-673548D01*
X94163Y-673764D01*
X92834Y-674652D01*
X91564Y-673973D01*
Y-511814D01*
X91072Y-509336D01*
X89668Y-507236D01*
X63766Y-481334D01*
X83536Y-461564D01*
X84940Y-459463D01*
X85433Y-456986D01*
Y-418717D01*
X86702Y-418592D01*
X87021Y-420191D01*
X88355Y-422188D01*
X90353Y-423523D01*
X91440Y-423740D01*
Y-417834D01*
Y-411928D01*
X90353Y-412144D01*
X88355Y-413479D01*
X87021Y-415477D01*
X86702Y-417076D01*
X85433Y-416950D01*
Y-242772D01*
X84940Y-240295D01*
X83536Y-238194D01*
X72514Y-227173D01*
Y-227153D01*
X72022Y-224676D01*
X70618Y-222575D01*
X59874Y-211831D01*
X61105Y-210227D01*
X62001Y-208065D01*
X62307Y-205744D01*
X62001Y-203423D01*
X61105Y-201261D01*
X59814Y-199578D01*
Y-190526D01*
X70008Y-180332D01*
X72111Y-180055D01*
X74273Y-179159D01*
X76130Y-177734D01*
X77555Y-175877D01*
X78451Y-173715D01*
X78728Y-171612D01*
X92808Y-157532D01*
X94911Y-157255D01*
X97073Y-156359D01*
X98930Y-154934D01*
X100355Y-153077D01*
X101251Y-150915D01*
X101557Y-148594D01*
X101251Y-146273D01*
X100355Y-144110D01*
X98930Y-142253D01*
X97073Y-140828D01*
X94911Y-139933D01*
X92590Y-139627D01*
X90269Y-139933D01*
X88107Y-140828D01*
X86250Y-142253D01*
X84825Y-144110D01*
X83929Y-146273D01*
X83849Y-146879D01*
X82568D01*
X82321Y-145003D01*
X81425Y-142840D01*
X80000Y-140983D01*
X78143Y-139558D01*
X75981Y-138663D01*
X73660Y-138357D01*
D02*
G37*
G36*
X50618Y-415294D02*
X44450D01*
Y-421462D01*
X45148Y-421370D01*
X46982Y-420610D01*
X48558Y-419401D01*
X49766Y-417826D01*
X50526Y-415992D01*
X50618Y-415294D01*
D02*
G37*
G36*
X160020D02*
X155384D01*
X155601Y-416381D01*
X156935Y-418378D01*
X158933Y-419713D01*
X160020Y-419930D01*
Y-415294D01*
D02*
G37*
G36*
X98616Y-419104D02*
X93980D01*
Y-423740D01*
X95067Y-423523D01*
X97065Y-422188D01*
X98399Y-420191D01*
X98616Y-419104D01*
D02*
G37*
G36*
X41910Y-415294D02*
X35742D01*
X35834Y-415992D01*
X36594Y-417826D01*
X37802Y-419401D01*
X39378Y-420610D01*
X41212Y-421370D01*
X41910Y-421462D01*
Y-415294D01*
D02*
G37*
G36*
X351346Y-445774D02*
X346710D01*
Y-450410D01*
X347797Y-450193D01*
X349795Y-448858D01*
X351129Y-446861D01*
X351346Y-445774D01*
D02*
G37*
G36*
X309880Y-439424D02*
X305244D01*
X305460Y-440510D01*
X306795Y-442508D01*
X308793Y-443843D01*
X309880Y-444059D01*
Y-439424D01*
D02*
G37*
G36*
X332740Y-465268D02*
Y-469904D01*
X337376D01*
X337160Y-468817D01*
X335825Y-466819D01*
X333827Y-465484D01*
X332740Y-465268D01*
D02*
G37*
G36*
X344170Y-445774D02*
X339534D01*
X339751Y-446861D01*
X341085Y-448858D01*
X343083Y-450193D01*
X344170Y-450410D01*
Y-445774D01*
D02*
G37*
G36*
X317056Y-439424D02*
X312420D01*
Y-444059D01*
X313507Y-443843D01*
X315505Y-442508D01*
X316840Y-440510D01*
X317056Y-439424D01*
D02*
G37*
G36*
X288290Y-435614D02*
X283654D01*
X283871Y-436701D01*
X285205Y-438698D01*
X287203Y-440033D01*
X288290Y-440249D01*
Y-435614D01*
D02*
G37*
G36*
X295466D02*
X290830D01*
Y-440249D01*
X291917Y-440033D01*
X293915Y-438698D01*
X295250Y-436701D01*
X295466Y-435614D01*
D02*
G37*
G36*
X344170Y-438598D02*
X343083Y-438814D01*
X341085Y-440149D01*
X339751Y-442147D01*
X339534Y-443234D01*
X344170D01*
Y-438598D01*
D02*
G37*
G36*
X346710D02*
Y-443234D01*
X351346D01*
X351129Y-442147D01*
X349795Y-440149D01*
X347797Y-438814D01*
X346710Y-438598D01*
D02*
G37*
G36*
X167196Y-415294D02*
X162560D01*
Y-419930D01*
X163647Y-419713D01*
X165645Y-418378D01*
X166980Y-416381D01*
X167196Y-415294D01*
D02*
G37*
G36*
X145270Y-405418D02*
X144183Y-405634D01*
X142185Y-406969D01*
X140850Y-408967D01*
X140634Y-410054D01*
X145270D01*
Y-405418D01*
D02*
G37*
G36*
X147810D02*
Y-410054D01*
X152446D01*
X152229Y-408967D01*
X150895Y-406969D01*
X148897Y-405634D01*
X147810Y-405418D01*
D02*
G37*
G36*
X191770Y-405578D02*
X190683Y-405794D01*
X188685Y-407129D01*
X187351Y-409127D01*
X187134Y-410214D01*
X191770D01*
Y-405578D01*
D02*
G37*
G36*
X194310D02*
Y-410214D01*
X198946D01*
X198729Y-409127D01*
X197395Y-407129D01*
X195397Y-405794D01*
X194310Y-405578D01*
D02*
G37*
G36*
X20320Y-378464D02*
X11050D01*
Y-387734D01*
X20320D01*
Y-378464D01*
D02*
G37*
G36*
X354710Y-377194D02*
X345440D01*
Y-386464D01*
X354710D01*
Y-377194D01*
D02*
G37*
G36*
X294640Y-370844D02*
X286870D01*
Y-379864D01*
X294640D01*
Y-370844D01*
D02*
G37*
G36*
X32130Y-378464D02*
X22860D01*
Y-387734D01*
X32130D01*
Y-378464D01*
D02*
G37*
G36*
X342900Y-377194D02*
X333630D01*
Y-386464D01*
X342900D01*
Y-377194D01*
D02*
G37*
G36*
X145270Y-412594D02*
X140634D01*
X140850Y-413680D01*
X142185Y-415678D01*
X144183Y-417013D01*
X145270Y-417229D01*
Y-412594D01*
D02*
G37*
G36*
X152446D02*
X147810D01*
Y-417229D01*
X148897Y-417013D01*
X150895Y-415678D01*
X152229Y-413680D01*
X152446Y-412594D01*
D02*
G37*
G36*
X191770Y-412754D02*
X187134D01*
X187351Y-413840D01*
X188685Y-415838D01*
X190683Y-417173D01*
X191770Y-417389D01*
Y-412754D01*
D02*
G37*
G36*
X198946D02*
X194310D01*
Y-417389D01*
X195397Y-417173D01*
X197395Y-415838D01*
X198729Y-413840D01*
X198946Y-412754D01*
D02*
G37*
G36*
X93980Y-411928D02*
Y-416564D01*
X98616D01*
X98399Y-415477D01*
X97065Y-413479D01*
X95067Y-412144D01*
X93980Y-411928D01*
D02*
G37*
G36*
X160020Y-408118D02*
X158933Y-408334D01*
X156935Y-409669D01*
X155601Y-411667D01*
X155384Y-412754D01*
X160020D01*
Y-408118D01*
D02*
G37*
G36*
X162560D02*
Y-412754D01*
X167196D01*
X166980Y-411667D01*
X165645Y-409669D01*
X163647Y-408334D01*
X162560Y-408118D01*
D02*
G37*
G36*
X41910Y-406586D02*
X41212Y-406678D01*
X39378Y-407438D01*
X37802Y-408646D01*
X36594Y-410221D01*
X35834Y-412056D01*
X35742Y-412754D01*
X41910D01*
Y-406586D01*
D02*
G37*
G36*
X44450D02*
Y-412754D01*
X50618D01*
X50526Y-412056D01*
X49766Y-410221D01*
X48558Y-408646D01*
X46982Y-407438D01*
X45148Y-406678D01*
X44450Y-406586D01*
D02*
G37*
G36*
X176530Y-87816D02*
Y-93984D01*
X182698D01*
X182606Y-93286D01*
X181846Y-91451D01*
X180638Y-89876D01*
X179062Y-88668D01*
X177228Y-87908D01*
X176530Y-87816D01*
D02*
G37*
G36*
X53340Y-58424D02*
X48704D01*
X48920Y-59510D01*
X50255Y-61508D01*
X52253Y-62843D01*
X53340Y-63060D01*
Y-58424D01*
D02*
G37*
G36*
X99060Y-87816D02*
Y-93984D01*
X105228D01*
X105136Y-93286D01*
X104376Y-91451D01*
X103168Y-89876D01*
X101593Y-88668D01*
X99758Y-87908D01*
X99060Y-87816D01*
D02*
G37*
G36*
X173990D02*
X173292Y-87908D01*
X171458Y-88668D01*
X169882Y-89876D01*
X168674Y-91451D01*
X167914Y-93286D01*
X167822Y-93984D01*
X173990D01*
Y-87816D01*
D02*
G37*
G36*
X60516Y-58424D02*
X55880D01*
Y-63060D01*
X56967Y-62843D01*
X58965Y-61508D01*
X60300Y-59510D01*
X60516Y-58424D01*
D02*
G37*
G36*
X328730Y-31270D02*
X309962D01*
X310224Y-33934D01*
X311372Y-37716D01*
X313235Y-41202D01*
X315742Y-44257D01*
X318798Y-46765D01*
X322284Y-48628D01*
X326066Y-49776D01*
X328730Y-50038D01*
Y-31270D01*
D02*
G37*
G36*
X350038D02*
X331270D01*
Y-50038D01*
X333934Y-49776D01*
X337716Y-48628D01*
X341202Y-46765D01*
X344258Y-44257D01*
X346765Y-41202D01*
X348628Y-37716D01*
X349776Y-33934D01*
X350038Y-31270D01*
D02*
G37*
G36*
X53340Y-51248D02*
X52253Y-51464D01*
X50255Y-52799D01*
X48920Y-54797D01*
X48704Y-55884D01*
X53340D01*
Y-51248D01*
D02*
G37*
G36*
X55880D02*
Y-55884D01*
X60516D01*
X60300Y-54797D01*
X58965Y-52799D01*
X56967Y-51464D01*
X55880Y-51248D01*
D02*
G37*
G36*
X96520Y-96524D02*
X90352D01*
X90444Y-97222D01*
X91204Y-99056D01*
X92412Y-100631D01*
X93988Y-101840D01*
X95822Y-102600D01*
X96520Y-102692D01*
Y-96524D01*
D02*
G37*
G36*
X105228D02*
X99060D01*
Y-102692D01*
X99758Y-102600D01*
X101593Y-101840D01*
X103168Y-100631D01*
X104376Y-99056D01*
X105136Y-97222D01*
X105228Y-96524D01*
D02*
G37*
G36*
X69990Y-104144D02*
X65354D01*
X65571Y-105231D01*
X66905Y-107228D01*
X68903Y-108563D01*
X69990Y-108779D01*
Y-104144D01*
D02*
G37*
G36*
X77166D02*
X72530D01*
Y-108779D01*
X73617Y-108563D01*
X75615Y-107228D01*
X76950Y-105231D01*
X77166Y-104144D01*
D02*
G37*
G36*
X173990Y-96524D02*
X167822D01*
X167914Y-97222D01*
X168674Y-99056D01*
X169882Y-100631D01*
X171458Y-101840D01*
X173292Y-102600D01*
X173990Y-102692D01*
Y-96524D01*
D02*
G37*
G36*
X72530Y-96968D02*
Y-101604D01*
X77166D01*
X76950Y-100517D01*
X75615Y-98519D01*
X73617Y-97184D01*
X72530Y-96968D01*
D02*
G37*
G36*
X96520Y-87816D02*
X95822Y-87908D01*
X93988Y-88668D01*
X92412Y-89876D01*
X91204Y-91451D01*
X90444Y-93286D01*
X90352Y-93984D01*
X96520D01*
Y-87816D01*
D02*
G37*
G36*
X182698Y-96524D02*
X176530D01*
Y-102692D01*
X177228Y-102600D01*
X179062Y-101840D01*
X180638Y-100631D01*
X181846Y-99056D01*
X182606Y-97222D01*
X182698Y-96524D01*
D02*
G37*
G36*
X69990Y-96968D02*
X68903Y-97184D01*
X66905Y-98519D01*
X65571Y-100517D01*
X65354Y-101604D01*
X69990D01*
Y-96968D01*
D02*
G37*
G36*
X28730Y-31270D02*
X9962D01*
X10224Y-33934D01*
X11372Y-37716D01*
X13235Y-41202D01*
X15742Y-44257D01*
X18798Y-46765D01*
X22284Y-48628D01*
X26066Y-49776D01*
X28730Y-50038D01*
Y-31270D01*
D02*
G37*
G36*
X331270Y-9962D02*
Y-28730D01*
X350038D01*
X349776Y-26066D01*
X348628Y-22284D01*
X346765Y-18798D01*
X344258Y-15742D01*
X341202Y-13235D01*
X337716Y-11372D01*
X333934Y-10224D01*
X331270Y-9962D01*
D02*
G37*
G36*
X284480Y-15240D02*
X279844D01*
X280061Y-16327D01*
X281395Y-18325D01*
X283393Y-19660D01*
X284480Y-19876D01*
Y-15240D01*
D02*
G37*
G36*
X31270Y-9962D02*
Y-28730D01*
X50038D01*
X49776Y-26066D01*
X48628Y-22284D01*
X46765Y-18798D01*
X44257Y-15742D01*
X41202Y-13235D01*
X37716Y-11372D01*
X33934Y-10224D01*
X31270Y-9962D01*
D02*
G37*
G36*
X328730D02*
X326066Y-10224D01*
X322284Y-11372D01*
X318798Y-13235D01*
X315742Y-15742D01*
X313235Y-18798D01*
X311372Y-22284D01*
X310224Y-26066D01*
X309962Y-28730D01*
X328730D01*
Y-9962D01*
D02*
G37*
G36*
X291656Y-15240D02*
X287020D01*
Y-19876D01*
X288107Y-19660D01*
X290105Y-18325D01*
X291439Y-16327D01*
X291656Y-15240D01*
D02*
G37*
G36*
X284480Y-8064D02*
X283393Y-8281D01*
X281395Y-9615D01*
X280061Y-11613D01*
X279844Y-12700D01*
X284480D01*
Y-8064D01*
D02*
G37*
G36*
X287020D02*
Y-12700D01*
X291656D01*
X291439Y-11613D01*
X290105Y-9615D01*
X288107Y-8281D01*
X287020Y-8064D01*
D02*
G37*
G36*
X193040Y-9784D02*
X183770D01*
Y-19054D01*
X193040D01*
Y-9784D01*
D02*
G37*
G36*
X204850D02*
X195580D01*
Y-19054D01*
X204850D01*
Y-9784D01*
D02*
G37*
G36*
X281496Y-34294D02*
X276860D01*
Y-38930D01*
X277947Y-38713D01*
X279945Y-37378D01*
X281280Y-35380D01*
X281496Y-34294D01*
D02*
G37*
G36*
X274320Y-27118D02*
X273233Y-27334D01*
X271235Y-28669D01*
X269900Y-30667D01*
X269684Y-31754D01*
X274320D01*
Y-27118D01*
D02*
G37*
G36*
X50038Y-31270D02*
X31270D01*
Y-50038D01*
X33934Y-49776D01*
X37716Y-48628D01*
X41202Y-46765D01*
X44257Y-44257D01*
X46765Y-41202D01*
X48628Y-37716D01*
X49776Y-33934D01*
X50038Y-31270D01*
D02*
G37*
G36*
X274320Y-34294D02*
X269684D01*
X269900Y-35380D01*
X271235Y-37378D01*
X273233Y-38713D01*
X274320Y-38930D01*
Y-34294D01*
D02*
G37*
G36*
X276860Y-27118D02*
Y-31754D01*
X281496D01*
X281280Y-30667D01*
X279945Y-28669D01*
X277947Y-27334D01*
X276860Y-27118D01*
D02*
G37*
G36*
X204850Y-21594D02*
X195580D01*
Y-30864D01*
X204850D01*
Y-21594D01*
D02*
G37*
G36*
X28730Y-9962D02*
X26066Y-10224D01*
X22284Y-11372D01*
X18798Y-13235D01*
X15742Y-15742D01*
X13235Y-18798D01*
X11372Y-22284D01*
X10224Y-26066D01*
X9962Y-28730D01*
X28730D01*
Y-9962D01*
D02*
G37*
G36*
X168910Y-9693D02*
X166159Y-10055D01*
X163594Y-11117D01*
X161393Y-12807D01*
X159703Y-15008D01*
X158641Y-17572D01*
X158279Y-20324D01*
X158641Y-23075D01*
X159703Y-25639D01*
X161393Y-27841D01*
X163594Y-29530D01*
X166159Y-30593D01*
X168910Y-30955D01*
X171661Y-30593D01*
X174226Y-29530D01*
X176427Y-27841D01*
X178117Y-25639D01*
X179179Y-23075D01*
X179541Y-20324D01*
X179179Y-17572D01*
X178117Y-15008D01*
X176427Y-12807D01*
X174226Y-11117D01*
X171661Y-10055D01*
X168910Y-9693D01*
D02*
G37*
G36*
X193040Y-21594D02*
X183770D01*
Y-30864D01*
X193040D01*
Y-21594D01*
D02*
G37*
G36*
X121920Y-231588D02*
Y-236224D01*
X126556D01*
X126340Y-235137D01*
X125005Y-233139D01*
X123007Y-231804D01*
X121920Y-231588D01*
D02*
G37*
G36*
X123190Y-135817D02*
X120869Y-136123D01*
X118707Y-137018D01*
X116850Y-138443D01*
X115425Y-140301D01*
X114529Y-142463D01*
X114223Y-144784D01*
X114529Y-147105D01*
X115425Y-149267D01*
X116850Y-151124D01*
X118707Y-152549D01*
X120869Y-153445D01*
X122972Y-153722D01*
X138098Y-168848D01*
X140198Y-170251D01*
X142676Y-170744D01*
X282632D01*
X294516Y-182627D01*
Y-209592D01*
X275287Y-228822D01*
X273050Y-228527D01*
X270729Y-228833D01*
X268567Y-229728D01*
X266884Y-231019D01*
X260350D01*
X257872Y-231512D01*
X255772Y-232916D01*
X240532Y-248156D01*
X239128Y-250256D01*
X238636Y-252734D01*
Y-361954D01*
X239128Y-364431D01*
X240532Y-366532D01*
X257762Y-383762D01*
X258039Y-385865D01*
X258935Y-388027D01*
X260360Y-389884D01*
X262217Y-391309D01*
X264036Y-392063D01*
Y-450854D01*
X264528Y-453331D01*
X265932Y-455432D01*
X273552Y-463052D01*
X275652Y-464455D01*
X278130Y-464948D01*
X297617D01*
X307216Y-474547D01*
Y-476254D01*
X307708Y-478731D01*
X309112Y-480832D01*
X309756Y-481476D01*
Y-498972D01*
X298308Y-510419D01*
X291916D01*
X290233Y-509128D01*
X288071Y-508233D01*
X285750Y-507927D01*
X283429Y-508233D01*
X281267Y-509128D01*
X279410Y-510553D01*
X277985Y-512411D01*
X277089Y-514573D01*
X276783Y-516894D01*
X277089Y-519215D01*
X277985Y-521377D01*
X279276Y-523060D01*
Y-529594D01*
X279768Y-532071D01*
X281172Y-534172D01*
X287056Y-540056D01*
Y-588386D01*
X285786Y-588785D01*
X284473Y-587778D01*
X282638Y-587018D01*
X281940Y-586926D01*
Y-594364D01*
Y-601802D01*
X282638Y-601710D01*
X284473Y-600950D01*
X285786Y-599942D01*
X287056Y-600342D01*
Y-641224D01*
X284490D01*
Y-651398D01*
X282442Y-653446D01*
X281038Y-655546D01*
X280546Y-658024D01*
Y-661858D01*
X279255Y-663540D01*
X278359Y-665703D01*
X278053Y-668024D01*
X278359Y-670345D01*
X279255Y-672507D01*
X280546Y-674190D01*
Y-702833D01*
X279276Y-702959D01*
X279192Y-702536D01*
X277788Y-700436D01*
X261744Y-684392D01*
Y-509416D01*
X283352Y-487808D01*
X284664D01*
X286347Y-489099D01*
X288509Y-489995D01*
X290830Y-490300D01*
X293151Y-489995D01*
X295313Y-489099D01*
X297170Y-487674D01*
X298595Y-485817D01*
X299491Y-483655D01*
X299797Y-481334D01*
X299491Y-479013D01*
X298595Y-476851D01*
X297170Y-474993D01*
X295313Y-473568D01*
X293151Y-472673D01*
X290830Y-472367D01*
X288509Y-472673D01*
X286347Y-473568D01*
X284664Y-474859D01*
X283210D01*
X281210Y-475257D01*
X231264Y-425312D01*
Y-227476D01*
X245252Y-213488D01*
X266884D01*
X268567Y-214779D01*
X270729Y-215675D01*
X273050Y-215980D01*
X275371Y-215675D01*
X277533Y-214779D01*
X279390Y-213354D01*
X280815Y-211497D01*
X281711Y-209335D01*
X282017Y-207014D01*
X281711Y-204693D01*
X280815Y-202530D01*
X279390Y-200673D01*
X277533Y-199248D01*
X275371Y-198353D01*
X273050Y-198047D01*
X270729Y-198353D01*
X268567Y-199248D01*
X266884Y-200539D01*
X242570D01*
X240092Y-201032D01*
X237992Y-202436D01*
X220212Y-220216D01*
X218808Y-222316D01*
X218316Y-224794D01*
Y-427994D01*
X218808Y-430471D01*
X220212Y-432572D01*
X270244Y-482604D01*
X250692Y-502156D01*
X249288Y-504256D01*
X248796Y-506734D01*
Y-687074D01*
X249288Y-689551D01*
X250692Y-691652D01*
X266736Y-707696D01*
Y-761879D01*
X257810D01*
X255332Y-762372D01*
X253232Y-763776D01*
X240532Y-776476D01*
X239128Y-778576D01*
X238636Y-781054D01*
Y-955442D01*
X239128Y-957920D01*
X240532Y-960020D01*
X284356Y-1003844D01*
Y-1032372D01*
X282992Y-1033736D01*
X280889Y-1034013D01*
X278727Y-1034908D01*
X277044Y-1036199D01*
X260350D01*
X257872Y-1036692D01*
X255772Y-1038096D01*
X237992Y-1055876D01*
X236588Y-1057976D01*
X236096Y-1060454D01*
Y-1289054D01*
X236588Y-1291532D01*
X237992Y-1293632D01*
X246821Y-1302461D01*
X246660Y-1304096D01*
X245612Y-1304796D01*
X237992Y-1312416D01*
X236588Y-1314516D01*
X236096Y-1316994D01*
Y-1438914D01*
X236588Y-1441391D01*
X237992Y-1443492D01*
X261326Y-1466826D01*
X260840Y-1467999D01*
X257810D01*
X255332Y-1468492D01*
X253232Y-1469896D01*
X240532Y-1482596D01*
X239128Y-1484696D01*
X238636Y-1487174D01*
Y-1621794D01*
X239128Y-1624272D01*
X240532Y-1626372D01*
X259032Y-1644872D01*
X259309Y-1646975D01*
X260205Y-1649137D01*
X261630Y-1650994D01*
X263487Y-1652419D01*
X265649Y-1653315D01*
X267970Y-1653620D01*
X270291Y-1653315D01*
X272453Y-1652419D01*
X274310Y-1650994D01*
X275735Y-1649137D01*
X276631Y-1646975D01*
X276937Y-1644654D01*
X276631Y-1642333D01*
X275735Y-1640170D01*
X274310Y-1638313D01*
X272453Y-1636888D01*
X270291Y-1635993D01*
X268188Y-1635716D01*
X251584Y-1619112D01*
Y-1489856D01*
X260492Y-1480948D01*
X271964D01*
X273647Y-1482239D01*
X275809Y-1483135D01*
X278130Y-1483441D01*
X280451Y-1483135D01*
X282613Y-1482239D01*
X284470Y-1480814D01*
X285895Y-1478957D01*
X286791Y-1476795D01*
X287097Y-1474474D01*
X286791Y-1472153D01*
X285895Y-1469991D01*
X284470Y-1468133D01*
X282613Y-1466708D01*
X280451Y-1465813D01*
X278348Y-1465536D01*
X249044Y-1436232D01*
Y-1319676D01*
X252872Y-1315848D01*
X256724D01*
X258407Y-1317139D01*
X260569Y-1318035D01*
X262890Y-1318340D01*
X265211Y-1318035D01*
X267373Y-1317139D01*
X269230Y-1315714D01*
X270655Y-1313857D01*
X271551Y-1311695D01*
X271857Y-1309374D01*
X271551Y-1307053D01*
X270655Y-1304890D01*
X269230Y-1303033D01*
X267373Y-1301608D01*
X265211Y-1300713D01*
X263108Y-1300436D01*
X249044Y-1286372D01*
Y-1063136D01*
X263032Y-1049148D01*
X277044D01*
X278727Y-1050439D01*
X280889Y-1051335D01*
X283210Y-1051640D01*
X285531Y-1051335D01*
X287693Y-1050439D01*
X289550Y-1049014D01*
X290975Y-1047157D01*
X291871Y-1044995D01*
X292148Y-1042892D01*
X295408Y-1039632D01*
X295786Y-1039067D01*
X297056Y-1039452D01*
Y-1056900D01*
X284517Y-1069439D01*
X283210Y-1069267D01*
X280889Y-1069573D01*
X278727Y-1070468D01*
X276870Y-1071893D01*
X275445Y-1073751D01*
X274549Y-1075913D01*
X274243Y-1078234D01*
X274549Y-1080555D01*
X275445Y-1082717D01*
X276736Y-1084400D01*
Y-1215252D01*
X274102Y-1217886D01*
X271999Y-1218163D01*
X269837Y-1219058D01*
X267980Y-1220483D01*
X266555Y-1222340D01*
X265659Y-1224503D01*
X265353Y-1226824D01*
X265659Y-1229145D01*
X266555Y-1231307D01*
X267846Y-1232990D01*
Y-1281035D01*
X268338Y-1283513D01*
X269742Y-1285614D01*
X284356Y-1300227D01*
Y-1327172D01*
X273068Y-1338459D01*
X271596D01*
X269913Y-1337168D01*
X267751Y-1336273D01*
X265430Y-1335967D01*
X263109Y-1336273D01*
X260947Y-1337168D01*
X259090Y-1338593D01*
X257665Y-1340450D01*
X256769Y-1342613D01*
X256463Y-1344934D01*
X256769Y-1347255D01*
X257665Y-1349417D01*
X258956Y-1351100D01*
Y-1424545D01*
X259448Y-1427023D01*
X260852Y-1429124D01*
X294516Y-1462787D01*
Y-1481261D01*
X292256Y-1483520D01*
X290853Y-1485621D01*
X290360Y-1488098D01*
Y-1488828D01*
X279176Y-1500012D01*
X278632Y-1500376D01*
X277912Y-1501096D01*
X275809Y-1501373D01*
X273647Y-1502268D01*
X271790Y-1503693D01*
X270365Y-1505551D01*
X269469Y-1507713D01*
X269163Y-1510034D01*
X269469Y-1512355D01*
X270365Y-1514517D01*
X271656Y-1516200D01*
Y-1614174D01*
X272148Y-1616651D01*
X273552Y-1618752D01*
X275652Y-1620155D01*
X276865Y-1620397D01*
X289436Y-1632967D01*
Y-1652312D01*
X272273Y-1669475D01*
X271183Y-1668638D01*
X269021Y-1667743D01*
X266700Y-1667437D01*
X264379Y-1667743D01*
X262217Y-1668638D01*
X260360Y-1670063D01*
X258935Y-1671920D01*
X258039Y-1674083D01*
X257733Y-1676404D01*
X258039Y-1678725D01*
X258935Y-1680887D01*
X260360Y-1682744D01*
X262217Y-1684169D01*
X264379Y-1685065D01*
X266700Y-1685370D01*
X269021Y-1685065D01*
X271183Y-1684169D01*
X272866Y-1682878D01*
X274501D01*
X276978Y-1682385D01*
X279079Y-1680982D01*
X300488Y-1659572D01*
X301892Y-1657472D01*
X302384Y-1654994D01*
Y-1630285D01*
X301892Y-1627808D01*
X300488Y-1625707D01*
X284604Y-1609824D01*
Y-1516200D01*
X285895Y-1514517D01*
X286791Y-1512355D01*
X287068Y-1510252D01*
X287425Y-1509895D01*
X287969Y-1509532D01*
X301413Y-1496088D01*
X302816Y-1493987D01*
X303309Y-1491510D01*
Y-1490780D01*
X305568Y-1488521D01*
X306972Y-1486420D01*
X307464Y-1483943D01*
Y-1460105D01*
X306972Y-1457628D01*
X305568Y-1455527D01*
X271904Y-1421864D01*
Y-1351408D01*
X275750D01*
X278228Y-1350915D01*
X280328Y-1349512D01*
X295408Y-1334432D01*
X296812Y-1332331D01*
X297304Y-1329854D01*
Y-1297545D01*
X296812Y-1295068D01*
X295408Y-1292967D01*
X280794Y-1278354D01*
Y-1232990D01*
X282085Y-1231307D01*
X282981Y-1229145D01*
X283258Y-1227042D01*
X287788Y-1222512D01*
X289192Y-1220412D01*
X289684Y-1217934D01*
Y-1195204D01*
X297490D01*
Y-1174624D01*
X289684D01*
Y-1084400D01*
X290975Y-1082717D01*
X291871Y-1080555D01*
X291895Y-1080373D01*
X308108Y-1064160D01*
X309512Y-1062060D01*
X310004Y-1059582D01*
Y-981874D01*
X309512Y-979396D01*
X308108Y-977296D01*
X289429Y-958617D01*
X289705Y-958257D01*
X290601Y-956095D01*
X290878Y-953992D01*
X293506Y-951364D01*
X310190D01*
Y-930784D01*
X302384D01*
Y-836934D01*
X301892Y-834456D01*
X300488Y-832356D01*
X282064Y-813932D01*
Y-810388D01*
X283210D01*
X285688Y-809895D01*
X287788Y-808492D01*
X303028Y-793252D01*
X304432Y-791152D01*
X304924Y-788674D01*
Y-758885D01*
X304432Y-756407D01*
X303028Y-754307D01*
X293494Y-744773D01*
Y-720969D01*
X294640Y-719902D01*
X296997Y-719433D01*
X298995Y-718098D01*
X300329Y-716100D01*
X300546Y-715014D01*
X294640D01*
Y-712474D01*
X300546D01*
X300329Y-711387D01*
X298995Y-709389D01*
X296997Y-708054D01*
X294640Y-707586D01*
X293494Y-706518D01*
Y-674190D01*
X294785Y-672507D01*
X295681Y-670345D01*
X295987Y-668024D01*
X295681Y-665703D01*
X294785Y-663540D01*
X294427Y-663074D01*
X295054Y-661804D01*
X302570D01*
Y-641224D01*
X300004D01*
Y-537374D01*
X299512Y-534896D01*
X298108Y-532796D01*
X292224Y-526912D01*
Y-523368D01*
X300990D01*
X303468Y-522875D01*
X305568Y-521472D01*
X320808Y-506232D01*
X322212Y-504132D01*
X322704Y-501654D01*
Y-478794D01*
X322212Y-476316D01*
X320808Y-474216D01*
X320164Y-473572D01*
Y-471865D01*
X319672Y-469387D01*
X318268Y-467287D01*
X304877Y-453896D01*
X302777Y-452492D01*
X300299Y-451999D01*
X280812D01*
X276984Y-448172D01*
Y-387354D01*
X276492Y-384876D01*
X275703Y-383697D01*
X277628Y-381772D01*
X278903Y-379864D01*
X284950D01*
Y-359284D01*
X266870D01*
Y-372762D01*
X265600Y-373288D01*
X251584Y-359272D01*
Y-255416D01*
X263032Y-243968D01*
X266884D01*
X268567Y-245259D01*
X270729Y-246155D01*
X273050Y-246460D01*
X275371Y-246155D01*
X277533Y-245259D01*
X279390Y-243834D01*
X280815Y-241977D01*
X281078Y-241342D01*
X305568Y-216852D01*
X306972Y-214752D01*
X307464Y-212274D01*
Y-179945D01*
X306972Y-177468D01*
X305568Y-175367D01*
X289892Y-159691D01*
X287792Y-158288D01*
X285314Y-157795D01*
X145358D01*
X132128Y-144566D01*
X131851Y-142463D01*
X130955Y-140301D01*
X129530Y-138443D01*
X127673Y-137018D01*
X125511Y-136123D01*
X123190Y-135817D01*
D02*
G37*
G36*
X126556Y-238764D02*
X121920D01*
Y-243400D01*
X123007Y-243183D01*
X125005Y-241848D01*
X126340Y-239851D01*
X126556Y-238764D01*
D02*
G37*
G36*
X119380Y-231588D02*
X118293Y-231804D01*
X116295Y-233139D01*
X114960Y-235137D01*
X114744Y-236224D01*
X119380D01*
Y-231588D01*
D02*
G37*
G36*
X314960Y-199394D02*
X310324D01*
X310541Y-200480D01*
X311875Y-202478D01*
X313873Y-203813D01*
X314960Y-204030D01*
Y-199394D01*
D02*
G37*
G36*
X317500Y-192218D02*
Y-196854D01*
X322136D01*
X321920Y-195767D01*
X320585Y-193769D01*
X318587Y-192434D01*
X317500Y-192218D01*
D02*
G37*
G36*
X203200Y-184150D02*
X198564D01*
X198780Y-185237D01*
X200115Y-187235D01*
X202113Y-188570D01*
X203200Y-188786D01*
Y-184150D01*
D02*
G37*
G36*
X322136Y-199394D02*
X317500D01*
Y-204030D01*
X318587Y-203813D01*
X320585Y-202478D01*
X321920Y-200480D01*
X322136Y-199394D01*
D02*
G37*
G36*
X314960Y-192218D02*
X313873Y-192434D01*
X311875Y-193769D01*
X310541Y-195767D01*
X310324Y-196854D01*
X314960D01*
Y-192218D01*
D02*
G37*
G36*
X39370Y-282388D02*
X38283Y-282604D01*
X36285Y-283939D01*
X34950Y-285937D01*
X34734Y-287024D01*
X39370D01*
Y-282388D01*
D02*
G37*
G36*
X41910D02*
Y-287024D01*
X46546D01*
X46329Y-285937D01*
X44995Y-283939D01*
X42997Y-282604D01*
X41910Y-282388D01*
D02*
G37*
G36*
X99060Y-282126D02*
X98362Y-282218D01*
X96528Y-282978D01*
X94952Y-284186D01*
X93744Y-285761D01*
X92984Y-287596D01*
X92892Y-288294D01*
X99060D01*
Y-282126D01*
D02*
G37*
G36*
X101600D02*
Y-288294D01*
X107768D01*
X107676Y-287596D01*
X106916Y-285761D01*
X105708Y-284186D01*
X104132Y-282978D01*
X102298Y-282218D01*
X101600Y-282126D01*
D02*
G37*
G36*
X22860Y-270514D02*
X18224D01*
X18441Y-271600D01*
X19775Y-273598D01*
X21773Y-274933D01*
X22860Y-275149D01*
Y-270514D01*
D02*
G37*
G36*
X25400Y-263338D02*
Y-267974D01*
X30036D01*
X29820Y-266887D01*
X28485Y-264889D01*
X26487Y-263554D01*
X25400Y-263338D01*
D02*
G37*
G36*
X119380Y-238764D02*
X114744D01*
X114960Y-239851D01*
X116295Y-241848D01*
X118293Y-243183D01*
X119380Y-243400D01*
Y-238764D01*
D02*
G37*
G36*
X30036Y-270514D02*
X25400D01*
Y-275149D01*
X26487Y-274933D01*
X28485Y-273598D01*
X29820Y-271600D01*
X30036Y-270514D01*
D02*
G37*
G36*
X22860Y-263338D02*
X21773Y-263554D01*
X19775Y-264889D01*
X18441Y-266887D01*
X18224Y-267974D01*
X22860D01*
Y-263338D01*
D02*
G37*
G36*
X210376Y-184150D02*
X205740D01*
Y-188786D01*
X206827Y-188570D01*
X208825Y-187235D01*
X210159Y-185237D01*
X210376Y-184150D01*
D02*
G37*
G36*
X46808Y-129544D02*
X40640D01*
Y-135712D01*
X41338Y-135620D01*
X43172Y-134860D01*
X44748Y-133651D01*
X45956Y-132076D01*
X46716Y-130242D01*
X46808Y-129544D01*
D02*
G37*
G36*
X274320Y-127182D02*
X273622Y-127274D01*
X271787Y-128034D01*
X270212Y-129242D01*
X269004Y-130817D01*
X268244Y-132652D01*
X268152Y-133350D01*
X274320D01*
Y-127182D01*
D02*
G37*
G36*
X183968Y-134624D02*
X177800D01*
Y-140792D01*
X178498Y-140700D01*
X180333Y-139940D01*
X181908Y-138731D01*
X183116Y-137156D01*
X183876Y-135322D01*
X183968Y-134624D01*
D02*
G37*
G36*
X38100Y-129544D02*
X31932D01*
X32024Y-130242D01*
X32784Y-132076D01*
X33992Y-133651D01*
X35568Y-134860D01*
X37402Y-135620D01*
X38100Y-135712D01*
Y-129544D01*
D02*
G37*
G36*
X276860Y-127182D02*
Y-133350D01*
X283028D01*
X282936Y-132652D01*
X282176Y-130817D01*
X280968Y-129242D01*
X279393Y-128034D01*
X277558Y-127274D01*
X276860Y-127182D01*
D02*
G37*
G36*
X38100Y-120836D02*
X37402Y-120928D01*
X35568Y-121688D01*
X33992Y-122896D01*
X32784Y-124471D01*
X32024Y-126306D01*
X31932Y-127004D01*
X38100D01*
Y-120836D01*
D02*
G37*
G36*
X40640D02*
Y-127004D01*
X46808D01*
X46716Y-126306D01*
X45956Y-124471D01*
X44748Y-122896D01*
X43172Y-121688D01*
X41338Y-120928D01*
X40640Y-120836D01*
D02*
G37*
G36*
X175260Y-125916D02*
X174562Y-126008D01*
X172728Y-126768D01*
X171152Y-127976D01*
X169944Y-129551D01*
X169184Y-131385D01*
X169092Y-132084D01*
X175260D01*
Y-125916D01*
D02*
G37*
G36*
X177800D02*
Y-132084D01*
X183968D01*
X183876Y-131385D01*
X183116Y-129551D01*
X181908Y-127976D01*
X180333Y-126768D01*
X178498Y-126008D01*
X177800Y-125916D01*
D02*
G37*
G36*
X6350Y-167644D02*
X1714D01*
X1930Y-168731D01*
X3265Y-170728D01*
X5263Y-172063D01*
X6350Y-172279D01*
Y-167644D01*
D02*
G37*
G36*
X13526D02*
X8890D01*
Y-172279D01*
X9977Y-172063D01*
X11975Y-170728D01*
X13310Y-168731D01*
X13526Y-167644D01*
D02*
G37*
G36*
X203200Y-176974D02*
X202113Y-177190D01*
X200115Y-178525D01*
X198780Y-180523D01*
X198564Y-181610D01*
X203200D01*
Y-176974D01*
D02*
G37*
G36*
X205740D02*
Y-181610D01*
X210376D01*
X210159Y-180523D01*
X208825Y-178525D01*
X206827Y-177190D01*
X205740Y-176974D01*
D02*
G37*
G36*
X6350Y-160468D02*
X5263Y-160684D01*
X3265Y-162019D01*
X1930Y-164017D01*
X1714Y-165104D01*
X6350D01*
Y-160468D01*
D02*
G37*
G36*
X283028Y-135890D02*
X276860D01*
Y-142058D01*
X277558Y-141966D01*
X279393Y-141206D01*
X280968Y-139998D01*
X282176Y-138422D01*
X282936Y-136588D01*
X283028Y-135890D01*
D02*
G37*
G36*
X175260Y-134624D02*
X169092D01*
X169184Y-135322D01*
X169944Y-137156D01*
X171152Y-138731D01*
X172728Y-139940D01*
X174562Y-140700D01*
X175260Y-140792D01*
Y-134624D01*
D02*
G37*
G36*
X8890Y-160468D02*
Y-165104D01*
X13526D01*
X13310Y-164017D01*
X11975Y-162019D01*
X9977Y-160684D01*
X8890Y-160468D01*
D02*
G37*
G36*
X274320Y-135890D02*
X268152D01*
X268244Y-136588D01*
X269004Y-138422D01*
X270212Y-139998D01*
X271787Y-141206D01*
X273622Y-141966D01*
X274320Y-142058D01*
Y-135890D01*
D02*
G37*
G36*
X38100Y-832298D02*
Y-836934D01*
X42736D01*
X42519Y-835847D01*
X41185Y-833849D01*
X39187Y-832514D01*
X38100Y-832298D01*
D02*
G37*
G36*
X119380Y-800104D02*
X114744D01*
X114960Y-801190D01*
X116295Y-803188D01*
X118293Y-804523D01*
X119380Y-804740D01*
Y-800104D01*
D02*
G37*
G36*
X42736Y-839474D02*
X38100D01*
Y-844109D01*
X39187Y-843893D01*
X41185Y-842558D01*
X42519Y-840561D01*
X42736Y-839474D01*
D02*
G37*
G36*
X35560Y-832298D02*
X34473Y-832514D01*
X32475Y-833849D01*
X31140Y-835847D01*
X30924Y-836934D01*
X35560D01*
Y-832298D01*
D02*
G37*
G36*
X121920Y-792928D02*
Y-797564D01*
X126556D01*
X126340Y-796477D01*
X125005Y-794479D01*
X123007Y-793144D01*
X121920Y-792928D01*
D02*
G37*
G36*
X318730Y-753964D02*
X314094D01*
X314310Y-755051D01*
X315645Y-757048D01*
X317643Y-758383D01*
X318730Y-758599D01*
Y-753964D01*
D02*
G37*
G36*
X126556Y-800104D02*
X121920D01*
Y-804740D01*
X123007Y-804523D01*
X125005Y-803188D01*
X126340Y-801190D01*
X126556Y-800104D01*
D02*
G37*
G36*
X119380Y-792928D02*
X118293Y-793144D01*
X116295Y-794479D01*
X114960Y-796477D01*
X114744Y-797564D01*
X119380D01*
Y-792928D01*
D02*
G37*
G36*
X35560Y-839474D02*
X30924D01*
X31140Y-840561D01*
X32475Y-842558D01*
X34473Y-843893D01*
X35560Y-844109D01*
Y-839474D01*
D02*
G37*
G36*
X11430Y-854714D02*
X5262D01*
X5354Y-855412D01*
X6114Y-857246D01*
X7322Y-858821D01*
X8898Y-860030D01*
X10732Y-860790D01*
X11430Y-860882D01*
Y-854714D01*
D02*
G37*
G36*
X20138D02*
X13970D01*
Y-860882D01*
X14668Y-860790D01*
X16502Y-860030D01*
X18078Y-858821D01*
X19286Y-857246D01*
X20046Y-855412D01*
X20138Y-854714D01*
D02*
G37*
G36*
X144780Y-858968D02*
X143693Y-859184D01*
X141695Y-860519D01*
X140360Y-862517D01*
X140144Y-863604D01*
X144780D01*
Y-858968D01*
D02*
G37*
G36*
X147320D02*
Y-863604D01*
X151956D01*
X151740Y-862517D01*
X150405Y-860519D01*
X148407Y-859184D01*
X147320Y-858968D01*
D02*
G37*
G36*
X11430Y-846006D02*
X10732Y-846098D01*
X8898Y-846858D01*
X7322Y-848066D01*
X6114Y-849641D01*
X5354Y-851476D01*
X5262Y-852174D01*
X11430D01*
Y-846006D01*
D02*
G37*
G36*
X13970D02*
Y-852174D01*
X20138D01*
X20046Y-851476D01*
X19286Y-849641D01*
X18078Y-848066D01*
X16502Y-846858D01*
X14668Y-846098D01*
X13970Y-846006D01*
D02*
G37*
G36*
X101600Y-855158D02*
X100513Y-855374D01*
X98515Y-856709D01*
X97181Y-858707D01*
X96964Y-859794D01*
X101600D01*
Y-855158D01*
D02*
G37*
G36*
X104140D02*
Y-859794D01*
X108776D01*
X108560Y-858707D01*
X107225Y-856709D01*
X105227Y-855374D01*
X104140Y-855158D01*
D02*
G37*
G36*
X325906Y-753964D02*
X321270D01*
Y-758599D01*
X322357Y-758383D01*
X324355Y-757048D01*
X325690Y-755051D01*
X325906Y-753964D01*
D02*
G37*
G36*
X106680Y-698686D02*
Y-704854D01*
X112848D01*
X112756Y-704156D01*
X111996Y-702321D01*
X110788Y-700746D01*
X109213Y-699538D01*
X107378Y-698778D01*
X106680Y-698686D01*
D02*
G37*
G36*
X39370Y-698948D02*
X38283Y-699164D01*
X36285Y-700499D01*
X34950Y-702497D01*
X34734Y-703584D01*
X39370D01*
Y-698948D01*
D02*
G37*
G36*
X46546Y-706124D02*
X41910D01*
Y-710760D01*
X42997Y-710543D01*
X44995Y-709208D01*
X46329Y-707210D01*
X46546Y-706124D01*
D02*
G37*
G36*
X104140Y-698686D02*
X103442Y-698778D01*
X101608Y-699538D01*
X100032Y-700746D01*
X98824Y-702321D01*
X98064Y-704156D01*
X97972Y-704854D01*
X104140D01*
Y-698686D01*
D02*
G37*
G36*
X219266Y-695964D02*
X214630D01*
Y-700600D01*
X215717Y-700383D01*
X217715Y-699048D01*
X219049Y-697050D01*
X219266Y-695964D01*
D02*
G37*
G36*
X212090Y-688788D02*
X211003Y-689004D01*
X209005Y-690339D01*
X207670Y-692337D01*
X207454Y-693424D01*
X212090D01*
Y-688788D01*
D02*
G37*
G36*
X41910Y-698948D02*
Y-703584D01*
X46546D01*
X46329Y-702497D01*
X44995Y-700499D01*
X42997Y-699164D01*
X41910Y-698948D01*
D02*
G37*
G36*
X212090Y-695964D02*
X207454D01*
X207670Y-697050D01*
X209005Y-699048D01*
X211003Y-700383D01*
X212090Y-700600D01*
Y-695964D01*
D02*
G37*
G36*
X39370Y-706124D02*
X34734D01*
X34950Y-707210D01*
X36285Y-709208D01*
X38283Y-710543D01*
X39370Y-710760D01*
Y-706124D01*
D02*
G37*
G36*
X317500Y-717394D02*
X312864D01*
X313081Y-718481D01*
X314415Y-720478D01*
X316413Y-721813D01*
X317500Y-722029D01*
Y-717394D01*
D02*
G37*
G36*
X324676D02*
X320040D01*
Y-722029D01*
X321127Y-721813D01*
X323125Y-720478D01*
X324459Y-718481D01*
X324676Y-717394D01*
D02*
G37*
G36*
X318730Y-746788D02*
X317643Y-747004D01*
X315645Y-748339D01*
X314310Y-750337D01*
X314094Y-751424D01*
X318730D01*
Y-746788D01*
D02*
G37*
G36*
X321270D02*
Y-751424D01*
X325906D01*
X325690Y-750337D01*
X324355Y-748339D01*
X322357Y-747004D01*
X321270Y-746788D01*
D02*
G37*
G36*
X104140Y-707394D02*
X97972D01*
X98064Y-708092D01*
X98824Y-709926D01*
X100032Y-711501D01*
X101608Y-712710D01*
X103442Y-713470D01*
X104140Y-713562D01*
Y-707394D01*
D02*
G37*
G36*
X112848D02*
X106680D01*
Y-713562D01*
X107378Y-713470D01*
X109213Y-712710D01*
X110788Y-711501D01*
X111996Y-709926D01*
X112756Y-708092D01*
X112848Y-707394D01*
D02*
G37*
G36*
X317500Y-710218D02*
X316413Y-710434D01*
X314415Y-711769D01*
X313081Y-713767D01*
X312864Y-714854D01*
X317500D01*
Y-710218D01*
D02*
G37*
G36*
X320040D02*
Y-714854D01*
X324676D01*
X324459Y-713767D01*
X323125Y-711769D01*
X321127Y-710434D01*
X320040Y-710218D01*
D02*
G37*
G36*
X319880Y-942344D02*
X312110D01*
Y-951364D01*
X319880D01*
Y-942344D01*
D02*
G37*
G36*
X330190D02*
X322420D01*
Y-951364D01*
X330190D01*
Y-942344D01*
D02*
G37*
G36*
X104140Y-952948D02*
X103053Y-953164D01*
X101055Y-954499D01*
X99720Y-956497D01*
X99504Y-957584D01*
X104140D01*
Y-952948D01*
D02*
G37*
G36*
X106680D02*
Y-957584D01*
X111316D01*
X111100Y-956497D01*
X109765Y-954499D01*
X107767Y-953164D01*
X106680Y-952948D01*
D02*
G37*
G36*
X342900Y-935994D02*
X333630D01*
Y-945264D01*
X342900D01*
Y-935994D01*
D02*
G37*
G36*
X354710D02*
X345440D01*
Y-945264D01*
X354710D01*
Y-935994D01*
D02*
G37*
G36*
X17780D02*
X8510D01*
Y-945264D01*
X17780D01*
Y-935994D01*
D02*
G37*
G36*
X29590D02*
X20320D01*
Y-945264D01*
X29590D01*
Y-935994D01*
D02*
G37*
G36*
X179070Y-960728D02*
X177983Y-960944D01*
X175985Y-962279D01*
X175019Y-963725D01*
X173547Y-963809D01*
X173265Y-963385D01*
X171267Y-962050D01*
X170180Y-961834D01*
Y-967740D01*
Y-973646D01*
X171267Y-973429D01*
X173265Y-972095D01*
X174231Y-970648D01*
X175703Y-970565D01*
X175985Y-970988D01*
X177983Y-972323D01*
X179070Y-972540D01*
Y-966634D01*
Y-960728D01*
D02*
G37*
G36*
X167640Y-969010D02*
X163004D01*
X163221Y-970097D01*
X164555Y-972095D01*
X166553Y-973429D01*
X167640Y-973646D01*
Y-969010D01*
D02*
G37*
G36*
X186246Y-967904D02*
X181610D01*
Y-972540D01*
X182697Y-972323D01*
X184695Y-970988D01*
X186029Y-968990D01*
X186246Y-967904D01*
D02*
G37*
G36*
X200660Y-977078D02*
X199573Y-977294D01*
X197575Y-978629D01*
X196241Y-980627D01*
X196024Y-981714D01*
X200660D01*
Y-977078D01*
D02*
G37*
G36*
X203200D02*
Y-981714D01*
X207836D01*
X207619Y-980627D01*
X206285Y-978629D01*
X204287Y-977294D01*
X203200Y-977078D01*
D02*
G37*
G36*
X104140Y-960124D02*
X99504D01*
X99720Y-961210D01*
X101055Y-963208D01*
X103053Y-964543D01*
X104140Y-964760D01*
Y-960124D01*
D02*
G37*
G36*
X111316D02*
X106680D01*
Y-964760D01*
X107767Y-964543D01*
X109765Y-963208D01*
X111100Y-961210D01*
X111316Y-960124D01*
D02*
G37*
G36*
X167640Y-961834D02*
X166553Y-962050D01*
X164555Y-963385D01*
X163221Y-965383D01*
X163004Y-966470D01*
X167640D01*
Y-961834D01*
D02*
G37*
G36*
X181610Y-960728D02*
Y-965364D01*
X186246D01*
X186029Y-964277D01*
X184695Y-962279D01*
X182697Y-960944D01*
X181610Y-960728D01*
D02*
G37*
G36*
X319880Y-930784D02*
X312110D01*
Y-939804D01*
X319880D01*
Y-930784D01*
D02*
G37*
G36*
X40640Y-891544D02*
X36004D01*
X36221Y-892630D01*
X37555Y-894628D01*
X39553Y-895963D01*
X40640Y-896180D01*
Y-891544D01*
D02*
G37*
G36*
Y-884368D02*
X39553Y-884584D01*
X37555Y-885919D01*
X36221Y-887917D01*
X36004Y-889004D01*
X40640D01*
Y-884368D01*
D02*
G37*
G36*
X219710Y-896806D02*
X219012Y-896898D01*
X217178Y-897658D01*
X215602Y-898866D01*
X214394Y-900441D01*
X213634Y-902275D01*
X213542Y-902974D01*
X219710D01*
Y-896806D01*
D02*
G37*
G36*
X222250D02*
Y-902974D01*
X228418D01*
X228326Y-902275D01*
X227566Y-900441D01*
X226358Y-898866D01*
X224783Y-897658D01*
X222948Y-896898D01*
X222250Y-896806D01*
D02*
G37*
G36*
X101600Y-862334D02*
X96964D01*
X97181Y-863420D01*
X98515Y-865418D01*
X100513Y-866753D01*
X101600Y-866970D01*
Y-862334D01*
D02*
G37*
G36*
X108776D02*
X104140D01*
Y-866970D01*
X105227Y-866753D01*
X107225Y-865418D01*
X108560Y-863420D01*
X108776Y-862334D01*
D02*
G37*
G36*
X144780Y-866144D02*
X140144D01*
X140360Y-867231D01*
X141695Y-869228D01*
X143693Y-870563D01*
X144780Y-870779D01*
Y-866144D01*
D02*
G37*
G36*
X151956D02*
X147320D01*
Y-870779D01*
X148407Y-870563D01*
X150405Y-869228D01*
X151740Y-867231D01*
X151956Y-866144D01*
D02*
G37*
G36*
X228418Y-905514D02*
X222250D01*
Y-911682D01*
X222948Y-911590D01*
X224783Y-910830D01*
X226358Y-909621D01*
X227566Y-908046D01*
X228326Y-906212D01*
X228418Y-905514D01*
D02*
G37*
G36*
X342900Y-924184D02*
X333630D01*
Y-933454D01*
X342900D01*
Y-924184D01*
D02*
G37*
G36*
X29590D02*
X20320D01*
Y-933454D01*
X29590D01*
Y-924184D01*
D02*
G37*
G36*
X330190Y-930784D02*
X322420D01*
Y-939804D01*
X330190D01*
Y-930784D01*
D02*
G37*
G36*
X17780Y-924184D02*
X8510D01*
Y-933454D01*
X17780D01*
Y-924184D01*
D02*
G37*
G36*
X344170Y-899205D02*
X341551Y-899550D01*
X339111Y-900561D01*
X337015Y-902169D01*
X335407Y-904265D01*
X334396Y-906705D01*
X334052Y-909324D01*
X334396Y-911943D01*
X335407Y-914383D01*
X337015Y-916479D01*
X339111Y-918087D01*
X341551Y-919098D01*
X344170Y-919442D01*
X346789Y-919098D01*
X349229Y-918087D01*
X351325Y-916479D01*
X352933Y-914383D01*
X353944Y-911943D01*
X354288Y-909324D01*
X353944Y-906705D01*
X352933Y-904265D01*
X351325Y-902169D01*
X349229Y-900561D01*
X346789Y-899550D01*
X344170Y-899205D01*
D02*
G37*
G36*
X219710Y-905514D02*
X213542D01*
X213634Y-906212D01*
X214394Y-908046D01*
X215602Y-909621D01*
X217178Y-910830D01*
X219012Y-911590D01*
X219710Y-911682D01*
Y-905514D01*
D02*
G37*
G36*
X354710Y-924184D02*
X345440D01*
Y-933454D01*
X354710D01*
Y-924184D01*
D02*
G37*
G36*
X19050Y-899205D02*
X16431Y-899550D01*
X13991Y-900561D01*
X11895Y-902169D01*
X10287Y-904265D01*
X9276Y-906705D01*
X8931Y-909324D01*
X9276Y-911943D01*
X10287Y-914383D01*
X11895Y-916479D01*
X13991Y-918087D01*
X16431Y-919098D01*
X19050Y-919442D01*
X21669Y-919098D01*
X24109Y-918087D01*
X26205Y-916479D01*
X27813Y-914383D01*
X28824Y-911943D01*
X29169Y-909324D01*
X28824Y-906705D01*
X27813Y-904265D01*
X26205Y-902169D01*
X24109Y-900561D01*
X21669Y-899550D01*
X19050Y-899205D01*
D02*
G37*
G36*
X104140Y-565598D02*
Y-570234D01*
X108776D01*
X108560Y-569147D01*
X107225Y-567149D01*
X105227Y-565814D01*
X104140Y-565598D01*
D02*
G37*
G36*
X337820Y-560074D02*
X333184D01*
X333400Y-561161D01*
X334735Y-563158D01*
X336733Y-564493D01*
X337820Y-564710D01*
Y-560074D01*
D02*
G37*
G36*
X108776Y-572774D02*
X104140D01*
Y-577410D01*
X105227Y-577193D01*
X107225Y-575858D01*
X108560Y-573861D01*
X108776Y-572774D01*
D02*
G37*
G36*
X101600Y-565598D02*
X100513Y-565814D01*
X98515Y-567149D01*
X97181Y-569147D01*
X96964Y-570234D01*
X101600D01*
Y-565598D01*
D02*
G37*
G36*
X45276Y-558804D02*
X40640D01*
Y-563439D01*
X41727Y-563223D01*
X43725Y-561888D01*
X45059Y-559891D01*
X45276Y-558804D01*
D02*
G37*
G36*
X337820Y-552898D02*
X336733Y-553114D01*
X334735Y-554449D01*
X333400Y-556447D01*
X333184Y-557534D01*
X337820D01*
Y-552898D01*
D02*
G37*
G36*
X344996Y-560074D02*
X340360D01*
Y-564710D01*
X341447Y-564493D01*
X343445Y-563158D01*
X344780Y-561161D01*
X344996Y-560074D01*
D02*
G37*
G36*
X38100Y-558804D02*
X33464D01*
X33681Y-559891D01*
X35015Y-561888D01*
X37013Y-563223D01*
X38100Y-563439D01*
Y-558804D01*
D02*
G37*
G36*
X101600Y-572774D02*
X96964D01*
X97181Y-573861D01*
X98515Y-575858D01*
X100513Y-577193D01*
X101600Y-577410D01*
Y-572774D01*
D02*
G37*
G36*
X109220Y-596078D02*
Y-600714D01*
X113856D01*
X113639Y-599627D01*
X112305Y-597629D01*
X110307Y-596294D01*
X109220Y-596078D01*
D02*
G37*
G36*
X279400Y-586926D02*
X278702Y-587018D01*
X276868Y-587778D01*
X275292Y-588986D01*
X274084Y-590561D01*
X273324Y-592396D01*
X273232Y-593094D01*
X279400D01*
Y-586926D01*
D02*
G37*
G36*
Y-595634D02*
X273232D01*
X273324Y-596332D01*
X274084Y-598166D01*
X275292Y-599741D01*
X276868Y-600950D01*
X278702Y-601710D01*
X279400Y-601802D01*
Y-595634D01*
D02*
G37*
G36*
X106680Y-596078D02*
X105593Y-596294D01*
X103595Y-597629D01*
X102261Y-599627D01*
X102044Y-600714D01*
X106680D01*
Y-596078D01*
D02*
G37*
G36*
X140970Y-574488D02*
X139883Y-574704D01*
X137885Y-576039D01*
X136551Y-578037D01*
X136334Y-579124D01*
X140970D01*
Y-574488D01*
D02*
G37*
G36*
X143510D02*
Y-579124D01*
X148146D01*
X147929Y-578037D01*
X146595Y-576039D01*
X144597Y-574704D01*
X143510Y-574488D01*
D02*
G37*
G36*
X140970Y-581664D02*
X136334D01*
X136551Y-582751D01*
X137885Y-584748D01*
X139883Y-586083D01*
X140970Y-586300D01*
Y-581664D01*
D02*
G37*
G36*
X148146D02*
X143510D01*
Y-586300D01*
X144597Y-586083D01*
X146595Y-584748D01*
X147929Y-582751D01*
X148146Y-581664D01*
D02*
G37*
G36*
X340360Y-552898D02*
Y-557534D01*
X344996D01*
X344780Y-556447D01*
X343445Y-554449D01*
X341447Y-553114D01*
X340360Y-552898D01*
D02*
G37*
G36*
X235776Y-502924D02*
X231140D01*
Y-507560D01*
X232227Y-507343D01*
X234225Y-506008D01*
X235560Y-504011D01*
X235776Y-502924D01*
D02*
G37*
G36*
X228600Y-495748D02*
X227513Y-495964D01*
X225515Y-497299D01*
X224181Y-499297D01*
X223964Y-500384D01*
X228600D01*
Y-495748D01*
D02*
G37*
G36*
X121920Y-512258D02*
Y-516894D01*
X126556D01*
X126340Y-515807D01*
X125005Y-513809D01*
X123007Y-512474D01*
X121920Y-512258D01*
D02*
G37*
G36*
X228600Y-502924D02*
X223964D01*
X224181Y-504011D01*
X225515Y-506008D01*
X227513Y-507343D01*
X228600Y-507560D01*
Y-502924D01*
D02*
G37*
G36*
X337376Y-472444D02*
X332740D01*
Y-477080D01*
X333827Y-476863D01*
X335825Y-475528D01*
X337160Y-473531D01*
X337376Y-472444D01*
D02*
G37*
G36*
X330200Y-465268D02*
X329113Y-465484D01*
X327115Y-466819D01*
X325780Y-468817D01*
X325564Y-469904D01*
X330200D01*
Y-465268D01*
D02*
G37*
G36*
X231140Y-495748D02*
Y-500384D01*
X235776D01*
X235560Y-499297D01*
X234225Y-497299D01*
X232227Y-495964D01*
X231140Y-495748D01*
D02*
G37*
G36*
X330200Y-472444D02*
X325564D01*
X325780Y-473531D01*
X327115Y-475528D01*
X329113Y-476863D01*
X330200Y-477080D01*
Y-472444D01*
D02*
G37*
G36*
X119380Y-512258D02*
X118293Y-512474D01*
X116295Y-513809D01*
X114960Y-515807D01*
X114744Y-516894D01*
X119380D01*
Y-512258D01*
D02*
G37*
G36*
X187960Y-547374D02*
X181792D01*
X181884Y-548072D01*
X182644Y-549906D01*
X183852Y-551481D01*
X185427Y-552690D01*
X187262Y-553450D01*
X187960Y-553542D01*
Y-547374D01*
D02*
G37*
G36*
X196668D02*
X190500D01*
Y-553542D01*
X191198Y-553450D01*
X193032Y-552690D01*
X194608Y-551481D01*
X195816Y-549906D01*
X196576Y-548072D01*
X196668Y-547374D01*
D02*
G37*
G36*
X38100Y-551628D02*
X37013Y-551844D01*
X35015Y-553179D01*
X33681Y-555177D01*
X33464Y-556264D01*
X38100D01*
Y-551628D01*
D02*
G37*
G36*
X40640D02*
Y-556264D01*
X45276D01*
X45059Y-555177D01*
X43725Y-553179D01*
X41727Y-551844D01*
X40640Y-551628D01*
D02*
G37*
G36*
X119380Y-519434D02*
X114744D01*
X114960Y-520521D01*
X116295Y-522518D01*
X118293Y-523853D01*
X119380Y-524070D01*
Y-519434D01*
D02*
G37*
G36*
X126556D02*
X121920D01*
Y-524070D01*
X123007Y-523853D01*
X125005Y-522518D01*
X126340Y-520521D01*
X126556Y-519434D01*
D02*
G37*
G36*
X187960Y-538666D02*
X187262Y-538758D01*
X185427Y-539518D01*
X183852Y-540726D01*
X182644Y-542301D01*
X181884Y-544136D01*
X181792Y-544834D01*
X187960D01*
Y-538666D01*
D02*
G37*
G36*
X190500D02*
Y-544834D01*
X196668D01*
X196576Y-544136D01*
X195816Y-542301D01*
X194608Y-540726D01*
X193032Y-539518D01*
X191198Y-538758D01*
X190500Y-538666D01*
D02*
G37*
G36*
X113856Y-603254D02*
X109220D01*
Y-607890D01*
X110307Y-607673D01*
X112305Y-606338D01*
X113639Y-604341D01*
X113856Y-603254D01*
D02*
G37*
G36*
X27050Y-659134D02*
X17780D01*
Y-668404D01*
X27050D01*
Y-659134D01*
D02*
G37*
G36*
X344170D02*
X334900D01*
Y-668404D01*
X344170D01*
Y-659134D01*
D02*
G37*
G36*
X44450Y-667198D02*
Y-671834D01*
X49086D01*
X48870Y-670747D01*
X47535Y-668749D01*
X45537Y-667414D01*
X44450Y-667198D01*
D02*
G37*
G36*
X15240Y-659134D02*
X5970D01*
Y-668404D01*
X15240D01*
Y-659134D01*
D02*
G37*
G36*
X355980D02*
X346710D01*
Y-668404D01*
X355980D01*
Y-659134D01*
D02*
G37*
G36*
X15240Y-647324D02*
X5970D01*
Y-656594D01*
X15240D01*
Y-647324D01*
D02*
G37*
G36*
X344170D02*
X334900D01*
Y-656594D01*
X344170D01*
Y-647324D01*
D02*
G37*
G36*
X312260Y-652784D02*
X304490D01*
Y-661804D01*
X312260D01*
Y-652784D01*
D02*
G37*
G36*
X322570D02*
X314800D01*
Y-661804D01*
X322570D01*
Y-652784D01*
D02*
G37*
G36*
X41910Y-667198D02*
X40823Y-667414D01*
X38825Y-668749D01*
X37490Y-670747D01*
X37274Y-671834D01*
X41910D01*
Y-667198D01*
D02*
G37*
G36*
X170180Y-679454D02*
X165544D01*
X165760Y-680540D01*
X167095Y-682538D01*
X169093Y-683873D01*
X170180Y-684090D01*
Y-679454D01*
D02*
G37*
G36*
X177356D02*
X172720D01*
Y-684090D01*
X173807Y-683873D01*
X175805Y-682538D01*
X177139Y-680540D01*
X177356Y-679454D01*
D02*
G37*
G36*
X214630Y-688788D02*
Y-693424D01*
X219266D01*
X219049Y-692337D01*
X217715Y-690339D01*
X215717Y-689004D01*
X214630Y-688788D01*
D02*
G37*
G36*
X102426Y-680724D02*
X97790D01*
Y-685359D01*
X98877Y-685143D01*
X100875Y-683808D01*
X102210Y-681811D01*
X102426Y-680724D01*
D02*
G37*
G36*
X41910Y-674374D02*
X37274D01*
X37490Y-675461D01*
X38825Y-677458D01*
X40823Y-678793D01*
X41910Y-679009D01*
Y-674374D01*
D02*
G37*
G36*
X170180Y-672278D02*
X169093Y-672494D01*
X167095Y-673829D01*
X165760Y-675827D01*
X165544Y-676914D01*
X170180D01*
Y-672278D01*
D02*
G37*
G36*
X172720D02*
Y-676914D01*
X177356D01*
X177139Y-675827D01*
X175805Y-673829D01*
X173807Y-672494D01*
X172720Y-672278D01*
D02*
G37*
G36*
X49086Y-674374D02*
X44450D01*
Y-679009D01*
X45537Y-678793D01*
X47535Y-677458D01*
X48870Y-675461D01*
X49086Y-674374D01*
D02*
G37*
G36*
X97790Y-673548D02*
Y-678184D01*
X102426D01*
X102210Y-677097D01*
X100875Y-675099D01*
X98877Y-673764D01*
X97790Y-673548D01*
D02*
G37*
G36*
X196850Y-619946D02*
Y-626114D01*
X203018D01*
X202926Y-625415D01*
X202166Y-623581D01*
X200958Y-622006D01*
X199382Y-620798D01*
X197548Y-620038D01*
X196850Y-619946D01*
D02*
G37*
G36*
X106680Y-603254D02*
X102044D01*
X102261Y-604341D01*
X103595Y-606338D01*
X105593Y-607673D01*
X106680Y-607890D01*
Y-603254D01*
D02*
G37*
G36*
X203018Y-628654D02*
X196850D01*
Y-634822D01*
X197548Y-634730D01*
X199382Y-633970D01*
X200958Y-632761D01*
X202166Y-631186D01*
X202926Y-629352D01*
X203018Y-628654D01*
D02*
G37*
G36*
X194310Y-619946D02*
X193612Y-620038D01*
X191777Y-620798D01*
X190202Y-622006D01*
X188994Y-623581D01*
X188234Y-625415D01*
X188142Y-626114D01*
X194310D01*
Y-619946D01*
D02*
G37*
G36*
X38100Y-610048D02*
X37013Y-610264D01*
X35015Y-611599D01*
X33681Y-613597D01*
X33464Y-614684D01*
X38100D01*
Y-610048D01*
D02*
G37*
G36*
X45276Y-617224D02*
X40640D01*
Y-621860D01*
X41727Y-621643D01*
X43725Y-620308D01*
X45059Y-618311D01*
X45276Y-617224D01*
D02*
G37*
G36*
X38100D02*
X33464D01*
X33681Y-618311D01*
X35015Y-620308D01*
X37013Y-621643D01*
X38100Y-621860D01*
Y-617224D01*
D02*
G37*
G36*
X40640Y-610048D02*
Y-614684D01*
X45276D01*
X45059Y-613597D01*
X43725Y-611599D01*
X41727Y-610264D01*
X40640Y-610048D01*
D02*
G37*
G36*
X312260Y-641224D02*
X304490D01*
Y-650244D01*
X312260D01*
Y-641224D01*
D02*
G37*
G36*
X355980Y-647324D02*
X346710D01*
Y-656594D01*
X355980D01*
Y-647324D01*
D02*
G37*
G36*
X27050D02*
X17780D01*
Y-656594D01*
X27050D01*
Y-647324D01*
D02*
G37*
G36*
X322570Y-641224D02*
X314800D01*
Y-650244D01*
X322570D01*
Y-641224D01*
D02*
G37*
G36*
X194310Y-628654D02*
X188142D01*
X188234Y-629352D01*
X188994Y-631186D01*
X190202Y-632761D01*
X191777Y-633970D01*
X193612Y-634730D01*
X194310Y-634822D01*
Y-628654D01*
D02*
G37*
G36*
X345440Y-622345D02*
X342821Y-622690D01*
X340381Y-623701D01*
X338285Y-625309D01*
X336677Y-627405D01*
X335666Y-629845D01*
X335322Y-632464D01*
X335666Y-635083D01*
X336677Y-637523D01*
X338285Y-639619D01*
X340381Y-641227D01*
X342821Y-642238D01*
X345440Y-642582D01*
X348059Y-642238D01*
X350499Y-641227D01*
X352595Y-639619D01*
X354203Y-637523D01*
X355214Y-635083D01*
X355559Y-632464D01*
X355214Y-629845D01*
X354203Y-627405D01*
X352595Y-625309D01*
X350499Y-623701D01*
X348059Y-622690D01*
X345440Y-622345D01*
D02*
G37*
G36*
X16510D02*
X13891Y-622690D01*
X11451Y-623701D01*
X9355Y-625309D01*
X7747Y-627405D01*
X6736Y-629845D01*
X6392Y-632464D01*
X6736Y-635083D01*
X7747Y-637523D01*
X9355Y-639619D01*
X11451Y-641227D01*
X13891Y-642238D01*
X16510Y-642582D01*
X19129Y-642238D01*
X21569Y-641227D01*
X23665Y-639619D01*
X25273Y-637523D01*
X26284Y-635083D01*
X26628Y-632464D01*
X26284Y-629845D01*
X25273Y-627405D01*
X23665Y-625309D01*
X21569Y-623701D01*
X19129Y-622690D01*
X16510Y-622345D01*
D02*
G37*
%LPD*%
G36*
X72484Y-433002D02*
Y-454304D01*
X54392Y-472396D01*
X52289Y-472673D01*
X50127Y-473568D01*
X48270Y-474993D01*
X46845Y-476851D01*
X45949Y-479013D01*
X45643Y-481334D01*
X45949Y-483655D01*
X46845Y-485817D01*
X48270Y-487674D01*
X50127Y-489099D01*
X52289Y-489995D01*
X54392Y-490272D01*
X78616Y-514496D01*
Y-735192D01*
X54392Y-759416D01*
X52289Y-759693D01*
X50127Y-760588D01*
X48270Y-762013D01*
X46845Y-763870D01*
X45949Y-766033D01*
X45643Y-768354D01*
X45949Y-770675D01*
X46845Y-772837D01*
X48270Y-774694D01*
X50127Y-776119D01*
X52289Y-777015D01*
X54392Y-777292D01*
X78616Y-801516D01*
Y-1009512D01*
X54392Y-1033736D01*
X52289Y-1034013D01*
X50127Y-1034908D01*
X48270Y-1036333D01*
X46845Y-1038191D01*
X45949Y-1040353D01*
X45643Y-1042674D01*
X45949Y-1044995D01*
X46845Y-1047157D01*
X48270Y-1049014D01*
X50127Y-1050439D01*
X52289Y-1051335D01*
X54610Y-1051640D01*
X56931Y-1051335D01*
X59093Y-1050439D01*
X60081Y-1049681D01*
X69726Y-1059326D01*
Y-1084478D01*
X68456Y-1084603D01*
X68212Y-1083376D01*
X66808Y-1081276D01*
X63548Y-1078016D01*
X63271Y-1075913D01*
X62375Y-1073751D01*
X60950Y-1071893D01*
X59093Y-1070468D01*
X56931Y-1069573D01*
X54610Y-1069267D01*
X52289Y-1069573D01*
X50127Y-1070468D01*
X48444Y-1071759D01*
X44592D01*
X30604Y-1057772D01*
Y-1035196D01*
X52533Y-1013267D01*
X54610Y-1013540D01*
X56931Y-1013235D01*
X59093Y-1012339D01*
X60950Y-1010914D01*
X62375Y-1009057D01*
X63271Y-1006895D01*
X63577Y-1004574D01*
X63271Y-1002253D01*
X62375Y-1000090D01*
X61084Y-998408D01*
Y-968637D01*
X62354Y-968206D01*
X63202Y-969311D01*
X64777Y-970520D01*
X66612Y-971280D01*
X67310Y-971372D01*
Y-963934D01*
Y-956496D01*
X66612Y-956588D01*
X64777Y-957348D01*
X63202Y-958556D01*
X62354Y-959661D01*
X61084Y-959230D01*
Y-810080D01*
X62375Y-808397D01*
X63271Y-806235D01*
X63577Y-803914D01*
X63271Y-801593D01*
X62375Y-799430D01*
X60950Y-797573D01*
X59093Y-796148D01*
X56931Y-795253D01*
X54610Y-794947D01*
X52289Y-795253D01*
X50127Y-796148D01*
X48444Y-797439D01*
X47132D01*
X35684Y-785992D01*
Y-756667D01*
X66808Y-725544D01*
X67215Y-724934D01*
X68570Y-723894D01*
X69995Y-722037D01*
X70891Y-719875D01*
X71197Y-717554D01*
X70891Y-715233D01*
X69995Y-713071D01*
X68704Y-711388D01*
Y-539754D01*
X68212Y-537276D01*
X66808Y-535176D01*
X61084Y-529452D01*
Y-523060D01*
X62375Y-521377D01*
X63271Y-519215D01*
X63577Y-516894D01*
X63271Y-514573D01*
X62375Y-512411D01*
X60950Y-510553D01*
X59093Y-509128D01*
X56931Y-508233D01*
X54610Y-507927D01*
X52289Y-508233D01*
X50127Y-509128D01*
X48444Y-510419D01*
X36972D01*
X33144Y-506592D01*
Y-471316D01*
X44668Y-459792D01*
X46771Y-459515D01*
X48933Y-458619D01*
X50790Y-457194D01*
X52215Y-455337D01*
X53111Y-453175D01*
X53417Y-450854D01*
X53349Y-450341D01*
X71214Y-432476D01*
X72484Y-433002D01*
D02*
G37*
%LPC*%
G36*
X76018Y-965204D02*
X69850D01*
Y-971372D01*
X70548Y-971280D01*
X72382Y-970520D01*
X73958Y-969311D01*
X75166Y-967736D01*
X75926Y-965902D01*
X76018Y-965204D01*
D02*
G37*
G36*
X69850Y-956496D02*
Y-962664D01*
X76018D01*
X75926Y-961965D01*
X75166Y-960131D01*
X73958Y-958556D01*
X72382Y-957348D01*
X70548Y-956588D01*
X69850Y-956496D01*
D02*
G37*
%LPD*%
G36*
X281038Y-749933D02*
X282442Y-752033D01*
X291976Y-761567D01*
Y-785992D01*
X281061Y-796906D01*
X280073Y-796148D01*
X277911Y-795253D01*
X275590Y-794947D01*
X273269Y-795253D01*
X271107Y-796148D01*
X269250Y-797573D01*
X267825Y-799430D01*
X266929Y-801593D01*
X266623Y-803914D01*
X266929Y-806235D01*
X267825Y-808397D01*
X269116Y-810080D01*
Y-816614D01*
X269608Y-819091D01*
X271012Y-821192D01*
X289436Y-839616D01*
Y-937122D01*
X281722Y-944836D01*
X279619Y-945113D01*
X277457Y-946008D01*
X275600Y-947433D01*
X274175Y-949290D01*
X273279Y-951453D01*
X272973Y-953774D01*
X273279Y-956095D01*
X274175Y-958257D01*
X275466Y-959940D01*
Y-960284D01*
X275958Y-962761D01*
X277362Y-964862D01*
X297056Y-984556D01*
Y-996764D01*
X295786Y-997149D01*
X295408Y-996584D01*
X251584Y-952760D01*
Y-783736D01*
X260492Y-774828D01*
X269424D01*
X271107Y-776119D01*
X273269Y-777015D01*
X275590Y-777320D01*
X277911Y-777015D01*
X280073Y-776119D01*
X281930Y-774694D01*
X283355Y-772837D01*
X284251Y-770675D01*
X284557Y-768354D01*
X284251Y-766033D01*
X283355Y-763870D01*
X281930Y-762013D01*
X280073Y-760588D01*
X279684Y-760427D01*
Y-749635D01*
X280954Y-749510D01*
X281038Y-749933D01*
D02*
G37*
%LPC*%
G36*
X275590Y-877574D02*
X269422D01*
X269514Y-878272D01*
X270274Y-880106D01*
X271482Y-881681D01*
X273057Y-882890D01*
X274892Y-883650D01*
X275590Y-883742D01*
Y-877574D01*
D02*
G37*
G36*
X284298D02*
X278130D01*
Y-883742D01*
X278828Y-883650D01*
X280662Y-882890D01*
X282238Y-881681D01*
X283446Y-880106D01*
X284206Y-878272D01*
X284298Y-877574D01*
D02*
G37*
G36*
X278130Y-868866D02*
Y-875034D01*
X284298D01*
X284206Y-874335D01*
X283446Y-872501D01*
X282238Y-870926D01*
X280662Y-869718D01*
X278828Y-868958D01*
X278130Y-868866D01*
D02*
G37*
G36*
X275590D02*
X274892Y-868958D01*
X273057Y-869718D01*
X271482Y-870926D01*
X270274Y-872501D01*
X269514Y-874335D01*
X269422Y-875034D01*
X275590D01*
Y-868866D01*
D02*
G37*
%LPD*%
D14*
X67310Y-1887224D02*
D03*
X295910Y-1891034D02*
D03*
X267970Y-1761494D02*
D03*
X193040Y-1710694D02*
D03*
X176580Y-1602740D02*
D03*
X205740Y-1532894D02*
D03*
X300990Y-1546864D02*
D03*
X224790Y-1379224D02*
D03*
X186690Y-1163324D02*
D03*
X191770Y-1108714D02*
D03*
X105410Y-1130304D02*
D03*
X220980Y-904244D02*
D03*
X171450Y-996950D02*
D03*
X68580Y-963934D02*
D03*
X12700Y-853444D02*
D03*
X276860Y-876304D02*
D03*
X105410Y-706124D02*
D03*
X195580Y-627384D02*
D03*
X280670Y-594364D02*
D03*
X189230Y-546104D02*
D03*
X163830Y-350524D02*
D03*
X43180Y-414024D02*
D03*
X278130Y-316234D02*
D03*
X100330Y-289564D02*
D03*
X39370Y-128274D02*
D03*
X97790Y-95254D02*
D03*
X176530Y-133354D02*
D03*
X175260Y-95254D02*
D03*
X275590Y-134620D02*
D03*
D26*
X273210Y-768354D02*
Y-705014D01*
X273050Y-237494D02*
X275770D01*
X300990Y-212274D01*
X274501Y-1676404D02*
X295910Y-1654994D01*
X266700Y-1676404D02*
X274501D01*
X287020Y-707434D02*
Y-658024D01*
X284790Y-709664D02*
X287020Y-707434D01*
X284790Y-717824D02*
Y-709664D01*
Y-717824D02*
X287020Y-720054D01*
Y-747455D02*
Y-720054D01*
Y-658024D02*
X293530Y-651514D01*
X287020Y-747455D02*
X298450Y-758885D01*
X44065Y-450469D02*
X67310Y-427224D01*
X26670Y-468634D02*
X44450Y-450854D01*
X26670Y-509274D02*
Y-468634D01*
X24130Y-1662434D02*
Y-1637034D01*
X54610Y-1606554D01*
X49530Y-1680214D02*
X54610Y-1685294D01*
Y-1766414D02*
Y-1685294D01*
X41910Y-1680214D02*
X49530D01*
X24130Y-1662434D02*
X41910Y-1680214D01*
X82550Y-1609094D02*
Y-1489714D01*
X49530Y-1642114D02*
X82550Y-1609094D01*
X64770Y-1642114D02*
X77470Y-1654814D01*
X49530Y-1642114D02*
X64770D01*
X278130Y-458474D02*
X300299D01*
X270510Y-450854D02*
X278130Y-458474D01*
X270510Y-450854D02*
Y-387354D01*
X281940Y-960284D02*
X303530Y-981874D01*
Y-1059582D02*
Y-981874D01*
X284878Y-1078234D02*
X303530Y-1059582D01*
X62230Y-1042674D02*
X76200Y-1056644D01*
Y-1285244D02*
Y-1056644D01*
X52070Y-1309374D02*
X76200Y-1285244D01*
X266700Y-383544D02*
X270510Y-387354D01*
X66040Y-229854D02*
Y-227153D01*
X53340Y-214453D02*
X66040Y-227153D01*
X53340Y-214453D02*
Y-205744D01*
Y-187844D01*
X78958Y-456986D02*
Y-242772D01*
X54610Y-481334D02*
X78958Y-456986D01*
X66040Y-229854D02*
X78958Y-242772D01*
X224790Y-427994D02*
X279400Y-482604D01*
X255270Y-506734D02*
X279400Y-482604D01*
X255270Y-687074D02*
Y-506734D01*
X85090Y-737874D02*
Y-511814D01*
X54610Y-481334D02*
X85090Y-511814D01*
X53340Y-187844D02*
X69790Y-171394D01*
X123190Y-144784D02*
X142676Y-164270D01*
X285314D01*
X36830Y-184154D02*
X73660Y-147324D01*
X36830Y-215904D02*
Y-184154D01*
Y-215904D02*
X53340Y-232414D01*
X54610Y-1606554D02*
Y-1510034D01*
X67310Y-1474474D02*
X82550Y-1489714D01*
X274320Y-1281035D02*
X290830Y-1297545D01*
X274320Y-1226824D02*
X283210Y-1217934D01*
X274320Y-1281035D02*
Y-1226824D01*
X281940Y-960284D02*
Y-953774D01*
X295910Y-941074D02*
Y-836934D01*
X294640Y-941074D02*
X295910D01*
X281940Y-953774D02*
X294640Y-941074D01*
X260350Y-1845314D02*
X265430Y-1850394D01*
X257630Y-1845314D02*
X260350D01*
X250190Y-1837874D02*
X257630Y-1845314D01*
X250190Y-1837874D02*
Y-1837694D01*
X247650Y-1835154D02*
X250190Y-1837694D01*
X71518Y-1835154D02*
X247650D01*
X56278Y-1850394D02*
X71518Y-1835154D01*
X49530Y-1850394D02*
X56278D01*
X49530Y-1814834D02*
X262890D01*
X283210Y-1217934D02*
Y-1078234D01*
X284878D01*
X24130Y-1032514D02*
X53340Y-1003304D01*
X54610Y-1263654D02*
X62230Y-1256034D01*
X26670Y-1291594D02*
X54610Y-1263654D01*
X52070Y-1443994D02*
Y-1344934D01*
Y-1444685D02*
Y-1443994D01*
X54610Y-1769985D02*
Y-1766414D01*
X242570Y-207014D02*
X273050D01*
X69790Y-171394D02*
X92590Y-148594D01*
X316230Y-501654D02*
Y-478794D01*
X313690Y-476254D02*
X316230Y-478794D01*
X313690Y-476254D02*
Y-471865D01*
X300299Y-458474D02*
X313690Y-471865D01*
X224790Y-427994D02*
Y-224794D01*
X283210Y-481334D02*
X290830D01*
X285314Y-164270D02*
X300990Y-179945D01*
Y-212274D02*
Y-179945D01*
X245110Y-361954D02*
X266700Y-383544D01*
X245110Y-361954D02*
Y-252734D01*
X260350Y-237494D01*
X273050D01*
X300990Y-516894D02*
X316230Y-501654D01*
X285750Y-516894D02*
X300990D01*
X224790Y-224794D02*
X242570Y-207014D01*
X67310Y-427224D02*
Y-252734D01*
X53340Y-232414D02*
X67310Y-252734D01*
X39370Y-1850394D02*
X49530D01*
X26670Y-1837694D02*
X39370Y-1850394D01*
X26670Y-1837694D02*
Y-1797925D01*
X49530Y-1814834D02*
X77470Y-1786894D01*
X26670Y-1797925D02*
X54610Y-1769985D01*
X77470Y-1786894D02*
Y-1654814D01*
X245110Y-1621794D02*
X267970Y-1644654D01*
X295910Y-1654994D02*
Y-1630285D01*
X279798Y-1614174D02*
X295910Y-1630285D01*
X278130Y-1614174D02*
X279798D01*
X245110Y-1621794D02*
Y-1487174D01*
X278130Y-1614174D02*
Y-1510034D01*
X245110Y-1487174D02*
X257810Y-1474474D01*
X278130D01*
X54610D02*
X67310D01*
X54610D02*
X77470Y-1451614D01*
X29210Y-1467545D02*
X52070Y-1444685D01*
X29210Y-1491382D02*
X47862Y-1510034D01*
X290830Y-1329854D02*
Y-1297545D01*
X275750Y-1344934D02*
X290830Y-1329854D01*
X265430Y-1344934D02*
X275750D01*
X260350Y-1042674D02*
X283210D01*
X242570Y-1060454D02*
X260350Y-1042674D01*
X242570Y-1289054D02*
Y-1060454D01*
Y-1289054D02*
X262890Y-1309374D01*
X54610Y-1078234D02*
X62230Y-1085854D01*
Y-1256034D02*
Y-1085854D01*
X54610Y-1042674D02*
X62230D01*
X41910Y-1078234D02*
X54610D01*
X24130Y-1060454D02*
X41910Y-1078234D01*
X24130Y-1060454D02*
Y-1032514D01*
X54610Y-1002034D02*
Y-803914D01*
Y-1042674D02*
X85090Y-1012194D01*
Y-798834D01*
X54610Y-768354D02*
X85090Y-798834D01*
X257810Y-768354D02*
X273210D01*
X245110Y-781054D02*
X257810Y-768354D01*
X245110Y-955442D02*
Y-781054D01*
X273210Y-768354D02*
X275590D01*
X245110Y-955442D02*
X290830Y-1001162D01*
Y-1035054D02*
Y-1001162D01*
X283210Y-1042674D02*
X290830Y-1035054D01*
X275590Y-816614D02*
X295910Y-836934D01*
X275590Y-816614D02*
Y-803914D01*
X62230Y-717554D02*
Y-539754D01*
Y-720965D02*
Y-717554D01*
X283210Y-803914D02*
X298450Y-788674D01*
Y-758885D01*
X255270Y-687074D02*
X273210Y-705014D01*
X275590Y-803914D02*
X283210D01*
X293530Y-651514D02*
Y-537374D01*
X285750Y-529594D02*
X293530Y-537374D01*
X285750Y-529594D02*
Y-516894D01*
X44450Y-803914D02*
X54610D01*
X29210Y-788674D02*
X44450Y-803914D01*
X29210Y-788674D02*
Y-753985D01*
X62230Y-720965D01*
X54610Y-532134D02*
X62230Y-539754D01*
X54610Y-532134D02*
Y-516894D01*
Y-768354D02*
X85090Y-737874D01*
X34290Y-516894D02*
X54610D01*
X26670Y-509274D02*
X34290Y-516894D01*
X266700Y-383544D02*
X273050Y-377194D01*
X250190Y-1309374D02*
X262890D01*
X242570Y-1438914D02*
Y-1316994D01*
X250190Y-1309374D01*
X242570Y-1438914D02*
X278130Y-1474474D01*
X265430Y-1424545D02*
Y-1344934D01*
Y-1424545D02*
X300990Y-1460105D01*
Y-1483943D02*
Y-1460105D01*
X296835Y-1488098D02*
X300990Y-1483943D01*
X296835Y-1491510D02*
Y-1488098D01*
X283391Y-1504954D02*
X296835Y-1491510D01*
X283210Y-1504954D02*
X283391D01*
X278130Y-1510034D02*
X283210Y-1504954D01*
X26670Y-1332234D02*
Y-1291594D01*
X57150Y-1314454D02*
X59690D01*
X77470Y-1451614D02*
Y-1332234D01*
X59690Y-1314454D02*
X77470Y-1332234D01*
X26670D02*
X39370Y-1344934D01*
X52070D01*
Y-1309374D02*
X57150Y-1314454D01*
X29210Y-1491382D02*
Y-1467545D01*
X47862Y-1510034D02*
X54610D01*
D27*
X0Y-1990000D02*
Y-1274D01*
Y-1990000D02*
X359410D01*
X0Y-1274D02*
X359410D01*
Y-1990000D02*
Y-1274D01*
D28*
X162070Y-1912627D02*
Y-1921091D01*
X163763Y-1922784D01*
X167148D01*
X168841Y-1921091D01*
Y-1912627D01*
X172227Y-1922784D02*
X175612D01*
X173920D01*
Y-1912627D01*
X172227Y-1914320D01*
X180691Y-1924477D02*
X187462D01*
X190847Y-1912627D02*
Y-1922784D01*
Y-1917706D01*
X197619D01*
Y-1912627D01*
Y-1922784D01*
D29*
X334010Y-1924434D02*
D03*
X16510D02*
D03*
Y-1567184D02*
D03*
X341630Y-1398434D02*
D03*
X15240D02*
D03*
X344170Y-1179834D02*
D03*
X16510D02*
D03*
X344170Y-909324D02*
D03*
X19050D02*
D03*
X345440Y-632464D02*
D03*
X16510D02*
D03*
X344170Y-350524D02*
D03*
X21590Y-351794D02*
D03*
X168910Y-20324D02*
D03*
X346710Y-1592584D02*
D03*
X15240Y-1765144D02*
D03*
X339090Y-1764034D02*
D03*
D30*
X334010Y-1899034D02*
D03*
X16510D02*
D03*
Y-1592584D02*
D03*
X341630Y-1423834D02*
D03*
X15240D02*
D03*
X344170Y-1205234D02*
D03*
X16510D02*
D03*
X344170Y-934724D02*
D03*
X19050D02*
D03*
X345440Y-657864D02*
D03*
X16510D02*
D03*
X344170Y-375924D02*
D03*
X21590Y-377194D02*
D03*
X346710Y-1567184D02*
D03*
X15240Y-1739744D02*
D03*
X339090Y-1738634D02*
D03*
D31*
X194310Y-20324D02*
D03*
D32*
X30000Y-30000D02*
D03*
X330000D02*
D03*
X331978Y-1960000D02*
D03*
X31978D02*
D03*
D33*
X161290Y-1250950D02*
D03*
X168910Y-967740D02*
D03*
X180340Y-966634D02*
D03*
X120650Y-237494D02*
D03*
X146050Y-864874D02*
D03*
X327660Y-990604D02*
D03*
X116840Y-1075694D02*
D03*
X140970Y-1140464D02*
D03*
X322580Y-1264924D02*
D03*
X298450D02*
D03*
X203200Y-1252224D02*
D03*
X93980Y-1233174D02*
D03*
X116840Y-1339854D02*
D03*
X288290Y-1424944D02*
D03*
X146050Y-1400814D02*
D03*
X99060Y-1422404D02*
D03*
X222250Y-1939294D02*
D03*
X146050Y-1921514D02*
D03*
X97790Y-1936754D02*
D03*
X118110Y-1849124D02*
D03*
X119380Y-1673864D02*
D03*
X127000Y-1504954D02*
D03*
X152400Y-1573534D02*
D03*
X102870Y-1592584D02*
D03*
X227330D02*
D03*
X151130Y-295914D02*
D03*
X40640Y-288294D02*
D03*
X92710Y-417834D02*
D03*
X161290Y-414024D02*
D03*
X193040Y-411484D02*
D03*
X311150Y-438154D02*
D03*
X289560Y-434344D02*
D03*
X120650Y-518164D02*
D03*
X142240Y-580394D02*
D03*
X318770Y-716124D02*
D03*
X294640Y-713744D02*
D03*
X213360Y-694694D02*
D03*
X171450Y-678184D02*
D03*
X96520Y-679454D02*
D03*
X120650Y-798834D02*
D03*
X36830Y-838204D02*
D03*
X105410Y-958854D02*
D03*
X38100Y-1118874D02*
D03*
X225900Y-1767844D02*
D03*
X132080Y-1751334D02*
D03*
X92710Y-1770304D02*
D03*
X331470Y-471174D02*
D03*
X140970Y-323854D02*
D03*
X298450Y-1151894D02*
D03*
X281940Y-1369064D02*
D03*
X204470Y-1428754D02*
D03*
X179070Y-1873254D02*
D03*
X127000Y-1948184D02*
D03*
X183660Y-1951994D02*
D03*
X271780Y-1912784D02*
D03*
X236220Y-1766574D02*
D03*
X285750Y-1720854D02*
D03*
X331978Y-1801118D02*
D03*
X60960Y-1946914D02*
D03*
X329946Y-1625858D02*
D03*
X339090Y-1488444D02*
D03*
X128270Y-1428754D02*
D03*
X321310Y-1296674D02*
D03*
X124460Y-1107444D02*
D03*
X265430Y-998224D02*
D03*
X341630Y-1070614D02*
D03*
X102870Y-571504D02*
D03*
X320000Y-752694D02*
D03*
X102870Y-861064D02*
D03*
X40640Y-704854D02*
D03*
X107950Y-601984D02*
D03*
X39370Y-557534D02*
D03*
X229870Y-501654D02*
D03*
X275590Y-33024D02*
D03*
X316230Y-198124D02*
D03*
X54610Y-57154D02*
D03*
X115570Y-303534D02*
D03*
X299720Y-311154D02*
D03*
X24130Y-269244D02*
D03*
X105270Y-1774194D02*
D03*
X300990Y-1596394D02*
D03*
X201930Y-982984D02*
D03*
X71260Y-102874D02*
D03*
X204470Y-182880D02*
D03*
X7620Y-166374D02*
D03*
X345440Y-444504D02*
D03*
X339090Y-558804D02*
D03*
X146540Y-411324D02*
D03*
X43180Y-673104D02*
D03*
X39370Y-615954D02*
D03*
X41910Y-890274D02*
D03*
Y-1244604D02*
D03*
X46990Y-1167134D02*
D03*
X165100Y-1192534D02*
D03*
X285750Y-13970D02*
D03*
D34*
X266700Y-1676404D02*
D03*
X53340Y-205744D02*
D03*
X123190Y-144784D02*
D03*
X92590Y-148594D02*
D03*
X73660Y-147324D02*
D03*
X54610Y-1606554D02*
D03*
X274320Y-1226824D02*
D03*
X44450Y-450854D02*
D03*
X54610Y-1004574D02*
D03*
Y-1263654D02*
D03*
X52070Y-1443994D02*
D03*
X54610Y-1766414D02*
D03*
X273050Y-237494D02*
D03*
Y-207014D02*
D03*
X53340Y-232414D02*
D03*
X265430Y-1850394D02*
D03*
X262890Y-1814834D02*
D03*
X49530Y-1850394D02*
D03*
Y-1814834D02*
D03*
X267970Y-1644654D02*
D03*
X54610Y-1474474D02*
D03*
X49530Y-1680214D02*
D03*
Y-1642114D02*
D03*
X265430Y-1344934D02*
D03*
X262890Y-1309374D02*
D03*
X54610Y-1078234D02*
D03*
Y-1042674D02*
D03*
X283210D02*
D03*
Y-1078234D02*
D03*
X281940Y-953774D02*
D03*
X62230Y-717554D02*
D03*
X275590Y-768354D02*
D03*
Y-803914D02*
D03*
X285750Y-516894D02*
D03*
X54610Y-803914D02*
D03*
Y-768354D02*
D03*
X287020Y-668024D02*
D03*
X290830Y-481334D02*
D03*
X54610Y-516894D02*
D03*
Y-481334D02*
D03*
X266700Y-383544D02*
D03*
X69790Y-171394D02*
D03*
X278130Y-1474474D02*
D03*
Y-1510034D02*
D03*
X52070Y-1344934D02*
D03*
Y-1309374D02*
D03*
X54610Y-1510034D02*
D03*
D35*
X288450Y-1184914D02*
D03*
X308450D02*
D03*
X301150Y-941074D02*
D03*
X321150D02*
D03*
X275910Y-369574D02*
D03*
X295910D02*
D03*
X293530Y-651514D02*
D03*
X313530D02*
D03*
M02*
