G04 Layer_Color=8388736*
%FSLAX44Y44*%
%MOMM*%
G71*
G01*
G75*
%ADD27C,0.2540*%
%ADD28C,0.2032*%
%ADD42R,2.0032X1.3532*%
%ADD43R,1.3532X2.0032*%
%ADD44R,1.6532X1.4032*%
G04:AMPARAMS|DCode=45|XSize=0.8532mm|YSize=1.4032mm|CornerRadius=0.1504mm|HoleSize=0mm|Usage=FLASHONLY|Rotation=90.000|XOffset=0mm|YOffset=0mm|HoleType=Round|Shape=RoundedRectangle|*
%AMROUNDEDRECTD45*
21,1,0.8532,1.1025,0,0,90.0*
21,1,0.5525,1.4032,0,0,90.0*
1,1,0.3007,0.5513,0.2762*
1,1,0.3007,0.5513,-0.2762*
1,1,0.3007,-0.5513,-0.2762*
1,1,0.3007,-0.5513,0.2762*
%
%ADD45ROUNDEDRECTD45*%
%ADD46C,1.2032*%
%ADD47R,1.2032X1.2032*%
%ADD48O,2.1032X0.8032*%
G04:AMPARAMS|DCode=49|XSize=0.7532mm|YSize=1.0032mm|CornerRadius=0.1511mm|HoleSize=0mm|Usage=FLASHONLY|Rotation=90.000|XOffset=0mm|YOffset=0mm|HoleType=Round|Shape=RoundedRectangle|*
%AMROUNDEDRECTD49*
21,1,0.7532,0.7010,0,0,90.0*
21,1,0.4510,1.0032,0,0,90.0*
1,1,0.3022,0.3505,0.2255*
1,1,0.3022,0.3505,-0.2255*
1,1,0.3022,-0.3505,-0.2255*
1,1,0.3022,-0.3505,0.2255*
%
%ADD49ROUNDEDRECTD49*%
%ADD50R,1.4032X1.6532*%
%ADD51R,1.2032X1.2032*%
G04:AMPARAMS|DCode=52|XSize=3.4032mm|YSize=1.9532mm|CornerRadius=0.1541mm|HoleSize=0mm|Usage=FLASHONLY|Rotation=0.000|XOffset=0mm|YOffset=0mm|HoleType=Round|Shape=RoundedRectangle|*
%AMROUNDEDRECTD52*
21,1,3.4032,1.6450,0,0,0.0*
21,1,3.0950,1.9532,0,0,0.0*
1,1,0.3082,1.5475,-0.8225*
1,1,0.3082,-1.5475,-0.8225*
1,1,0.3082,-1.5475,0.8225*
1,1,0.3082,1.5475,0.8225*
%
%ADD52ROUNDEDRECTD52*%
G04:AMPARAMS|DCode=53|XSize=1.1032mm|YSize=1.9532mm|CornerRadius=0.1511mm|HoleSize=0mm|Usage=FLASHONLY|Rotation=0.000|XOffset=0mm|YOffset=0mm|HoleType=Round|Shape=RoundedRectangle|*
%AMROUNDEDRECTD53*
21,1,1.1032,1.6510,0,0,0.0*
21,1,0.8010,1.9532,0,0,0.0*
1,1,0.3022,0.4005,-0.8255*
1,1,0.3022,-0.4005,-0.8255*
1,1,0.3022,-0.4005,0.8255*
1,1,0.3022,0.4005,0.8255*
%
%ADD53ROUNDEDRECTD53*%
%ADD54R,2.2032X1.4032*%
%ADD55R,1.1532X1.9032*%
%ADD56R,3.1532X2.7532*%
%ADD57C,1.8032*%
%ADD58R,1.8032X1.8032*%
%ADD59R,1.8032X1.8032*%
%ADD60C,3.5052*%
%ADD61C,0.9032*%
%ADD62C,1.4732*%
D27*
X0Y-1990000D02*
Y-1274D01*
Y-1990000D02*
X359410D01*
X0Y-1274D02*
X359410D01*
Y-1990000D02*
Y-1274D01*
D28*
X162070Y-1912627D02*
Y-1921091D01*
X163763Y-1922784D01*
X167148D01*
X168841Y-1921091D01*
Y-1912627D01*
X172227Y-1922784D02*
X175612D01*
X173920D01*
Y-1912627D01*
X172227Y-1914320D01*
X180691Y-1924477D02*
X187462D01*
X190847Y-1912627D02*
Y-1922784D01*
Y-1917706D01*
X197619D01*
Y-1912627D01*
Y-1922784D01*
D42*
X166370Y-1242774D02*
D03*
Y-1212774D02*
D03*
X171450Y-961154D02*
D03*
Y-931154D02*
D03*
Y-674134D02*
D03*
Y-644134D02*
D03*
X156210Y-412514D02*
D03*
Y-382514D02*
D03*
D43*
X114540Y-1250950D02*
D03*
X144540D02*
D03*
X122160Y-980440D02*
D03*
X152160D02*
D03*
X146290Y-699774D02*
D03*
X176290D02*
D03*
X120890Y-433074D02*
D03*
X150890D02*
D03*
D44*
X283210Y-364654D02*
D03*
Y-384654D02*
D03*
X222880Y-1932784D02*
D03*
Y-1912784D02*
D03*
X97790Y-1931514D02*
D03*
Y-1911514D02*
D03*
X90170Y-1207774D02*
D03*
Y-1227774D02*
D03*
X297180Y-1239684D02*
D03*
Y-1259684D02*
D03*
Y-1197774D02*
D03*
Y-1217774D02*
D03*
X322580Y-1259684D02*
D03*
Y-1239684D02*
D03*
X38100Y-1126654D02*
D03*
Y-1146654D02*
D03*
X105410Y-931074D02*
D03*
Y-951074D02*
D03*
X298450Y-970444D02*
D03*
Y-990444D02*
D03*
Y-928534D02*
D03*
Y-948534D02*
D03*
X323850Y-986634D02*
D03*
Y-966634D02*
D03*
X35560Y-843444D02*
D03*
Y-863444D02*
D03*
X95250Y-651514D02*
D03*
Y-671514D02*
D03*
X293370Y-687234D02*
D03*
Y-707234D02*
D03*
X302260Y-633894D02*
D03*
Y-653894D02*
D03*
X318770Y-711044D02*
D03*
Y-691044D02*
D03*
X39370Y-567854D02*
D03*
Y-587854D02*
D03*
X92710Y-391324D02*
D03*
Y-411324D02*
D03*
X283210Y-410374D02*
D03*
Y-430374D02*
D03*
X311150D02*
D03*
Y-410374D02*
D03*
X39370Y-293534D02*
D03*
Y-313534D02*
D03*
X228600Y-1567344D02*
D03*
Y-1587344D02*
D03*
X288290Y-1397164D02*
D03*
Y-1417164D02*
D03*
X104140Y-1564804D02*
D03*
Y-1584804D02*
D03*
X97790Y-1397164D02*
D03*
Y-1417164D02*
D03*
X93980Y-1745144D02*
D03*
Y-1765144D02*
D03*
X231140Y-1742604D02*
D03*
Y-1762604D02*
D03*
D45*
X170960Y-1741834D02*
D03*
Y-1751334D02*
D03*
Y-1760834D02*
D03*
X141460D02*
D03*
Y-1751334D02*
D03*
Y-1741834D02*
D03*
X153670Y-1912014D02*
D03*
Y-1921514D02*
D03*
Y-1931014D02*
D03*
X183170D02*
D03*
Y-1921514D02*
D03*
Y-1912014D02*
D03*
X188740Y-1564034D02*
D03*
Y-1573534D02*
D03*
Y-1583034D02*
D03*
X159240D02*
D03*
Y-1573534D02*
D03*
Y-1564034D02*
D03*
X183660Y-1391314D02*
D03*
Y-1400814D02*
D03*
Y-1410314D02*
D03*
X154160D02*
D03*
Y-1400814D02*
D03*
Y-1391314D02*
D03*
D46*
X121920Y-1824994D02*
D03*
X146050D02*
D03*
X121920Y-1847854D02*
D03*
X146050D02*
D03*
X250190Y-1814834D02*
D03*
X226060D02*
D03*
X250190Y-1850394D02*
D03*
X226060D02*
D03*
X63500Y-1814834D02*
D03*
X87630D02*
D03*
X63500Y-1850394D02*
D03*
X87630D02*
D03*
X267970Y-1116334D02*
D03*
X292100D02*
D03*
X336550Y-1130304D02*
D03*
Y-1154434D02*
D03*
X232410Y-1130304D02*
D03*
Y-1154434D02*
D03*
X270510Y-1042674D02*
D03*
X246380D02*
D03*
X271780Y-1078234D02*
D03*
X247650D02*
D03*
X68580Y-1042674D02*
D03*
X92710D02*
D03*
X68580Y-1078234D02*
D03*
X92710D02*
D03*
X121920Y-1050294D02*
D03*
X146050D02*
D03*
X121920Y-1075694D02*
D03*
X146050D02*
D03*
X269240Y-842014D02*
D03*
X293370D02*
D03*
X336550Y-855984D02*
D03*
Y-880114D02*
D03*
X237490Y-854714D02*
D03*
Y-878844D02*
D03*
X262890Y-768354D02*
D03*
X238760D02*
D03*
X262890Y-803914D02*
D03*
X238760D02*
D03*
X68580Y-768354D02*
D03*
X92710D02*
D03*
X68580Y-803914D02*
D03*
X92710D02*
D03*
X127000Y-778514D02*
D03*
X151130D02*
D03*
X127000Y-798834D02*
D03*
X151130D02*
D03*
X273050Y-560074D02*
D03*
X297180D02*
D03*
X334010Y-575314D02*
D03*
Y-599444D02*
D03*
X241300Y-575314D02*
D03*
Y-599444D02*
D03*
X270510Y-481334D02*
D03*
X246380D02*
D03*
X270510Y-516894D02*
D03*
X246380D02*
D03*
X66040Y-481334D02*
D03*
X90170D02*
D03*
X66040Y-516894D02*
D03*
X90170D02*
D03*
X126840Y-494034D02*
D03*
X150970D02*
D03*
X127000Y-516894D02*
D03*
X151130D02*
D03*
X267970Y-281334D02*
D03*
X292100D02*
D03*
X336550Y-297184D02*
D03*
Y-321314D02*
D03*
X229870Y-298454D02*
D03*
Y-322584D02*
D03*
X257810Y-207014D02*
D03*
X233680D02*
D03*
X257810Y-237494D02*
D03*
X233680D02*
D03*
X68580Y-205744D02*
D03*
X92710D02*
D03*
X67310Y-232414D02*
D03*
X91440D02*
D03*
X125730Y-214634D02*
D03*
X149860D02*
D03*
X125730Y-237494D02*
D03*
X149860D02*
D03*
X156210Y-1484634D02*
D03*
X132080D02*
D03*
X146050Y-1316994D02*
D03*
X121920D02*
D03*
X157480Y-1504954D02*
D03*
X133350D02*
D03*
X146540Y-1339854D02*
D03*
X122410D02*
D03*
X238760Y-1474474D02*
D03*
X262890D02*
D03*
X229240Y-1309374D02*
D03*
X253370D02*
D03*
X238760Y-1510034D02*
D03*
X262890D02*
D03*
X229240Y-1344934D02*
D03*
X253370D02*
D03*
X92710Y-1474474D02*
D03*
X68580D02*
D03*
X90170Y-1309374D02*
D03*
X66040D02*
D03*
X92710Y-1510034D02*
D03*
X68580D02*
D03*
X90170Y-1344934D02*
D03*
X66040D02*
D03*
X87630Y-1680214D02*
D03*
X63500D02*
D03*
X87630Y-1642114D02*
D03*
X63500D02*
D03*
X229870Y-1677674D02*
D03*
X254000D02*
D03*
X229240Y-1644654D02*
D03*
X253370D02*
D03*
X149860Y-1675134D02*
D03*
X125730D02*
D03*
X149860Y-1652274D02*
D03*
X125730D02*
D03*
X67310Y-1887224D02*
D03*
X295910Y-1891034D02*
D03*
X267970Y-1761494D02*
D03*
X193040Y-1710694D02*
D03*
X176580Y-1602740D02*
D03*
X205740Y-1532894D02*
D03*
X300990Y-1546864D02*
D03*
X224790Y-1379224D02*
D03*
X186690Y-1163324D02*
D03*
X191770Y-1108714D02*
D03*
X105410Y-1130304D02*
D03*
X220980Y-904244D02*
D03*
X171450Y-996950D02*
D03*
X68580Y-963934D02*
D03*
X12700Y-853444D02*
D03*
X276860Y-876304D02*
D03*
X105410Y-706124D02*
D03*
X195580Y-627384D02*
D03*
X280670Y-594364D02*
D03*
X189230Y-546104D02*
D03*
X163830Y-350524D02*
D03*
X43180Y-414024D02*
D03*
X278130Y-316234D02*
D03*
X100330Y-289564D02*
D03*
X39370Y-128274D02*
D03*
X97790Y-95254D02*
D03*
X176530Y-133354D02*
D03*
X175260Y-95254D02*
D03*
X275590Y-134620D02*
D03*
D47*
X127000Y-1824994D02*
D03*
X140970D02*
D03*
X127000Y-1847854D02*
D03*
X140970D02*
D03*
X245110Y-1814834D02*
D03*
X231140D02*
D03*
X245110Y-1850394D02*
D03*
X231140D02*
D03*
X68580Y-1814834D02*
D03*
X82550D02*
D03*
X68580Y-1850394D02*
D03*
X82550D02*
D03*
X273050Y-1116334D02*
D03*
X287020D02*
D03*
X265430Y-1042674D02*
D03*
X251460D02*
D03*
X266700Y-1078234D02*
D03*
X252730D02*
D03*
X73660Y-1042674D02*
D03*
X87630D02*
D03*
X73660Y-1078234D02*
D03*
X87630D02*
D03*
X127000Y-1050294D02*
D03*
X140970D02*
D03*
X127000Y-1075694D02*
D03*
X140970D02*
D03*
X274320Y-842014D02*
D03*
X288290D02*
D03*
X257810Y-768354D02*
D03*
X243840D02*
D03*
X257810Y-803914D02*
D03*
X243840D02*
D03*
X73660Y-768354D02*
D03*
X87630D02*
D03*
X73660Y-803914D02*
D03*
X87630D02*
D03*
X132080Y-778514D02*
D03*
X146050D02*
D03*
X132080Y-798834D02*
D03*
X146050D02*
D03*
X278130Y-560074D02*
D03*
X292100D02*
D03*
X265430Y-481334D02*
D03*
X251460D02*
D03*
X265430Y-516894D02*
D03*
X251460D02*
D03*
X71120Y-481334D02*
D03*
X85090D02*
D03*
X71120Y-516894D02*
D03*
X85090D02*
D03*
X131920Y-494034D02*
D03*
X145890D02*
D03*
X132080Y-516894D02*
D03*
X146050D02*
D03*
X273050Y-281334D02*
D03*
X287020D02*
D03*
X252730Y-207014D02*
D03*
X238760D02*
D03*
X252730Y-237494D02*
D03*
X238760D02*
D03*
X73660Y-205744D02*
D03*
X87630D02*
D03*
X72390Y-232414D02*
D03*
X86360D02*
D03*
X130810Y-214634D02*
D03*
X144780D02*
D03*
X130810Y-237494D02*
D03*
X144780D02*
D03*
X151130Y-1484634D02*
D03*
X137160D02*
D03*
X140970Y-1316994D02*
D03*
X127000D02*
D03*
X152400Y-1504954D02*
D03*
X138430D02*
D03*
X141460Y-1339854D02*
D03*
X127490D02*
D03*
X243840Y-1474474D02*
D03*
X257810D02*
D03*
X234320Y-1309374D02*
D03*
X248290D02*
D03*
X243840Y-1510034D02*
D03*
X257810D02*
D03*
X234320Y-1344934D02*
D03*
X248290D02*
D03*
X87630Y-1474474D02*
D03*
X73660D02*
D03*
X85090Y-1309374D02*
D03*
X71120D02*
D03*
X87630Y-1510034D02*
D03*
X73660D02*
D03*
X85090Y-1344934D02*
D03*
X71120D02*
D03*
X82550Y-1680214D02*
D03*
X68580D02*
D03*
X82550Y-1642114D02*
D03*
X68580D02*
D03*
X234950Y-1677674D02*
D03*
X248920D02*
D03*
X234320Y-1644654D02*
D03*
X248290D02*
D03*
X144780Y-1675134D02*
D03*
X130810D02*
D03*
X144780Y-1652274D02*
D03*
X130810D02*
D03*
D48*
X257180Y-1252224D02*
D03*
Y-1239524D02*
D03*
Y-1226824D02*
D03*
Y-1214124D02*
D03*
X210180Y-1252224D02*
D03*
Y-1239524D02*
D03*
Y-1226824D02*
D03*
Y-1214124D02*
D03*
X263530Y-982984D02*
D03*
Y-970284D02*
D03*
Y-957584D02*
D03*
Y-944884D02*
D03*
X216530Y-982984D02*
D03*
Y-970284D02*
D03*
Y-957584D02*
D03*
Y-944884D02*
D03*
X269880Y-693424D02*
D03*
Y-680724D02*
D03*
Y-668024D02*
D03*
Y-655324D02*
D03*
X222880Y-693424D02*
D03*
Y-680724D02*
D03*
Y-668024D02*
D03*
Y-655324D02*
D03*
X248290Y-410374D02*
D03*
Y-397674D02*
D03*
Y-384974D02*
D03*
Y-372274D02*
D03*
X201290Y-410374D02*
D03*
Y-397674D02*
D03*
Y-384974D02*
D03*
Y-372274D02*
D03*
D49*
X174040Y-1132234D02*
D03*
Y-1141734D02*
D03*
Y-1151234D02*
D03*
X148540D02*
D03*
Y-1141734D02*
D03*
Y-1132234D02*
D03*
X176580Y-855374D02*
D03*
Y-864874D02*
D03*
Y-874374D02*
D03*
X151080D02*
D03*
Y-864874D02*
D03*
Y-855374D02*
D03*
X174040Y-570894D02*
D03*
Y-580394D02*
D03*
Y-589894D02*
D03*
X148540D02*
D03*
Y-580394D02*
D03*
Y-570894D02*
D03*
X181660Y-286414D02*
D03*
Y-295914D02*
D03*
Y-305414D02*
D03*
X156160D02*
D03*
Y-295914D02*
D03*
Y-286414D02*
D03*
D50*
X134460Y-1200154D02*
D03*
X114460D02*
D03*
X66990D02*
D03*
X46990D02*
D03*
X148430Y-915674D02*
D03*
X128430D02*
D03*
X81120D02*
D03*
X61120D02*
D03*
X143350Y-643894D02*
D03*
X123350D02*
D03*
X69530D02*
D03*
X49530D02*
D03*
X138270Y-378464D02*
D03*
X118270D02*
D03*
X66990D02*
D03*
X46990D02*
D03*
D51*
X336550Y-1135384D02*
D03*
Y-1149354D02*
D03*
X232410Y-1135384D02*
D03*
Y-1149354D02*
D03*
X336550Y-861064D02*
D03*
Y-875034D02*
D03*
X237490Y-859794D02*
D03*
Y-873764D02*
D03*
X334010Y-580394D02*
D03*
Y-594364D02*
D03*
X241300Y-580394D02*
D03*
Y-594364D02*
D03*
X336550Y-302264D02*
D03*
Y-316234D02*
D03*
X229870Y-303534D02*
D03*
Y-317504D02*
D03*
D52*
X250190Y-106184D02*
D03*
D53*
X227190Y-43684D02*
D03*
X250190D02*
D03*
X273190D02*
D03*
D54*
X188740Y-132084D02*
D03*
X216740D02*
D03*
D55*
X104270Y-93984D02*
D03*
X132270D02*
D03*
D56*
X70350Y-52074D02*
D03*
X132850D02*
D03*
D57*
X334010Y-1924434D02*
D03*
X16510D02*
D03*
Y-1567184D02*
D03*
X341630Y-1398434D02*
D03*
X15240D02*
D03*
X344170Y-1179834D02*
D03*
X16510D02*
D03*
X344170Y-909324D02*
D03*
X19050D02*
D03*
X345440Y-632464D02*
D03*
X16510D02*
D03*
X344170Y-350524D02*
D03*
X21590Y-351794D02*
D03*
X168910Y-20324D02*
D03*
X346710Y-1592584D02*
D03*
X15240Y-1765144D02*
D03*
X339090Y-1764034D02*
D03*
D58*
X334010Y-1899034D02*
D03*
X16510D02*
D03*
Y-1592584D02*
D03*
X341630Y-1423834D02*
D03*
X15240D02*
D03*
X344170Y-1205234D02*
D03*
X16510D02*
D03*
X344170Y-934724D02*
D03*
X19050D02*
D03*
X345440Y-657864D02*
D03*
X16510D02*
D03*
X344170Y-375924D02*
D03*
X21590Y-377194D02*
D03*
X346710Y-1567184D02*
D03*
X15240Y-1739744D02*
D03*
X339090Y-1738634D02*
D03*
D59*
X194310Y-20324D02*
D03*
D60*
X30000Y-30000D02*
D03*
X330000D02*
D03*
X331978Y-1960000D02*
D03*
X31978D02*
D03*
D61*
X161290Y-1250950D02*
D03*
X168910Y-967740D02*
D03*
X180340Y-966634D02*
D03*
X120650Y-237494D02*
D03*
X146050Y-864874D02*
D03*
X327660Y-990604D02*
D03*
X116840Y-1075694D02*
D03*
X140970Y-1140464D02*
D03*
X322580Y-1264924D02*
D03*
X298450D02*
D03*
X203200Y-1252224D02*
D03*
X93980Y-1233174D02*
D03*
X116840Y-1339854D02*
D03*
X288290Y-1424944D02*
D03*
X146050Y-1400814D02*
D03*
X99060Y-1422404D02*
D03*
X222250Y-1939294D02*
D03*
X146050Y-1921514D02*
D03*
X97790Y-1936754D02*
D03*
X118110Y-1849124D02*
D03*
X119380Y-1673864D02*
D03*
X127000Y-1504954D02*
D03*
X152400Y-1573534D02*
D03*
X102870Y-1592584D02*
D03*
X227330D02*
D03*
X151130Y-295914D02*
D03*
X40640Y-288294D02*
D03*
X92710Y-417834D02*
D03*
X161290Y-414024D02*
D03*
X193040Y-411484D02*
D03*
X311150Y-438154D02*
D03*
X289560Y-434344D02*
D03*
X120650Y-518164D02*
D03*
X142240Y-580394D02*
D03*
X318770Y-716124D02*
D03*
X294640Y-713744D02*
D03*
X213360Y-694694D02*
D03*
X171450Y-678184D02*
D03*
X96520Y-679454D02*
D03*
X120650Y-798834D02*
D03*
X36830Y-838204D02*
D03*
X105410Y-958854D02*
D03*
X38100Y-1118874D02*
D03*
X225900Y-1767844D02*
D03*
X132080Y-1751334D02*
D03*
X92710Y-1770304D02*
D03*
X331470Y-471174D02*
D03*
X140970Y-323854D02*
D03*
X298450Y-1151894D02*
D03*
X281940Y-1369064D02*
D03*
X204470Y-1428754D02*
D03*
X179070Y-1873254D02*
D03*
X127000Y-1948184D02*
D03*
X183660Y-1951994D02*
D03*
X271780Y-1912784D02*
D03*
X236220Y-1766574D02*
D03*
X285750Y-1720854D02*
D03*
X331978Y-1801118D02*
D03*
X60960Y-1946914D02*
D03*
X329946Y-1625858D02*
D03*
X339090Y-1488444D02*
D03*
X128270Y-1428754D02*
D03*
X321310Y-1296674D02*
D03*
X124460Y-1107444D02*
D03*
X265430Y-998224D02*
D03*
X341630Y-1070614D02*
D03*
X102870Y-571504D02*
D03*
X320000Y-752694D02*
D03*
X102870Y-861064D02*
D03*
X40640Y-704854D02*
D03*
X107950Y-601984D02*
D03*
X39370Y-557534D02*
D03*
X229870Y-501654D02*
D03*
X275590Y-33024D02*
D03*
X316230Y-198124D02*
D03*
X54610Y-57154D02*
D03*
X115570Y-303534D02*
D03*
X299720Y-311154D02*
D03*
X24130Y-269244D02*
D03*
X105270Y-1774194D02*
D03*
X300990Y-1596394D02*
D03*
X201930Y-982984D02*
D03*
X71260Y-102874D02*
D03*
X204470Y-182880D02*
D03*
X7620Y-166374D02*
D03*
X345440Y-444504D02*
D03*
X339090Y-558804D02*
D03*
X146540Y-411324D02*
D03*
X43180Y-673104D02*
D03*
X39370Y-615954D02*
D03*
X41910Y-890274D02*
D03*
Y-1244604D02*
D03*
X46990Y-1167134D02*
D03*
X165100Y-1192534D02*
D03*
X285750Y-13970D02*
D03*
D62*
X266700Y-1676404D02*
D03*
X53340Y-205744D02*
D03*
X123190Y-144784D02*
D03*
X92590Y-148594D02*
D03*
X73660Y-147324D02*
D03*
X54610Y-1606554D02*
D03*
X274320Y-1226824D02*
D03*
X44450Y-450854D02*
D03*
X54610Y-1004574D02*
D03*
Y-1263654D02*
D03*
X52070Y-1443994D02*
D03*
X54610Y-1766414D02*
D03*
X273050Y-237494D02*
D03*
Y-207014D02*
D03*
X53340Y-232414D02*
D03*
X265430Y-1850394D02*
D03*
X262890Y-1814834D02*
D03*
X49530Y-1850394D02*
D03*
Y-1814834D02*
D03*
X267970Y-1644654D02*
D03*
X54610Y-1474474D02*
D03*
X49530Y-1680214D02*
D03*
Y-1642114D02*
D03*
X265430Y-1344934D02*
D03*
X262890Y-1309374D02*
D03*
X54610Y-1078234D02*
D03*
Y-1042674D02*
D03*
X283210D02*
D03*
Y-1078234D02*
D03*
X281940Y-953774D02*
D03*
X62230Y-717554D02*
D03*
X275590Y-768354D02*
D03*
Y-803914D02*
D03*
X285750Y-516894D02*
D03*
X54610Y-803914D02*
D03*
Y-768354D02*
D03*
X287020Y-668024D02*
D03*
X290830Y-481334D02*
D03*
X54610Y-516894D02*
D03*
Y-481334D02*
D03*
X266700Y-383544D02*
D03*
X69790Y-171394D02*
D03*
X278130Y-1474474D02*
D03*
Y-1510034D02*
D03*
X52070Y-1344934D02*
D03*
Y-1309374D02*
D03*
X54610Y-1510034D02*
D03*
M02*
