G04 Layer_Color=65535*
%FSLAX44Y44*%
%MOMM*%
G71*
G01*
G75*
%ADD27C,0.2540*%
%ADD28C,0.2032*%
%ADD36C,0.2500*%
%ADD37C,0.4000*%
%ADD38C,0.2000*%
%ADD39C,0.5000*%
%ADD40C,0.1500*%
%ADD41C,0.3000*%
D27*
X0Y-1990000D02*
Y-1274D01*
Y-1990000D02*
X359410D01*
X0Y-1274D02*
X359410D01*
Y-1990000D02*
Y-1274D01*
D28*
X144653Y-1881766D02*
Y-1890230D01*
X146346Y-1891923D01*
X149731D01*
X151424Y-1890230D01*
Y-1881766D01*
X154810Y-1891923D02*
X158195D01*
X156503D01*
Y-1881766D01*
X154810Y-1883459D01*
X163274Y-1893616D02*
X170045D01*
X173430Y-1881766D02*
Y-1891923D01*
Y-1886844D01*
X180201D01*
Y-1881766D01*
Y-1891923D01*
X204470Y-1898654D02*
Y-1888497D01*
X209548D01*
X211241Y-1890190D01*
Y-1893575D01*
X209548Y-1895268D01*
X204470D01*
X207856D02*
X211241Y-1898654D01*
X221398D02*
X214627D01*
X221398Y-1891883D01*
Y-1890190D01*
X219705Y-1888497D01*
X216320D01*
X214627Y-1890190D01*
X224783Y-1900347D02*
X231555D01*
X234940Y-1888497D02*
Y-1898654D01*
Y-1893575D01*
X241711D01*
Y-1888497D01*
Y-1898654D01*
X81280Y-1896114D02*
Y-1885957D01*
X86358D01*
X88051Y-1887650D01*
Y-1891035D01*
X86358Y-1892728D01*
X81280D01*
X84666D02*
X88051Y-1896114D01*
X91437D02*
X94822D01*
X93130D01*
Y-1885957D01*
X91437Y-1887650D01*
X99901Y-1897807D02*
X106672D01*
X110057Y-1885957D02*
Y-1896114D01*
Y-1891035D01*
X116828D01*
Y-1885957D01*
Y-1896114D01*
X317921Y-1869827D02*
X314536D01*
X316228D01*
Y-1878291D01*
X314536Y-1879984D01*
X312843D01*
X311150Y-1878291D01*
X321307Y-1881677D02*
X328078D01*
X331463Y-1869827D02*
Y-1879984D01*
X336542D01*
X338235Y-1878291D01*
Y-1876598D01*
X336542Y-1874905D01*
X331463D01*
X336542D01*
X338235Y-1873213D01*
Y-1871520D01*
X336542Y-1869827D01*
X331463D01*
X341620Y-1871520D02*
X343313Y-1869827D01*
X346698D01*
X348391Y-1871520D01*
Y-1873213D01*
X346698Y-1874905D01*
X348391Y-1876598D01*
Y-1878291D01*
X346698Y-1879984D01*
X343313D01*
X341620Y-1878291D01*
Y-1876598D01*
X343313Y-1874905D01*
X341620Y-1873213D01*
Y-1871520D01*
X343313Y-1874905D02*
X346698D01*
X10581Y-1871097D02*
X7196D01*
X8888D01*
Y-1879561D01*
X7196Y-1881254D01*
X5503D01*
X3810Y-1879561D01*
X13967Y-1882947D02*
X20738D01*
X24123Y-1881254D02*
Y-1874483D01*
X27509Y-1871097D01*
X30895Y-1874483D01*
Y-1881254D01*
Y-1876175D01*
X24123D01*
X34280Y-1872790D02*
X35973Y-1871097D01*
X39358D01*
X41051Y-1872790D01*
Y-1874483D01*
X39358Y-1876175D01*
X41051Y-1877868D01*
Y-1879561D01*
X39358Y-1881254D01*
X35973D01*
X34280Y-1879561D01*
Y-1877868D01*
X35973Y-1876175D01*
X34280Y-1874483D01*
Y-1872790D01*
X35973Y-1876175D02*
X39358D01*
X9311Y-1536707D02*
X5926D01*
X7618D01*
Y-1545171D01*
X5926Y-1546864D01*
X4233D01*
X2540Y-1545171D01*
X12697Y-1548557D02*
X19468D01*
X22853Y-1546864D02*
Y-1540093D01*
X26239Y-1536707D01*
X29625Y-1540093D01*
Y-1546864D01*
Y-1541785D01*
X22853D01*
X39781Y-1536707D02*
X36396Y-1538400D01*
X33010Y-1541785D01*
Y-1545171D01*
X34703Y-1546864D01*
X38089D01*
X39781Y-1545171D01*
Y-1543478D01*
X38089Y-1541785D01*
X33010D01*
X324271Y-1369067D02*
X320886D01*
X322578D01*
Y-1377531D01*
X320886Y-1379224D01*
X319193D01*
X317500Y-1377531D01*
X327657Y-1380917D02*
X334428D01*
X337813Y-1369067D02*
Y-1379224D01*
X342892D01*
X344585Y-1377531D01*
Y-1375838D01*
X342892Y-1374146D01*
X337813D01*
X342892D01*
X344585Y-1372453D01*
Y-1370760D01*
X342892Y-1369067D01*
X337813D01*
X354741D02*
X347970D01*
Y-1374146D01*
X351356Y-1372453D01*
X353049D01*
X354741Y-1374146D01*
Y-1377531D01*
X353049Y-1379224D01*
X349663D01*
X347970Y-1377531D01*
X9311Y-1367797D02*
X5926D01*
X7618D01*
Y-1376261D01*
X5926Y-1377954D01*
X4233D01*
X2540Y-1376261D01*
X12697Y-1379647D02*
X19468D01*
X22853Y-1377954D02*
Y-1371183D01*
X26239Y-1367797D01*
X29625Y-1371183D01*
Y-1377954D01*
Y-1372876D01*
X22853D01*
X39781Y-1367797D02*
X33010D01*
Y-1372876D01*
X36396Y-1371183D01*
X38089D01*
X39781Y-1372876D01*
Y-1376261D01*
X38089Y-1377954D01*
X34703D01*
X33010Y-1376261D01*
X188740Y-1189997D02*
Y-1198461D01*
X190433Y-1200154D01*
X193818D01*
X195511Y-1198461D01*
Y-1189997D01*
X205668Y-1200154D02*
X198897D01*
X205668Y-1193383D01*
Y-1191690D01*
X203975Y-1189997D01*
X200590D01*
X198897Y-1191690D01*
X209053Y-1201847D02*
X215825D01*
X219210Y-1189997D02*
Y-1200154D01*
X224289D01*
X225981Y-1198461D01*
Y-1191690D01*
X224289Y-1189997D01*
X219210D01*
X138640Y-1102977D02*
Y-1111441D01*
X140333Y-1113134D01*
X143718D01*
X145411Y-1111441D01*
Y-1102977D01*
X148797Y-1113134D02*
X152182D01*
X150490D01*
Y-1102977D01*
X148797Y-1104670D01*
X157261Y-1114827D02*
X164032D01*
X167417Y-1102977D02*
Y-1113134D01*
X172496D01*
X174188Y-1111441D01*
Y-1104670D01*
X172496Y-1102977D01*
X167417D01*
X80010Y-1253490D02*
X69853D01*
Y-1248412D01*
X71546Y-1246719D01*
X74932D01*
X76624Y-1248412D01*
Y-1253490D01*
Y-1250104D02*
X80010Y-1246719D01*
X69853Y-1243333D02*
Y-1236562D01*
X71546D01*
X78317Y-1243333D01*
X80010D01*
X81703Y-1233177D02*
Y-1226405D01*
X69853Y-1223020D02*
X80010D01*
Y-1217942D01*
X78317Y-1216249D01*
X71546D01*
X69853Y-1217942D01*
Y-1223020D01*
X284480Y-1266194D02*
X274323D01*
Y-1261115D01*
X276016Y-1259423D01*
X279402D01*
X281094Y-1261115D01*
Y-1266194D01*
Y-1262808D02*
X284480Y-1259423D01*
X274323Y-1249266D02*
X276016Y-1252652D01*
X279402Y-1256037D01*
X282787D01*
X284480Y-1254344D01*
Y-1250959D01*
X282787Y-1249266D01*
X281094D01*
X279402Y-1250959D01*
Y-1256037D01*
X286173Y-1245880D02*
Y-1239109D01*
X274323Y-1235724D02*
X284480D01*
Y-1230645D01*
X282787Y-1228952D01*
X276016D01*
X274323Y-1230645D01*
Y-1235724D01*
X244950Y-1186184D02*
Y-1176027D01*
X250028D01*
X251721Y-1177720D01*
Y-1181105D01*
X250028Y-1182798D01*
X244950D01*
X248336D02*
X251721Y-1186184D01*
X261878Y-1176027D02*
X255107D01*
Y-1181105D01*
X258492Y-1179413D01*
X260185D01*
X261878Y-1181105D01*
Y-1184491D01*
X260185Y-1186184D01*
X256800D01*
X255107Y-1184491D01*
X265264Y-1187877D02*
X272035D01*
X275420Y-1176027D02*
Y-1186184D01*
X280499D01*
X282191Y-1184491D01*
Y-1177720D01*
X280499Y-1176027D01*
X275420D01*
X109220Y-1187454D02*
Y-1177297D01*
X114298D01*
X115991Y-1178990D01*
Y-1182375D01*
X114298Y-1184068D01*
X109220D01*
X112606D02*
X115991Y-1187454D01*
X124455D02*
Y-1177297D01*
X119377Y-1182375D01*
X126148D01*
X129533Y-1189147D02*
X136305D01*
X139690Y-1177297D02*
Y-1187454D01*
X144768D01*
X146461Y-1185761D01*
Y-1178990D01*
X144768Y-1177297D01*
X139690D01*
X43240Y-1187454D02*
Y-1177297D01*
X48318D01*
X50011Y-1178990D01*
Y-1182375D01*
X48318Y-1184068D01*
X43240D01*
X46626D02*
X50011Y-1187454D01*
X53397Y-1178990D02*
X55090Y-1177297D01*
X58475D01*
X60168Y-1178990D01*
Y-1180683D01*
X58475Y-1182375D01*
X56782D01*
X58475D01*
X60168Y-1184068D01*
Y-1185761D01*
X58475Y-1187454D01*
X55090D01*
X53397Y-1185761D01*
X63553Y-1189147D02*
X70325D01*
X73710Y-1177297D02*
Y-1187454D01*
X78788D01*
X80481Y-1185761D01*
Y-1178990D01*
X78788Y-1177297D01*
X73710D01*
X321310Y-1229364D02*
X311153D01*
Y-1224286D01*
X312846Y-1222593D01*
X316232D01*
X317924Y-1224286D01*
Y-1229364D01*
Y-1225978D02*
X321310Y-1222593D01*
Y-1212436D02*
Y-1219207D01*
X314539Y-1212436D01*
X312846D01*
X311153Y-1214129D01*
Y-1217514D01*
X312846Y-1219207D01*
X323003Y-1209050D02*
Y-1202279D01*
X311153Y-1198894D02*
X321310D01*
Y-1193815D01*
X319617Y-1192122D01*
X312846D01*
X311153Y-1193815D01*
Y-1198894D01*
X15240Y-1111254D02*
Y-1101097D01*
X20318D01*
X22011Y-1102790D01*
Y-1106176D01*
X20318Y-1107868D01*
X15240D01*
X18626D02*
X22011Y-1111254D01*
X25397D02*
X28782D01*
X27090D01*
Y-1101097D01*
X25397Y-1102790D01*
X33861Y-1112947D02*
X40632D01*
X44017Y-1101097D02*
Y-1111254D01*
X49096D01*
X50788Y-1109561D01*
Y-1102790D01*
X49096Y-1101097D01*
X44017D01*
X341633Y-1254343D02*
Y-1257728D01*
Y-1256036D01*
X350097D01*
X351790Y-1257728D01*
Y-1259421D01*
X350097Y-1261114D01*
X353483Y-1250957D02*
Y-1244186D01*
X341633Y-1240800D02*
X351790D01*
Y-1235722D01*
X350097Y-1234029D01*
X348404D01*
X346712Y-1235722D01*
Y-1240800D01*
Y-1235722D01*
X345019Y-1234029D01*
X343326D01*
X341633Y-1235722D01*
Y-1240800D01*
X351790Y-1225565D02*
X341633D01*
X346712Y-1230644D01*
Y-1223873D01*
X12703Y-1254343D02*
Y-1257728D01*
Y-1256036D01*
X21167D01*
X22860Y-1257728D01*
Y-1259421D01*
X21167Y-1261114D01*
X24553Y-1250957D02*
Y-1244186D01*
X22860Y-1240800D02*
X16089D01*
X12703Y-1237415D01*
X16089Y-1234029D01*
X22860D01*
X17782D01*
Y-1240800D01*
X22860Y-1225565D02*
X12703D01*
X17782Y-1230644D01*
Y-1223873D01*
X178226Y-1241643D02*
X176533Y-1243335D01*
Y-1246721D01*
X178226Y-1248414D01*
X184997D01*
X186690Y-1246721D01*
Y-1243335D01*
X184997Y-1241643D01*
X186690Y-1231486D02*
Y-1238257D01*
X179919Y-1231486D01*
X178226D01*
X176533Y-1233179D01*
Y-1236564D01*
X178226Y-1238257D01*
X188383Y-1228100D02*
Y-1221329D01*
X176533Y-1217944D02*
X186690D01*
Y-1212865D01*
X184997Y-1211172D01*
X178226D01*
X176533Y-1212865D01*
Y-1217944D01*
X115501Y-1265346D02*
X113808Y-1263653D01*
X110423D01*
X108730Y-1265346D01*
Y-1272117D01*
X110423Y-1273810D01*
X113808D01*
X115501Y-1272117D01*
X118887Y-1273810D02*
X122272D01*
X120580D01*
Y-1263653D01*
X118887Y-1265346D01*
X127351Y-1275503D02*
X134122D01*
X137507Y-1263653D02*
Y-1273810D01*
X142586D01*
X144278Y-1272117D01*
Y-1265346D01*
X142586Y-1263653D01*
X137507D01*
X138430Y-826777D02*
Y-835241D01*
X140123Y-836934D01*
X143508D01*
X145201Y-835241D01*
Y-826777D01*
X148587Y-836934D02*
X151972D01*
X150280D01*
Y-826777D01*
X148587Y-828470D01*
X157051Y-838627D02*
X163822D01*
X173979Y-828470D02*
X172286Y-826777D01*
X168900D01*
X167207Y-828470D01*
Y-835241D01*
X168900Y-836934D01*
X172286D01*
X173979Y-835241D01*
X204470Y-923297D02*
Y-931761D01*
X206163Y-933454D01*
X209548D01*
X211241Y-931761D01*
Y-923297D01*
X221398Y-933454D02*
X214627D01*
X221398Y-926683D01*
Y-924990D01*
X219705Y-923297D01*
X216320D01*
X214627Y-924990D01*
X224783Y-935147D02*
X231555D01*
X241711Y-924990D02*
X240019Y-923297D01*
X236633D01*
X234940Y-924990D01*
Y-931761D01*
X236633Y-933454D01*
X240019D01*
X241711Y-931761D01*
X116340Y-948694D02*
Y-938537D01*
X121418D01*
X123111Y-940230D01*
Y-943615D01*
X121418Y-945308D01*
X116340D01*
X119726D02*
X123111Y-948694D01*
X126497Y-938537D02*
X133268D01*
Y-940230D01*
X126497Y-947001D01*
Y-948694D01*
X136653Y-950387D02*
X143425D01*
X153581Y-940230D02*
X151889Y-938537D01*
X148503D01*
X146810Y-940230D01*
Y-947001D01*
X148503Y-948694D01*
X151889D01*
X153581Y-947001D01*
X285590Y-1003464D02*
X275433D01*
Y-998385D01*
X277126Y-996693D01*
X280512D01*
X282204Y-998385D01*
Y-1003464D01*
Y-1000078D02*
X285590Y-996693D01*
X275433Y-986536D02*
X277126Y-989921D01*
X280512Y-993307D01*
X283897D01*
X285590Y-991614D01*
Y-988229D01*
X283897Y-986536D01*
X282204D01*
X280512Y-988229D01*
Y-993307D01*
X287283Y-983150D02*
Y-976379D01*
X277126Y-966223D02*
X275433Y-967915D01*
Y-971301D01*
X277126Y-972994D01*
X283897D01*
X285590Y-971301D01*
Y-967915D01*
X283897Y-966223D01*
X250030Y-919324D02*
Y-909167D01*
X255108D01*
X256801Y-910860D01*
Y-914246D01*
X255108Y-915938D01*
X250030D01*
X253416D02*
X256801Y-919324D01*
X266958Y-909167D02*
X260187D01*
Y-914246D01*
X263572Y-912553D01*
X265265D01*
X266958Y-914246D01*
Y-917631D01*
X265265Y-919324D01*
X261880D01*
X260187Y-917631D01*
X270343Y-921017D02*
X277115D01*
X287271Y-910860D02*
X285578Y-909167D01*
X282193D01*
X280500Y-910860D01*
Y-917631D01*
X282193Y-919324D01*
X285578D01*
X287271Y-917631D01*
X121920Y-902974D02*
Y-892817D01*
X126998D01*
X128691Y-894510D01*
Y-897896D01*
X126998Y-899588D01*
X121920D01*
X125306D02*
X128691Y-902974D01*
X137155D02*
Y-892817D01*
X132077Y-897896D01*
X138848D01*
X142233Y-904667D02*
X149005D01*
X159161Y-894510D02*
X157469Y-892817D01*
X154083D01*
X152390Y-894510D01*
Y-901281D01*
X154083Y-902974D01*
X157469D01*
X159161Y-901281D01*
X55880Y-902974D02*
Y-892817D01*
X60958D01*
X62651Y-894510D01*
Y-897896D01*
X60958Y-899588D01*
X55880D01*
X59266D02*
X62651Y-902974D01*
X66037Y-894510D02*
X67730Y-892817D01*
X71115D01*
X72808Y-894510D01*
Y-896203D01*
X71115Y-897896D01*
X69422D01*
X71115D01*
X72808Y-899588D01*
Y-901281D01*
X71115Y-902974D01*
X67730D01*
X66037Y-901281D01*
X76193Y-904667D02*
X82965D01*
X93121Y-894510D02*
X91428Y-892817D01*
X88043D01*
X86350Y-894510D01*
Y-901281D01*
X88043Y-902974D01*
X91428D01*
X93121Y-901281D01*
X311150Y-995684D02*
X300993D01*
Y-990605D01*
X302686Y-988913D01*
X306072D01*
X307764Y-990605D01*
Y-995684D01*
Y-992298D02*
X311150Y-988913D01*
Y-978756D02*
Y-985527D01*
X304379Y-978756D01*
X302686D01*
X300993Y-980449D01*
Y-983834D01*
X302686Y-985527D01*
X312843Y-975370D02*
Y-968599D01*
X302686Y-958443D02*
X300993Y-960135D01*
Y-963521D01*
X302686Y-965214D01*
X309457D01*
X311150Y-963521D01*
Y-960135D01*
X309457Y-958443D01*
X52070Y-842014D02*
Y-831857D01*
X57148D01*
X58841Y-833550D01*
Y-836936D01*
X57148Y-838628D01*
X52070D01*
X55456D02*
X58841Y-842014D01*
X62227D02*
X65612D01*
X63920D01*
Y-831857D01*
X62227Y-833550D01*
X70691Y-843707D02*
X77462D01*
X87619Y-833550D02*
X85926Y-831857D01*
X82540D01*
X80847Y-833550D01*
Y-840321D01*
X82540Y-842014D01*
X85926D01*
X87619Y-840321D01*
X340363Y-981293D02*
Y-984678D01*
Y-982986D01*
X348827D01*
X350520Y-984678D01*
Y-986371D01*
X348827Y-988064D01*
X352213Y-977907D02*
Y-971136D01*
X340363Y-967750D02*
X350520D01*
Y-962672D01*
X348827Y-960979D01*
X347134D01*
X345442Y-962672D01*
Y-967750D01*
Y-962672D01*
X343749Y-960979D01*
X342056D01*
X340363Y-962672D01*
Y-967750D01*
X342056Y-957594D02*
X340363Y-955901D01*
Y-952515D01*
X342056Y-950823D01*
X343749D01*
X345442Y-952515D01*
Y-954208D01*
Y-952515D01*
X347134Y-950823D01*
X348827D01*
X350520Y-952515D01*
Y-955901D01*
X348827Y-957594D01*
X13973Y-982563D02*
Y-985948D01*
Y-984256D01*
X22437D01*
X24130Y-985948D01*
Y-987641D01*
X22437Y-989334D01*
X25823Y-979177D02*
Y-972406D01*
X24130Y-969020D02*
X17359D01*
X13973Y-965635D01*
X17359Y-962249D01*
X24130D01*
X19052D01*
Y-969020D01*
X15666Y-958864D02*
X13973Y-957171D01*
Y-953785D01*
X15666Y-952093D01*
X17359D01*
X19052Y-953785D01*
Y-955478D01*
Y-953785D01*
X20744Y-952093D01*
X22437D01*
X24130Y-953785D01*
Y-957171D01*
X22437Y-958864D01*
X184576Y-952083D02*
X182883Y-953775D01*
Y-957161D01*
X184576Y-958854D01*
X191347D01*
X193040Y-957161D01*
Y-953775D01*
X191347Y-952083D01*
X193040Y-941926D02*
Y-948697D01*
X186269Y-941926D01*
X184576D01*
X182883Y-943619D01*
Y-947004D01*
X184576Y-948697D01*
X194733Y-938540D02*
Y-931769D01*
X184576Y-921612D02*
X182883Y-923305D01*
Y-926691D01*
X184576Y-928384D01*
X191347D01*
X193040Y-926691D01*
Y-923305D01*
X191347Y-921612D01*
X127421Y-996106D02*
X125728Y-994413D01*
X122343D01*
X120650Y-996106D01*
Y-1002877D01*
X122343Y-1004570D01*
X125728D01*
X127421Y-1002877D01*
X130807Y-1004570D02*
X134192D01*
X132500D01*
Y-994413D01*
X130807Y-996106D01*
X139271Y-1006263D02*
X146042D01*
X156199Y-996106D02*
X154506Y-994413D01*
X151120D01*
X149427Y-996106D01*
Y-1002877D01*
X151120Y-1004570D01*
X154506D01*
X156199Y-1002877D01*
X208280Y-632467D02*
Y-640931D01*
X209973Y-642624D01*
X213358D01*
X215051Y-640931D01*
Y-632467D01*
X225208Y-642624D02*
X218437D01*
X225208Y-635853D01*
Y-634160D01*
X223515Y-632467D01*
X220130D01*
X218437Y-634160D01*
X228593Y-644317D02*
X235365D01*
X238750Y-632467D02*
Y-642624D01*
X243829D01*
X245521Y-640931D01*
Y-639238D01*
X243829Y-637546D01*
X238750D01*
X243829D01*
X245521Y-635853D01*
Y-634160D01*
X243829Y-632467D01*
X238750D01*
X135890Y-544837D02*
Y-553301D01*
X137583Y-554994D01*
X140968D01*
X142661Y-553301D01*
Y-544837D01*
X146047Y-554994D02*
X149432D01*
X147739D01*
Y-544837D01*
X146047Y-546530D01*
X154511Y-556687D02*
X161282D01*
X164667Y-544837D02*
Y-554994D01*
X169746D01*
X171439Y-553301D01*
Y-551608D01*
X169746Y-549916D01*
X164667D01*
X169746D01*
X171439Y-548223D01*
Y-546530D01*
X169746Y-544837D01*
X164667D01*
X115570Y-695964D02*
X105413D01*
Y-690885D01*
X107106Y-689193D01*
X110492D01*
X112184Y-690885D01*
Y-695964D01*
Y-692578D02*
X115570Y-689193D01*
X105413Y-685807D02*
Y-679036D01*
X107106D01*
X113877Y-685807D01*
X115570D01*
X117263Y-675650D02*
Y-668879D01*
X105413Y-665494D02*
X115570D01*
Y-660415D01*
X113877Y-658723D01*
X112184D01*
X110492Y-660415D01*
Y-665494D01*
Y-660415D01*
X108799Y-658723D01*
X107106D01*
X105413Y-660415D01*
Y-665494D01*
X284480Y-726444D02*
X274323D01*
Y-721366D01*
X276016Y-719673D01*
X279402D01*
X281094Y-721366D01*
Y-726444D01*
Y-723058D02*
X284480Y-719673D01*
X274323Y-709516D02*
X276016Y-712902D01*
X279402Y-716287D01*
X282787D01*
X284480Y-714594D01*
Y-711209D01*
X282787Y-709516D01*
X281094D01*
X279402Y-711209D01*
Y-716287D01*
X286173Y-706130D02*
Y-699359D01*
X274323Y-695974D02*
X284480D01*
Y-690895D01*
X282787Y-689202D01*
X281094D01*
X279402Y-690895D01*
Y-695974D01*
Y-690895D01*
X277709Y-689202D01*
X276016D01*
X274323Y-690895D01*
Y-695974D01*
X290830Y-660404D02*
X280673D01*
Y-655325D01*
X282366Y-653633D01*
X285752D01*
X287444Y-655325D01*
Y-660404D01*
Y-657018D02*
X290830Y-653633D01*
X280673Y-643476D02*
Y-650247D01*
X285752D01*
X284059Y-646861D01*
Y-645169D01*
X285752Y-643476D01*
X289137D01*
X290830Y-645169D01*
Y-648554D01*
X289137Y-650247D01*
X292523Y-640090D02*
Y-633319D01*
X280673Y-629934D02*
X290830D01*
Y-624855D01*
X289137Y-623162D01*
X287444D01*
X285752Y-624855D01*
Y-629934D01*
Y-624855D01*
X284059Y-623162D01*
X282366D01*
X280673Y-624855D01*
Y-629934D01*
X107950Y-633894D02*
Y-623737D01*
X113028D01*
X114721Y-625430D01*
Y-628815D01*
X113028Y-630508D01*
X107950D01*
X111336D02*
X114721Y-633894D01*
X123185D02*
Y-623737D01*
X118107Y-628815D01*
X124878D01*
X128263Y-635587D02*
X135035D01*
X138420Y-623737D02*
Y-633894D01*
X143498D01*
X145191Y-632201D01*
Y-630508D01*
X143498Y-628815D01*
X138420D01*
X143498D01*
X145191Y-627123D01*
Y-625430D01*
X143498Y-623737D01*
X138420D01*
X43180Y-633734D02*
Y-623577D01*
X48258D01*
X49951Y-625270D01*
Y-628656D01*
X48258Y-630348D01*
X43180D01*
X46566D02*
X49951Y-633734D01*
X53337Y-625270D02*
X55030Y-623577D01*
X58415D01*
X60108Y-625270D01*
Y-626963D01*
X58415Y-628656D01*
X56722D01*
X58415D01*
X60108Y-630348D01*
Y-632041D01*
X58415Y-633734D01*
X55030D01*
X53337Y-632041D01*
X63493Y-635427D02*
X70265D01*
X73650Y-623577D02*
Y-633734D01*
X78728D01*
X80421Y-632041D01*
Y-630348D01*
X78728Y-628656D01*
X73650D01*
X78728D01*
X80421Y-626963D01*
Y-625270D01*
X78728Y-623577D01*
X73650D01*
X308610Y-721364D02*
X298453D01*
Y-716285D01*
X300146Y-714593D01*
X303532D01*
X305224Y-716285D01*
Y-721364D01*
Y-717978D02*
X308610Y-714593D01*
Y-704436D02*
Y-711207D01*
X301839Y-704436D01*
X300146D01*
X298453Y-706129D01*
Y-709514D01*
X300146Y-711207D01*
X310303Y-701050D02*
Y-694279D01*
X298453Y-690894D02*
X308610D01*
Y-685815D01*
X306917Y-684122D01*
X305224D01*
X303532Y-685815D01*
Y-690894D01*
Y-685815D01*
X301839Y-684122D01*
X300146D01*
X298453Y-685815D01*
Y-690894D01*
X22860Y-593094D02*
X12703D01*
Y-588016D01*
X14396Y-586323D01*
X17782D01*
X19474Y-588016D01*
Y-593094D01*
Y-589708D02*
X22860Y-586323D01*
Y-582937D02*
Y-579552D01*
Y-581244D01*
X12703D01*
X14396Y-582937D01*
X24553Y-574473D02*
Y-567702D01*
X12703Y-564316D02*
X22860D01*
Y-559238D01*
X21167Y-557545D01*
X19474D01*
X17782Y-559238D01*
Y-564316D01*
Y-559238D01*
X16089Y-557545D01*
X14396D01*
X12703Y-559238D01*
Y-564316D01*
X344173Y-723483D02*
Y-726868D01*
Y-725175D01*
X352637D01*
X354330Y-726868D01*
Y-728561D01*
X352637Y-730254D01*
X356023Y-720097D02*
Y-713326D01*
X344173Y-709940D02*
X354330D01*
Y-704862D01*
X352637Y-703169D01*
X350944D01*
X349252Y-704862D01*
Y-709940D01*
Y-704862D01*
X347559Y-703169D01*
X345866D01*
X344173Y-704862D01*
Y-709940D01*
X354330Y-693012D02*
Y-699784D01*
X347559Y-693012D01*
X345866D01*
X344173Y-694705D01*
Y-698091D01*
X345866Y-699784D01*
X8893Y-706973D02*
Y-710358D01*
Y-708665D01*
X17357D01*
X19050Y-710358D01*
Y-712051D01*
X17357Y-713744D01*
X20743Y-703587D02*
Y-696816D01*
X19050Y-693430D02*
X12279D01*
X8893Y-690045D01*
X12279Y-686659D01*
X19050D01*
X13972D01*
Y-693430D01*
X19050Y-676503D02*
Y-683274D01*
X12279Y-676503D01*
X10586D01*
X8893Y-678195D01*
Y-681581D01*
X10586Y-683274D01*
X185846Y-673953D02*
X184153Y-675646D01*
Y-679031D01*
X185846Y-680724D01*
X192617D01*
X194310Y-679031D01*
Y-675646D01*
X192617Y-673953D01*
X194310Y-663796D02*
Y-670567D01*
X187539Y-663796D01*
X185846D01*
X184153Y-665489D01*
Y-668874D01*
X185846Y-670567D01*
X196003Y-660410D02*
Y-653639D01*
X184153Y-650254D02*
X194310D01*
Y-645175D01*
X192617Y-643483D01*
X190924D01*
X189232Y-645175D01*
Y-650254D01*
Y-645175D01*
X187539Y-643483D01*
X185846D01*
X184153Y-645175D01*
Y-650254D01*
X147741Y-716710D02*
X146048Y-715017D01*
X142663D01*
X140970Y-716710D01*
Y-723481D01*
X142663Y-725174D01*
X146048D01*
X147741Y-723481D01*
X151127Y-725174D02*
X154512D01*
X152819D01*
Y-715017D01*
X151127Y-716710D01*
X159591Y-726867D02*
X166362D01*
X169747Y-715017D02*
Y-725174D01*
X174826D01*
X176518Y-723481D01*
Y-721788D01*
X174826Y-720096D01*
X169747D01*
X174826D01*
X176518Y-718403D01*
Y-716710D01*
X174826Y-715017D01*
X169747D01*
X231140Y-19057D02*
Y-27521D01*
X232833Y-29214D01*
X236218D01*
X237911Y-27521D01*
Y-19057D01*
X241297Y-29214D02*
X244682D01*
X242990D01*
Y-19057D01*
X241297Y-20750D01*
X249761D02*
X251453Y-19057D01*
X254839D01*
X256532Y-20750D01*
Y-27521D01*
X254839Y-29214D01*
X251453D01*
X249761Y-27521D01*
Y-20750D01*
X259917Y-29214D02*
X263303D01*
X261610D01*
Y-19057D01*
X259917Y-20750D01*
X194310Y-349257D02*
Y-357721D01*
X196003Y-359414D01*
X199388D01*
X201081Y-357721D01*
Y-349257D01*
X211238Y-359414D02*
X204467D01*
X211238Y-352643D01*
Y-350950D01*
X209545Y-349257D01*
X206159D01*
X204467Y-350950D01*
X214623Y-361107D02*
X221395D01*
X224780Y-359414D02*
Y-352643D01*
X228166Y-349257D01*
X231551Y-352643D01*
Y-359414D01*
Y-354336D01*
X224780D01*
X128270Y-265437D02*
Y-273901D01*
X129963Y-275594D01*
X133348D01*
X135041Y-273901D01*
Y-265437D01*
X138427Y-275594D02*
X141812D01*
X140119D01*
Y-265437D01*
X138427Y-267130D01*
X146891Y-277287D02*
X153662D01*
X157047Y-275594D02*
Y-268823D01*
X160433Y-265437D01*
X163818Y-268823D01*
Y-275594D01*
Y-270515D01*
X157047D01*
X114300Y-425454D02*
X104143D01*
Y-420376D01*
X105836Y-418683D01*
X109222D01*
X110914Y-420376D01*
Y-425454D01*
Y-422068D02*
X114300Y-418683D01*
X104143Y-415297D02*
Y-408526D01*
X105836D01*
X112607Y-415297D01*
X114300D01*
X115993Y-405140D02*
Y-398369D01*
X114300Y-394984D02*
X107529D01*
X104143Y-391598D01*
X107529Y-388213D01*
X114300D01*
X109222D01*
Y-394984D01*
X271780Y-440694D02*
X261623D01*
Y-435616D01*
X263316Y-433923D01*
X266702D01*
X268394Y-435616D01*
Y-440694D01*
Y-437308D02*
X271780Y-433923D01*
X261623Y-423766D02*
X263316Y-427151D01*
X266702Y-430537D01*
X270087D01*
X271780Y-428844D01*
Y-425459D01*
X270087Y-423766D01*
X268394D01*
X266702Y-425459D01*
Y-430537D01*
X273473Y-420380D02*
Y-413609D01*
X271780Y-410224D02*
X265009D01*
X261623Y-406838D01*
X265009Y-403452D01*
X271780D01*
X266702D01*
Y-410224D01*
X302260Y-391164D02*
X293373D01*
Y-386720D01*
X294854Y-385239D01*
X297816D01*
X299298Y-386720D01*
Y-391164D01*
Y-388201D02*
X302260Y-385239D01*
X293373Y-376352D02*
Y-382277D01*
X297816D01*
X296335Y-379314D01*
Y-377833D01*
X297816Y-376352D01*
X300779D01*
X302260Y-377833D01*
Y-380796D01*
X300779Y-382277D01*
X303741Y-373390D02*
Y-367465D01*
X302260Y-364502D02*
X296335D01*
X293373Y-361540D01*
X296335Y-358578D01*
X302260D01*
X297816D01*
Y-364502D01*
X111760Y-364494D02*
Y-354337D01*
X116838D01*
X118531Y-356030D01*
Y-359416D01*
X116838Y-361108D01*
X111760D01*
X115146D02*
X118531Y-364494D01*
X126995D02*
Y-354337D01*
X121917Y-359416D01*
X128688D01*
X132073Y-366187D02*
X138845D01*
X142230Y-364494D02*
Y-357723D01*
X145616Y-354337D01*
X149001Y-357723D01*
Y-364494D01*
Y-359416D01*
X142230D01*
X41910Y-368304D02*
Y-358147D01*
X46988D01*
X48681Y-359840D01*
Y-363226D01*
X46988Y-364918D01*
X41910D01*
X45296D02*
X48681Y-368304D01*
X52067Y-359840D02*
X53759Y-358147D01*
X57145D01*
X58838Y-359840D01*
Y-361533D01*
X57145Y-363226D01*
X55452D01*
X57145D01*
X58838Y-364918D01*
Y-366611D01*
X57145Y-368304D01*
X53759D01*
X52067Y-366611D01*
X62223Y-369997D02*
X68995D01*
X72380Y-368304D02*
Y-361533D01*
X75766Y-358147D01*
X79151Y-361533D01*
Y-368304D01*
Y-363226D01*
X72380D01*
X328930Y-439424D02*
X318773D01*
Y-434346D01*
X320466Y-432653D01*
X323852D01*
X325544Y-434346D01*
Y-439424D01*
Y-436038D02*
X328930Y-432653D01*
Y-422496D02*
Y-429267D01*
X322159Y-422496D01*
X320466D01*
X318773Y-424189D01*
Y-427574D01*
X320466Y-429267D01*
X330623Y-419110D02*
Y-412339D01*
X328930Y-408954D02*
X322159D01*
X318773Y-405568D01*
X322159Y-402183D01*
X328930D01*
X323852D01*
Y-408954D01*
X35560Y-278134D02*
Y-267977D01*
X40638D01*
X42331Y-269670D01*
Y-273055D01*
X40638Y-274748D01*
X35560D01*
X38946D02*
X42331Y-278134D01*
X45717D02*
X49102D01*
X47410D01*
Y-267977D01*
X45717Y-269670D01*
X54181Y-279827D02*
X60952D01*
X64337Y-278134D02*
Y-271363D01*
X67723Y-267977D01*
X71108Y-271363D01*
Y-278134D01*
Y-273055D01*
X64337D01*
X341633Y-419953D02*
Y-423338D01*
Y-421646D01*
X350097D01*
X351790Y-423338D01*
Y-425031D01*
X350097Y-426724D01*
X353483Y-416567D02*
Y-409796D01*
X341633Y-406410D02*
X351790D01*
Y-401332D01*
X350097Y-399639D01*
X348404D01*
X346712Y-401332D01*
Y-406410D01*
Y-401332D01*
X345019Y-399639D01*
X343326D01*
X341633Y-401332D01*
Y-406410D01*
X351790Y-396254D02*
Y-392868D01*
Y-394561D01*
X341633D01*
X343326Y-396254D01*
X13973Y-423603D02*
Y-426988D01*
Y-425295D01*
X22437D01*
X24130Y-426988D01*
Y-428681D01*
X22437Y-430374D01*
X25823Y-420217D02*
Y-413446D01*
X24130Y-410060D02*
X17359D01*
X13973Y-406675D01*
X17359Y-403289D01*
X24130D01*
X19052D01*
Y-410060D01*
X24130Y-399904D02*
Y-396518D01*
Y-398211D01*
X13973D01*
X15666Y-399904D01*
X183301Y-36837D02*
X179916D01*
X181608D01*
Y-45301D01*
X179916Y-46994D01*
X178223D01*
X176530Y-45301D01*
X186687Y-46994D02*
X190072D01*
X188379D01*
Y-36837D01*
X186687Y-38530D01*
X195151D02*
X196843Y-36837D01*
X200229D01*
X201922Y-38530D01*
Y-45301D01*
X200229Y-46994D01*
X196843D01*
X195151Y-45301D01*
Y-38530D01*
X205307D02*
X207000Y-36837D01*
X210386D01*
X212078Y-38530D01*
Y-45301D01*
X210386Y-46994D01*
X207000D01*
X205307Y-45301D01*
Y-38530D01*
X184081Y-108380D02*
X182388Y-106687D01*
X179003D01*
X177310Y-108380D01*
Y-115151D01*
X179003Y-116844D01*
X182388D01*
X184081Y-115151D01*
X187467Y-116844D02*
X190852D01*
X189160D01*
Y-106687D01*
X187467Y-108380D01*
X195931D02*
X197623Y-106687D01*
X201009D01*
X202702Y-108380D01*
Y-115151D01*
X201009Y-116844D01*
X197623D01*
X195931Y-115151D01*
Y-108380D01*
X211166Y-116844D02*
Y-106687D01*
X206087Y-111765D01*
X212859D01*
X105831Y-107110D02*
X104138Y-105417D01*
X100753D01*
X99060Y-107110D01*
Y-113881D01*
X100753Y-115574D01*
X104138D01*
X105831Y-113881D01*
X109217Y-115574D02*
X112602D01*
X110910D01*
Y-105417D01*
X109217Y-107110D01*
X117681D02*
X119373Y-105417D01*
X122759D01*
X124452Y-107110D01*
Y-113881D01*
X122759Y-115574D01*
X119373D01*
X117681Y-113881D01*
Y-107110D01*
X127837Y-115574D02*
X131223D01*
X129530D01*
Y-105417D01*
X127837Y-107110D01*
X80431Y-14400D02*
X78738Y-12707D01*
X75353D01*
X73660Y-14400D01*
Y-21171D01*
X75353Y-22864D01*
X78738D01*
X80431Y-21171D01*
X83817Y-22864D02*
X87202D01*
X85510D01*
Y-12707D01*
X83817Y-14400D01*
X92281D02*
X93973Y-12707D01*
X97359D01*
X99052Y-14400D01*
Y-21171D01*
X97359Y-22864D01*
X93973D01*
X92281Y-21171D01*
Y-14400D01*
X102437D02*
X104130Y-12707D01*
X107516D01*
X109208Y-14400D01*
Y-21171D01*
X107516Y-22864D01*
X104130D01*
X102437Y-21171D01*
Y-14400D01*
X175686Y-404553D02*
X173993Y-406245D01*
Y-409631D01*
X175686Y-411324D01*
X182457D01*
X184150Y-409631D01*
Y-406245D01*
X182457Y-404553D01*
X184150Y-394396D02*
Y-401167D01*
X177379Y-394396D01*
X175686D01*
X173993Y-396089D01*
Y-399474D01*
X175686Y-401167D01*
X185843Y-391010D02*
Y-384239D01*
X184150Y-380854D02*
X177379D01*
X173993Y-377468D01*
X177379Y-374082D01*
X184150D01*
X179072D01*
Y-380854D01*
X162981Y-434770D02*
X161288Y-433077D01*
X157903D01*
X156210Y-434770D01*
Y-441541D01*
X157903Y-443234D01*
X161288D01*
X162981Y-441541D01*
X166367Y-443234D02*
X169752D01*
X168060D01*
Y-433077D01*
X166367Y-434770D01*
X174831Y-444927D02*
X181602D01*
X184987Y-443234D02*
Y-436463D01*
X188373Y-433077D01*
X191758Y-436463D01*
Y-443234D01*
Y-438156D01*
X184987D01*
X325541Y-1535437D02*
X322156D01*
X323848D01*
Y-1543901D01*
X322156Y-1545594D01*
X320463D01*
X318770Y-1543901D01*
X328927Y-1547287D02*
X335698D01*
X339083Y-1535437D02*
Y-1545594D01*
X344162D01*
X345855Y-1543901D01*
Y-1542208D01*
X344162Y-1540515D01*
X339083D01*
X344162D01*
X345855Y-1538823D01*
Y-1537130D01*
X344162Y-1535437D01*
X339083D01*
X356011D02*
X352626Y-1537130D01*
X349240Y-1540515D01*
Y-1543901D01*
X350933Y-1545594D01*
X354319D01*
X356011Y-1543901D01*
Y-1542208D01*
X354319Y-1540515D01*
X349240D01*
X153670Y-1537977D02*
Y-1546441D01*
X155363Y-1548134D01*
X158748D01*
X160441Y-1546441D01*
Y-1537977D01*
X163827Y-1548134D02*
X167212D01*
X165520D01*
Y-1537977D01*
X163827Y-1539670D01*
X172291Y-1549827D02*
X179062D01*
X189219Y-1537977D02*
X182447D01*
Y-1543056D01*
X185833D01*
X182447D01*
Y-1548134D01*
X158910Y-1367797D02*
Y-1376261D01*
X160603Y-1377954D01*
X163988D01*
X165681Y-1376261D01*
Y-1367797D01*
X169067Y-1377954D02*
X172452D01*
X170760D01*
Y-1367797D01*
X169067Y-1369490D01*
X177531Y-1379647D02*
X184302D01*
X194459Y-1367797D02*
X187687D01*
Y-1377954D01*
X194459D01*
X187687Y-1372876D02*
X191073D01*
X214630Y-1555754D02*
Y-1545597D01*
X219708D01*
X221401Y-1547290D01*
Y-1550676D01*
X219708Y-1552368D01*
X214630D01*
X218016D02*
X221401Y-1555754D01*
X231558D02*
X224787D01*
X231558Y-1548983D01*
Y-1547290D01*
X229865Y-1545597D01*
X226479D01*
X224787Y-1547290D01*
X234943Y-1557447D02*
X241715D01*
X251871Y-1545597D02*
X245100D01*
Y-1550676D01*
X248486D01*
X245100D01*
Y-1555754D01*
X309880Y-1423834D02*
X299723D01*
Y-1418755D01*
X301416Y-1417063D01*
X304802D01*
X306494Y-1418755D01*
Y-1423834D01*
Y-1420448D02*
X309880Y-1417063D01*
Y-1406906D02*
Y-1413677D01*
X303109Y-1406906D01*
X301416D01*
X299723Y-1408599D01*
Y-1411984D01*
X301416Y-1413677D01*
X311573Y-1403520D02*
Y-1396749D01*
X299723Y-1386593D02*
Y-1393364D01*
X309880D01*
Y-1386593D01*
X304802Y-1393364D02*
Y-1389978D01*
X90170Y-1551944D02*
Y-1541787D01*
X95248D01*
X96941Y-1543480D01*
Y-1546866D01*
X95248Y-1548558D01*
X90170D01*
X93556D02*
X96941Y-1551944D01*
X100327D02*
X103712D01*
X102020D01*
Y-1541787D01*
X100327Y-1543480D01*
X108791Y-1553637D02*
X115562D01*
X125718Y-1541787D02*
X118947D01*
Y-1546866D01*
X122333D01*
X118947D01*
Y-1551944D01*
X87630Y-1381764D02*
Y-1371607D01*
X92708D01*
X94401Y-1373300D01*
Y-1376685D01*
X92708Y-1378378D01*
X87630D01*
X91016D02*
X94401Y-1381764D01*
X97787D02*
X101172D01*
X99480D01*
Y-1371607D01*
X97787Y-1373300D01*
X106251Y-1383457D02*
X113022D01*
X123179Y-1371607D02*
X116407D01*
Y-1381764D01*
X123179D01*
X116407Y-1376685D02*
X119793D01*
X10581Y-1710697D02*
X7196D01*
X8888D01*
Y-1719161D01*
X7196Y-1720854D01*
X5503D01*
X3810Y-1719161D01*
X13967Y-1722547D02*
X20738D01*
X24123Y-1720854D02*
Y-1714083D01*
X27509Y-1710697D01*
X30895Y-1714083D01*
Y-1720854D01*
Y-1715775D01*
X24123D01*
X34280Y-1710697D02*
X41051D01*
Y-1712390D01*
X34280Y-1719161D01*
Y-1720854D01*
X323001Y-1709427D02*
X319616D01*
X321308D01*
Y-1717891D01*
X319616Y-1719584D01*
X317923D01*
X316230Y-1717891D01*
X326387Y-1721277D02*
X333158D01*
X336543Y-1709427D02*
Y-1719584D01*
X341622D01*
X343315Y-1717891D01*
Y-1716198D01*
X341622Y-1714505D01*
X336543D01*
X341622D01*
X343315Y-1712813D01*
Y-1711120D01*
X341622Y-1709427D01*
X336543D01*
X346700D02*
X353471D01*
Y-1711120D01*
X346700Y-1717891D01*
Y-1719584D01*
X80010Y-1729744D02*
Y-1719587D01*
X85088D01*
X86781Y-1721280D01*
Y-1724666D01*
X85088Y-1726358D01*
X80010D01*
X83396D02*
X86781Y-1729744D01*
X90167D02*
X93552D01*
X91860D01*
Y-1719587D01*
X90167Y-1721280D01*
X98631Y-1731437D02*
X105402D01*
X115559Y-1721280D02*
X113866Y-1719587D01*
X110480D01*
X108787Y-1721280D01*
Y-1728051D01*
X110480Y-1729744D01*
X113866D01*
X115559Y-1728051D01*
Y-1724666D01*
X112173D01*
X232410Y-1728474D02*
Y-1718317D01*
X237488D01*
X239181Y-1720010D01*
Y-1723396D01*
X237488Y-1725088D01*
X232410D01*
X235796D02*
X239181Y-1728474D01*
X249338D02*
X242567D01*
X249338Y-1721703D01*
Y-1720010D01*
X247645Y-1718317D01*
X244259D01*
X242567Y-1720010D01*
X252723Y-1730167D02*
X259495D01*
X269651Y-1720010D02*
X267959Y-1718317D01*
X264573D01*
X262880Y-1720010D01*
Y-1726781D01*
X264573Y-1728474D01*
X267959D01*
X269651Y-1726781D01*
Y-1723396D01*
X266266D01*
X133350Y-1717047D02*
Y-1725511D01*
X135043Y-1727204D01*
X138428D01*
X140121Y-1725511D01*
Y-1717047D01*
X143507Y-1727204D02*
X146892D01*
X145199D01*
Y-1717047D01*
X143507Y-1718740D01*
X151971Y-1728897D02*
X158742D01*
X168899Y-1718740D02*
X167206Y-1717047D01*
X163820D01*
X162127Y-1718740D01*
Y-1725511D01*
X163820Y-1727204D01*
X167206D01*
X168899Y-1725511D01*
Y-1722126D01*
X165513D01*
X162070Y-1912627D02*
Y-1921091D01*
X163763Y-1922784D01*
X167148D01*
X168841Y-1921091D01*
Y-1912627D01*
X172227Y-1922784D02*
X175612D01*
X173920D01*
Y-1912627D01*
X172227Y-1914320D01*
X180691Y-1924477D02*
X187462D01*
X190847Y-1912627D02*
Y-1922784D01*
Y-1917706D01*
X197619D01*
Y-1912627D01*
Y-1922784D01*
D36*
X142710Y-1733084D02*
G03*
X142710Y-1733084I-1250J0D01*
G01*
X154920Y-1903264D02*
G03*
X154920Y-1903264I-1250J0D01*
G01*
X211430Y-1205624D02*
G03*
X211430Y-1205624I-1250J0D01*
G01*
X149790Y-1123984D02*
G03*
X149790Y-1123984I-1250J0D01*
G01*
X152330Y-847124D02*
G03*
X152330Y-847124I-1250J0D01*
G01*
X217780Y-936384D02*
G03*
X217780Y-936384I-1250J0D01*
G01*
X224130Y-646824D02*
G03*
X224130Y-646824I-1250J0D01*
G01*
X149790Y-562644D02*
G03*
X149790Y-562644I-1250J0D01*
G01*
X284440Y-43684D02*
G03*
X284440Y-43684I-1250J0D01*
G01*
X202540Y-363774D02*
G03*
X202540Y-363774I-1250J0D01*
G01*
X157410Y-278164D02*
G03*
X157410Y-278164I-1250J0D01*
G01*
X147350Y-70324D02*
G03*
X147350Y-70324I-1250J0D01*
G01*
X160490Y-1555284D02*
G03*
X160490Y-1555284I-1250J0D01*
G01*
X155410Y-1382564D02*
G03*
X155410Y-1382564I-1250J0D01*
G01*
D37*
X233680Y-1216174D02*
G03*
X233680Y-1216174I-2000J0D01*
G01*
X240030Y-946934D02*
G03*
X240030Y-946934I-2000J0D01*
G01*
X246380Y-657374D02*
G03*
X246380Y-657374I-2000J0D01*
G01*
X224790Y-374324D02*
G03*
X224790Y-374324I-2000J0D01*
G01*
D38*
X158370Y-1233274D02*
Y-1222274D01*
X174370Y-1233274D02*
Y-1222274D01*
X163450Y-951654D02*
Y-940654D01*
X179450Y-951654D02*
Y-940654D01*
X163450Y-664634D02*
Y-653634D01*
X179450Y-664634D02*
Y-653634D01*
X148210Y-403014D02*
Y-392014D01*
X164210Y-403014D02*
Y-392014D01*
X124040Y-1242950D02*
X135040D01*
X124040Y-1258950D02*
X135040D01*
X131660Y-972440D02*
X142660D01*
X131660Y-988440D02*
X142660D01*
X155790Y-691774D02*
X166790D01*
X155790Y-707774D02*
X166790D01*
X130390Y-425074D02*
X141390D01*
X130390Y-441074D02*
X141390D01*
X289460Y-375654D02*
Y-373654D01*
X276960Y-375654D02*
Y-373654D01*
X161210Y-1766834D02*
Y-1735834D01*
X151210Y-1766834D02*
Y-1735834D01*
Y-1766834D02*
X161210D01*
X151210Y-1735834D02*
X161210D01*
X163420Y-1906014D02*
X173420D01*
X163420Y-1937014D02*
X173420D01*
X163420D02*
Y-1906014D01*
X173420Y-1937014D02*
Y-1906014D01*
X216630Y-1923784D02*
Y-1921784D01*
X229130Y-1923784D02*
Y-1921784D01*
X91540Y-1922514D02*
Y-1920514D01*
X104040Y-1922514D02*
Y-1920514D01*
X321310Y-1886334D02*
X346710D01*
X321310Y-1937134D02*
Y-1886334D01*
Y-1937134D02*
X346710D01*
Y-1886334D01*
X3810D02*
X29210D01*
X3810Y-1937134D02*
Y-1886334D01*
Y-1937134D02*
X29210D01*
Y-1886334D01*
X3810Y-1605284D02*
X29210D01*
Y-1554484D01*
X3810D02*
X29210D01*
X3810Y-1605284D02*
Y-1554484D01*
X328930Y-1436534D02*
X354330D01*
Y-1385734D01*
X328930D02*
X354330D01*
X328930Y-1436534D02*
Y-1385734D01*
X2540Y-1436534D02*
X27940D01*
Y-1385734D01*
X2540D02*
X27940D01*
X2540Y-1436534D02*
Y-1385734D01*
X223680Y-1258174D02*
X243680D01*
X223680Y-1208174D02*
X243680D01*
Y-1258174D02*
Y-1208174D01*
X223680Y-1258174D02*
Y-1208174D01*
X166290Y-1157234D02*
Y-1126234D01*
X156290Y-1157234D02*
Y-1126234D01*
Y-1157234D02*
X166290D01*
X156290Y-1126234D02*
X166290D01*
X96420Y-1218774D02*
Y-1216774D01*
X83920Y-1218774D02*
Y-1216774D01*
X303430Y-1250684D02*
Y-1248684D01*
X290930Y-1250684D02*
Y-1248684D01*
X303430Y-1208774D02*
Y-1206774D01*
X290930Y-1208774D02*
Y-1206774D01*
X123460Y-1206404D02*
X125460D01*
X123460Y-1193904D02*
X125460D01*
X55990Y-1206404D02*
X57990D01*
X55990Y-1193904D02*
X57990D01*
X316330Y-1250684D02*
Y-1248684D01*
X328830Y-1250684D02*
Y-1248684D01*
X44350Y-1137654D02*
Y-1135654D01*
X31850Y-1137654D02*
Y-1135654D01*
X331470Y-1217934D02*
X356870D01*
Y-1167134D01*
X331470D02*
X356870D01*
X331470Y-1217934D02*
Y-1167134D01*
X3810Y-1217934D02*
X29210D01*
Y-1167134D01*
X3810D02*
X29210D01*
X3810Y-1217934D02*
Y-1167134D01*
X168830Y-880374D02*
Y-849374D01*
X158830Y-880374D02*
Y-849374D01*
Y-880374D02*
X168830D01*
X158830Y-849374D02*
X168830D01*
X230030Y-988934D02*
X250030D01*
X230030Y-938934D02*
X250030D01*
Y-988934D02*
Y-938934D01*
X230030Y-988934D02*
Y-938934D01*
X111660Y-942074D02*
Y-940074D01*
X99160Y-942074D02*
Y-940074D01*
X304700Y-981444D02*
Y-979444D01*
X292200Y-981444D02*
Y-979444D01*
X304700Y-939534D02*
Y-937534D01*
X292200Y-939534D02*
Y-937534D01*
X137430Y-921924D02*
X139430D01*
X137430Y-909424D02*
X139430D01*
X70120Y-921924D02*
X72120D01*
X70120Y-909424D02*
X72120D01*
X317600Y-977634D02*
Y-975634D01*
X330100Y-977634D02*
Y-975634D01*
X41810Y-854444D02*
Y-852444D01*
X29310Y-854444D02*
Y-852444D01*
X331470Y-947424D02*
X356870D01*
Y-896624D01*
X331470D02*
X356870D01*
X331470Y-947424D02*
Y-896624D01*
X6350Y-947424D02*
X31750D01*
Y-896624D01*
X6350D02*
X31750D01*
X6350Y-947424D02*
Y-896624D01*
X236380Y-699374D02*
X256380D01*
X236380Y-649374D02*
X256380D01*
Y-699374D02*
Y-649374D01*
X236380Y-699374D02*
Y-649374D01*
X166290Y-595894D02*
Y-564894D01*
X156290Y-595894D02*
Y-564894D01*
Y-595894D02*
X166290D01*
X156290Y-564894D02*
X166290D01*
X101500Y-662514D02*
Y-660514D01*
X89000Y-662514D02*
Y-660514D01*
X299620Y-698234D02*
Y-696234D01*
X287120Y-698234D02*
Y-696234D01*
X308510Y-644894D02*
Y-642894D01*
X296010Y-644894D02*
Y-642894D01*
X132350Y-650144D02*
X134350D01*
X132350Y-637644D02*
X134350D01*
X58530Y-650144D02*
X60530D01*
X58530Y-637644D02*
X60530D01*
X312520Y-702044D02*
Y-700044D01*
X325020Y-702044D02*
Y-700044D01*
X45620Y-578854D02*
Y-576854D01*
X33120Y-578854D02*
Y-576854D01*
X332740Y-670564D02*
X358140D01*
Y-619764D01*
X332740D02*
X358140D01*
X332740Y-670564D02*
Y-619764D01*
X3810Y-670564D02*
X29210D01*
Y-619764D01*
X3810D02*
X29210D01*
X3810Y-670564D02*
Y-619764D01*
X216690Y-94434D02*
Y-55434D01*
X283690Y-94434D02*
Y-55434D01*
X216690Y-94434D02*
X283690D01*
X216690Y-55434D02*
X283690D01*
X214790Y-416324D02*
X234790D01*
X214790Y-366324D02*
X234790D01*
Y-416324D02*
Y-366324D01*
X214790Y-416324D02*
Y-366324D01*
X173910Y-311414D02*
Y-280414D01*
X163910Y-311414D02*
Y-280414D01*
Y-311414D02*
X173910D01*
X163910Y-280414D02*
X173910D01*
X98960Y-402324D02*
Y-400324D01*
X86460Y-402324D02*
Y-400324D01*
X289460Y-421374D02*
Y-419374D01*
X276960Y-421374D02*
Y-419374D01*
X127270Y-384714D02*
X129270D01*
X127270Y-372214D02*
X129270D01*
X55990Y-384714D02*
X57990D01*
X55990Y-372214D02*
X57990D01*
X304900Y-421374D02*
Y-419374D01*
X317400Y-421374D02*
Y-419374D01*
X45620Y-304534D02*
Y-302534D01*
X33120Y-304534D02*
Y-302534D01*
X331470Y-388624D02*
X356870D01*
Y-337824D01*
X331470D02*
X356870D01*
X331470Y-388624D02*
Y-337824D01*
X8890Y-389894D02*
X34290D01*
Y-339094D01*
X8890D02*
X34290D01*
X8890Y-389894D02*
Y-339094D01*
X207010Y-33024D02*
Y-7624D01*
X156210D02*
X207010D01*
X156210Y-33024D02*
Y-7624D01*
Y-33024D02*
X207010D01*
X206740Y-123584D02*
X219740D01*
X185740D02*
Y-123084D01*
X206740Y-140584D02*
X219740D01*
X185740Y-141084D02*
Y-140584D01*
Y-123084D02*
X219740D01*
X185740Y-141084D02*
X219740D01*
X112770Y-86484D02*
X123770D01*
X112770Y-101484D02*
X123770D01*
X63600Y-35324D02*
Y-29074D01*
X139600Y-35324D02*
Y-29074D01*
X63600Y-75074D02*
Y-68824D01*
X139600Y-75074D02*
Y-68824D01*
X63600Y-29074D02*
X139600D01*
X63600Y-75074D02*
X139600D01*
X334010Y-1554484D02*
X359410D01*
X334010Y-1605284D02*
Y-1554484D01*
Y-1605284D02*
X359410D01*
Y-1554484D01*
X178990Y-1589034D02*
Y-1558034D01*
X168990Y-1589034D02*
Y-1558034D01*
Y-1589034D02*
X178990D01*
X168990Y-1558034D02*
X178990D01*
X173910Y-1416314D02*
Y-1385314D01*
X163910Y-1416314D02*
Y-1385314D01*
Y-1416314D02*
X173910D01*
X163910Y-1385314D02*
X173910D01*
X234850Y-1578344D02*
Y-1576344D01*
X222350Y-1578344D02*
Y-1576344D01*
X294540Y-1408164D02*
Y-1406164D01*
X282040Y-1408164D02*
Y-1406164D01*
X110390Y-1575804D02*
Y-1573804D01*
X97890Y-1575804D02*
Y-1573804D01*
X104040Y-1408164D02*
Y-1406164D01*
X91540Y-1408164D02*
Y-1406164D01*
X2540Y-1727044D02*
X27940D01*
X2540Y-1777844D02*
Y-1727044D01*
Y-1777844D02*
X27940D01*
Y-1727044D01*
X326390Y-1725934D02*
X351790D01*
X326390Y-1776734D02*
Y-1725934D01*
Y-1776734D02*
X351790D01*
Y-1725934D01*
X100230Y-1756144D02*
Y-1754144D01*
X87730Y-1756144D02*
Y-1754144D01*
X237390Y-1753604D02*
Y-1751604D01*
X224890Y-1753604D02*
Y-1751604D01*
D39*
X31750Y-173994D02*
X325120D01*
X355768Y-204642D01*
Y-331474D02*
Y-204642D01*
X5248Y-200496D02*
X31750Y-173994D01*
X5248Y-252734D02*
Y-200496D01*
X31750Y-450854D02*
X328930D01*
X355768Y-477692D01*
Y-609604D02*
Y-477692D01*
X5248Y-477356D02*
X31750Y-450854D01*
X5248Y-529594D02*
Y-477356D01*
X20320Y-1784354D02*
X29210D01*
X22860D02*
X29210D01*
X3810Y-1800864D02*
X20320Y-1784354D01*
X30480Y-735334D02*
X330200D01*
X328930D02*
X356362Y-762766D01*
Y-891544D02*
Y-762766D01*
X3810Y-762004D02*
X30480Y-735334D01*
Y-1009654D02*
X328930D01*
X355818Y-1036542D01*
Y-1163324D02*
Y-1036542D01*
X3810Y-1036324D02*
X30480Y-1009654D01*
X3810Y-1088394D02*
Y-1036324D01*
X21590Y-1280164D02*
X335280D01*
X2758Y-1298996D02*
X21590Y-1280164D01*
X2758Y-1355094D02*
Y-1298996D01*
X335280Y-1280164D02*
X355600Y-1300484D01*
Y-1355094D02*
Y-1300484D01*
X356108Y-1520194D02*
Y-1462282D01*
X335280Y-1441454D02*
X356108Y-1462282D01*
X22860Y-1441454D02*
X335280D01*
X2540Y-1461774D02*
X22860Y-1441454D01*
X2758Y-1690374D02*
Y-1629196D01*
X20320Y-1611634D01*
X336550D01*
X355600Y-1630684D01*
Y-1690374D02*
Y-1630684D01*
X332994Y-1785370D02*
X354838Y-1807214D01*
X2758Y-1355094D02*
X355600D01*
X354838Y-1863094D02*
Y-1807214D01*
X3810Y-1863094D02*
X354838D01*
X3810D02*
Y-1800864D01*
X101818Y-1863094D02*
Y-1784354D01*
X26670Y-1784354D02*
X333502D01*
X208498Y-1863094D02*
Y-1784354D01*
X211038Y-1690374D02*
Y-1611634D01*
X104358Y-1690374D02*
Y-1611634D01*
X2758Y-1690374D02*
X355600D01*
X2540Y-1520194D02*
X356108D01*
X2540D02*
Y-1461774D01*
X111978Y-1520194D02*
Y-1441454D01*
X218658Y-1520194D02*
Y-1441454D01*
X211038Y-1355094D02*
Y-1278894D01*
X104358Y-1355094D02*
Y-1278894D01*
X213578Y-1163324D02*
X355818D01*
X3810Y-1088394D02*
X355818D01*
X213578Y-1163324D02*
Y-1009654D01*
X104358Y-1087124D02*
Y-1008384D01*
X109388Y-814074D02*
Y-735334D01*
X3810Y-814074D02*
Y-762004D01*
X216068Y-891544D02*
Y-735334D01*
X3810Y-814074D02*
X354330D01*
X216068Y-891544D02*
X356362D01*
X106848Y-529594D02*
Y-450854D01*
X213528Y-609604D02*
Y-450854D01*
X5248Y-529594D02*
X355768D01*
X213528Y-609604D02*
X355768D01*
X213528Y-331474D02*
X355768D01*
X5248Y-252734D02*
X355768D01*
X213528Y-331474D02*
Y-173994D01*
X106848Y-252734D02*
Y-173994D01*
D40*
X162749Y-1852934D02*
X158750Y-1848935D01*
X162749Y-1844936D01*
X166747Y-1848935D02*
X172079D01*
X174745D02*
X180076D01*
X182742D02*
X188074D01*
X190740D02*
X196071D01*
X192851Y-1819914D02*
X196850Y-1823913D01*
X192851Y-1827911D01*
X188853Y-1823913D02*
X183521D01*
X180855D02*
X175524D01*
X172858D02*
X167526D01*
X164860D02*
X159529D01*
X313992Y-1844936D02*
X308660D01*
Y-1848935D01*
X311326Y-1847602D01*
X312659D01*
X313992Y-1848935D01*
Y-1851601D01*
X312659Y-1852934D01*
X309993D01*
X308660Y-1851601D01*
X316657Y-1844936D02*
Y-1850268D01*
X319323Y-1852934D01*
X321989Y-1850268D01*
Y-1844936D01*
X16762D02*
X11430D01*
Y-1848935D01*
X14096Y-1847602D01*
X15429D01*
X16762Y-1848935D01*
Y-1851601D01*
X15429Y-1852934D01*
X12763D01*
X11430Y-1851601D01*
X19427Y-1844936D02*
Y-1850268D01*
X22093Y-1852934D01*
X24759Y-1850268D01*
Y-1844936D01*
X308660Y-1815789D02*
X309993Y-1814456D01*
X312659D01*
X313992Y-1815789D01*
Y-1817122D01*
X312659Y-1818455D01*
X311326D01*
X312659D01*
X313992Y-1819788D01*
Y-1821121D01*
X312659Y-1822454D01*
X309993D01*
X308660Y-1821121D01*
X316657Y-1822454D02*
Y-1821121D01*
X317990D01*
Y-1822454D01*
X316657D01*
X323322Y-1815789D02*
X324655Y-1814456D01*
X327321D01*
X328653Y-1815789D01*
Y-1817122D01*
X327321Y-1818455D01*
X325988D01*
X327321D01*
X328653Y-1819788D01*
Y-1821121D01*
X327321Y-1822454D01*
X324655D01*
X323322Y-1821121D01*
X331319Y-1814456D02*
Y-1819788D01*
X333985Y-1822454D01*
X336651Y-1819788D01*
Y-1814456D01*
X8940Y-1815789D02*
X10273Y-1814456D01*
X12939D01*
X14272Y-1815789D01*
Y-1817122D01*
X12939Y-1818455D01*
X11606D01*
X12939D01*
X14272Y-1819788D01*
Y-1821121D01*
X12939Y-1822454D01*
X10273D01*
X8940Y-1821121D01*
X16937Y-1822454D02*
Y-1821121D01*
X18270D01*
Y-1822454D01*
X16937D01*
X23602Y-1815789D02*
X24935Y-1814456D01*
X27601D01*
X28933Y-1815789D01*
Y-1817122D01*
X27601Y-1818455D01*
X26268D01*
X27601D01*
X28933Y-1819788D01*
Y-1821121D01*
X27601Y-1822454D01*
X24935D01*
X23602Y-1821121D01*
X31599Y-1814456D02*
Y-1819788D01*
X34265Y-1822454D01*
X36931Y-1819788D01*
Y-1814456D01*
X131112Y-1799216D02*
Y-1807214D01*
X127113D01*
X125780Y-1805881D01*
Y-1803215D01*
X127113Y-1801882D01*
X131112D01*
X133777Y-1807214D02*
X136443D01*
X135110D01*
Y-1801882D01*
X133777D01*
X140442D02*
Y-1807214D01*
Y-1804548D01*
X141775Y-1803215D01*
X143108Y-1801882D01*
X144441D01*
X152438Y-1807214D02*
X149772D01*
X148439Y-1805881D01*
Y-1803215D01*
X149772Y-1801882D01*
X152438D01*
X153771Y-1803215D01*
Y-1804548D01*
X148439D01*
X161768Y-1801882D02*
X157770D01*
X156437Y-1803215D01*
Y-1805881D01*
X157770Y-1807214D01*
X161768D01*
X165767Y-1800549D02*
Y-1801882D01*
X164434D01*
X167100D01*
X165767D01*
Y-1805881D01*
X167100Y-1807214D01*
X171099D02*
X173764D01*
X172432D01*
Y-1801882D01*
X171099D01*
X179096Y-1807214D02*
X181762D01*
X183095Y-1805881D01*
Y-1803215D01*
X181762Y-1801882D01*
X179096D01*
X177763Y-1803215D01*
Y-1805881D01*
X179096Y-1807214D01*
X185761D02*
Y-1801882D01*
X189759D01*
X191092Y-1803215D01*
Y-1807214D01*
X217220Y-1794136D02*
Y-1802134D01*
X221219D01*
X222552Y-1800801D01*
Y-1799468D01*
X221219Y-1798135D01*
X217220D01*
X221219D01*
X222552Y-1796802D01*
Y-1795469D01*
X221219Y-1794136D01*
X217220D01*
X233215D02*
Y-1799468D01*
X235881Y-1802134D01*
X238546Y-1799468D01*
Y-1794136D01*
X242545Y-1802134D02*
X245211D01*
X246544Y-1800801D01*
Y-1798135D01*
X245211Y-1796802D01*
X242545D01*
X241212Y-1798135D01*
Y-1800801D01*
X242545Y-1802134D01*
X249210D02*
X251875D01*
X250543D01*
Y-1794136D01*
X249210D01*
X257207Y-1795469D02*
Y-1796802D01*
X255874D01*
X258540D01*
X257207D01*
Y-1800801D01*
X258540Y-1802134D01*
X263872Y-1796802D02*
X266537D01*
X267870Y-1798135D01*
Y-1802134D01*
X263872D01*
X262539Y-1800801D01*
X263872Y-1799468D01*
X267870D01*
X273202Y-1804800D02*
X274535D01*
X275868Y-1803467D01*
Y-1796802D01*
X271869D01*
X270536Y-1798135D01*
Y-1800801D01*
X271869Y-1802134D01*
X275868D01*
X282532D02*
X279867D01*
X278534Y-1800801D01*
Y-1798135D01*
X279867Y-1796802D01*
X282532D01*
X283865Y-1798135D01*
Y-1799468D01*
X278534D01*
X21640Y-1802134D02*
Y-1796802D01*
X24306Y-1794136D01*
X26972Y-1796802D01*
Y-1802134D01*
Y-1798135D01*
X21640D01*
X37635Y-1794136D02*
Y-1799468D01*
X40301Y-1802134D01*
X42966Y-1799468D01*
Y-1794136D01*
X46965Y-1802134D02*
X49631D01*
X50964Y-1800801D01*
Y-1798135D01*
X49631Y-1796802D01*
X46965D01*
X45632Y-1798135D01*
Y-1800801D01*
X46965Y-1802134D01*
X53630D02*
X56295D01*
X54963D01*
Y-1794136D01*
X53630D01*
X61627Y-1795469D02*
Y-1796802D01*
X60294D01*
X62960D01*
X61627D01*
Y-1800801D01*
X62960Y-1802134D01*
X68292Y-1796802D02*
X70957D01*
X72290Y-1798135D01*
Y-1802134D01*
X68292D01*
X66959Y-1800801D01*
X68292Y-1799468D01*
X72290D01*
X77622Y-1804800D02*
X78955D01*
X80288Y-1803467D01*
Y-1796802D01*
X76289D01*
X74956Y-1798135D01*
Y-1800801D01*
X76289Y-1802134D01*
X80288D01*
X86952D02*
X84286D01*
X82954Y-1800801D01*
Y-1798135D01*
X84286Y-1796802D01*
X86952D01*
X88285Y-1798135D01*
Y-1799468D01*
X82954D01*
X24180Y-1629414D02*
Y-1624082D01*
X26846Y-1621416D01*
X29512Y-1624082D01*
Y-1629414D01*
Y-1625415D01*
X24180D01*
X40175Y-1621416D02*
Y-1626748D01*
X42841Y-1629414D01*
X45506Y-1626748D01*
Y-1621416D01*
X49505Y-1629414D02*
X52171D01*
X53504Y-1628081D01*
Y-1625415D01*
X52171Y-1624082D01*
X49505D01*
X48172Y-1625415D01*
Y-1628081D01*
X49505Y-1629414D01*
X56170D02*
X58836D01*
X57503D01*
Y-1621416D01*
X56170D01*
X64167Y-1622749D02*
Y-1624082D01*
X62834D01*
X65500D01*
X64167D01*
Y-1628081D01*
X65500Y-1629414D01*
X70832Y-1624082D02*
X73497D01*
X74830Y-1625415D01*
Y-1629414D01*
X70832D01*
X69499Y-1628081D01*
X70832Y-1626748D01*
X74830D01*
X80162Y-1632080D02*
X81495D01*
X82828Y-1630747D01*
Y-1624082D01*
X78829D01*
X77496Y-1625415D01*
Y-1628081D01*
X78829Y-1629414D01*
X82828D01*
X89492D02*
X86826D01*
X85494Y-1628081D01*
Y-1625415D01*
X86826Y-1624082D01*
X89492D01*
X90825Y-1625415D01*
Y-1626748D01*
X85494D01*
X219760Y-1621416D02*
Y-1629414D01*
X223759D01*
X225092Y-1628081D01*
Y-1626748D01*
X223759Y-1625415D01*
X219760D01*
X223759D01*
X225092Y-1624082D01*
Y-1622749D01*
X223759Y-1621416D01*
X219760D01*
X235755D02*
Y-1626748D01*
X238421Y-1629414D01*
X241086Y-1626748D01*
Y-1621416D01*
X245085Y-1629414D02*
X247751D01*
X249084Y-1628081D01*
Y-1625415D01*
X247751Y-1624082D01*
X245085D01*
X243752Y-1625415D01*
Y-1628081D01*
X245085Y-1629414D01*
X251750D02*
X254415D01*
X253083D01*
Y-1621416D01*
X251750D01*
X259747Y-1622749D02*
Y-1624082D01*
X258414D01*
X261080D01*
X259747D01*
Y-1628081D01*
X261080Y-1629414D01*
X266412Y-1624082D02*
X269077D01*
X270410Y-1625415D01*
Y-1629414D01*
X266412D01*
X265079Y-1628081D01*
X266412Y-1626748D01*
X270410D01*
X275742Y-1632080D02*
X277075D01*
X278408Y-1630747D01*
Y-1624082D01*
X274409D01*
X273076Y-1625415D01*
Y-1628081D01*
X274409Y-1629414D01*
X278408D01*
X285072D02*
X282407D01*
X281074Y-1628081D01*
Y-1625415D01*
X282407Y-1624082D01*
X285072D01*
X286405Y-1625415D01*
Y-1626748D01*
X281074D01*
X133652Y-1626496D02*
Y-1634494D01*
X129653D01*
X128320Y-1633161D01*
Y-1630495D01*
X129653Y-1629162D01*
X133652D01*
X136317Y-1634494D02*
X138983D01*
X137650D01*
Y-1629162D01*
X136317D01*
X142982D02*
Y-1634494D01*
Y-1631828D01*
X144315Y-1630495D01*
X145648Y-1629162D01*
X146981D01*
X154978Y-1634494D02*
X152312D01*
X150979Y-1633161D01*
Y-1630495D01*
X152312Y-1629162D01*
X154978D01*
X156311Y-1630495D01*
Y-1631828D01*
X150979D01*
X164308Y-1629162D02*
X160310D01*
X158977Y-1630495D01*
Y-1633161D01*
X160310Y-1634494D01*
X164308D01*
X168307Y-1627829D02*
Y-1629162D01*
X166974D01*
X169640D01*
X168307D01*
Y-1633161D01*
X169640Y-1634494D01*
X173639D02*
X176304D01*
X174972D01*
Y-1629162D01*
X173639D01*
X181636Y-1634494D02*
X184302D01*
X185635Y-1633161D01*
Y-1630495D01*
X184302Y-1629162D01*
X181636D01*
X180303Y-1630495D01*
Y-1633161D01*
X181636Y-1634494D01*
X188301D02*
Y-1629162D01*
X192299D01*
X193632Y-1630495D01*
Y-1634494D01*
X11480Y-1643069D02*
X12813Y-1641736D01*
X15479D01*
X16812Y-1643069D01*
Y-1644402D01*
X15479Y-1645735D01*
X14146D01*
X15479D01*
X16812Y-1647068D01*
Y-1648401D01*
X15479Y-1649734D01*
X12813D01*
X11480Y-1648401D01*
X19477Y-1649734D02*
Y-1648401D01*
X20810D01*
Y-1649734D01*
X19477D01*
X26142Y-1643069D02*
X27475Y-1641736D01*
X30141D01*
X31474Y-1643069D01*
Y-1644402D01*
X30141Y-1645735D01*
X28808D01*
X30141D01*
X31474Y-1647068D01*
Y-1648401D01*
X30141Y-1649734D01*
X27475D01*
X26142Y-1648401D01*
X34139Y-1641736D02*
Y-1647068D01*
X36805Y-1649734D01*
X39471Y-1647068D01*
Y-1641736D01*
X311200Y-1643069D02*
X312533Y-1641736D01*
X315199D01*
X316532Y-1643069D01*
Y-1644402D01*
X315199Y-1645735D01*
X313866D01*
X315199D01*
X316532Y-1647068D01*
Y-1648401D01*
X315199Y-1649734D01*
X312533D01*
X311200Y-1648401D01*
X319197Y-1649734D02*
Y-1648401D01*
X320530D01*
Y-1649734D01*
X319197D01*
X325862Y-1643069D02*
X327195Y-1641736D01*
X329861D01*
X331194Y-1643069D01*
Y-1644402D01*
X329861Y-1645735D01*
X328528D01*
X329861D01*
X331194Y-1647068D01*
Y-1648401D01*
X329861Y-1649734D01*
X327195D01*
X325862Y-1648401D01*
X333859Y-1641736D02*
Y-1647068D01*
X336525Y-1649734D01*
X339191Y-1647068D01*
Y-1641736D01*
X19302Y-1672216D02*
X13970D01*
Y-1676215D01*
X16636Y-1674882D01*
X17969D01*
X19302Y-1676215D01*
Y-1678881D01*
X17969Y-1680214D01*
X15303D01*
X13970Y-1678881D01*
X21967Y-1672216D02*
Y-1677548D01*
X24633Y-1680214D01*
X27299Y-1677548D01*
Y-1672216D01*
X316532D02*
X311200D01*
Y-1676215D01*
X313866Y-1674882D01*
X315199D01*
X316532Y-1676215D01*
Y-1678881D01*
X315199Y-1680214D01*
X312533D01*
X311200Y-1678881D01*
X319197Y-1672216D02*
Y-1677548D01*
X321863Y-1680214D01*
X324529Y-1677548D01*
Y-1672216D01*
X195391Y-1647194D02*
X199390Y-1651192D01*
X195391Y-1655191D01*
X191393Y-1651192D02*
X186061D01*
X183395D02*
X178064D01*
X175398D02*
X170066D01*
X167400D02*
X162069D01*
X165289Y-1678944D02*
X161290Y-1674945D01*
X165289Y-1670946D01*
X169287Y-1674945D02*
X174619D01*
X177285D02*
X182616D01*
X185282D02*
X190614D01*
X193280D02*
X198611D01*
X172909Y-1510034D02*
X168910Y-1506035D01*
X172909Y-1502036D01*
X176907Y-1506035D02*
X182239D01*
X184905D02*
X190236D01*
X192902D02*
X198234D01*
X200900D02*
X206231D01*
X203011Y-1482094D02*
X207010Y-1486093D01*
X203011Y-1490091D01*
X199013Y-1486093D02*
X193681D01*
X191015D02*
X185684D01*
X183018D02*
X177686D01*
X175020D02*
X169689D01*
X324152Y-1502036D02*
X318820D01*
Y-1506035D01*
X321486Y-1504702D01*
X322819D01*
X324152Y-1506035D01*
Y-1508701D01*
X322819Y-1510034D01*
X320153D01*
X318820Y-1508701D01*
X326817Y-1502036D02*
Y-1507368D01*
X329483Y-1510034D01*
X332149Y-1507368D01*
Y-1502036D01*
X26922Y-1504576D02*
X21590D01*
Y-1508575D01*
X24256Y-1507242D01*
X25589D01*
X26922Y-1508575D01*
Y-1511241D01*
X25589Y-1512574D01*
X22923D01*
X21590Y-1511241D01*
X29587Y-1504576D02*
Y-1509908D01*
X32253Y-1512574D01*
X34919Y-1509908D01*
Y-1504576D01*
X318820Y-1472889D02*
X320153Y-1471556D01*
X322819D01*
X324152Y-1472889D01*
Y-1474222D01*
X322819Y-1475555D01*
X321486D01*
X322819D01*
X324152Y-1476888D01*
Y-1478221D01*
X322819Y-1479554D01*
X320153D01*
X318820Y-1478221D01*
X326817Y-1479554D02*
Y-1478221D01*
X328150D01*
Y-1479554D01*
X326817D01*
X333482Y-1472889D02*
X334815Y-1471556D01*
X337481D01*
X338814Y-1472889D01*
Y-1474222D01*
X337481Y-1475555D01*
X336148D01*
X337481D01*
X338814Y-1476888D01*
Y-1478221D01*
X337481Y-1479554D01*
X334815D01*
X333482Y-1478221D01*
X341479Y-1471556D02*
Y-1476888D01*
X344145Y-1479554D01*
X346811Y-1476888D01*
Y-1471556D01*
X19100Y-1472889D02*
X20433Y-1471556D01*
X23099D01*
X24432Y-1472889D01*
Y-1474222D01*
X23099Y-1475555D01*
X21766D01*
X23099D01*
X24432Y-1476888D01*
Y-1478221D01*
X23099Y-1479554D01*
X20433D01*
X19100Y-1478221D01*
X27097Y-1479554D02*
Y-1478221D01*
X28430D01*
Y-1479554D01*
X27097D01*
X33762Y-1472889D02*
X35095Y-1471556D01*
X37761D01*
X39093Y-1472889D01*
Y-1474222D01*
X37761Y-1475555D01*
X36428D01*
X37761D01*
X39093Y-1476888D01*
Y-1478221D01*
X37761Y-1479554D01*
X35095D01*
X33762Y-1478221D01*
X41759Y-1471556D02*
Y-1476888D01*
X44425Y-1479554D01*
X47091Y-1476888D01*
Y-1471556D01*
X141272Y-1456316D02*
Y-1464314D01*
X137273D01*
X135940Y-1462981D01*
Y-1460315D01*
X137273Y-1458982D01*
X141272D01*
X143937Y-1464314D02*
X146603D01*
X145270D01*
Y-1458982D01*
X143937D01*
X150602D02*
Y-1464314D01*
Y-1461648D01*
X151935Y-1460315D01*
X153268Y-1458982D01*
X154601D01*
X162598Y-1464314D02*
X159932D01*
X158599Y-1462981D01*
Y-1460315D01*
X159932Y-1458982D01*
X162598D01*
X163931Y-1460315D01*
Y-1461648D01*
X158599D01*
X171928Y-1458982D02*
X167930D01*
X166597Y-1460315D01*
Y-1462981D01*
X167930Y-1464314D01*
X171928D01*
X175927Y-1457649D02*
Y-1458982D01*
X174594D01*
X177260D01*
X175927D01*
Y-1462981D01*
X177260Y-1464314D01*
X181259D02*
X183925D01*
X182592D01*
Y-1458982D01*
X181259D01*
X189256Y-1464314D02*
X191922D01*
X193255Y-1462981D01*
Y-1460315D01*
X191922Y-1458982D01*
X189256D01*
X187923Y-1460315D01*
Y-1462981D01*
X189256Y-1464314D01*
X195921D02*
Y-1458982D01*
X199919D01*
X201252Y-1460315D01*
Y-1464314D01*
X227380Y-1451236D02*
Y-1459234D01*
X231379D01*
X232712Y-1457901D01*
Y-1456568D01*
X231379Y-1455235D01*
X227380D01*
X231379D01*
X232712Y-1453902D01*
Y-1452569D01*
X231379Y-1451236D01*
X227380D01*
X243375D02*
Y-1456568D01*
X246041Y-1459234D01*
X248706Y-1456568D01*
Y-1451236D01*
X252705Y-1459234D02*
X255371D01*
X256704Y-1457901D01*
Y-1455235D01*
X255371Y-1453902D01*
X252705D01*
X251372Y-1455235D01*
Y-1457901D01*
X252705Y-1459234D01*
X259370D02*
X262036D01*
X260703D01*
Y-1451236D01*
X259370D01*
X267367Y-1452569D02*
Y-1453902D01*
X266034D01*
X268700D01*
X267367D01*
Y-1457901D01*
X268700Y-1459234D01*
X274032Y-1453902D02*
X276697D01*
X278030Y-1455235D01*
Y-1459234D01*
X274032D01*
X272699Y-1457901D01*
X274032Y-1456568D01*
X278030D01*
X283362Y-1461900D02*
X284695D01*
X286028Y-1460567D01*
Y-1453902D01*
X282029D01*
X280696Y-1455235D01*
Y-1457901D01*
X282029Y-1459234D01*
X286028D01*
X292692D02*
X290026D01*
X288694Y-1457901D01*
Y-1455235D01*
X290026Y-1453902D01*
X292692D01*
X294025Y-1455235D01*
Y-1456568D01*
X288694D01*
X31800Y-1459234D02*
Y-1453902D01*
X34466Y-1451236D01*
X37132Y-1453902D01*
Y-1459234D01*
Y-1455235D01*
X31800D01*
X47795Y-1451236D02*
Y-1456568D01*
X50461Y-1459234D01*
X53126Y-1456568D01*
Y-1451236D01*
X57125Y-1459234D02*
X59791D01*
X61124Y-1457901D01*
Y-1455235D01*
X59791Y-1453902D01*
X57125D01*
X55792Y-1455235D01*
Y-1457901D01*
X57125Y-1459234D01*
X63790D02*
X66455D01*
X65123D01*
Y-1451236D01*
X63790D01*
X71787Y-1452569D02*
Y-1453902D01*
X70454D01*
X73120D01*
X71787D01*
Y-1457901D01*
X73120Y-1459234D01*
X78452Y-1453902D02*
X81117D01*
X82450Y-1455235D01*
Y-1459234D01*
X78452D01*
X77119Y-1457901D01*
X78452Y-1456568D01*
X82450D01*
X87782Y-1461900D02*
X89115D01*
X90448Y-1460567D01*
Y-1453902D01*
X86449D01*
X85116Y-1455235D01*
Y-1457901D01*
X86449Y-1459234D01*
X90448D01*
X97112D02*
X94446D01*
X93114Y-1457901D01*
Y-1455235D01*
X94446Y-1453902D01*
X97112D01*
X98445Y-1455235D01*
Y-1456568D01*
X93114D01*
X24180Y-1294134D02*
Y-1288802D01*
X26846Y-1286136D01*
X29512Y-1288802D01*
Y-1294134D01*
Y-1290135D01*
X24180D01*
X40175Y-1286136D02*
Y-1291468D01*
X42841Y-1294134D01*
X45506Y-1291468D01*
Y-1286136D01*
X49505Y-1294134D02*
X52171D01*
X53504Y-1292801D01*
Y-1290135D01*
X52171Y-1288802D01*
X49505D01*
X48172Y-1290135D01*
Y-1292801D01*
X49505Y-1294134D01*
X56170D02*
X58836D01*
X57503D01*
Y-1286136D01*
X56170D01*
X64167Y-1287469D02*
Y-1288802D01*
X62834D01*
X65500D01*
X64167D01*
Y-1292801D01*
X65500Y-1294134D01*
X70832Y-1288802D02*
X73497D01*
X74830Y-1290135D01*
Y-1294134D01*
X70832D01*
X69499Y-1292801D01*
X70832Y-1291468D01*
X74830D01*
X80162Y-1296800D02*
X81495D01*
X82828Y-1295467D01*
Y-1288802D01*
X78829D01*
X77496Y-1290135D01*
Y-1292801D01*
X78829Y-1294134D01*
X82828D01*
X89492D02*
X86826D01*
X85494Y-1292801D01*
Y-1290135D01*
X86826Y-1288802D01*
X89492D01*
X90825Y-1290135D01*
Y-1291468D01*
X85494D01*
X219760Y-1286136D02*
Y-1294134D01*
X223759D01*
X225092Y-1292801D01*
Y-1291468D01*
X223759Y-1290135D01*
X219760D01*
X223759D01*
X225092Y-1288802D01*
Y-1287469D01*
X223759Y-1286136D01*
X219760D01*
X235755D02*
Y-1291468D01*
X238421Y-1294134D01*
X241086Y-1291468D01*
Y-1286136D01*
X245085Y-1294134D02*
X247751D01*
X249084Y-1292801D01*
Y-1290135D01*
X247751Y-1288802D01*
X245085D01*
X243752Y-1290135D01*
Y-1292801D01*
X245085Y-1294134D01*
X251750D02*
X254415D01*
X253083D01*
Y-1286136D01*
X251750D01*
X259747Y-1287469D02*
Y-1288802D01*
X258414D01*
X261080D01*
X259747D01*
Y-1292801D01*
X261080Y-1294134D01*
X266412Y-1288802D02*
X269077D01*
X270410Y-1290135D01*
Y-1294134D01*
X266412D01*
X265079Y-1292801D01*
X266412Y-1291468D01*
X270410D01*
X275742Y-1296800D02*
X277075D01*
X278408Y-1295467D01*
Y-1288802D01*
X274409D01*
X273076Y-1290135D01*
Y-1292801D01*
X274409Y-1294134D01*
X278408D01*
X285072D02*
X282407D01*
X281074Y-1292801D01*
Y-1290135D01*
X282407Y-1288802D01*
X285072D01*
X286405Y-1290135D01*
Y-1291468D01*
X281074D01*
X133652Y-1291216D02*
Y-1299214D01*
X129653D01*
X128320Y-1297881D01*
Y-1295215D01*
X129653Y-1293882D01*
X133652D01*
X136317Y-1299214D02*
X138983D01*
X137650D01*
Y-1293882D01*
X136317D01*
X142982D02*
Y-1299214D01*
Y-1296548D01*
X144315Y-1295215D01*
X145648Y-1293882D01*
X146981D01*
X154978Y-1299214D02*
X152312D01*
X150979Y-1297881D01*
Y-1295215D01*
X152312Y-1293882D01*
X154978D01*
X156311Y-1295215D01*
Y-1296548D01*
X150979D01*
X164308Y-1293882D02*
X160310D01*
X158977Y-1295215D01*
Y-1297881D01*
X160310Y-1299214D01*
X164308D01*
X168307Y-1292549D02*
Y-1293882D01*
X166974D01*
X169640D01*
X168307D01*
Y-1297881D01*
X169640Y-1299214D01*
X173639D02*
X176304D01*
X174972D01*
Y-1293882D01*
X173639D01*
X181636Y-1299214D02*
X184302D01*
X185635Y-1297881D01*
Y-1295215D01*
X184302Y-1293882D01*
X181636D01*
X180303Y-1295215D01*
Y-1297881D01*
X181636Y-1299214D01*
X188301D02*
Y-1293882D01*
X192299D01*
X193632Y-1295215D01*
Y-1299214D01*
X11480Y-1307789D02*
X12813Y-1306456D01*
X15479D01*
X16812Y-1307789D01*
Y-1309122D01*
X15479Y-1310455D01*
X14146D01*
X15479D01*
X16812Y-1311788D01*
Y-1313121D01*
X15479Y-1314454D01*
X12813D01*
X11480Y-1313121D01*
X19477Y-1314454D02*
Y-1313121D01*
X20810D01*
Y-1314454D01*
X19477D01*
X26142Y-1307789D02*
X27475Y-1306456D01*
X30141D01*
X31474Y-1307789D01*
Y-1309122D01*
X30141Y-1310455D01*
X28808D01*
X30141D01*
X31474Y-1311788D01*
Y-1313121D01*
X30141Y-1314454D01*
X27475D01*
X26142Y-1313121D01*
X34139Y-1306456D02*
Y-1311788D01*
X36805Y-1314454D01*
X39471Y-1311788D01*
Y-1306456D01*
X311200Y-1307789D02*
X312533Y-1306456D01*
X315199D01*
X316532Y-1307789D01*
Y-1309122D01*
X315199Y-1310455D01*
X313866D01*
X315199D01*
X316532Y-1311788D01*
Y-1313121D01*
X315199Y-1314454D01*
X312533D01*
X311200Y-1313121D01*
X319197Y-1314454D02*
Y-1313121D01*
X320530D01*
Y-1314454D01*
X319197D01*
X325862Y-1307789D02*
X327195Y-1306456D01*
X329861D01*
X331194Y-1307789D01*
Y-1309122D01*
X329861Y-1310455D01*
X328528D01*
X329861D01*
X331194Y-1311788D01*
Y-1313121D01*
X329861Y-1314454D01*
X327195D01*
X325862Y-1313121D01*
X333859Y-1306456D02*
Y-1311788D01*
X336525Y-1314454D01*
X339191Y-1311788D01*
Y-1306456D01*
X19302Y-1339476D02*
X13970D01*
Y-1343475D01*
X16636Y-1342142D01*
X17969D01*
X19302Y-1343475D01*
Y-1346141D01*
X17969Y-1347474D01*
X15303D01*
X13970Y-1346141D01*
X21967Y-1339476D02*
Y-1344808D01*
X24633Y-1347474D01*
X27299Y-1344808D01*
Y-1339476D01*
X316532Y-1336936D02*
X311200D01*
Y-1340935D01*
X313866Y-1339602D01*
X315199D01*
X316532Y-1340935D01*
Y-1343601D01*
X315199Y-1344934D01*
X312533D01*
X311200Y-1343601D01*
X319197Y-1336936D02*
Y-1342268D01*
X321863Y-1344934D01*
X324529Y-1342268D01*
Y-1336936D01*
X195391Y-1311914D02*
X199390Y-1315912D01*
X195391Y-1319911D01*
X191393Y-1315912D02*
X186061D01*
X183395D02*
X178064D01*
X175398D02*
X170066D01*
X167400D02*
X162069D01*
X165289Y-1342394D02*
X161290Y-1338395D01*
X165289Y-1334396D01*
X169287Y-1338395D02*
X174619D01*
X177285D02*
X182616D01*
X185282D02*
X190614D01*
X193280D02*
X198611D01*
X167829Y-1078234D02*
X163830Y-1074235D01*
X167829Y-1070236D01*
X171827Y-1074235D02*
X177159D01*
X179825D02*
X185156D01*
X187822D02*
X193154D01*
X195820D02*
X201151D01*
X197931Y-1045214D02*
X201930Y-1049212D01*
X197931Y-1053211D01*
X193933Y-1049212D02*
X188601D01*
X185935D02*
X180604D01*
X177938D02*
X172606D01*
X169940D02*
X164609D01*
X319072Y-1070236D02*
X313740D01*
Y-1074235D01*
X316406Y-1072902D01*
X317739D01*
X319072Y-1074235D01*
Y-1076901D01*
X317739Y-1078234D01*
X315073D01*
X313740Y-1076901D01*
X321737Y-1070236D02*
Y-1075568D01*
X324403Y-1078234D01*
X327069Y-1075568D01*
Y-1070236D01*
X24382D02*
X19050D01*
Y-1074235D01*
X21716Y-1072902D01*
X23049D01*
X24382Y-1074235D01*
Y-1076901D01*
X23049Y-1078234D01*
X20383D01*
X19050Y-1076901D01*
X27047Y-1070236D02*
Y-1075568D01*
X29713Y-1078234D01*
X32379Y-1075568D01*
Y-1070236D01*
X306070Y-1041089D02*
X307403Y-1039756D01*
X310069D01*
X311402Y-1041089D01*
Y-1042422D01*
X310069Y-1043755D01*
X308736D01*
X310069D01*
X311402Y-1045088D01*
Y-1046421D01*
X310069Y-1047754D01*
X307403D01*
X306070Y-1046421D01*
X314067Y-1047754D02*
Y-1046421D01*
X315400D01*
Y-1047754D01*
X314067D01*
X320732Y-1041089D02*
X322065Y-1039756D01*
X324731D01*
X326064Y-1041089D01*
Y-1042422D01*
X324731Y-1043755D01*
X323398D01*
X324731D01*
X326064Y-1045088D01*
Y-1046421D01*
X324731Y-1047754D01*
X322065D01*
X320732Y-1046421D01*
X328729Y-1039756D02*
Y-1045088D01*
X331395Y-1047754D01*
X334061Y-1045088D01*
Y-1039756D01*
X14020Y-1041089D02*
X15353Y-1039756D01*
X18019D01*
X19352Y-1041089D01*
Y-1042422D01*
X18019Y-1043755D01*
X16686D01*
X18019D01*
X19352Y-1045088D01*
Y-1046421D01*
X18019Y-1047754D01*
X15353D01*
X14020Y-1046421D01*
X22017Y-1047754D02*
Y-1046421D01*
X23350D01*
Y-1047754D01*
X22017D01*
X28682Y-1041089D02*
X30015Y-1039756D01*
X32681D01*
X34014Y-1041089D01*
Y-1042422D01*
X32681Y-1043755D01*
X31348D01*
X32681D01*
X34014Y-1045088D01*
Y-1046421D01*
X32681Y-1047754D01*
X30015D01*
X28682Y-1046421D01*
X36679Y-1039756D02*
Y-1045088D01*
X39345Y-1047754D01*
X42011Y-1045088D01*
Y-1039756D01*
X318518Y-1156654D02*
X322517D01*
X323850Y-1155321D01*
Y-1151322D01*
X325183D01*
X326516Y-1152655D01*
Y-1153988D01*
X323850Y-1151322D02*
X318518D01*
X323850Y-1144658D02*
Y-1147324D01*
X322517Y-1148656D01*
X319851D01*
X318518Y-1147324D01*
Y-1144658D01*
X319851Y-1143325D01*
X321184D01*
Y-1148656D01*
X323850Y-1140659D02*
Y-1136660D01*
X322517Y-1135327D01*
X321184Y-1136660D01*
Y-1139326D01*
X319851Y-1140659D01*
X318518Y-1139326D01*
Y-1135327D01*
X273100Y-1131574D02*
Y-1126242D01*
X277099D01*
X278432Y-1127575D01*
Y-1131574D01*
X282430D02*
X285096D01*
X286429Y-1130241D01*
Y-1127575D01*
X285096Y-1126242D01*
X282430D01*
X281097Y-1127575D01*
Y-1130241D01*
X282430Y-1131574D01*
X242318Y-1156974D02*
X246317D01*
X247650Y-1155641D01*
Y-1151642D01*
X248983D01*
X250316Y-1152975D01*
Y-1154308D01*
X247650Y-1151642D02*
X242318D01*
X247650Y-1144978D02*
Y-1147644D01*
X246317Y-1148976D01*
X243651D01*
X242318Y-1147644D01*
Y-1144978D01*
X243651Y-1143645D01*
X244984D01*
Y-1148976D01*
X247650Y-1140979D02*
Y-1136980D01*
X246317Y-1135647D01*
X244984Y-1136980D01*
Y-1139646D01*
X243651Y-1140979D01*
X242318Y-1139646D01*
Y-1135647D01*
X226173Y-1098302D02*
X228839D01*
X230172Y-1099635D01*
Y-1103634D01*
X226173D01*
X224840Y-1102301D01*
X226173Y-1100968D01*
X230172D01*
X232837Y-1103634D02*
Y-1098302D01*
X236836D01*
X238169Y-1099635D01*
Y-1103634D01*
X242168Y-1098302D02*
X244834D01*
X246166Y-1099635D01*
Y-1103634D01*
X242168D01*
X240835Y-1102301D01*
X242168Y-1100968D01*
X246166D01*
X248832Y-1103634D02*
X251498D01*
X250165D01*
Y-1095636D01*
X248832D01*
X256830Y-1103634D02*
X259496D01*
X260828Y-1102301D01*
Y-1099635D01*
X259496Y-1098302D01*
X256830D01*
X255497Y-1099635D01*
Y-1102301D01*
X256830Y-1103634D01*
X266160Y-1106300D02*
X267493D01*
X268826Y-1104967D01*
Y-1098302D01*
X264827D01*
X263494Y-1099635D01*
Y-1102301D01*
X264827Y-1103634D01*
X268826D01*
X271492Y-1098302D02*
Y-1102301D01*
X272824Y-1103634D01*
X276823D01*
Y-1098302D01*
X283488Y-1103634D02*
X280822D01*
X279489Y-1102301D01*
Y-1099635D01*
X280822Y-1098302D01*
X283488D01*
X284821Y-1099635D01*
Y-1100968D01*
X279489D01*
X300816Y-1095636D02*
Y-1103634D01*
X296817D01*
X295484Y-1102301D01*
Y-1099635D01*
X296817Y-1098302D01*
X300816D01*
X307480Y-1103634D02*
X304814D01*
X303481Y-1102301D01*
Y-1099635D01*
X304814Y-1098302D01*
X307480D01*
X308813Y-1099635D01*
Y-1100968D01*
X303481D01*
X312812Y-1096969D02*
Y-1098302D01*
X311479D01*
X314144D01*
X312812D01*
Y-1102301D01*
X314144Y-1103634D01*
X319476D02*
X322142D01*
X323475Y-1102301D01*
Y-1099635D01*
X322142Y-1098302D01*
X319476D01*
X318143Y-1099635D01*
Y-1102301D01*
X319476Y-1103634D01*
X326141Y-1098302D02*
Y-1102301D01*
X327474Y-1103634D01*
X331472D01*
Y-1098302D01*
X334138D02*
Y-1103634D01*
Y-1100968D01*
X335471Y-1099635D01*
X336804Y-1098302D01*
X338137D01*
X342136Y-1096969D02*
X343468Y-1095636D01*
X346134D01*
X347467Y-1096969D01*
Y-1098302D01*
X344801Y-1100968D01*
Y-1102301D02*
Y-1103634D01*
X136192Y-1024516D02*
Y-1032514D01*
X132193D01*
X130860Y-1031181D01*
Y-1028515D01*
X132193Y-1027182D01*
X136192D01*
X138857Y-1032514D02*
X141523D01*
X140190D01*
Y-1027182D01*
X138857D01*
X145522D02*
Y-1032514D01*
Y-1029848D01*
X146855Y-1028515D01*
X148188Y-1027182D01*
X149521D01*
X157518Y-1032514D02*
X154852D01*
X153519Y-1031181D01*
Y-1028515D01*
X154852Y-1027182D01*
X157518D01*
X158851Y-1028515D01*
Y-1029848D01*
X153519D01*
X166848Y-1027182D02*
X162850D01*
X161517Y-1028515D01*
Y-1031181D01*
X162850Y-1032514D01*
X166848D01*
X170847Y-1025849D02*
Y-1027182D01*
X169514D01*
X172180D01*
X170847D01*
Y-1031181D01*
X172180Y-1032514D01*
X176179D02*
X178845D01*
X177512D01*
Y-1027182D01*
X176179D01*
X184176Y-1032514D02*
X186842D01*
X188175Y-1031181D01*
Y-1028515D01*
X186842Y-1027182D01*
X184176D01*
X182843Y-1028515D01*
Y-1031181D01*
X184176Y-1032514D01*
X190841D02*
Y-1027182D01*
X194839D01*
X196172Y-1028515D01*
Y-1032514D01*
X222300Y-1019436D02*
Y-1027434D01*
X226299D01*
X227632Y-1026101D01*
Y-1024768D01*
X226299Y-1023435D01*
X222300D01*
X226299D01*
X227632Y-1022102D01*
Y-1020769D01*
X226299Y-1019436D01*
X222300D01*
X238295D02*
Y-1024768D01*
X240961Y-1027434D01*
X243626Y-1024768D01*
Y-1019436D01*
X247625Y-1027434D02*
X250291D01*
X251624Y-1026101D01*
Y-1023435D01*
X250291Y-1022102D01*
X247625D01*
X246292Y-1023435D01*
Y-1026101D01*
X247625Y-1027434D01*
X254290D02*
X256956D01*
X255623D01*
Y-1019436D01*
X254290D01*
X262287Y-1020769D02*
Y-1022102D01*
X260954D01*
X263620D01*
X262287D01*
Y-1026101D01*
X263620Y-1027434D01*
X268952Y-1022102D02*
X271617D01*
X272950Y-1023435D01*
Y-1027434D01*
X268952D01*
X267619Y-1026101D01*
X268952Y-1024768D01*
X272950D01*
X278282Y-1030100D02*
X279615D01*
X280948Y-1028767D01*
Y-1022102D01*
X276949D01*
X275616Y-1023435D01*
Y-1026101D01*
X276949Y-1027434D01*
X280948D01*
X287612D02*
X284946D01*
X283614Y-1026101D01*
Y-1023435D01*
X284946Y-1022102D01*
X287612D01*
X288945Y-1023435D01*
Y-1024768D01*
X283614D01*
X26720Y-1027434D02*
Y-1022102D01*
X29386Y-1019436D01*
X32052Y-1022102D01*
Y-1027434D01*
Y-1023435D01*
X26720D01*
X42715Y-1019436D02*
Y-1024768D01*
X45381Y-1027434D01*
X48046Y-1024768D01*
Y-1019436D01*
X52045Y-1027434D02*
X54711D01*
X56044Y-1026101D01*
Y-1023435D01*
X54711Y-1022102D01*
X52045D01*
X50712Y-1023435D01*
Y-1026101D01*
X52045Y-1027434D01*
X58710D02*
X61375D01*
X60043D01*
Y-1019436D01*
X58710D01*
X66707Y-1020769D02*
Y-1022102D01*
X65374D01*
X68040D01*
X66707D01*
Y-1026101D01*
X68040Y-1027434D01*
X73372Y-1022102D02*
X76037D01*
X77370Y-1023435D01*
Y-1027434D01*
X73372D01*
X72039Y-1026101D01*
X73372Y-1024768D01*
X77370D01*
X82702Y-1030100D02*
X84035D01*
X85368Y-1028767D01*
Y-1022102D01*
X81369D01*
X80036Y-1023435D01*
Y-1026101D01*
X81369Y-1027434D01*
X85368D01*
X92032D02*
X89367D01*
X88034Y-1026101D01*
Y-1023435D01*
X89367Y-1022102D01*
X92032D01*
X93365Y-1023435D01*
Y-1024768D01*
X88034D01*
X29210Y-753114D02*
Y-747782D01*
X31876Y-745116D01*
X34542Y-747782D01*
Y-753114D01*
Y-749115D01*
X29210D01*
X45205Y-745116D02*
Y-750448D01*
X47871Y-753114D01*
X50536Y-750448D01*
Y-745116D01*
X54535Y-753114D02*
X57201D01*
X58534Y-751781D01*
Y-749115D01*
X57201Y-747782D01*
X54535D01*
X53202Y-749115D01*
Y-751781D01*
X54535Y-753114D01*
X61200D02*
X63865D01*
X62533D01*
Y-745116D01*
X61200D01*
X69197Y-746449D02*
Y-747782D01*
X67864D01*
X70530D01*
X69197D01*
Y-751781D01*
X70530Y-753114D01*
X75862Y-747782D02*
X78527D01*
X79860Y-749115D01*
Y-753114D01*
X75862D01*
X74529Y-751781D01*
X75862Y-750448D01*
X79860D01*
X85192Y-755780D02*
X86525D01*
X87858Y-754447D01*
Y-747782D01*
X83859D01*
X82526Y-749115D01*
Y-751781D01*
X83859Y-753114D01*
X87858D01*
X94522D02*
X91856D01*
X90524Y-751781D01*
Y-749115D01*
X91856Y-747782D01*
X94522D01*
X95855Y-749115D01*
Y-750448D01*
X90524D01*
X224790Y-745116D02*
Y-753114D01*
X228789D01*
X230122Y-751781D01*
Y-750448D01*
X228789Y-749115D01*
X224790D01*
X228789D01*
X230122Y-747782D01*
Y-746449D01*
X228789Y-745116D01*
X224790D01*
X240785D02*
Y-750448D01*
X243451Y-753114D01*
X246116Y-750448D01*
Y-745116D01*
X250115Y-753114D02*
X252781D01*
X254114Y-751781D01*
Y-749115D01*
X252781Y-747782D01*
X250115D01*
X248782Y-749115D01*
Y-751781D01*
X250115Y-753114D01*
X256780D02*
X259445D01*
X258113D01*
Y-745116D01*
X256780D01*
X264777Y-746449D02*
Y-747782D01*
X263444D01*
X266110D01*
X264777D01*
Y-751781D01*
X266110Y-753114D01*
X271442Y-747782D02*
X274107D01*
X275440Y-749115D01*
Y-753114D01*
X271442D01*
X270109Y-751781D01*
X271442Y-750448D01*
X275440D01*
X280772Y-755780D02*
X282105D01*
X283438Y-754447D01*
Y-747782D01*
X279439D01*
X278106Y-749115D01*
Y-751781D01*
X279439Y-753114D01*
X283438D01*
X290102D02*
X287437D01*
X286104Y-751781D01*
Y-749115D01*
X287437Y-747782D01*
X290102D01*
X291435Y-749115D01*
Y-750448D01*
X286104D01*
X138682Y-750196D02*
Y-758194D01*
X134683D01*
X133350Y-756861D01*
Y-754195D01*
X134683Y-752862D01*
X138682D01*
X141347Y-758194D02*
X144013D01*
X142680D01*
Y-752862D01*
X141347D01*
X148012D02*
Y-758194D01*
Y-755528D01*
X149345Y-754195D01*
X150678Y-752862D01*
X152011D01*
X160008Y-758194D02*
X157342D01*
X156009Y-756861D01*
Y-754195D01*
X157342Y-752862D01*
X160008D01*
X161341Y-754195D01*
Y-755528D01*
X156009D01*
X169338Y-752862D02*
X165340D01*
X164007Y-754195D01*
Y-756861D01*
X165340Y-758194D01*
X169338D01*
X173337Y-751529D02*
Y-752862D01*
X172004D01*
X174670D01*
X173337D01*
Y-756861D01*
X174670Y-758194D01*
X178669D02*
X181334D01*
X180002D01*
Y-752862D01*
X178669D01*
X186666Y-758194D02*
X189332D01*
X190665Y-756861D01*
Y-754195D01*
X189332Y-752862D01*
X186666D01*
X185333Y-754195D01*
Y-756861D01*
X186666Y-758194D01*
X193331D02*
Y-752862D01*
X197329D01*
X198662Y-754195D01*
Y-758194D01*
X228663Y-823982D02*
X231329D01*
X232662Y-825315D01*
Y-829314D01*
X228663D01*
X227330Y-827981D01*
X228663Y-826648D01*
X232662D01*
X235327Y-829314D02*
Y-823982D01*
X239326D01*
X240659Y-825315D01*
Y-829314D01*
X244658Y-823982D02*
X247324D01*
X248656Y-825315D01*
Y-829314D01*
X244658D01*
X243325Y-827981D01*
X244658Y-826648D01*
X248656D01*
X251322Y-829314D02*
X253988D01*
X252655D01*
Y-821316D01*
X251322D01*
X259320Y-829314D02*
X261985D01*
X263318Y-827981D01*
Y-825315D01*
X261985Y-823982D01*
X259320D01*
X257987Y-825315D01*
Y-827981D01*
X259320Y-829314D01*
X268650Y-831980D02*
X269983D01*
X271316Y-830647D01*
Y-823982D01*
X267317D01*
X265984Y-825315D01*
Y-827981D01*
X267317Y-829314D01*
X271316D01*
X273982Y-823982D02*
Y-827981D01*
X275315Y-829314D01*
X279313D01*
Y-823982D01*
X285978Y-829314D02*
X283312D01*
X281979Y-827981D01*
Y-825315D01*
X283312Y-823982D01*
X285978D01*
X287311Y-825315D01*
Y-826648D01*
X281979D01*
X303305Y-821316D02*
Y-829314D01*
X299307D01*
X297974Y-827981D01*
Y-825315D01*
X299307Y-823982D01*
X303305D01*
X309970Y-829314D02*
X307304D01*
X305971Y-827981D01*
Y-825315D01*
X307304Y-823982D01*
X309970D01*
X311303Y-825315D01*
Y-826648D01*
X305971D01*
X315302Y-822649D02*
Y-823982D01*
X313969D01*
X316635D01*
X315302D01*
Y-827981D01*
X316635Y-829314D01*
X321966D02*
X324632D01*
X325965Y-827981D01*
Y-825315D01*
X324632Y-823982D01*
X321966D01*
X320633Y-825315D01*
Y-827981D01*
X321966Y-829314D01*
X328631Y-823982D02*
Y-827981D01*
X329964Y-829314D01*
X333962D01*
Y-823982D01*
X336628D02*
Y-829314D01*
Y-826648D01*
X337961Y-825315D01*
X339294Y-823982D01*
X340627D01*
X344626Y-822649D02*
X345958Y-821316D01*
X348624D01*
X349957Y-822649D01*
Y-823982D01*
X347291Y-826648D01*
Y-827981D02*
Y-829314D01*
X247398Y-877574D02*
X251397D01*
X252730Y-876241D01*
Y-872242D01*
X254063D01*
X255396Y-873575D01*
Y-874908D01*
X252730Y-872242D02*
X247398D01*
X252730Y-865578D02*
Y-868243D01*
X251397Y-869576D01*
X248731D01*
X247398Y-868243D01*
Y-865578D01*
X248731Y-864245D01*
X250064D01*
Y-869576D01*
X252730Y-861579D02*
Y-857580D01*
X251397Y-856247D01*
X250064Y-857580D01*
Y-860246D01*
X248731Y-861579D01*
X247398Y-860246D01*
Y-856247D01*
X275590Y-857254D02*
Y-851922D01*
X279589D01*
X280922Y-853255D01*
Y-857254D01*
X284920D02*
X287586D01*
X288919Y-855921D01*
Y-853255D01*
X287586Y-851922D01*
X284920D01*
X283587Y-853255D01*
Y-855921D01*
X284920Y-857254D01*
X318518Y-877574D02*
X322517D01*
X323850Y-876241D01*
Y-872242D01*
X325183D01*
X326516Y-873575D01*
Y-874908D01*
X323850Y-872242D02*
X318518D01*
X323850Y-865578D02*
Y-868243D01*
X322517Y-869576D01*
X319851D01*
X318518Y-868243D01*
Y-865578D01*
X319851Y-864245D01*
X321184D01*
Y-869576D01*
X323850Y-861579D02*
Y-857580D01*
X322517Y-856247D01*
X321184Y-857580D01*
Y-860246D01*
X319851Y-861579D01*
X318518Y-860246D01*
Y-856247D01*
X16510Y-766769D02*
X17843Y-765436D01*
X20509D01*
X21842Y-766769D01*
Y-768102D01*
X20509Y-769435D01*
X19176D01*
X20509D01*
X21842Y-770768D01*
Y-772101D01*
X20509Y-773434D01*
X17843D01*
X16510Y-772101D01*
X24507Y-773434D02*
Y-772101D01*
X25840D01*
Y-773434D01*
X24507D01*
X31172Y-766769D02*
X32505Y-765436D01*
X35171D01*
X36504Y-766769D01*
Y-768102D01*
X35171Y-769435D01*
X33838D01*
X35171D01*
X36504Y-770768D01*
Y-772101D01*
X35171Y-773434D01*
X32505D01*
X31172Y-772101D01*
X39169Y-765436D02*
Y-770768D01*
X41835Y-773434D01*
X44501Y-770768D01*
Y-765436D01*
X316230Y-766769D02*
X317563Y-765436D01*
X320229D01*
X321562Y-766769D01*
Y-768102D01*
X320229Y-769435D01*
X318896D01*
X320229D01*
X321562Y-770768D01*
Y-772101D01*
X320229Y-773434D01*
X317563D01*
X316230Y-772101D01*
X324227Y-773434D02*
Y-772101D01*
X325560D01*
Y-773434D01*
X324227D01*
X330892Y-766769D02*
X332225Y-765436D01*
X334891D01*
X336224Y-766769D01*
Y-768102D01*
X334891Y-769435D01*
X333558D01*
X334891D01*
X336224Y-770768D01*
Y-772101D01*
X334891Y-773434D01*
X332225D01*
X330892Y-772101D01*
X338889Y-765436D02*
Y-770768D01*
X341555Y-773434D01*
X344221Y-770768D01*
Y-765436D01*
X21842Y-795916D02*
X16510D01*
Y-799915D01*
X19176Y-798582D01*
X20509D01*
X21842Y-799915D01*
Y-802581D01*
X20509Y-803914D01*
X17843D01*
X16510Y-802581D01*
X24507Y-795916D02*
Y-801248D01*
X27173Y-803914D01*
X29839Y-801248D01*
Y-795916D01*
X321562D02*
X316230D01*
Y-799915D01*
X318896Y-798582D01*
X320229D01*
X321562Y-799915D01*
Y-802581D01*
X320229Y-803914D01*
X317563D01*
X316230Y-802581D01*
X324227Y-795916D02*
Y-801248D01*
X326893Y-803914D01*
X329559Y-801248D01*
Y-795916D01*
X200471Y-775974D02*
X204470Y-779973D01*
X200471Y-783971D01*
X196473Y-779973D02*
X191141D01*
X188475D02*
X183144D01*
X180478D02*
X175146D01*
X172480D02*
X167149D01*
X170369Y-803914D02*
X166370Y-799915D01*
X170369Y-795916D01*
X174367Y-799915D02*
X179699D01*
X182365D02*
X187696D01*
X190362D02*
X195694D01*
X198360D02*
X203691D01*
X26670Y-468634D02*
Y-463302D01*
X29336Y-460636D01*
X32002Y-463302D01*
Y-468634D01*
Y-464635D01*
X26670D01*
X42665Y-460636D02*
Y-465968D01*
X45331Y-468634D01*
X47996Y-465968D01*
Y-460636D01*
X51995Y-468634D02*
X54661D01*
X55994Y-467301D01*
Y-464635D01*
X54661Y-463302D01*
X51995D01*
X50662Y-464635D01*
Y-467301D01*
X51995Y-468634D01*
X58660D02*
X61325D01*
X59993D01*
Y-460636D01*
X58660D01*
X66657Y-461969D02*
Y-463302D01*
X65324D01*
X67990D01*
X66657D01*
Y-467301D01*
X67990Y-468634D01*
X73322Y-463302D02*
X75988D01*
X77320Y-464635D01*
Y-468634D01*
X73322D01*
X71989Y-467301D01*
X73322Y-465968D01*
X77320D01*
X82652Y-471300D02*
X83985D01*
X85318Y-469967D01*
Y-463302D01*
X81319D01*
X79986Y-464635D01*
Y-467301D01*
X81319Y-468634D01*
X85318D01*
X91982D02*
X89317D01*
X87984Y-467301D01*
Y-464635D01*
X89317Y-463302D01*
X91982D01*
X93315Y-464635D01*
Y-465968D01*
X87984D01*
X222250Y-460636D02*
Y-468634D01*
X226249D01*
X227582Y-467301D01*
Y-465968D01*
X226249Y-464635D01*
X222250D01*
X226249D01*
X227582Y-463302D01*
Y-461969D01*
X226249Y-460636D01*
X222250D01*
X238245D02*
Y-465968D01*
X240911Y-468634D01*
X243576Y-465968D01*
Y-460636D01*
X247575Y-468634D02*
X250241D01*
X251574Y-467301D01*
Y-464635D01*
X250241Y-463302D01*
X247575D01*
X246242Y-464635D01*
Y-467301D01*
X247575Y-468634D01*
X254240D02*
X256905D01*
X255573D01*
Y-460636D01*
X254240D01*
X262237Y-461969D02*
Y-463302D01*
X260904D01*
X263570D01*
X262237D01*
Y-467301D01*
X263570Y-468634D01*
X268902Y-463302D02*
X271567D01*
X272900Y-464635D01*
Y-468634D01*
X268902D01*
X267569Y-467301D01*
X268902Y-465968D01*
X272900D01*
X278232Y-471300D02*
X279565D01*
X280898Y-469967D01*
Y-463302D01*
X276899D01*
X275566Y-464635D01*
Y-467301D01*
X276899Y-468634D01*
X280898D01*
X287562D02*
X284897D01*
X283564Y-467301D01*
Y-464635D01*
X284897Y-463302D01*
X287562D01*
X288895Y-464635D01*
Y-465968D01*
X283564D01*
X136142Y-465716D02*
Y-473714D01*
X132143D01*
X130810Y-472381D01*
Y-469715D01*
X132143Y-468382D01*
X136142D01*
X138807Y-473714D02*
X141473D01*
X140140D01*
Y-468382D01*
X138807D01*
X145472D02*
Y-473714D01*
Y-471048D01*
X146805Y-469715D01*
X148138Y-468382D01*
X149471D01*
X157468Y-473714D02*
X154802D01*
X153469Y-472381D01*
Y-469715D01*
X154802Y-468382D01*
X157468D01*
X158801Y-469715D01*
Y-471048D01*
X153469D01*
X166798Y-468382D02*
X162800D01*
X161467Y-469715D01*
Y-472381D01*
X162800Y-473714D01*
X166798D01*
X170797Y-467049D02*
Y-468382D01*
X169464D01*
X172130D01*
X170797D01*
Y-472381D01*
X172130Y-473714D01*
X176129D02*
X178794D01*
X177462D01*
Y-468382D01*
X176129D01*
X184126Y-473714D02*
X186792D01*
X188125Y-472381D01*
Y-469715D01*
X186792Y-468382D01*
X184126D01*
X182793Y-469715D01*
Y-472381D01*
X184126Y-473714D01*
X190791D02*
Y-468382D01*
X194789D01*
X196122Y-469715D01*
Y-473714D01*
X226123Y-539502D02*
X228789D01*
X230122Y-540835D01*
Y-544834D01*
X226123D01*
X224790Y-543501D01*
X226123Y-542168D01*
X230122D01*
X232787Y-544834D02*
Y-539502D01*
X236786D01*
X238119Y-540835D01*
Y-544834D01*
X242118Y-539502D02*
X244784D01*
X246116Y-540835D01*
Y-544834D01*
X242118D01*
X240785Y-543501D01*
X242118Y-542168D01*
X246116D01*
X248782Y-544834D02*
X251448D01*
X250115D01*
Y-536836D01*
X248782D01*
X256780Y-544834D02*
X259445D01*
X260778Y-543501D01*
Y-540835D01*
X259445Y-539502D01*
X256780D01*
X255447Y-540835D01*
Y-543501D01*
X256780Y-544834D01*
X266110Y-547500D02*
X267443D01*
X268776Y-546167D01*
Y-539502D01*
X264777D01*
X263444Y-540835D01*
Y-543501D01*
X264777Y-544834D01*
X268776D01*
X271442Y-539502D02*
Y-543501D01*
X272775Y-544834D01*
X276773D01*
Y-539502D01*
X283438Y-544834D02*
X280772D01*
X279439Y-543501D01*
Y-540835D01*
X280772Y-539502D01*
X283438D01*
X284771Y-540835D01*
Y-542168D01*
X279439D01*
X300765Y-536836D02*
Y-544834D01*
X296767D01*
X295434Y-543501D01*
Y-540835D01*
X296767Y-539502D01*
X300765D01*
X307430Y-544834D02*
X304764D01*
X303431Y-543501D01*
Y-540835D01*
X304764Y-539502D01*
X307430D01*
X308763Y-540835D01*
Y-542168D01*
X303431D01*
X312762Y-538169D02*
Y-539502D01*
X311429D01*
X314095D01*
X312762D01*
Y-543501D01*
X314095Y-544834D01*
X319426D02*
X322092D01*
X323425Y-543501D01*
Y-540835D01*
X322092Y-539502D01*
X319426D01*
X318093Y-540835D01*
Y-543501D01*
X319426Y-544834D01*
X326091Y-539502D02*
Y-543501D01*
X327424Y-544834D01*
X331422D01*
Y-539502D01*
X334088D02*
Y-544834D01*
Y-542168D01*
X335421Y-540835D01*
X336754Y-539502D01*
X338087D01*
X342085Y-538169D02*
X343418Y-536836D01*
X346084D01*
X347417Y-538169D01*
Y-539502D01*
X344751Y-542168D01*
Y-543501D02*
Y-544834D01*
X252478Y-598174D02*
X256477D01*
X257810Y-596841D01*
Y-592842D01*
X259143D01*
X260476Y-594175D01*
Y-595508D01*
X257810Y-592842D02*
X252478D01*
X257810Y-586178D02*
Y-588843D01*
X256477Y-590176D01*
X253811D01*
X252478Y-588843D01*
Y-586178D01*
X253811Y-584845D01*
X255144D01*
Y-590176D01*
X257810Y-582179D02*
Y-578180D01*
X256477Y-576847D01*
X255144Y-578180D01*
Y-580846D01*
X253811Y-582179D01*
X252478Y-580846D01*
Y-576847D01*
X280670Y-575314D02*
Y-569982D01*
X284669D01*
X286002Y-571315D01*
Y-575314D01*
X290000D02*
X292666D01*
X293999Y-573981D01*
Y-571315D01*
X292666Y-569982D01*
X290000D01*
X288667Y-571315D01*
Y-573981D01*
X290000Y-575314D01*
X315978Y-598174D02*
X319977D01*
X321310Y-596841D01*
Y-592842D01*
X322643D01*
X323976Y-594175D01*
Y-595508D01*
X321310Y-592842D02*
X315978D01*
X321310Y-586178D02*
Y-588843D01*
X319977Y-590176D01*
X317311D01*
X315978Y-588843D01*
Y-586178D01*
X317311Y-584845D01*
X318644D01*
Y-590176D01*
X321310Y-582179D02*
Y-578180D01*
X319977Y-576847D01*
X318644Y-578180D01*
Y-580846D01*
X317311Y-582179D01*
X315978Y-580846D01*
Y-576847D01*
X13970Y-477209D02*
X15303Y-475876D01*
X17969D01*
X19302Y-477209D01*
Y-478542D01*
X17969Y-479875D01*
X16636D01*
X17969D01*
X19302Y-481208D01*
Y-482541D01*
X17969Y-483874D01*
X15303D01*
X13970Y-482541D01*
X21967Y-483874D02*
Y-482541D01*
X23300D01*
Y-483874D01*
X21967D01*
X28632Y-477209D02*
X29965Y-475876D01*
X32631D01*
X33964Y-477209D01*
Y-478542D01*
X32631Y-479875D01*
X31298D01*
X32631D01*
X33964Y-481208D01*
Y-482541D01*
X32631Y-483874D01*
X29965D01*
X28632Y-482541D01*
X36629Y-475876D02*
Y-481208D01*
X39295Y-483874D01*
X41961Y-481208D01*
Y-475876D01*
X313690Y-482289D02*
X315023Y-480956D01*
X317689D01*
X319022Y-482289D01*
Y-483622D01*
X317689Y-484955D01*
X316356D01*
X317689D01*
X319022Y-486288D01*
Y-487621D01*
X317689Y-488954D01*
X315023D01*
X313690Y-487621D01*
X321687Y-488954D02*
Y-487621D01*
X323020D01*
Y-488954D01*
X321687D01*
X328352Y-482289D02*
X329685Y-480956D01*
X332351D01*
X333684Y-482289D01*
Y-483622D01*
X332351Y-484955D01*
X331018D01*
X332351D01*
X333684Y-486288D01*
Y-487621D01*
X332351Y-488954D01*
X329685D01*
X328352Y-487621D01*
X336349Y-480956D02*
Y-486288D01*
X339015Y-488954D01*
X341681Y-486288D01*
Y-480956D01*
X317689Y-504194D02*
Y-496196D01*
X313690Y-500195D01*
X319022D01*
X321687Y-496196D02*
Y-501528D01*
X324353Y-504194D01*
X327019Y-501528D01*
Y-496196D01*
X18109Y-504194D02*
Y-496196D01*
X14110Y-500195D01*
X19442D01*
X22107Y-496196D02*
Y-501528D01*
X24773Y-504194D01*
X27439Y-501528D01*
Y-496196D01*
X21842Y-513976D02*
X16510D01*
Y-517975D01*
X19176Y-516642D01*
X20509D01*
X21842Y-517975D01*
Y-520641D01*
X20509Y-521974D01*
X17843D01*
X16510Y-520641D01*
X24507Y-513976D02*
Y-519308D01*
X27173Y-521974D01*
X29839Y-519308D01*
Y-513976D01*
X319022Y-511436D02*
X313690D01*
Y-515435D01*
X316356Y-514102D01*
X317689D01*
X319022Y-515435D01*
Y-518101D01*
X317689Y-519434D01*
X315023D01*
X313690Y-518101D01*
X321687Y-511436D02*
Y-516768D01*
X324353Y-519434D01*
X327019Y-516768D01*
Y-511436D01*
X197291Y-488954D02*
X201290Y-492952D01*
X197291Y-496951D01*
X193293Y-492952D02*
X187961D01*
X185295D02*
X179963D01*
X177298D02*
X171966D01*
X169300D02*
X163969D01*
X167829Y-519434D02*
X163830Y-515435D01*
X167829Y-511436D01*
X171827Y-515435D02*
X177159D01*
X179825D02*
X185156D01*
X187822D02*
X193154D01*
X195820D02*
X201151D01*
X167829Y-240034D02*
X163830Y-236035D01*
X167829Y-232036D01*
X171827Y-236035D02*
X177159D01*
X179825D02*
X185156D01*
X187822D02*
X193154D01*
X195820D02*
X201151D01*
X197291Y-209554D02*
X201290Y-213552D01*
X197291Y-217551D01*
X193293Y-213552D02*
X187961D01*
X185295D02*
X179963D01*
X177298D02*
X171966D01*
X169300D02*
X163969D01*
X319022Y-234576D02*
X313690D01*
Y-238575D01*
X316356Y-237242D01*
X317689D01*
X319022Y-238575D01*
Y-241241D01*
X317689Y-242574D01*
X315023D01*
X313690Y-241241D01*
X321687Y-234576D02*
Y-239908D01*
X324353Y-242574D01*
X327019Y-239908D01*
Y-234576D01*
X20572Y-228226D02*
X15240D01*
Y-232225D01*
X17906Y-230892D01*
X19239D01*
X20572Y-232225D01*
Y-234891D01*
X19239Y-236224D01*
X16573D01*
X15240Y-234891D01*
X23237Y-228226D02*
Y-233558D01*
X25903Y-236224D01*
X28569Y-233558D01*
Y-228226D01*
X313690Y-205429D02*
X315023Y-204096D01*
X317689D01*
X319022Y-205429D01*
Y-206762D01*
X317689Y-208095D01*
X316356D01*
X317689D01*
X319022Y-209428D01*
Y-210761D01*
X317689Y-212094D01*
X315023D01*
X313690Y-210761D01*
X321687Y-212094D02*
Y-210761D01*
X323020D01*
Y-212094D01*
X321687D01*
X328352Y-205429D02*
X329685Y-204096D01*
X332351D01*
X333684Y-205429D01*
Y-206762D01*
X332351Y-208095D01*
X331018D01*
X332351D01*
X333684Y-209428D01*
Y-210761D01*
X332351Y-212094D01*
X329685D01*
X328352Y-210761D01*
X336349Y-204096D02*
Y-209428D01*
X339015Y-212094D01*
X341681Y-209428D01*
Y-204096D01*
X12700Y-201619D02*
X14033Y-200286D01*
X16699D01*
X18032Y-201619D01*
Y-202952D01*
X16699Y-204285D01*
X15366D01*
X16699D01*
X18032Y-205618D01*
Y-206951D01*
X16699Y-208284D01*
X14033D01*
X12700Y-206951D01*
X20697Y-208284D02*
Y-206951D01*
X22030D01*
Y-208284D01*
X20697D01*
X27362Y-201619D02*
X28695Y-200286D01*
X31361D01*
X32694Y-201619D01*
Y-202952D01*
X31361Y-204285D01*
X30028D01*
X31361D01*
X32694Y-205618D01*
Y-206951D01*
X31361Y-208284D01*
X28695D01*
X27362Y-206951D01*
X35359Y-200286D02*
Y-205618D01*
X38025Y-208284D01*
X40691Y-205618D01*
Y-200286D01*
X315978Y-322584D02*
X319977D01*
X321310Y-321251D01*
Y-317252D01*
X322643D01*
X323976Y-318585D01*
Y-319918D01*
X321310Y-317252D02*
X315978D01*
X321310Y-310588D02*
Y-313253D01*
X319977Y-314586D01*
X317311D01*
X315978Y-313253D01*
Y-310588D01*
X317311Y-309255D01*
X318644D01*
Y-314586D01*
X321310Y-306589D02*
Y-302590D01*
X319977Y-301257D01*
X318644Y-302590D01*
Y-305256D01*
X317311Y-306589D01*
X315978Y-305256D01*
Y-301257D01*
X273050Y-295914D02*
Y-290582D01*
X277049D01*
X278382Y-291915D01*
Y-295914D01*
X282380D02*
X285046D01*
X286379Y-294581D01*
Y-291915D01*
X285046Y-290582D01*
X282380D01*
X281047Y-291915D01*
Y-294581D01*
X282380Y-295914D01*
X241048Y-322584D02*
X245047D01*
X246380Y-321251D01*
Y-317252D01*
X247713D01*
X249046Y-318585D01*
Y-319918D01*
X246380Y-317252D02*
X241048D01*
X246380Y-310588D02*
Y-313253D01*
X245047Y-314586D01*
X242381D01*
X241048Y-313253D01*
Y-310588D01*
X242381Y-309255D01*
X243714D01*
Y-314586D01*
X246380Y-306589D02*
Y-302590D01*
X245047Y-301257D01*
X243714Y-302590D01*
Y-305256D01*
X242381Y-306589D01*
X241048Y-305256D01*
Y-301257D01*
X226123Y-262642D02*
X228789D01*
X230122Y-263975D01*
Y-267974D01*
X226123D01*
X224790Y-266641D01*
X226123Y-265308D01*
X230122D01*
X232787Y-267974D02*
Y-262642D01*
X236786D01*
X238119Y-263975D01*
Y-267974D01*
X242118Y-262642D02*
X244784D01*
X246116Y-263975D01*
Y-267974D01*
X242118D01*
X240785Y-266641D01*
X242118Y-265308D01*
X246116D01*
X248782Y-267974D02*
X251448D01*
X250115D01*
Y-259976D01*
X248782D01*
X256780Y-267974D02*
X259445D01*
X260778Y-266641D01*
Y-263975D01*
X259445Y-262642D01*
X256780D01*
X255447Y-263975D01*
Y-266641D01*
X256780Y-267974D01*
X266110Y-270640D02*
X267443D01*
X268776Y-269307D01*
Y-262642D01*
X264777D01*
X263444Y-263975D01*
Y-266641D01*
X264777Y-267974D01*
X268776D01*
X271442Y-262642D02*
Y-266641D01*
X272775Y-267974D01*
X276773D01*
Y-262642D01*
X283438Y-267974D02*
X280772D01*
X279439Y-266641D01*
Y-263975D01*
X280772Y-262642D01*
X283438D01*
X284771Y-263975D01*
Y-265308D01*
X279439D01*
X300765Y-259976D02*
Y-267974D01*
X296767D01*
X295434Y-266641D01*
Y-263975D01*
X296767Y-262642D01*
X300765D01*
X307430Y-267974D02*
X304764D01*
X303431Y-266641D01*
Y-263975D01*
X304764Y-262642D01*
X307430D01*
X308763Y-263975D01*
Y-265308D01*
X303431D01*
X312762Y-261309D02*
Y-262642D01*
X311429D01*
X314095D01*
X312762D01*
Y-266641D01*
X314095Y-267974D01*
X319426D02*
X322092D01*
X323425Y-266641D01*
Y-263975D01*
X322092Y-262642D01*
X319426D01*
X318093Y-263975D01*
Y-266641D01*
X319426Y-267974D01*
X326091Y-262642D02*
Y-266641D01*
X327424Y-267974D01*
X331422D01*
Y-262642D01*
X334088D02*
Y-267974D01*
Y-265308D01*
X335421Y-263975D01*
X336754Y-262642D01*
X338087D01*
X342085Y-261309D02*
X343418Y-259976D01*
X346084D01*
X347417Y-261309D01*
Y-262642D01*
X344751Y-265308D01*
Y-266641D02*
Y-267974D01*
X136142Y-188856D02*
Y-196854D01*
X132143D01*
X130810Y-195521D01*
Y-192855D01*
X132143Y-191522D01*
X136142D01*
X138807Y-196854D02*
X141473D01*
X140140D01*
Y-191522D01*
X138807D01*
X145472D02*
Y-196854D01*
Y-194188D01*
X146805Y-192855D01*
X148138Y-191522D01*
X149471D01*
X157468Y-196854D02*
X154802D01*
X153469Y-195521D01*
Y-192855D01*
X154802Y-191522D01*
X157468D01*
X158801Y-192855D01*
Y-194188D01*
X153469D01*
X166798Y-191522D02*
X162800D01*
X161467Y-192855D01*
Y-195521D01*
X162800Y-196854D01*
X166798D01*
X170797Y-190189D02*
Y-191522D01*
X169464D01*
X172130D01*
X170797D01*
Y-195521D01*
X172130Y-196854D01*
X176129D02*
X178794D01*
X177462D01*
Y-191522D01*
X176129D01*
X184126Y-196854D02*
X186792D01*
X188125Y-195521D01*
Y-192855D01*
X186792Y-191522D01*
X184126D01*
X182793Y-192855D01*
Y-195521D01*
X184126Y-196854D01*
X190791D02*
Y-191522D01*
X194789D01*
X196122Y-192855D01*
Y-196854D01*
X222250Y-183776D02*
Y-191774D01*
X226249D01*
X227582Y-190441D01*
Y-189108D01*
X226249Y-187775D01*
X222250D01*
X226249D01*
X227582Y-186442D01*
Y-185109D01*
X226249Y-183776D01*
X222250D01*
X238245D02*
Y-189108D01*
X240911Y-191774D01*
X243576Y-189108D01*
Y-183776D01*
X247575Y-191774D02*
X250241D01*
X251574Y-190441D01*
Y-187775D01*
X250241Y-186442D01*
X247575D01*
X246242Y-187775D01*
Y-190441D01*
X247575Y-191774D01*
X254240D02*
X256905D01*
X255573D01*
Y-183776D01*
X254240D01*
X262237Y-185109D02*
Y-186442D01*
X260904D01*
X263570D01*
X262237D01*
Y-190441D01*
X263570Y-191774D01*
X268902Y-186442D02*
X271567D01*
X272900Y-187775D01*
Y-191774D01*
X268902D01*
X267569Y-190441D01*
X268902Y-189108D01*
X272900D01*
X278232Y-194440D02*
X279565D01*
X280898Y-193107D01*
Y-186442D01*
X276899D01*
X275566Y-187775D01*
Y-190441D01*
X276899Y-191774D01*
X280898D01*
X287562D02*
X284897D01*
X283564Y-190441D01*
Y-187775D01*
X284897Y-186442D01*
X287562D01*
X288895Y-187775D01*
Y-189108D01*
X283564D01*
X26670Y-191774D02*
Y-186442D01*
X29336Y-183776D01*
X32002Y-186442D01*
Y-191774D01*
Y-187775D01*
X26670D01*
X42665Y-183776D02*
Y-189108D01*
X45331Y-191774D01*
X47996Y-189108D01*
Y-183776D01*
X51995Y-191774D02*
X54661D01*
X55994Y-190441D01*
Y-187775D01*
X54661Y-186442D01*
X51995D01*
X50662Y-187775D01*
Y-190441D01*
X51995Y-191774D01*
X58660D02*
X61325D01*
X59993D01*
Y-183776D01*
X58660D01*
X66657Y-185109D02*
Y-186442D01*
X65324D01*
X67990D01*
X66657D01*
Y-190441D01*
X67990Y-191774D01*
X73322Y-186442D02*
X75988D01*
X77320Y-187775D01*
Y-191774D01*
X73322D01*
X71989Y-190441D01*
X73322Y-189108D01*
X77320D01*
X82652Y-194440D02*
X83985D01*
X85318Y-193107D01*
Y-186442D01*
X81319D01*
X79986Y-187775D01*
Y-190441D01*
X81319Y-191774D01*
X85318D01*
X91982D02*
X89317D01*
X87984Y-190441D01*
Y-187775D01*
X89317Y-186442D01*
X91982D01*
X93315Y-187775D01*
Y-189108D01*
X87984D01*
X340171Y-275594D02*
X344170Y-279592D01*
X340171Y-283591D01*
X336173Y-279592D02*
X330841D01*
X328175D02*
X322844D01*
X320178D02*
X314846D01*
X312180D02*
X306849D01*
X302260Y-167640D02*
X296928D01*
Y-166307D01*
X298261Y-164974D01*
X302260D01*
X298261D01*
X296928Y-163641D01*
X298261Y-162308D01*
X302260D01*
Y-158310D02*
Y-155644D01*
X300927Y-154311D01*
X298261D01*
X296928Y-155644D01*
Y-158310D01*
X298261Y-159643D01*
X300927D01*
X302260Y-158310D01*
X304926Y-151645D02*
Y-150312D01*
X303593Y-148979D01*
X296928D01*
X302260Y-142315D02*
Y-139649D01*
X300927Y-138316D01*
X298261D01*
X296928Y-139649D01*
Y-142315D01*
X298261Y-143648D01*
X300927D01*
X302260Y-142315D01*
X303593Y-135650D02*
Y-130319D01*
X302260Y-127653D02*
Y-123654D01*
X300927Y-122321D01*
X299594Y-123654D01*
Y-126320D01*
X298261Y-127653D01*
X296928Y-126320D01*
Y-122321D01*
X302260Y-119656D02*
Y-116990D01*
Y-118323D01*
X296928D01*
Y-119656D01*
X304926Y-110325D02*
Y-108992D01*
X303593Y-107659D01*
X296928D01*
Y-111658D01*
X298261Y-112991D01*
X300927D01*
X302260Y-111658D01*
Y-107659D01*
Y-104993D02*
X296928D01*
Y-100995D01*
X298261Y-99662D01*
X302260D01*
X296928Y-95663D02*
Y-92997D01*
X298261Y-91664D01*
X302260D01*
Y-95663D01*
X300927Y-96996D01*
X299594Y-95663D01*
Y-91664D01*
X302260Y-88999D02*
Y-86333D01*
Y-87666D01*
X294263D01*
Y-88999D01*
X303593Y-82334D02*
Y-77003D01*
X296928Y-69005D02*
Y-73004D01*
X298261Y-74337D01*
X300927D01*
X302260Y-73004D01*
Y-69005D01*
Y-65006D02*
Y-62341D01*
X300927Y-61008D01*
X298261D01*
X296928Y-62341D01*
Y-65006D01*
X298261Y-66339D01*
X300927D01*
X302260Y-65006D01*
Y-58342D02*
X296928D01*
Y-54343D01*
X298261Y-53010D01*
X302260D01*
X296928Y-50345D02*
X302260Y-47679D01*
X296928Y-45013D01*
X302260Y-42347D02*
X300927D01*
Y-41014D01*
X302260D01*
Y-42347D01*
X317500Y-162371D02*
Y-165037D01*
X316167Y-166370D01*
X313501D01*
X312168Y-165037D01*
Y-162371D01*
X313501Y-161038D01*
X314834D01*
Y-166370D01*
X312168Y-158373D02*
X316167D01*
X317500Y-157040D01*
X316167Y-155707D01*
X317500Y-154374D01*
X316167Y-153041D01*
X312168D01*
X318833Y-150375D02*
Y-145044D01*
X309503Y-137046D02*
Y-142378D01*
X317500D01*
Y-137046D01*
X313501Y-142378D02*
Y-139712D01*
X317500Y-134380D02*
X309503D01*
X312168Y-131714D01*
X309503Y-129049D01*
X317500D01*
X309503Y-126383D02*
X317500D01*
Y-122384D01*
X316167Y-121051D01*
X314834D01*
X313501Y-122384D01*
Y-126383D01*
Y-122384D01*
X312168Y-121051D01*
X310835D01*
X309503Y-122384D01*
Y-126383D01*
Y-118385D02*
X317500D01*
Y-113054D01*
X318833Y-110388D02*
Y-105056D01*
X312168Y-97059D02*
Y-101058D01*
X313501Y-102391D01*
X316167D01*
X317500Y-101058D01*
Y-97059D01*
Y-94393D02*
X309503D01*
X314834D02*
X312168Y-90394D01*
X314834Y-94393D02*
X317500Y-90394D01*
X318833Y-86396D02*
Y-81064D01*
X317500Y-73067D02*
Y-78398D01*
X312168Y-73067D01*
X310835D01*
X309503Y-74400D01*
Y-77066D01*
X310835Y-78398D01*
Y-70401D02*
X309503Y-69068D01*
Y-66402D01*
X310835Y-65069D01*
X316167D01*
X317500Y-66402D01*
Y-69068D01*
X316167Y-70401D01*
X310835D01*
X317500Y-57072D02*
Y-62404D01*
X312168Y-57072D01*
X310835D01*
X309503Y-58405D01*
Y-61071D01*
X310835Y-62404D01*
Y-54406D02*
X309503Y-53073D01*
Y-50407D01*
X310835Y-49075D01*
X316167D01*
X317500Y-50407D01*
Y-53073D01*
X316167Y-54406D01*
X310835D01*
D41*
X154940Y-53507D02*
X168269D01*
X161604Y-46842D02*
Y-60172D01*
M02*
