G04 Layer_Color=8421504*
%FSLAX44Y44*%
%MOMM*%
G71*
G01*
G75*
%ADD10R,1.8000X1.1500*%
%ADD11R,1.1500X1.8000*%
%ADD12R,1.4500X1.2000*%
G04:AMPARAMS|DCode=13|XSize=0.65mm|YSize=1.2mm|CornerRadius=0.0488mm|HoleSize=0mm|Usage=FLASHONLY|Rotation=90.000|XOffset=0mm|YOffset=0mm|HoleType=Round|Shape=RoundedRectangle|*
%AMROUNDEDRECTD13*
21,1,0.6500,1.1025,0,0,90.0*
21,1,0.5525,1.2000,0,0,90.0*
1,1,0.0975,0.5513,0.2762*
1,1,0.0975,0.5513,-0.2762*
1,1,0.0975,-0.5513,-0.2762*
1,1,0.0975,-0.5513,0.2762*
%
%ADD13ROUNDEDRECTD13*%
%ADD14C,1.0000*%
%ADD15R,1.0000X1.0000*%
%ADD16O,1.9000X0.6000*%
G04:AMPARAMS|DCode=17|XSize=0.55mm|YSize=0.8mm|CornerRadius=0.0495mm|HoleSize=0mm|Usage=FLASHONLY|Rotation=90.000|XOffset=0mm|YOffset=0mm|HoleType=Round|Shape=RoundedRectangle|*
%AMROUNDEDRECTD17*
21,1,0.5500,0.7010,0,0,90.0*
21,1,0.4510,0.8000,0,0,90.0*
1,1,0.0990,0.3505,0.2255*
1,1,0.0990,0.3505,-0.2255*
1,1,0.0990,-0.3505,-0.2255*
1,1,0.0990,-0.3505,0.2255*
%
%ADD17ROUNDEDRECTD17*%
%ADD18R,1.2000X1.4500*%
%ADD19R,1.0000X1.0000*%
G04:AMPARAMS|DCode=20|XSize=3.2mm|YSize=1.75mm|CornerRadius=0.0525mm|HoleSize=0mm|Usage=FLASHONLY|Rotation=0.000|XOffset=0mm|YOffset=0mm|HoleType=Round|Shape=RoundedRectangle|*
%AMROUNDEDRECTD20*
21,1,3.2000,1.6450,0,0,0.0*
21,1,3.0950,1.7500,0,0,0.0*
1,1,0.1050,1.5475,-0.8225*
1,1,0.1050,-1.5475,-0.8225*
1,1,0.1050,-1.5475,0.8225*
1,1,0.1050,1.5475,0.8225*
%
%ADD20ROUNDEDRECTD20*%
G04:AMPARAMS|DCode=21|XSize=0.9mm|YSize=1.75mm|CornerRadius=0.0495mm|HoleSize=0mm|Usage=FLASHONLY|Rotation=0.000|XOffset=0mm|YOffset=0mm|HoleType=Round|Shape=RoundedRectangle|*
%AMROUNDEDRECTD21*
21,1,0.9000,1.6510,0,0,0.0*
21,1,0.8010,1.7500,0,0,0.0*
1,1,0.0990,0.4005,-0.8255*
1,1,0.0990,-0.4005,-0.8255*
1,1,0.0990,-0.4005,0.8255*
1,1,0.0990,0.4005,0.8255*
%
%ADD21ROUNDEDRECTD21*%
%ADD22R,2.0000X1.2000*%
%ADD23R,0.9500X1.7000*%
%ADD24R,2.9500X2.5500*%
%ADD27C,0.2540*%
%ADD28C,0.2032*%
D10*
X166370Y-1242774D02*
D03*
Y-1212774D02*
D03*
X171450Y-961154D02*
D03*
Y-931154D02*
D03*
Y-674134D02*
D03*
Y-644134D02*
D03*
X156210Y-412514D02*
D03*
Y-382514D02*
D03*
D11*
X114540Y-1250950D02*
D03*
X144540D02*
D03*
X122160Y-980440D02*
D03*
X152160D02*
D03*
X146290Y-699774D02*
D03*
X176290D02*
D03*
X120890Y-433074D02*
D03*
X150890D02*
D03*
D12*
X283210Y-364654D02*
D03*
Y-384654D02*
D03*
X222880Y-1932784D02*
D03*
Y-1912784D02*
D03*
X97790Y-1931514D02*
D03*
Y-1911514D02*
D03*
X90170Y-1207774D02*
D03*
Y-1227774D02*
D03*
X297180Y-1239684D02*
D03*
Y-1259684D02*
D03*
Y-1197774D02*
D03*
Y-1217774D02*
D03*
X322580Y-1259684D02*
D03*
Y-1239684D02*
D03*
X38100Y-1126654D02*
D03*
Y-1146654D02*
D03*
X105410Y-931074D02*
D03*
Y-951074D02*
D03*
X298450Y-970444D02*
D03*
Y-990444D02*
D03*
Y-928534D02*
D03*
Y-948534D02*
D03*
X323850Y-986634D02*
D03*
Y-966634D02*
D03*
X35560Y-843444D02*
D03*
Y-863444D02*
D03*
X95250Y-651514D02*
D03*
Y-671514D02*
D03*
X293370Y-687234D02*
D03*
Y-707234D02*
D03*
X302260Y-633894D02*
D03*
Y-653894D02*
D03*
X318770Y-711044D02*
D03*
Y-691044D02*
D03*
X39370Y-567854D02*
D03*
Y-587854D02*
D03*
X92710Y-391324D02*
D03*
Y-411324D02*
D03*
X283210Y-410374D02*
D03*
Y-430374D02*
D03*
X311150D02*
D03*
Y-410374D02*
D03*
X39370Y-293534D02*
D03*
Y-313534D02*
D03*
X228600Y-1567344D02*
D03*
Y-1587344D02*
D03*
X288290Y-1397164D02*
D03*
Y-1417164D02*
D03*
X104140Y-1564804D02*
D03*
Y-1584804D02*
D03*
X97790Y-1397164D02*
D03*
Y-1417164D02*
D03*
X93980Y-1745144D02*
D03*
Y-1765144D02*
D03*
X231140Y-1742604D02*
D03*
Y-1762604D02*
D03*
D13*
X170960Y-1741834D02*
D03*
Y-1751334D02*
D03*
Y-1760834D02*
D03*
X141460D02*
D03*
Y-1751334D02*
D03*
Y-1741834D02*
D03*
X153670Y-1912014D02*
D03*
Y-1921514D02*
D03*
Y-1931014D02*
D03*
X183170D02*
D03*
Y-1921514D02*
D03*
Y-1912014D02*
D03*
X188740Y-1564034D02*
D03*
Y-1573534D02*
D03*
Y-1583034D02*
D03*
X159240D02*
D03*
Y-1573534D02*
D03*
Y-1564034D02*
D03*
X183660Y-1391314D02*
D03*
Y-1400814D02*
D03*
Y-1410314D02*
D03*
X154160D02*
D03*
Y-1400814D02*
D03*
Y-1391314D02*
D03*
D14*
X121920Y-1824994D02*
D03*
X146050D02*
D03*
X121920Y-1847854D02*
D03*
X146050D02*
D03*
X250190Y-1814834D02*
D03*
X226060D02*
D03*
X250190Y-1850394D02*
D03*
X226060D02*
D03*
X63500Y-1814834D02*
D03*
X87630D02*
D03*
X63500Y-1850394D02*
D03*
X87630D02*
D03*
X267970Y-1116334D02*
D03*
X292100D02*
D03*
X336550Y-1130304D02*
D03*
Y-1154434D02*
D03*
X232410Y-1130304D02*
D03*
Y-1154434D02*
D03*
X270510Y-1042674D02*
D03*
X246380D02*
D03*
X271780Y-1078234D02*
D03*
X247650D02*
D03*
X68580Y-1042674D02*
D03*
X92710D02*
D03*
X68580Y-1078234D02*
D03*
X92710D02*
D03*
X121920Y-1050294D02*
D03*
X146050D02*
D03*
X121920Y-1075694D02*
D03*
X146050D02*
D03*
X269240Y-842014D02*
D03*
X293370D02*
D03*
X336550Y-855984D02*
D03*
Y-880114D02*
D03*
X237490Y-854714D02*
D03*
Y-878844D02*
D03*
X262890Y-768354D02*
D03*
X238760D02*
D03*
X262890Y-803914D02*
D03*
X238760D02*
D03*
X68580Y-768354D02*
D03*
X92710D02*
D03*
X68580Y-803914D02*
D03*
X92710D02*
D03*
X127000Y-778514D02*
D03*
X151130D02*
D03*
X127000Y-798834D02*
D03*
X151130D02*
D03*
X273050Y-560074D02*
D03*
X297180D02*
D03*
X334010Y-575314D02*
D03*
Y-599444D02*
D03*
X241300Y-575314D02*
D03*
Y-599444D02*
D03*
X270510Y-481334D02*
D03*
X246380D02*
D03*
X270510Y-516894D02*
D03*
X246380D02*
D03*
X66040Y-481334D02*
D03*
X90170D02*
D03*
X66040Y-516894D02*
D03*
X90170D02*
D03*
X126840Y-494034D02*
D03*
X150970D02*
D03*
X127000Y-516894D02*
D03*
X151130D02*
D03*
X267970Y-281334D02*
D03*
X292100D02*
D03*
X336550Y-297184D02*
D03*
Y-321314D02*
D03*
X229870Y-298454D02*
D03*
Y-322584D02*
D03*
X257810Y-207014D02*
D03*
X233680D02*
D03*
X257810Y-237494D02*
D03*
X233680D02*
D03*
X68580Y-205744D02*
D03*
X92710D02*
D03*
X67310Y-232414D02*
D03*
X91440D02*
D03*
X125730Y-214634D02*
D03*
X149860D02*
D03*
X125730Y-237494D02*
D03*
X149860D02*
D03*
X156210Y-1484634D02*
D03*
X132080D02*
D03*
X146050Y-1316994D02*
D03*
X121920D02*
D03*
X157480Y-1504954D02*
D03*
X133350D02*
D03*
X146540Y-1339854D02*
D03*
X122410D02*
D03*
X238760Y-1474474D02*
D03*
X262890D02*
D03*
X229240Y-1309374D02*
D03*
X253370D02*
D03*
X238760Y-1510034D02*
D03*
X262890D02*
D03*
X229240Y-1344934D02*
D03*
X253370D02*
D03*
X92710Y-1474474D02*
D03*
X68580D02*
D03*
X90170Y-1309374D02*
D03*
X66040D02*
D03*
X92710Y-1510034D02*
D03*
X68580D02*
D03*
X90170Y-1344934D02*
D03*
X66040D02*
D03*
X87630Y-1680214D02*
D03*
X63500D02*
D03*
X87630Y-1642114D02*
D03*
X63500D02*
D03*
X229870Y-1677674D02*
D03*
X254000D02*
D03*
X229240Y-1644654D02*
D03*
X253370D02*
D03*
X149860Y-1675134D02*
D03*
X125730D02*
D03*
X149860Y-1652274D02*
D03*
X125730D02*
D03*
D15*
X127000Y-1824994D02*
D03*
X140970D02*
D03*
X127000Y-1847854D02*
D03*
X140970D02*
D03*
X245110Y-1814834D02*
D03*
X231140D02*
D03*
X245110Y-1850394D02*
D03*
X231140D02*
D03*
X68580Y-1814834D02*
D03*
X82550D02*
D03*
X68580Y-1850394D02*
D03*
X82550D02*
D03*
X273050Y-1116334D02*
D03*
X287020D02*
D03*
X265430Y-1042674D02*
D03*
X251460D02*
D03*
X266700Y-1078234D02*
D03*
X252730D02*
D03*
X73660Y-1042674D02*
D03*
X87630D02*
D03*
X73660Y-1078234D02*
D03*
X87630D02*
D03*
X127000Y-1050294D02*
D03*
X140970D02*
D03*
X127000Y-1075694D02*
D03*
X140970D02*
D03*
X274320Y-842014D02*
D03*
X288290D02*
D03*
X257810Y-768354D02*
D03*
X243840D02*
D03*
X257810Y-803914D02*
D03*
X243840D02*
D03*
X73660Y-768354D02*
D03*
X87630D02*
D03*
X73660Y-803914D02*
D03*
X87630D02*
D03*
X132080Y-778514D02*
D03*
X146050D02*
D03*
X132080Y-798834D02*
D03*
X146050D02*
D03*
X278130Y-560074D02*
D03*
X292100D02*
D03*
X265430Y-481334D02*
D03*
X251460D02*
D03*
X265430Y-516894D02*
D03*
X251460D02*
D03*
X71120Y-481334D02*
D03*
X85090D02*
D03*
X71120Y-516894D02*
D03*
X85090D02*
D03*
X131920Y-494034D02*
D03*
X145890D02*
D03*
X132080Y-516894D02*
D03*
X146050D02*
D03*
X273050Y-281334D02*
D03*
X287020D02*
D03*
X252730Y-207014D02*
D03*
X238760D02*
D03*
X252730Y-237494D02*
D03*
X238760D02*
D03*
X73660Y-205744D02*
D03*
X87630D02*
D03*
X72390Y-232414D02*
D03*
X86360D02*
D03*
X130810Y-214634D02*
D03*
X144780D02*
D03*
X130810Y-237494D02*
D03*
X144780D02*
D03*
X151130Y-1484634D02*
D03*
X137160D02*
D03*
X140970Y-1316994D02*
D03*
X127000D02*
D03*
X152400Y-1504954D02*
D03*
X138430D02*
D03*
X141460Y-1339854D02*
D03*
X127490D02*
D03*
X243840Y-1474474D02*
D03*
X257810D02*
D03*
X234320Y-1309374D02*
D03*
X248290D02*
D03*
X243840Y-1510034D02*
D03*
X257810D02*
D03*
X234320Y-1344934D02*
D03*
X248290D02*
D03*
X87630Y-1474474D02*
D03*
X73660D02*
D03*
X85090Y-1309374D02*
D03*
X71120D02*
D03*
X87630Y-1510034D02*
D03*
X73660D02*
D03*
X85090Y-1344934D02*
D03*
X71120D02*
D03*
X82550Y-1680214D02*
D03*
X68580D02*
D03*
X82550Y-1642114D02*
D03*
X68580D02*
D03*
X234950Y-1677674D02*
D03*
X248920D02*
D03*
X234320Y-1644654D02*
D03*
X248290D02*
D03*
X144780Y-1675134D02*
D03*
X130810D02*
D03*
X144780Y-1652274D02*
D03*
X130810D02*
D03*
D16*
X257180Y-1252224D02*
D03*
Y-1239524D02*
D03*
Y-1226824D02*
D03*
Y-1214124D02*
D03*
X210180Y-1252224D02*
D03*
Y-1239524D02*
D03*
Y-1226824D02*
D03*
Y-1214124D02*
D03*
X263530Y-982984D02*
D03*
Y-970284D02*
D03*
Y-957584D02*
D03*
Y-944884D02*
D03*
X216530Y-982984D02*
D03*
Y-970284D02*
D03*
Y-957584D02*
D03*
Y-944884D02*
D03*
X269880Y-693424D02*
D03*
Y-680724D02*
D03*
Y-668024D02*
D03*
Y-655324D02*
D03*
X222880Y-693424D02*
D03*
Y-680724D02*
D03*
Y-668024D02*
D03*
Y-655324D02*
D03*
X248290Y-410374D02*
D03*
Y-397674D02*
D03*
Y-384974D02*
D03*
Y-372274D02*
D03*
X201290Y-410374D02*
D03*
Y-397674D02*
D03*
Y-384974D02*
D03*
Y-372274D02*
D03*
D17*
X174040Y-1132234D02*
D03*
Y-1141734D02*
D03*
Y-1151234D02*
D03*
X148540D02*
D03*
Y-1141734D02*
D03*
Y-1132234D02*
D03*
X176580Y-855374D02*
D03*
Y-864874D02*
D03*
Y-874374D02*
D03*
X151080D02*
D03*
Y-864874D02*
D03*
Y-855374D02*
D03*
X174040Y-570894D02*
D03*
Y-580394D02*
D03*
Y-589894D02*
D03*
X148540D02*
D03*
Y-580394D02*
D03*
Y-570894D02*
D03*
X181660Y-286414D02*
D03*
Y-295914D02*
D03*
Y-305414D02*
D03*
X156160D02*
D03*
Y-295914D02*
D03*
Y-286414D02*
D03*
D18*
X134460Y-1200154D02*
D03*
X114460D02*
D03*
X66990D02*
D03*
X46990D02*
D03*
X148430Y-915674D02*
D03*
X128430D02*
D03*
X81120D02*
D03*
X61120D02*
D03*
X143350Y-643894D02*
D03*
X123350D02*
D03*
X69530D02*
D03*
X49530D02*
D03*
X138270Y-378464D02*
D03*
X118270D02*
D03*
X66990D02*
D03*
X46990D02*
D03*
D19*
X336550Y-1135384D02*
D03*
Y-1149354D02*
D03*
X232410Y-1135384D02*
D03*
Y-1149354D02*
D03*
X336550Y-861064D02*
D03*
Y-875034D02*
D03*
X237490Y-859794D02*
D03*
Y-873764D02*
D03*
X334010Y-580394D02*
D03*
Y-594364D02*
D03*
X241300Y-580394D02*
D03*
Y-594364D02*
D03*
X336550Y-302264D02*
D03*
Y-316234D02*
D03*
X229870Y-303534D02*
D03*
Y-317504D02*
D03*
D20*
X250190Y-106184D02*
D03*
D21*
X227190Y-43684D02*
D03*
X250190D02*
D03*
X273190D02*
D03*
D22*
X188740Y-132084D02*
D03*
X216740D02*
D03*
D23*
X104270Y-93984D02*
D03*
X132270D02*
D03*
D24*
X70350Y-52074D02*
D03*
X132850D02*
D03*
D27*
X0Y-1990000D02*
Y-1274D01*
Y-1990000D02*
X359410D01*
X0Y-1274D02*
X359410D01*
Y-1990000D02*
Y-1274D01*
D28*
X162070Y-1912627D02*
Y-1921091D01*
X163763Y-1922784D01*
X167148D01*
X168841Y-1921091D01*
Y-1912627D01*
X172227Y-1922784D02*
X175612D01*
X173920D01*
Y-1912627D01*
X172227Y-1914320D01*
X180691Y-1924477D02*
X187462D01*
X190847Y-1912627D02*
Y-1922784D01*
Y-1917706D01*
X197619D01*
Y-1912627D01*
Y-1922784D01*
M02*
