M48
;Layer_Color=9474304
;FILE_FORMAT=2:5
INCH,LZ
;TYPE=PLATED
T1F00S00C0.01968
T2F00S00C0.02756
T3F00S00C0.04331
;TYPE=NON_PLATED
T4F00S00C0.13800
%
T01
X0082Y-07045
X0087Y-0694
X0096874
X0123063Y-0678
X0124Y-0649
X0122Y-0629
X0094Y-0612063
X0087Y-0612
X0081Y-06205
X0082Y-0634
X0080937Y-0642
X008Y-0558
X0083Y-05465
X0080937Y-0535937
X0086Y-0527
X0094
X0125063Y-0539063
Y-0557
X0122Y-0595
Y-051
Y-0477
X0124Y-04565
X0081937Y-0451
X0081Y-0467
Y-0474
X0088Y-044
X0095Y-0441
X0124Y-0424
X0121Y-0393
Y-0374
X0125677Y-0339677
X0121Y-0308
Y-0294
X0086Y-0292
Y-0303
X0088Y-0353
X0094063Y-0355063
X0085Y-0365
X0082Y-038
Y-0389
X0086Y-0278
X009Y-0272
X0097Y-0276
X0125Y-0257
Y-0231
X0122Y-0212
X0125Y-0182
Y-015
X0123Y-0132
X0083Y-0133
Y-0144
X009Y-0186339
X0086Y-0194
X0097Y-0197
X0086Y-0218
Y-0225
X0088Y-0117
X0082874Y-0117126
X0096Y-0118
X011974Y-010226
X0104Y-0065
X0062Y-0063
T02
X003Y-0725
Y-0716
X0054
X0047Y-0723
X0072Y-0725
X0068Y-0692
X004Y-0683
X0048Y-064
X0055Y-0632
X0057Y-0602
X0069Y-0608
X0102Y-0599
X0117Y-0612063
X0109Y-0637
X0133Y-0639
X0137Y-0675
X0107Y-0682
X0118Y-0695
X011Y-0706
X0119072Y-07205
X002Y-0637
X0049Y-0554
X0056Y-0549
X0068Y-0555
X007Y-0522
X0039Y-0515
X0048Y-0469
X0055Y-0462
X0064Y-0471
X0019Y-0468
X011
X0106Y-0452
X0133Y-0471
X0137Y-0505
X0135Y-0511
X0118Y-0527
X0103Y-0513
X0109Y-0552
X0136Y-0554
Y-0593
X0006Y-0553
X0071Y-0437
X0088063Y-0428276
X010574Y-0427
X0117Y-044
X0131Y-043
X0135Y-042
X0136Y-0384
X0107
X0117Y-0355
X0103Y-0342
X0072Y-0352
X0056748Y-0378
X0048Y-0386
X005Y-0298
X0057748Y-0292
X0067Y-03
X0111Y-0299
X0134Y-03
X0137Y-0335
X0021Y-0298
X0073Y-0269
X0106Y-0262
X0117Y-0276
X0136Y-0256
Y-0222
X011Y-0219
X0119Y-0195
X010574Y-0183
X0135Y-0182
Y-0176
Y-0143
X0105Y-014
X0064
X0051Y-0141
X0056Y-0131
X0022Y-014
X0023Y-0216
X005Y-0218
X0056748Y-0212
X0061Y-022
X0071Y-0187
X0009Y-0089
X0013Y-0038
X0038Y-004
X0044Y-0038
X0028Y-0059
X0094Y-0058
X0093Y-0053
X0095874Y-0046
X0099Y-0072
X0126Y-0073
X0131Y-0046
X0116Y-0027
X0085Y-0006
X0071Y-0109
X010574Y-0105
X0117Y-0119
X0133Y-0098
T03
X0006Y-0705
Y-0695
Y-062
Y-061
X0022Y-0658
X0032
X0046
X0056
Y-0672013
X0046
X0032
X0022
X0135Y-0695
Y-0705
Y-062
Y-061
Y-0535
Y-0525
Y-045
X0056Y-0488
X0046
X0032
X0022
Y-0502
X0032
X0046476
X0056476
X0056Y-0573
X0046
X0032
X0022
Y-0587
X0032
X0046
X0056
X0006Y-0536
Y-0526
Y-045
Y-044
X0007Y-0365
Y-0355
X0022Y-0332
X0032
Y-0318
X0022
X0046
X0056
Y-0332
X0046
Y-0403
X0056
Y-0417
X0046
X0032
X0022
Y-0403
X0032
X0135Y-044
Y-0365
Y-0355
X0134Y-0285
Y-0275
Y-0205
Y-0195
X0056476Y-0173
X0046476
Y-0159
X0056476
X0032
X0022
Y-0173
X0032
Y-0239
X0022
Y-0253
X0032
X0046
X0056
Y-0239
X0046
X0006Y-0205
Y-0195
Y-0275
Y-0285
Y-0127
Y-0117
X0022Y-0095
X0032
Y-0081
X0022
X0046476
X0056476
Y-0095
X0046476
X0039Y-0012
X0029
X0135Y-0117
Y-0127
T04
X0011811Y-0725
X0129921
X0011811Y-0011811
X0129921
M30
