G04 Layer_Color=128*
%FSLAX25Y25*%
%MOIN*%
G70*
G01*
G75*
%ADD22C,0.01000*%
%ADD23C,0.00800*%
%ADD30R,0.05118X0.06102*%
D22*
X0Y-736221D02*
X141732D01*
Y0D01*
X0D02*
X141732D01*
X0Y-736221D02*
Y0D01*
D23*
X76499Y-16500D02*
X73583D01*
X73000Y-17083D01*
Y-18249D01*
X73583Y-18833D01*
X76499D01*
X73000Y-19999D02*
Y-21165D01*
Y-20582D01*
X76499D01*
X75916Y-19999D01*
Y-22915D02*
X76499Y-23498D01*
Y-24664D01*
X75916Y-25247D01*
X73583D01*
X73000Y-24664D01*
Y-23498D01*
X73583Y-22915D01*
X75916D01*
X73000Y-28746D02*
Y-26414D01*
X75333Y-28746D01*
X75916D01*
X76499Y-28163D01*
Y-26997D01*
X75916Y-26414D01*
D30*
X133937Y-675000D02*
D03*
X126063D02*
D03*
X78437Y-691000D02*
D03*
X70563D02*
D03*
X133858Y-594000D02*
D03*
X125984D02*
D03*
X79937Y-607000D02*
D03*
X72063D02*
D03*
X133858Y-508000D02*
D03*
X125984D02*
D03*
X80689Y-524000D02*
D03*
X72815D02*
D03*
X132937Y-422000D02*
D03*
X125063D02*
D03*
X80937Y-439000D02*
D03*
X73063D02*
D03*
X125984Y-255000D02*
D03*
X133858D02*
D03*
X126063Y-336000D02*
D03*
X133937D02*
D03*
X74063Y-353000D02*
D03*
X81937D02*
D03*
X75063Y-269000D02*
D03*
X82937D02*
D03*
X74063Y-188000D02*
D03*
X81937D02*
D03*
X125063Y-178000D02*
D03*
X132937D02*
D03*
X123063Y-100000D02*
D03*
X130937D02*
D03*
X74063Y-109000D02*
D03*
X81937D02*
D03*
M02*
