G04 Layer_Color=16711935*
%FSLAX25Y25*%
%MOIN*%
G70*
G01*
G75*
%ADD22C,0.01000*%
%ADD23C,0.00800*%
%ADD48C,0.13800*%
%ADD49C,0.07099*%
%ADD50R,0.07099X0.07099*%
%ADD51R,0.07099X0.07099*%
%ADD52C,0.04737*%
%ADD53C,0.03556*%
%ADD54R,0.05918X0.06902*%
D22*
X0Y-736221D02*
X141732D01*
Y0D01*
X0D02*
X141732D01*
X0Y-736221D02*
Y0D01*
D23*
X76499Y-16500D02*
X73583D01*
X73000Y-17083D01*
Y-18249D01*
X73583Y-18833D01*
X76499D01*
X73000Y-19999D02*
Y-21165D01*
Y-20582D01*
X76499D01*
X75916Y-19999D01*
Y-22915D02*
X76499Y-23498D01*
Y-24664D01*
X75916Y-25247D01*
X73583D01*
X73000Y-24664D01*
Y-23498D01*
X73583Y-22915D01*
X75916D01*
X73000Y-28746D02*
Y-26414D01*
X75333Y-28746D01*
X75916D01*
X76499Y-28163D01*
Y-26997D01*
X75916Y-26414D01*
D48*
X129921Y-725000D02*
D03*
X11811D02*
D03*
X129921Y-11811D02*
D03*
X11811D02*
D03*
D49*
X135000Y-695000D02*
D03*
X6000D02*
D03*
X135000Y-610000D02*
D03*
X6000D02*
D03*
X135000Y-525000D02*
D03*
X6000Y-526000D02*
D03*
X135000Y-440000D02*
D03*
X6000D02*
D03*
X32000Y-672013D02*
D03*
Y-658000D02*
D03*
X56000D02*
D03*
X46000Y-672013D02*
D03*
X32000Y-587000D02*
D03*
Y-573000D02*
D03*
X56000D02*
D03*
X46000Y-587000D02*
D03*
X32000Y-502000D02*
D03*
Y-488000D02*
D03*
X56000D02*
D03*
X46476Y-502000D02*
D03*
X32000Y-417000D02*
D03*
Y-403000D02*
D03*
X56000D02*
D03*
X46000Y-417000D02*
D03*
X135000Y-355000D02*
D03*
X7000D02*
D03*
X134000Y-275000D02*
D03*
X6000D02*
D03*
X134000Y-195000D02*
D03*
X6000D02*
D03*
X29000Y-12000D02*
D03*
X6000Y-117000D02*
D03*
X32000Y-81000D02*
D03*
Y-95000D02*
D03*
X56476Y-81000D02*
D03*
X46476Y-95000D02*
D03*
X135000Y-117000D02*
D03*
X32000Y-159000D02*
D03*
Y-239000D02*
D03*
Y-318000D02*
D03*
Y-173000D02*
D03*
Y-253000D02*
D03*
Y-332000D02*
D03*
X56476Y-159000D02*
D03*
X56000Y-239000D02*
D03*
Y-318000D02*
D03*
X46476Y-173000D02*
D03*
X46000Y-253000D02*
D03*
Y-332000D02*
D03*
D50*
X135000Y-705000D02*
D03*
X6000D02*
D03*
X135000Y-620000D02*
D03*
X6000D02*
D03*
X135000Y-535000D02*
D03*
X6000Y-536000D02*
D03*
X135000Y-450000D02*
D03*
X6000D02*
D03*
X135000Y-365000D02*
D03*
X7000D02*
D03*
X134000Y-285000D02*
D03*
X6000D02*
D03*
X134000Y-205000D02*
D03*
X6000D02*
D03*
Y-127000D02*
D03*
X135000D02*
D03*
D51*
X22000Y-672013D02*
D03*
Y-658000D02*
D03*
X46000D02*
D03*
X56000Y-672013D02*
D03*
X22000Y-587000D02*
D03*
Y-573000D02*
D03*
X46000D02*
D03*
X56000Y-587000D02*
D03*
X22000Y-502000D02*
D03*
Y-488000D02*
D03*
X46000D02*
D03*
X56476Y-502000D02*
D03*
X22000Y-417000D02*
D03*
Y-403000D02*
D03*
X46000D02*
D03*
X56000Y-417000D02*
D03*
X39000Y-12000D02*
D03*
X22000Y-81000D02*
D03*
Y-95000D02*
D03*
X46476Y-81000D02*
D03*
X56476Y-95000D02*
D03*
X22000Y-159000D02*
D03*
Y-239000D02*
D03*
Y-318000D02*
D03*
Y-173000D02*
D03*
Y-253000D02*
D03*
Y-332000D02*
D03*
X46476Y-159000D02*
D03*
X46000Y-239000D02*
D03*
Y-318000D02*
D03*
X56476Y-173000D02*
D03*
X56000Y-253000D02*
D03*
Y-332000D02*
D03*
D52*
X30000Y-725000D02*
D03*
X136000Y-593000D02*
D03*
X30000Y-716000D02*
D03*
X40000Y-683000D02*
D03*
X54000Y-716000D02*
D03*
X47000Y-723000D02*
D03*
X72000Y-725000D02*
D03*
X110000Y-706000D02*
D03*
X119072Y-720500D02*
D03*
X137000Y-675000D02*
D03*
X118000Y-695000D02*
D03*
X107000Y-682000D02*
D03*
X68000Y-692000D02*
D03*
X69000Y-608000D02*
D03*
X20000Y-637000D02*
D03*
X57000Y-602000D02*
D03*
X133000Y-639000D02*
D03*
X109000Y-637000D02*
D03*
X117000Y-612063D02*
D03*
X102000Y-599000D02*
D03*
X55000Y-632000D02*
D03*
X48000Y-640000D02*
D03*
X39000Y-515000D02*
D03*
X68000Y-555000D02*
D03*
X136000Y-554000D02*
D03*
X109000Y-552000D02*
D03*
X137000Y-505000D02*
D03*
X135000Y-511000D02*
D03*
X118000Y-527000D02*
D03*
X103000Y-513000D02*
D03*
X70000Y-522000D02*
D03*
X56000Y-549000D02*
D03*
X49000Y-554000D02*
D03*
X6000Y-553000D02*
D03*
X48000Y-469000D02*
D03*
X19000Y-468000D02*
D03*
X64000Y-471000D02*
D03*
X133000D02*
D03*
X110000Y-468000D02*
D03*
X106000Y-452000D02*
D03*
X88063Y-428276D02*
D03*
X131000Y-430000D02*
D03*
X135000Y-420000D02*
D03*
X71000Y-437000D02*
D03*
X55000Y-462000D02*
D03*
X117000Y-440000D02*
D03*
X105740Y-427000D02*
D03*
X107000Y-384000D02*
D03*
X136000D02*
D03*
X103000Y-342000D02*
D03*
X117000Y-355000D02*
D03*
X56748Y-378000D02*
D03*
X48000Y-386000D02*
D03*
X72000Y-352000D02*
D03*
X137000Y-335000D02*
D03*
X136000Y-256000D02*
D03*
X111000Y-299000D02*
D03*
X134000Y-300000D02*
D03*
X117000Y-276000D02*
D03*
X106000Y-262000D02*
D03*
X73000Y-269000D02*
D03*
X50000Y-298000D02*
D03*
X57748Y-292000D02*
D03*
X67000Y-300000D02*
D03*
X21000Y-298000D02*
D03*
X23000Y-216000D02*
D03*
X71000Y-187000D02*
D03*
X135000Y-143000D02*
D03*
X61000Y-220000D02*
D03*
X110000Y-219000D02*
D03*
X136000Y-222000D02*
D03*
X135000Y-182000D02*
D03*
Y-176000D02*
D03*
X105740Y-183000D02*
D03*
X119000Y-195000D02*
D03*
X50000Y-218000D02*
D03*
X56748Y-212000D02*
D03*
X99000Y-72000D02*
D03*
X126000Y-73000D02*
D03*
X105000Y-140000D02*
D03*
X64000D02*
D03*
X22000D02*
D03*
X9000Y-89000D02*
D03*
X28000Y-59000D02*
D03*
X13000Y-38000D02*
D03*
X131000Y-46000D02*
D03*
X116000Y-27000D02*
D03*
X85000Y-6000D02*
D03*
X105740Y-105000D02*
D03*
X94000Y-58000D02*
D03*
X38000Y-40000D02*
D03*
X44000Y-38000D02*
D03*
X95874Y-46000D02*
D03*
X93000Y-53000D02*
D03*
X51000Y-141000D02*
D03*
X56000Y-131000D02*
D03*
X117000Y-119000D02*
D03*
X133000Y-98000D02*
D03*
X71000Y-109000D02*
D03*
D53*
X123063Y-678000D02*
D03*
X124000Y-649000D02*
D03*
X122000Y-629000D02*
D03*
X87000Y-694000D02*
D03*
X96874D02*
D03*
X82000Y-634000D02*
D03*
X80937Y-642000D02*
D03*
X82000Y-704500D02*
D03*
X122000Y-510000D02*
D03*
X125063Y-539063D02*
D03*
Y-557000D02*
D03*
X122000Y-595000D02*
D03*
X87000Y-612000D02*
D03*
X94000Y-612063D02*
D03*
X83000Y-546500D02*
D03*
X80000Y-558000D02*
D03*
X81000Y-620500D02*
D03*
Y-474000D02*
D03*
Y-467000D02*
D03*
X80937Y-535937D02*
D03*
X86000Y-527000D02*
D03*
X94000D02*
D03*
X88000Y-440000D02*
D03*
X95000Y-441000D02*
D03*
X81937Y-451000D02*
D03*
X82000Y-389000D02*
D03*
Y-380000D02*
D03*
X122000Y-477000D02*
D03*
X124000Y-456500D02*
D03*
Y-424000D02*
D03*
X121000Y-393000D02*
D03*
Y-374000D02*
D03*
X125677Y-339677D02*
D03*
X88000Y-353000D02*
D03*
X94063Y-355063D02*
D03*
X85000Y-365000D02*
D03*
X86000Y-303000D02*
D03*
Y-292000D02*
D03*
X90000Y-272000D02*
D03*
X86000Y-278000D02*
D03*
X97000Y-276000D02*
D03*
X121000Y-308000D02*
D03*
Y-294000D02*
D03*
X125000Y-257000D02*
D03*
Y-231000D02*
D03*
X122000Y-212000D02*
D03*
X123000Y-132000D02*
D03*
X86000Y-225000D02*
D03*
X125000Y-182000D02*
D03*
Y-150000D02*
D03*
X97000Y-197000D02*
D03*
X90000Y-186339D02*
D03*
X86000Y-218000D02*
D03*
Y-194000D02*
D03*
X88000Y-117000D02*
D03*
X96000Y-118000D02*
D03*
X82874Y-117126D02*
D03*
X119740Y-102260D02*
D03*
X62000Y-63000D02*
D03*
X104000Y-65000D02*
D03*
X83000Y-133000D02*
D03*
Y-144000D02*
D03*
D54*
X133937Y-675000D02*
D03*
X126063D02*
D03*
X78437Y-691000D02*
D03*
X70563D02*
D03*
X133858Y-594000D02*
D03*
X125984D02*
D03*
X79937Y-607000D02*
D03*
X72063D02*
D03*
X133858Y-508000D02*
D03*
X125984D02*
D03*
X80689Y-524000D02*
D03*
X72815D02*
D03*
X132937Y-422000D02*
D03*
X125063D02*
D03*
X80937Y-439000D02*
D03*
X73063D02*
D03*
X125984Y-255000D02*
D03*
X133858D02*
D03*
X126063Y-336000D02*
D03*
X133937D02*
D03*
X74063Y-353000D02*
D03*
X81937D02*
D03*
X75063Y-269000D02*
D03*
X82937D02*
D03*
X74063Y-188000D02*
D03*
X81937D02*
D03*
X125063Y-178000D02*
D03*
X132937D02*
D03*
X123063Y-100000D02*
D03*
X130937D02*
D03*
X74063Y-109000D02*
D03*
X81937D02*
D03*
M02*
