G04 Layer_Color=8421504*
%FSLAX25Y25*%
%MOIN*%
G70*
G01*
G75*
G04:AMPARAMS|DCode=10|XSize=23.62mil|YSize=39.37mil|CornerRadius=2.01mil|HoleSize=0mil|Usage=FLASHONLY|Rotation=0.000|XOffset=0mil|YOffset=0mil|HoleType=Round|Shape=RoundedRectangle|*
%AMROUNDEDRECTD10*
21,1,0.02362,0.03535,0,0,0.0*
21,1,0.01961,0.03937,0,0,0.0*
1,1,0.00402,0.00980,-0.01768*
1,1,0.00402,-0.00980,-0.01768*
1,1,0.00402,-0.00980,0.01768*
1,1,0.00402,0.00980,0.01768*
%
%ADD10ROUNDEDRECTD10*%
%ADD11R,0.03937X0.05512*%
%ADD12R,0.04724X0.05709*%
%ADD13R,0.05709X0.04724*%
%ADD14O,0.07480X0.02362*%
%ADD15R,0.07874X0.04724*%
G04:AMPARAMS|DCode=16|XSize=39.37mil|YSize=80.71mil|CornerRadius=1.97mil|HoleSize=0mil|Usage=FLASHONLY|Rotation=0.000|XOffset=0mil|YOffset=0mil|HoleType=Round|Shape=RoundedRectangle|*
%AMROUNDEDRECTD16*
21,1,0.03937,0.07677,0,0,0.0*
21,1,0.03543,0.08071,0,0,0.0*
1,1,0.00394,0.01772,-0.03839*
1,1,0.00394,-0.01772,-0.03839*
1,1,0.00394,-0.01772,0.03839*
1,1,0.00394,0.01772,0.03839*
%
%ADD16ROUNDEDRECTD16*%
G04:AMPARAMS|DCode=17|XSize=127.95mil|YSize=80.71mil|CornerRadius=2.02mil|HoleSize=0mil|Usage=FLASHONLY|Rotation=0.000|XOffset=0mil|YOffset=0mil|HoleType=Round|Shape=RoundedRectangle|*
%AMROUNDEDRECTD17*
21,1,0.12795,0.07667,0,0,0.0*
21,1,0.12392,0.08071,0,0,0.0*
1,1,0.00404,0.06196,-0.03834*
1,1,0.00404,-0.06196,-0.03834*
1,1,0.00404,-0.06196,0.03834*
1,1,0.00404,0.06196,0.03834*
%
%ADD17ROUNDEDRECTD17*%
%ADD18R,0.03740X0.06693*%
%ADD19R,0.06693X0.03740*%
%ADD22C,0.01000*%
%ADD23C,0.00800*%
D10*
X122740Y-683551D02*
D03*
X115260D02*
D03*
X119000Y-693000D02*
D03*
X120740Y-600276D02*
D03*
X113260D02*
D03*
X117000Y-609724D02*
D03*
X121740Y-515276D02*
D03*
X114260D02*
D03*
X118000Y-524724D02*
D03*
X119740Y-428276D02*
D03*
X112260D02*
D03*
X116000Y-437724D02*
D03*
X117000Y-352724D02*
D03*
X113260Y-343276D02*
D03*
X120740D02*
D03*
X118000Y-193724D02*
D03*
X114260Y-184276D02*
D03*
X121740D02*
D03*
X117000Y-273724D02*
D03*
X113260Y-264276D02*
D03*
X120740D02*
D03*
X116000Y-116724D02*
D03*
X112260Y-107276D02*
D03*
X119740D02*
D03*
D11*
X105740Y-684669D02*
D03*
X98260D02*
D03*
X102000Y-693331D02*
D03*
X101740Y-601669D02*
D03*
X94260D02*
D03*
X98000Y-610331D02*
D03*
X101740Y-515669D02*
D03*
X94260D02*
D03*
X98000Y-524331D02*
D03*
X103740Y-429339D02*
D03*
X96260D02*
D03*
X100000Y-438000D02*
D03*
Y-353000D02*
D03*
X96260Y-344339D02*
D03*
X103740D02*
D03*
X101000Y-273331D02*
D03*
X97260Y-264669D02*
D03*
X104740D02*
D03*
X101000Y-195000D02*
D03*
X97260Y-186339D02*
D03*
X104740D02*
D03*
X100000Y-116331D02*
D03*
X96260Y-107669D02*
D03*
X103740D02*
D03*
D12*
X96874Y-712000D02*
D03*
X89000D02*
D03*
X95937Y-627000D02*
D03*
X88063D02*
D03*
X96937Y-541000D02*
D03*
X89063D02*
D03*
X95874Y-459000D02*
D03*
X88000D02*
D03*
X89000Y-372000D02*
D03*
X96874D02*
D03*
X94063Y-288000D02*
D03*
X101937D02*
D03*
X87063Y-206000D02*
D03*
X94937D02*
D03*
X85000Y-125000D02*
D03*
X92874D02*
D03*
D13*
X20000Y-702937D02*
D03*
Y-695063D02*
D03*
X30000Y-702937D02*
D03*
Y-695063D02*
D03*
X40000Y-702937D02*
D03*
Y-695063D02*
D03*
X47000Y-719937D02*
D03*
Y-712063D02*
D03*
X19000Y-619937D02*
D03*
Y-612063D02*
D03*
X39000Y-619937D02*
D03*
Y-612063D02*
D03*
X29000Y-619937D02*
D03*
Y-612063D02*
D03*
X47000Y-636937D02*
D03*
Y-629063D02*
D03*
X20000Y-536937D02*
D03*
Y-529063D02*
D03*
X40000Y-536937D02*
D03*
Y-529063D02*
D03*
X48000Y-550937D02*
D03*
Y-543063D02*
D03*
X30000Y-536937D02*
D03*
Y-529063D02*
D03*
Y-450937D02*
D03*
Y-443063D02*
D03*
X47000Y-466000D02*
D03*
Y-458126D02*
D03*
X40000Y-451000D02*
D03*
Y-443126D02*
D03*
X20000Y-450874D02*
D03*
Y-443000D02*
D03*
X40000Y-355063D02*
D03*
Y-362937D02*
D03*
X30000Y-355063D02*
D03*
Y-362937D02*
D03*
X20000Y-355063D02*
D03*
Y-362937D02*
D03*
X48000Y-375126D02*
D03*
Y-383000D02*
D03*
X40000Y-274063D02*
D03*
Y-281937D02*
D03*
X30000Y-274126D02*
D03*
Y-282000D02*
D03*
X20000Y-274063D02*
D03*
Y-281937D02*
D03*
X50000Y-287063D02*
D03*
Y-294937D02*
D03*
Y-208126D02*
D03*
Y-216000D02*
D03*
X40000Y-194063D02*
D03*
Y-201937D02*
D03*
X30000Y-194063D02*
D03*
Y-201937D02*
D03*
X20000Y-194126D02*
D03*
Y-202000D02*
D03*
X19000Y-117126D02*
D03*
Y-125000D02*
D03*
X49000Y-130063D02*
D03*
Y-137937D02*
D03*
X29000Y-117063D02*
D03*
Y-124937D02*
D03*
X39000Y-117063D02*
D03*
Y-124937D02*
D03*
D14*
X75252Y-714500D02*
D03*
Y-709500D02*
D03*
Y-704500D02*
D03*
Y-699500D02*
D03*
X56748Y-714500D02*
D03*
Y-709500D02*
D03*
Y-704500D02*
D03*
Y-699500D02*
D03*
X75252Y-630500D02*
D03*
Y-625500D02*
D03*
Y-620500D02*
D03*
Y-615500D02*
D03*
X56748Y-630500D02*
D03*
Y-625500D02*
D03*
Y-620500D02*
D03*
Y-615500D02*
D03*
X75252Y-546500D02*
D03*
Y-541500D02*
D03*
Y-536500D02*
D03*
Y-531500D02*
D03*
X56748Y-546500D02*
D03*
Y-541500D02*
D03*
Y-536500D02*
D03*
Y-531500D02*
D03*
X76252Y-461500D02*
D03*
Y-456500D02*
D03*
Y-451500D02*
D03*
Y-446500D02*
D03*
X57748Y-461500D02*
D03*
Y-456500D02*
D03*
Y-451500D02*
D03*
Y-446500D02*
D03*
X59748Y-275500D02*
D03*
Y-280500D02*
D03*
Y-285500D02*
D03*
Y-290500D02*
D03*
X78252Y-275500D02*
D03*
Y-280500D02*
D03*
Y-285500D02*
D03*
Y-290500D02*
D03*
X59748Y-195500D02*
D03*
Y-200500D02*
D03*
Y-205500D02*
D03*
Y-210500D02*
D03*
X78252Y-195500D02*
D03*
Y-200500D02*
D03*
Y-205500D02*
D03*
Y-210500D02*
D03*
X58248Y-114500D02*
D03*
Y-119500D02*
D03*
Y-124500D02*
D03*
Y-129500D02*
D03*
X76752Y-114500D02*
D03*
Y-119500D02*
D03*
Y-124500D02*
D03*
Y-129500D02*
D03*
X58748Y-361500D02*
D03*
Y-366500D02*
D03*
Y-371500D02*
D03*
Y-376500D02*
D03*
X77252Y-361500D02*
D03*
Y-366500D02*
D03*
Y-371500D02*
D03*
Y-376500D02*
D03*
D15*
X80476Y-46000D02*
D03*
X91500D02*
D03*
D16*
X83555Y-10500D02*
D03*
X74500D02*
D03*
X65445D02*
D03*
D17*
X74500Y-35500D02*
D03*
D18*
X80488Y-55000D02*
D03*
X91512D02*
D03*
D19*
X40000Y-26000D02*
D03*
Y-37024D02*
D03*
D22*
X0Y-736221D02*
X141732D01*
Y0D01*
X0D02*
X141732D01*
X0Y-736221D02*
Y0D01*
D23*
X76499Y-16500D02*
X73583D01*
X73000Y-17083D01*
Y-18249D01*
X73583Y-18833D01*
X76499D01*
X73000Y-19999D02*
Y-21165D01*
Y-20582D01*
X76499D01*
X75916Y-19999D01*
Y-22915D02*
X76499Y-23498D01*
Y-24664D01*
X75916Y-25247D01*
X73583D01*
X73000Y-24664D01*
Y-23498D01*
X73583Y-22915D01*
X75916D01*
X73000Y-28746D02*
Y-26414D01*
X75333Y-28746D01*
X75916D01*
X76499Y-28163D01*
Y-26997D01*
X75916Y-26414D01*
M02*
