G04 Layer_Color=65535*
%FSLAX25Y25*%
%MOIN*%
G70*
G01*
G75*
%ADD22C,0.01000*%
%ADD23C,0.00800*%
%ADD31C,0.00984*%
%ADD32C,0.01575*%
%ADD33C,0.00787*%
%ADD34C,0.01968*%
%ADD35C,0.01181*%
%ADD36C,0.00394*%
%ADD37C,0.00591*%
D22*
X0Y-736221D02*
X141732D01*
Y0D01*
X0D02*
X141732D01*
X0Y-736221D02*
Y0D01*
D23*
X112000Y-697501D02*
Y-700417D01*
X112583Y-701000D01*
X113749D01*
X114333Y-700417D01*
Y-697501D01*
X117831Y-701000D02*
X115499D01*
X117831Y-698667D01*
Y-698084D01*
X117248Y-697501D01*
X116082D01*
X115499Y-698084D01*
X118998Y-701583D02*
X121330D01*
X122497Y-697501D02*
Y-701000D01*
Y-699251D01*
X124829D01*
Y-697501D01*
Y-701000D01*
X110000Y-612501D02*
Y-615417D01*
X110583Y-616000D01*
X111749D01*
X112333Y-615417D01*
Y-612501D01*
X115831Y-616000D02*
X113499D01*
X115831Y-613667D01*
Y-613084D01*
X115248Y-612501D01*
X114082D01*
X113499Y-613084D01*
X116998Y-616583D02*
X119330D01*
X122829Y-613084D02*
X122246Y-612501D01*
X121080D01*
X120497Y-613084D01*
Y-615417D01*
X121080Y-616000D01*
X122246D01*
X122829Y-615417D01*
Y-614251D01*
X121663D01*
X112260Y-528501D02*
Y-531417D01*
X112843Y-532000D01*
X114009D01*
X114592Y-531417D01*
Y-528501D01*
X118091Y-532000D02*
X115759D01*
X118091Y-529667D01*
Y-529084D01*
X117508Y-528501D01*
X116342D01*
X115759Y-529084D01*
X119258Y-532583D02*
X121590D01*
X125089Y-528501D02*
X122757D01*
Y-530251D01*
X123923D01*
X122757D01*
Y-532000D01*
X110000Y-441501D02*
Y-444417D01*
X110583Y-445000D01*
X111749D01*
X112333Y-444417D01*
Y-441501D01*
X115831Y-445000D02*
X113499D01*
X115831Y-442667D01*
Y-442084D01*
X115248Y-441501D01*
X114082D01*
X113499Y-442084D01*
X116998Y-445583D02*
X119330D01*
X122829Y-441501D02*
X120497D01*
Y-445000D01*
X122829D01*
X120497Y-443251D02*
X121663D01*
X53000Y-690501D02*
Y-693417D01*
X53583Y-694000D01*
X54749D01*
X55333Y-693417D01*
Y-690501D01*
X56499Y-694000D02*
X57665D01*
X57082D01*
Y-690501D01*
X56499Y-691084D01*
X59415Y-694583D02*
X61747D01*
X62914Y-690501D02*
Y-694000D01*
Y-692251D01*
X65246D01*
Y-690501D01*
Y-694000D01*
X53000Y-606501D02*
Y-609417D01*
X53583Y-610000D01*
X54749D01*
X55333Y-609417D01*
Y-606501D01*
X56499Y-610000D02*
X57665D01*
X57082D01*
Y-606501D01*
X56499Y-607084D01*
X59415Y-610583D02*
X61747D01*
X65246Y-607084D02*
X64663Y-606501D01*
X63497D01*
X62914Y-607084D01*
Y-609417D01*
X63497Y-610000D01*
X64663D01*
X65246Y-609417D01*
Y-608251D01*
X64080D01*
X54000Y-522501D02*
Y-525417D01*
X54583Y-526000D01*
X55749D01*
X56333Y-525417D01*
Y-522501D01*
X57499Y-526000D02*
X58665D01*
X58082D01*
Y-522501D01*
X57499Y-523084D01*
X60415Y-526583D02*
X62747D01*
X66246Y-522501D02*
X63914D01*
Y-524251D01*
X65080D01*
X63914D01*
Y-526000D01*
X54000Y-437501D02*
Y-440417D01*
X54583Y-441000D01*
X55749D01*
X56333Y-440417D01*
Y-437501D01*
X57499Y-441000D02*
X58665D01*
X58082D01*
Y-437501D01*
X57499Y-438084D01*
X60415Y-441583D02*
X62747D01*
X66246Y-437501D02*
X63914D01*
Y-441000D01*
X66246D01*
X63914Y-439251D02*
X65080D01*
X88937Y-722000D02*
Y-718501D01*
X90686D01*
X91270Y-719084D01*
Y-720251D01*
X90686Y-720834D01*
X88937D01*
X90103D02*
X91270Y-722000D01*
X94769Y-718501D02*
X92436D01*
Y-720251D01*
X93602Y-719667D01*
X94185D01*
X94769Y-720251D01*
Y-721417D01*
X94185Y-722000D01*
X93019D01*
X92436Y-721417D01*
X95935Y-722583D02*
X98267D01*
X99434Y-718501D02*
Y-722000D01*
Y-720251D01*
X101766D01*
Y-718501D01*
Y-722000D01*
X86937Y-637000D02*
Y-633501D01*
X88686D01*
X89270Y-634084D01*
Y-635251D01*
X88686Y-635834D01*
X86937D01*
X88103D02*
X89270Y-637000D01*
X92769Y-633501D02*
X90436D01*
Y-635251D01*
X91602Y-634667D01*
X92185D01*
X92769Y-635251D01*
Y-636417D01*
X92185Y-637000D01*
X91019D01*
X90436Y-636417D01*
X93935Y-637583D02*
X96267D01*
X99766Y-634084D02*
X99183Y-633501D01*
X98017D01*
X97434Y-634084D01*
Y-636417D01*
X98017Y-637000D01*
X99183D01*
X99766Y-636417D01*
Y-635251D01*
X98600D01*
X88000Y-549000D02*
Y-545501D01*
X89749D01*
X90333Y-546084D01*
Y-547251D01*
X89749Y-547834D01*
X88000D01*
X89166D02*
X90333Y-549000D01*
X93831Y-545501D02*
X91499D01*
Y-547251D01*
X92665Y-546667D01*
X93248D01*
X93831Y-547251D01*
Y-548417D01*
X93248Y-549000D01*
X92082D01*
X91499Y-548417D01*
X94998Y-549583D02*
X97330D01*
X100829Y-545501D02*
X98497D01*
Y-547251D01*
X99663D01*
X98497D01*
Y-549000D01*
X85937Y-468000D02*
Y-464501D01*
X87686D01*
X88270Y-465084D01*
Y-466251D01*
X87686Y-466834D01*
X85937D01*
X87103D02*
X88270Y-468000D01*
X91768Y-464501D02*
X89436D01*
Y-466251D01*
X90602Y-465667D01*
X91185D01*
X91768Y-466251D01*
Y-467417D01*
X91185Y-468000D01*
X90019D01*
X89436Y-467417D01*
X92935Y-468583D02*
X95267D01*
X98766Y-464501D02*
X96434D01*
Y-468000D01*
X98766D01*
X96434Y-466251D02*
X97600D01*
X33000Y-689000D02*
Y-685501D01*
X34749D01*
X35333Y-686084D01*
Y-687251D01*
X34749Y-687834D01*
X33000D01*
X34166D02*
X35333Y-689000D01*
X38248D02*
Y-685501D01*
X36499Y-687251D01*
X38831D01*
X39998Y-689583D02*
X42330D01*
X43497Y-685501D02*
Y-689000D01*
Y-687251D01*
X45829D01*
Y-685501D01*
Y-689000D01*
X32000Y-606000D02*
Y-602501D01*
X33749D01*
X34333Y-603084D01*
Y-604251D01*
X33749Y-604834D01*
X32000D01*
X33166D02*
X34333Y-606000D01*
X37248D02*
Y-602501D01*
X35499Y-604251D01*
X37832D01*
X38998Y-606583D02*
X41330D01*
X44829Y-603084D02*
X44246Y-602501D01*
X43080D01*
X42497Y-603084D01*
Y-605417D01*
X43080Y-606000D01*
X44246D01*
X44829Y-605417D01*
Y-604251D01*
X43663D01*
X35000Y-523000D02*
Y-519501D01*
X36749D01*
X37333Y-520084D01*
Y-521251D01*
X36749Y-521834D01*
X35000D01*
X36166D02*
X37333Y-523000D01*
X40248D02*
Y-519501D01*
X38499Y-521251D01*
X40832D01*
X41998Y-523583D02*
X44330D01*
X47829Y-519501D02*
X45497D01*
Y-521251D01*
X46663D01*
X45497D01*
Y-523000D01*
X35800Y-435363D02*
Y-431864D01*
X37549D01*
X38133Y-432447D01*
Y-433614D01*
X37549Y-434197D01*
X35800D01*
X36966D02*
X38133Y-435363D01*
X41048D02*
Y-431864D01*
X39299Y-433614D01*
X41631D01*
X42798Y-435946D02*
X45130D01*
X48629Y-431864D02*
X46297D01*
Y-435363D01*
X48629D01*
X46297Y-433614D02*
X47463D01*
X23000Y-709937D02*
Y-706438D01*
X24749D01*
X25333Y-707021D01*
Y-708188D01*
X24749Y-708771D01*
X23000D01*
X24166D02*
X25333Y-709937D01*
X26499Y-707021D02*
X27082Y-706438D01*
X28248D01*
X28831Y-707021D01*
Y-707604D01*
X28248Y-708188D01*
X27665D01*
X28248D01*
X28831Y-708771D01*
Y-709354D01*
X28248Y-709937D01*
X27082D01*
X26499Y-709354D01*
X29998Y-710520D02*
X32330D01*
X33497Y-706438D02*
Y-709937D01*
Y-708188D01*
X35829D01*
Y-706438D01*
Y-709937D01*
X22000Y-629063D02*
Y-625564D01*
X23749D01*
X24333Y-626147D01*
Y-627314D01*
X23749Y-627897D01*
X22000D01*
X23166D02*
X24333Y-629063D01*
X25499Y-626147D02*
X26082Y-625564D01*
X27248D01*
X27832Y-626147D01*
Y-626730D01*
X27248Y-627314D01*
X26665D01*
X27248D01*
X27832Y-627897D01*
Y-628480D01*
X27248Y-629063D01*
X26082D01*
X25499Y-628480D01*
X28998Y-629646D02*
X31330D01*
X34829Y-626147D02*
X34246Y-625564D01*
X33080D01*
X32497Y-626147D01*
Y-628480D01*
X33080Y-629063D01*
X34246D01*
X34829Y-628480D01*
Y-627314D01*
X33663D01*
X23000Y-545000D02*
Y-541501D01*
X24749D01*
X25333Y-542084D01*
Y-543251D01*
X24749Y-543834D01*
X23000D01*
X24166D02*
X25333Y-545000D01*
X26499Y-542084D02*
X27082Y-541501D01*
X28248D01*
X28831Y-542084D01*
Y-542667D01*
X28248Y-543251D01*
X27665D01*
X28248D01*
X28831Y-543834D01*
Y-544417D01*
X28248Y-545000D01*
X27082D01*
X26499Y-544417D01*
X29998Y-545583D02*
X32330D01*
X35829Y-541501D02*
X33497D01*
Y-543251D01*
X34663D01*
X33497D01*
Y-545000D01*
X22000Y-460000D02*
Y-456501D01*
X23749D01*
X24333Y-457084D01*
Y-458251D01*
X23749Y-458834D01*
X22000D01*
X23166D02*
X24333Y-460000D01*
X25499Y-457084D02*
X26082Y-456501D01*
X27248D01*
X27832Y-457084D01*
Y-457667D01*
X27248Y-458251D01*
X26665D01*
X27248D01*
X27832Y-458834D01*
Y-459417D01*
X27248Y-460000D01*
X26082D01*
X25499Y-459417D01*
X28998Y-460583D02*
X31330D01*
X34829Y-456501D02*
X32497D01*
Y-460000D01*
X34829D01*
X32497Y-458251D02*
X33663D01*
X41000Y-724000D02*
X37501D01*
Y-722251D01*
X38084Y-721667D01*
X39251D01*
X39834Y-722251D01*
Y-724000D01*
Y-722834D02*
X41000Y-721667D01*
Y-718168D02*
Y-720501D01*
X38667Y-718168D01*
X38084D01*
X37501Y-718752D01*
Y-719918D01*
X38084Y-720501D01*
X41583Y-717002D02*
Y-714670D01*
X37501Y-713503D02*
X41000D01*
X39251D01*
Y-711171D01*
X37501D01*
X41000D01*
Y-639000D02*
X37501D01*
Y-637251D01*
X38084Y-636667D01*
X39251D01*
X39834Y-637251D01*
Y-639000D01*
Y-637834D02*
X41000Y-636667D01*
Y-633169D02*
Y-635501D01*
X38667Y-633169D01*
X38084D01*
X37501Y-633752D01*
Y-634918D01*
X38084Y-635501D01*
X41583Y-632002D02*
Y-629670D01*
X38084Y-626171D02*
X37501Y-626754D01*
Y-627920D01*
X38084Y-628503D01*
X40417D01*
X41000Y-627920D01*
Y-626754D01*
X40417Y-626171D01*
X39251D01*
Y-627337D01*
X42000Y-557000D02*
X38501D01*
Y-555251D01*
X39084Y-554667D01*
X40251D01*
X40834Y-555251D01*
Y-557000D01*
Y-555834D02*
X42000Y-554667D01*
Y-551168D02*
Y-553501D01*
X39667Y-551168D01*
X39084D01*
X38501Y-551752D01*
Y-552918D01*
X39084Y-553501D01*
X42583Y-550002D02*
Y-547670D01*
X38501Y-544171D02*
Y-546503D01*
X40251D01*
Y-545337D01*
Y-546503D01*
X42000D01*
X41000Y-470063D02*
X37501D01*
Y-468314D01*
X38084Y-467730D01*
X39251D01*
X39834Y-468314D01*
Y-470063D01*
Y-468897D02*
X41000Y-467730D01*
Y-464231D02*
Y-466564D01*
X38667Y-464231D01*
X38084D01*
X37501Y-464815D01*
Y-465981D01*
X38084Y-466564D01*
X41583Y-463065D02*
Y-460733D01*
X37501Y-457234D02*
Y-459566D01*
X41000D01*
Y-457234D01*
X39251Y-459566D02*
Y-458400D01*
X14000Y-690000D02*
Y-686501D01*
X15749D01*
X16333Y-687084D01*
Y-688251D01*
X15749Y-688834D01*
X14000D01*
X15166D02*
X16333Y-690000D01*
X17499D02*
X18665D01*
X18082D01*
Y-686501D01*
X17499Y-687084D01*
X20415Y-690583D02*
X22747D01*
X23913Y-686501D02*
Y-690000D01*
Y-688251D01*
X26246D01*
Y-686501D01*
Y-690000D01*
X14000Y-606000D02*
Y-602501D01*
X15749D01*
X16333Y-603084D01*
Y-604251D01*
X15749Y-604834D01*
X14000D01*
X15166D02*
X16333Y-606000D01*
X17499D02*
X18665D01*
X18082D01*
Y-602501D01*
X17499Y-603084D01*
X20415Y-606583D02*
X22747D01*
X26246Y-603084D02*
X25663Y-602501D01*
X24497D01*
X23913Y-603084D01*
Y-605417D01*
X24497Y-606000D01*
X25663D01*
X26246Y-605417D01*
Y-604251D01*
X25080D01*
X15000Y-524000D02*
Y-520501D01*
X16749D01*
X17333Y-521084D01*
Y-522251D01*
X16749Y-522834D01*
X15000D01*
X16166D02*
X17333Y-524000D01*
X18499D02*
X19665D01*
X19082D01*
Y-520501D01*
X18499Y-521084D01*
X21415Y-524583D02*
X23747D01*
X27246Y-520501D02*
X24914D01*
Y-522251D01*
X26080D01*
X24914D01*
Y-524000D01*
X15800Y-435237D02*
Y-431738D01*
X17549D01*
X18133Y-432321D01*
Y-433488D01*
X17549Y-434071D01*
X15800D01*
X16966D02*
X18133Y-435237D01*
X19299D02*
X20465D01*
X19882D01*
Y-431738D01*
X19299Y-432321D01*
X22215Y-435820D02*
X24547D01*
X28046Y-431738D02*
X25714D01*
Y-435237D01*
X28046D01*
X25714Y-433488D02*
X26880D01*
X129333Y-711501D02*
X128166D01*
X128749D01*
Y-714417D01*
X128166Y-715000D01*
X127583D01*
X127000Y-714417D01*
X130499Y-715583D02*
X132831D01*
X133998Y-711501D02*
Y-715000D01*
X135747D01*
X136330Y-714417D01*
Y-713834D01*
X135747Y-713251D01*
X133998D01*
X135747D01*
X136330Y-712667D01*
Y-712084D01*
X135747Y-711501D01*
X133998D01*
X137497Y-712084D02*
X138080Y-711501D01*
X139246D01*
X139829Y-712084D01*
Y-712667D01*
X139246Y-713251D01*
X139829Y-713834D01*
Y-714417D01*
X139246Y-715000D01*
X138080D01*
X137497Y-714417D01*
Y-713834D01*
X138080Y-713251D01*
X137497Y-712667D01*
Y-712084D01*
X138080Y-713251D02*
X139246D01*
X128396Y-626501D02*
X127229D01*
X127812D01*
Y-629417D01*
X127229Y-630000D01*
X126646D01*
X126063Y-629417D01*
X129562Y-630583D02*
X131894D01*
X133061Y-626501D02*
Y-630000D01*
X134810D01*
X135393Y-629417D01*
Y-628834D01*
X134810Y-628251D01*
X133061D01*
X134810D01*
X135393Y-627667D01*
Y-627084D01*
X134810Y-626501D01*
X133061D01*
X136560D02*
X138892D01*
Y-627084D01*
X136560Y-629417D01*
Y-630000D01*
X128396Y-542501D02*
X127229D01*
X127812D01*
Y-545417D01*
X127229Y-546000D01*
X126646D01*
X126063Y-545417D01*
X129562Y-546583D02*
X131894D01*
X133061Y-542501D02*
Y-546000D01*
X134810D01*
X135393Y-545417D01*
Y-544834D01*
X134810Y-544251D01*
X133061D01*
X134810D01*
X135393Y-543667D01*
Y-543084D01*
X134810Y-542501D01*
X133061D01*
X138892D02*
X137726Y-543084D01*
X136560Y-544251D01*
Y-545417D01*
X137143Y-546000D01*
X138309D01*
X138892Y-545417D01*
Y-544834D01*
X138309Y-544251D01*
X136560D01*
X128396Y-456501D02*
X127229D01*
X127812D01*
Y-459417D01*
X127229Y-460000D01*
X126646D01*
X126063Y-459417D01*
X129562Y-460583D02*
X131894D01*
X133061Y-456501D02*
Y-460000D01*
X134810D01*
X135393Y-459417D01*
Y-458834D01*
X134810Y-458251D01*
X133061D01*
X134810D01*
X135393Y-457667D01*
Y-457084D01*
X134810Y-456501D01*
X133061D01*
X138892D02*
X136560D01*
Y-458251D01*
X137726Y-457667D01*
X138309D01*
X138892Y-458251D01*
Y-459417D01*
X138309Y-460000D01*
X137143D01*
X136560Y-459417D01*
X3333Y-711501D02*
X2166D01*
X2749D01*
Y-714417D01*
X2166Y-715000D01*
X1583D01*
X1000Y-714417D01*
X4499Y-715583D02*
X6831D01*
X7998Y-715000D02*
Y-712667D01*
X9164Y-711501D01*
X10330Y-712667D01*
Y-715000D01*
Y-713251D01*
X7998D01*
X11497Y-712084D02*
X12080Y-711501D01*
X13246D01*
X13829Y-712084D01*
Y-712667D01*
X13246Y-713251D01*
X13829Y-713834D01*
Y-714417D01*
X13246Y-715000D01*
X12080D01*
X11497Y-714417D01*
Y-713834D01*
X12080Y-713251D01*
X11497Y-712667D01*
Y-712084D01*
X12080Y-713251D02*
X13246D01*
X4333Y-626501D02*
X3166D01*
X3749D01*
Y-629417D01*
X3166Y-630000D01*
X2583D01*
X2000Y-629417D01*
X5499Y-630583D02*
X7831D01*
X8998Y-630000D02*
Y-627667D01*
X10164Y-626501D01*
X11330Y-627667D01*
Y-630000D01*
Y-628251D01*
X8998D01*
X12497Y-626501D02*
X14829D01*
Y-627084D01*
X12497Y-629417D01*
Y-630000D01*
X4333Y-542501D02*
X3166D01*
X3749D01*
Y-545417D01*
X3166Y-546000D01*
X2583D01*
X2000Y-545417D01*
X5499Y-546583D02*
X7831D01*
X8998Y-546000D02*
Y-543667D01*
X10164Y-542501D01*
X11330Y-543667D01*
Y-546000D01*
Y-544251D01*
X8998D01*
X14829Y-542501D02*
X13663Y-543084D01*
X12497Y-544251D01*
Y-545417D01*
X13080Y-546000D01*
X14246D01*
X14829Y-545417D01*
Y-544834D01*
X14246Y-544251D01*
X12497D01*
X4333Y-456501D02*
X3166D01*
X3749D01*
Y-459417D01*
X3166Y-460000D01*
X2583D01*
X2000Y-459417D01*
X5499Y-460583D02*
X7831D01*
X8998Y-460000D02*
Y-457667D01*
X10164Y-456501D01*
X11330Y-457667D01*
Y-460000D01*
Y-458251D01*
X8998D01*
X14829Y-456501D02*
X12497D01*
Y-458251D01*
X13663Y-457667D01*
X14246D01*
X14829Y-458251D01*
Y-459417D01*
X14246Y-460000D01*
X13080D01*
X12497Y-459417D01*
X95874Y-697501D02*
Y-701000D01*
X97623D01*
X98207Y-700417D01*
Y-698084D01*
X97623Y-697501D01*
X95874D01*
X99373Y-701000D02*
X100539D01*
X99956D01*
Y-697501D01*
X99373Y-698084D01*
X102289Y-701583D02*
X104621D01*
X105788Y-697501D02*
Y-701000D01*
Y-699251D01*
X108120D01*
Y-697501D01*
Y-701000D01*
X92000Y-614501D02*
Y-618000D01*
X93749D01*
X94333Y-617417D01*
Y-615084D01*
X93749Y-614501D01*
X92000D01*
X95499Y-618000D02*
X96665D01*
X96082D01*
Y-614501D01*
X95499Y-615084D01*
X98415Y-618583D02*
X100747D01*
X104246Y-615084D02*
X103663Y-614501D01*
X102497D01*
X101913Y-615084D01*
Y-617417D01*
X102497Y-618000D01*
X103663D01*
X104246Y-617417D01*
Y-616251D01*
X103080D01*
X95874Y-528501D02*
Y-532000D01*
X97623D01*
X98207Y-531417D01*
Y-529084D01*
X97623Y-528501D01*
X95874D01*
X99373Y-532000D02*
X100539D01*
X99956D01*
Y-528501D01*
X99373Y-529084D01*
X102289Y-532583D02*
X104621D01*
X108120Y-528501D02*
X105788D01*
Y-530251D01*
X106954D01*
X105788D01*
Y-532000D01*
X94000Y-443170D02*
Y-446669D01*
X95749D01*
X96333Y-446086D01*
Y-443754D01*
X95749Y-443170D01*
X94000D01*
X97499Y-446669D02*
X98665D01*
X98082D01*
Y-443170D01*
X97499Y-443754D01*
X100415Y-447252D02*
X102747D01*
X106246Y-443170D02*
X103913D01*
Y-446669D01*
X106246D01*
X103913Y-444920D02*
X105080D01*
X101333Y-44084D02*
X100749Y-43501D01*
X99583D01*
X99000Y-44084D01*
Y-46417D01*
X99583Y-47000D01*
X100749D01*
X101333Y-46417D01*
X102499Y-47000D02*
X103665D01*
X103082D01*
Y-43501D01*
X102499Y-44084D01*
X105415D02*
X105998Y-43501D01*
X107164D01*
X107747Y-44084D01*
Y-46417D01*
X107164Y-47000D01*
X105998D01*
X105415Y-46417D01*
Y-44084D01*
X108914Y-47000D02*
X110080D01*
X109497D01*
Y-43501D01*
X108914Y-44084D01*
X96260Y-120501D02*
Y-124000D01*
X98009D01*
X98592Y-123417D01*
Y-121084D01*
X98009Y-120501D01*
X96260D01*
X99759Y-124000D02*
X100925D01*
X100342D01*
Y-120501D01*
X99759Y-121084D01*
X102674Y-124583D02*
X105007D01*
X106173Y-124000D02*
Y-121667D01*
X107340Y-120501D01*
X108506Y-121667D01*
Y-124000D01*
Y-122251D01*
X106173D01*
X29333Y-1501D02*
X28166D01*
X28749D01*
Y-4417D01*
X28166Y-5000D01*
X27583D01*
X27000Y-4417D01*
X30499Y-5000D02*
X31665D01*
X31082D01*
Y-1501D01*
X30499Y-2084D01*
X33415D02*
X33998Y-1501D01*
X35164D01*
X35747Y-2084D01*
Y-4417D01*
X35164Y-5000D01*
X33998D01*
X33415Y-4417D01*
Y-2084D01*
X36913D02*
X37497Y-1501D01*
X38663D01*
X39246Y-2084D01*
Y-4417D01*
X38663Y-5000D01*
X37497D01*
X36913Y-4417D01*
Y-2084D01*
X4333Y-134501D02*
X3166D01*
X3749D01*
Y-137417D01*
X3166Y-138000D01*
X2583D01*
X2000Y-137417D01*
X5499Y-138583D02*
X7831D01*
X8998Y-138000D02*
Y-135667D01*
X10164Y-134501D01*
X11330Y-135667D01*
Y-138000D01*
Y-136251D01*
X8998D01*
X12497Y-138000D02*
X13663D01*
X13080D01*
Y-134501D01*
X12497Y-135084D01*
X14000Y-113000D02*
Y-109501D01*
X15749D01*
X16333Y-110084D01*
Y-111251D01*
X15749Y-111834D01*
X14000D01*
X15166D02*
X16333Y-113000D01*
X17499D02*
X18665D01*
X18082D01*
Y-109501D01*
X17499Y-110084D01*
X20415Y-113583D02*
X22747D01*
X23913Y-113000D02*
Y-110667D01*
X25080Y-109501D01*
X26246Y-110667D01*
Y-113000D01*
Y-111251D01*
X23913D01*
X54000Y-106501D02*
Y-109417D01*
X54583Y-110000D01*
X55749D01*
X56333Y-109417D01*
Y-106501D01*
X57499Y-110000D02*
X58665D01*
X58082D01*
Y-106501D01*
X57499Y-107084D01*
X60415Y-110583D02*
X62747D01*
X63914Y-110000D02*
Y-107667D01*
X65080Y-106501D01*
X66246Y-107667D01*
Y-110000D01*
Y-108251D01*
X63914D01*
X89501Y-20000D02*
X92417D01*
X93000Y-19417D01*
Y-18251D01*
X92417Y-17667D01*
X89501D01*
X93000Y-16501D02*
Y-15335D01*
Y-15918D01*
X89501D01*
X90084Y-16501D01*
Y-13585D02*
X89501Y-13002D01*
Y-11836D01*
X90084Y-11253D01*
X92417D01*
X93000Y-11836D01*
Y-13002D01*
X92417Y-13585D01*
X90084D01*
X93000Y-7754D02*
Y-10086D01*
X90667Y-7754D01*
X90084D01*
X89501Y-8337D01*
Y-9503D01*
X90084Y-10086D01*
X45000Y-141000D02*
X41501D01*
Y-139251D01*
X42084Y-138667D01*
X43251D01*
X43834Y-139251D01*
Y-141000D01*
Y-139834D02*
X45000Y-138667D01*
Y-135169D02*
Y-137501D01*
X42667Y-135169D01*
X42084D01*
X41501Y-135752D01*
Y-136918D01*
X42084Y-137501D01*
X45583Y-134002D02*
Y-131670D01*
X45000Y-130503D02*
X42667D01*
X41501Y-129337D01*
X42667Y-128171D01*
X45000D01*
X43251D01*
Y-130503D01*
X26000Y-133000D02*
Y-129501D01*
X27749D01*
X28333Y-130084D01*
Y-131251D01*
X27749Y-131834D01*
X26000D01*
X27166D02*
X28333Y-133000D01*
X29499Y-130084D02*
X30082Y-129501D01*
X31248D01*
X31831Y-130084D01*
Y-130667D01*
X31248Y-131251D01*
X30665D01*
X31248D01*
X31831Y-131834D01*
Y-132417D01*
X31248Y-133000D01*
X30082D01*
X29499Y-132417D01*
X32998Y-133583D02*
X35330D01*
X36497Y-133000D02*
Y-130667D01*
X37663Y-129501D01*
X38829Y-130667D01*
Y-133000D01*
Y-131251D01*
X36497D01*
X36000Y-114000D02*
Y-110501D01*
X37749D01*
X38333Y-111084D01*
Y-112251D01*
X37749Y-112834D01*
X36000D01*
X37166D02*
X38333Y-114000D01*
X41248D02*
Y-110501D01*
X39499Y-112251D01*
X41831D01*
X42998Y-114583D02*
X45330D01*
X46497Y-114000D02*
Y-111667D01*
X47663Y-110501D01*
X48829Y-111667D01*
Y-114000D01*
Y-112251D01*
X46497D01*
X86000Y-134000D02*
Y-130501D01*
X87749D01*
X88333Y-131084D01*
Y-132251D01*
X87749Y-132834D01*
X86000D01*
X87166D02*
X88333Y-134000D01*
X91831Y-130501D02*
X89499D01*
Y-132251D01*
X90665Y-131667D01*
X91248D01*
X91831Y-132251D01*
Y-133417D01*
X91248Y-134000D01*
X90082D01*
X89499Y-133417D01*
X92998Y-134583D02*
X95330D01*
X96497Y-134000D02*
Y-131667D01*
X97663Y-130501D01*
X98829Y-131667D01*
Y-134000D01*
Y-132251D01*
X96497D01*
X111000Y-121501D02*
Y-124417D01*
X111583Y-125000D01*
X112749D01*
X113333Y-124417D01*
Y-121501D01*
X116831Y-125000D02*
X114499D01*
X116831Y-122667D01*
Y-122084D01*
X116248Y-121501D01*
X115082D01*
X114499Y-122084D01*
X117998Y-125583D02*
X120330D01*
X121497Y-125000D02*
Y-122667D01*
X122663Y-121501D01*
X123829Y-122667D01*
Y-125000D01*
Y-123251D01*
X121497D01*
X127333Y-133501D02*
X126166D01*
X126749D01*
Y-136417D01*
X126166Y-137000D01*
X125583D01*
X125000Y-136417D01*
X128499Y-137583D02*
X130831D01*
X131998Y-133501D02*
Y-137000D01*
X133747D01*
X134330Y-136417D01*
Y-135834D01*
X133747Y-135251D01*
X131998D01*
X133747D01*
X134330Y-134667D01*
Y-134084D01*
X133747Y-133501D01*
X131998D01*
X135497Y-137000D02*
X136663D01*
X136080D01*
Y-133501D01*
X135497Y-134084D01*
X101333Y-53084D02*
X100749Y-52501D01*
X99583D01*
X99000Y-53084D01*
Y-55417D01*
X99583Y-56000D01*
X100749D01*
X101333Y-55417D01*
X102499Y-56000D02*
X103665D01*
X103082D01*
Y-52501D01*
X102499Y-53084D01*
X105415D02*
X105998Y-52501D01*
X107164D01*
X107747Y-53084D01*
Y-55417D01*
X107164Y-56000D01*
X105998D01*
X105415Y-55417D01*
Y-53084D01*
X111246Y-56000D02*
X108914D01*
X111246Y-53667D01*
Y-53084D01*
X110663Y-52501D01*
X109497D01*
X108914Y-53084D01*
X31916Y-27333D02*
X32499Y-26749D01*
Y-25583D01*
X31916Y-25000D01*
X29583D01*
X29000Y-25583D01*
Y-26749D01*
X29583Y-27333D01*
X29000Y-28499D02*
Y-29665D01*
Y-29082D01*
X32499D01*
X31916Y-28499D01*
Y-31415D02*
X32499Y-31998D01*
Y-33164D01*
X31916Y-33747D01*
X29583D01*
X29000Y-33164D01*
Y-31998D01*
X29583Y-31415D01*
X31916D01*
Y-34914D02*
X32499Y-35497D01*
Y-36663D01*
X31916Y-37246D01*
X29583D01*
X29000Y-36663D01*
Y-35497D01*
X29583Y-34914D01*
X31916D01*
X96000Y-198501D02*
Y-202000D01*
X97749D01*
X98333Y-201417D01*
Y-199084D01*
X97749Y-198501D01*
X96000D01*
X99499Y-202000D02*
X100665D01*
X100082D01*
Y-198501D01*
X99499Y-199084D01*
X102415Y-202583D02*
X104747D01*
X105913Y-198501D02*
Y-202000D01*
X107663D01*
X108246Y-201417D01*
Y-200834D01*
X107663Y-200251D01*
X105913D01*
X107663D01*
X108246Y-199667D01*
Y-199084D01*
X107663Y-198501D01*
X105913D01*
X95000Y-278438D02*
Y-281937D01*
X96749D01*
X97333Y-281354D01*
Y-279021D01*
X96749Y-278438D01*
X95000D01*
X98499Y-281937D02*
X99665D01*
X99082D01*
Y-278438D01*
X98499Y-279021D01*
X101415Y-282520D02*
X103747D01*
X107246Y-279021D02*
X106663Y-278438D01*
X105497D01*
X104913Y-279021D01*
Y-281354D01*
X105497Y-281937D01*
X106663D01*
X107246Y-281354D01*
X93000Y-358170D02*
Y-361669D01*
X94749D01*
X95333Y-361086D01*
Y-358754D01*
X94749Y-358170D01*
X93000D01*
X96499Y-361669D02*
X97665D01*
X97082D01*
Y-358170D01*
X96499Y-358754D01*
X99415Y-362252D02*
X101747D01*
X102913Y-358170D02*
Y-361669D01*
X104663D01*
X105246Y-361086D01*
Y-358754D01*
X104663Y-358170D01*
X102913D01*
X4333Y-211501D02*
X3166D01*
X3749D01*
Y-214417D01*
X3166Y-215000D01*
X2583D01*
X2000Y-214417D01*
X5499Y-215583D02*
X7831D01*
X8998Y-215000D02*
Y-212667D01*
X10164Y-211501D01*
X11330Y-212667D01*
Y-215000D01*
Y-213251D01*
X8998D01*
X14829Y-215000D02*
X12497D01*
X14829Y-212667D01*
Y-212084D01*
X14246Y-211501D01*
X13080D01*
X12497Y-212084D01*
X4333Y-291501D02*
X3166D01*
X3749D01*
Y-294417D01*
X3166Y-295000D01*
X2583D01*
X2000Y-294417D01*
X5499Y-295583D02*
X7831D01*
X8998Y-295000D02*
Y-292667D01*
X10164Y-291501D01*
X11330Y-292667D01*
Y-295000D01*
Y-293251D01*
X8998D01*
X12497Y-292084D02*
X13080Y-291501D01*
X14246D01*
X14829Y-292084D01*
Y-292667D01*
X14246Y-293251D01*
X13663D01*
X14246D01*
X14829Y-293834D01*
Y-294417D01*
X14246Y-295000D01*
X13080D01*
X12497Y-294417D01*
X4333Y-371501D02*
X3166D01*
X3749D01*
Y-374417D01*
X3166Y-375000D01*
X2583D01*
X2000Y-374417D01*
X5499Y-375583D02*
X7831D01*
X8998Y-375000D02*
Y-372667D01*
X10164Y-371501D01*
X11330Y-372667D01*
Y-375000D01*
Y-373251D01*
X8998D01*
X14246Y-375000D02*
Y-371501D01*
X12497Y-373251D01*
X14829D01*
X128333Y-211501D02*
X127166D01*
X127749D01*
Y-214417D01*
X127166Y-215000D01*
X126583D01*
X126000Y-214417D01*
X129499Y-215583D02*
X131831D01*
X132998Y-211501D02*
Y-215000D01*
X134747D01*
X135330Y-214417D01*
Y-213834D01*
X134747Y-213251D01*
X132998D01*
X134747D01*
X135330Y-212667D01*
Y-212084D01*
X134747Y-211501D01*
X132998D01*
X138829Y-215000D02*
X136497D01*
X138829Y-212667D01*
Y-212084D01*
X138246Y-211501D01*
X137080D01*
X136497Y-212084D01*
X129333Y-291501D02*
X128166D01*
X128749D01*
Y-294417D01*
X128166Y-295000D01*
X127583D01*
X127000Y-294417D01*
X130499Y-295583D02*
X132831D01*
X133998Y-291501D02*
Y-295000D01*
X135747D01*
X136330Y-294417D01*
Y-293834D01*
X135747Y-293251D01*
X133998D01*
X135747D01*
X136330Y-292667D01*
Y-292084D01*
X135747Y-291501D01*
X133998D01*
X137497Y-292084D02*
X138080Y-291501D01*
X139246D01*
X139829Y-292084D01*
Y-292667D01*
X139246Y-293251D01*
X138663D01*
X139246D01*
X139829Y-293834D01*
Y-294417D01*
X139246Y-295000D01*
X138080D01*
X137497Y-294417D01*
X129333Y-371501D02*
X128166D01*
X128749D01*
Y-374417D01*
X128166Y-375000D01*
X127583D01*
X127000Y-374417D01*
X130499Y-375583D02*
X132831D01*
X133998Y-371501D02*
Y-375000D01*
X135747D01*
X136330Y-374417D01*
Y-373834D01*
X135747Y-373251D01*
X133998D01*
X135747D01*
X136330Y-372667D01*
Y-372084D01*
X135747Y-371501D01*
X133998D01*
X139246Y-375000D02*
Y-371501D01*
X137497Y-373251D01*
X139829D01*
X14000Y-189063D02*
Y-185564D01*
X15749D01*
X16333Y-186147D01*
Y-187314D01*
X15749Y-187897D01*
X14000D01*
X15166D02*
X16333Y-189063D01*
X17499D02*
X18665D01*
X18082D01*
Y-185564D01*
X17499Y-186147D01*
X20415Y-189646D02*
X22747D01*
X23913Y-185564D02*
Y-189063D01*
X25663D01*
X26246Y-188480D01*
Y-187897D01*
X25663Y-187314D01*
X23913D01*
X25663D01*
X26246Y-186730D01*
Y-186147D01*
X25663Y-185564D01*
X23913D01*
X15000Y-269000D02*
Y-265501D01*
X16749D01*
X17333Y-266084D01*
Y-267251D01*
X16749Y-267834D01*
X15000D01*
X16166D02*
X17333Y-269000D01*
X18499D02*
X19665D01*
X19082D01*
Y-265501D01*
X18499Y-266084D01*
X21415Y-269583D02*
X23747D01*
X27246Y-266084D02*
X26663Y-265501D01*
X25497D01*
X24914Y-266084D01*
Y-268417D01*
X25497Y-269000D01*
X26663D01*
X27246Y-268417D01*
X14000Y-350000D02*
Y-346501D01*
X15749D01*
X16333Y-347084D01*
Y-348251D01*
X15749Y-348834D01*
X14000D01*
X15166D02*
X16333Y-350000D01*
X17499D02*
X18665D01*
X18082D01*
Y-346501D01*
X17499Y-347084D01*
X20415Y-350583D02*
X22747D01*
X23913Y-346501D02*
Y-350000D01*
X25663D01*
X26246Y-349417D01*
Y-347084D01*
X25663Y-346501D01*
X23913D01*
X45000Y-223000D02*
X41501D01*
Y-221251D01*
X42084Y-220667D01*
X43251D01*
X43834Y-221251D01*
Y-223000D01*
Y-221834D02*
X45000Y-220667D01*
Y-217169D02*
Y-219501D01*
X42667Y-217169D01*
X42084D01*
X41501Y-217752D01*
Y-218918D01*
X42084Y-219501D01*
X45583Y-216002D02*
Y-213670D01*
X41501Y-212503D02*
X45000D01*
Y-210754D01*
X44417Y-210171D01*
X43834D01*
X43251Y-210754D01*
Y-212503D01*
Y-210754D01*
X42667Y-210171D01*
X42084D01*
X41501Y-210754D01*
Y-212503D01*
X44000Y-299000D02*
X40501D01*
Y-297251D01*
X41084Y-296667D01*
X42251D01*
X42834Y-297251D01*
Y-299000D01*
Y-297834D02*
X44000Y-296667D01*
Y-293169D02*
Y-295501D01*
X41667Y-293169D01*
X41084D01*
X40501Y-293752D01*
Y-294918D01*
X41084Y-295501D01*
X44583Y-292002D02*
Y-289670D01*
X41084Y-286171D02*
X40501Y-286754D01*
Y-287920D01*
X41084Y-288503D01*
X43417D01*
X44000Y-287920D01*
Y-286754D01*
X43417Y-286171D01*
X43000Y-386063D02*
X39501D01*
Y-384314D01*
X40084Y-383730D01*
X41251D01*
X41834Y-384314D01*
Y-386063D01*
Y-384897D02*
X43000Y-383730D01*
Y-380231D02*
Y-382564D01*
X40667Y-380231D01*
X40084D01*
X39501Y-380815D01*
Y-381981D01*
X40084Y-382564D01*
X43583Y-379065D02*
Y-376733D01*
X39501Y-375566D02*
X43000D01*
Y-373817D01*
X42417Y-373234D01*
X40084D01*
X39501Y-373817D01*
Y-375566D01*
X24000Y-210000D02*
Y-206501D01*
X25749D01*
X26333Y-207084D01*
Y-208251D01*
X25749Y-208834D01*
X24000D01*
X25166D02*
X26333Y-210000D01*
X27499Y-207084D02*
X28082Y-206501D01*
X29248D01*
X29831Y-207084D01*
Y-207667D01*
X29248Y-208251D01*
X28665D01*
X29248D01*
X29831Y-208834D01*
Y-209417D01*
X29248Y-210000D01*
X28082D01*
X27499Y-209417D01*
X30998Y-210583D02*
X33330D01*
X34497Y-206501D02*
Y-210000D01*
X36246D01*
X36829Y-209417D01*
Y-208834D01*
X36246Y-208251D01*
X34497D01*
X36246D01*
X36829Y-207667D01*
Y-207084D01*
X36246Y-206501D01*
X34497D01*
X23000Y-290500D02*
Y-287001D01*
X24749D01*
X25333Y-287584D01*
Y-288751D01*
X24749Y-289334D01*
X23000D01*
X24166D02*
X25333Y-290500D01*
X26499Y-287584D02*
X27082Y-287001D01*
X28248D01*
X28831Y-287584D01*
Y-288167D01*
X28248Y-288751D01*
X27665D01*
X28248D01*
X28831Y-289334D01*
Y-289917D01*
X28248Y-290500D01*
X27082D01*
X26499Y-289917D01*
X29998Y-291083D02*
X32330D01*
X35829Y-287584D02*
X35246Y-287001D01*
X34080D01*
X33497Y-287584D01*
Y-289917D01*
X34080Y-290500D01*
X35246D01*
X35829Y-289917D01*
X23000Y-372000D02*
Y-368501D01*
X24749D01*
X25333Y-369084D01*
Y-370251D01*
X24749Y-370834D01*
X23000D01*
X24166D02*
X25333Y-372000D01*
X26499Y-369084D02*
X27082Y-368501D01*
X28248D01*
X28831Y-369084D01*
Y-369667D01*
X28248Y-370251D01*
X27665D01*
X28248D01*
X28831Y-370834D01*
Y-371417D01*
X28248Y-372000D01*
X27082D01*
X26499Y-371417D01*
X29998Y-372583D02*
X32330D01*
X33497Y-368501D02*
Y-372000D01*
X35246D01*
X35829Y-371417D01*
Y-369084D01*
X35246Y-368501D01*
X33497D01*
X36000Y-189000D02*
Y-185501D01*
X37749D01*
X38333Y-186084D01*
Y-187251D01*
X37749Y-187834D01*
X36000D01*
X37166D02*
X38333Y-189000D01*
X41248D02*
Y-185501D01*
X39499Y-187251D01*
X41831D01*
X42998Y-189583D02*
X45330D01*
X46497Y-185501D02*
Y-189000D01*
X48246D01*
X48829Y-188417D01*
Y-187834D01*
X48246Y-187251D01*
X46497D01*
X48246D01*
X48829Y-186667D01*
Y-186084D01*
X48246Y-185501D01*
X46497D01*
X34000Y-269000D02*
Y-265501D01*
X35749D01*
X36333Y-266084D01*
Y-267251D01*
X35749Y-267834D01*
X34000D01*
X35166D02*
X36333Y-269000D01*
X39248D02*
Y-265501D01*
X37499Y-267251D01*
X39832D01*
X40998Y-269583D02*
X43330D01*
X46829Y-266084D02*
X46246Y-265501D01*
X45080D01*
X44497Y-266084D01*
Y-268417D01*
X45080Y-269000D01*
X46246D01*
X46829Y-268417D01*
X34000Y-350000D02*
Y-346501D01*
X35749D01*
X36333Y-347084D01*
Y-348251D01*
X35749Y-348834D01*
X34000D01*
X35166D02*
X36333Y-350000D01*
X39248D02*
Y-346501D01*
X37499Y-348251D01*
X39832D01*
X40998Y-350583D02*
X43330D01*
X44497Y-346501D02*
Y-350000D01*
X46246D01*
X46829Y-349417D01*
Y-347084D01*
X46246Y-346501D01*
X44497D01*
X85000Y-215000D02*
Y-211501D01*
X86749D01*
X87333Y-212084D01*
Y-213251D01*
X86749Y-213834D01*
X85000D01*
X86166D02*
X87333Y-215000D01*
X90831Y-211501D02*
X88499D01*
Y-213251D01*
X89665Y-212667D01*
X90248D01*
X90831Y-213251D01*
Y-214417D01*
X90248Y-215000D01*
X89082D01*
X88499Y-214417D01*
X91998Y-215583D02*
X94330D01*
X95497Y-211501D02*
Y-215000D01*
X97246D01*
X97829Y-214417D01*
Y-213834D01*
X97246Y-213251D01*
X95497D01*
X97246D01*
X97829Y-212667D01*
Y-212084D01*
X97246Y-211501D01*
X95497D01*
X92000Y-295500D02*
Y-292001D01*
X93749D01*
X94333Y-292584D01*
Y-293751D01*
X93749Y-294334D01*
X92000D01*
X93166D02*
X94333Y-295500D01*
X97831Y-292001D02*
X95499D01*
Y-293751D01*
X96665Y-293167D01*
X97248D01*
X97831Y-293751D01*
Y-294917D01*
X97248Y-295500D01*
X96082D01*
X95499Y-294917D01*
X98998Y-296083D02*
X101330D01*
X104829Y-292584D02*
X104246Y-292001D01*
X103080D01*
X102497Y-292584D01*
Y-294917D01*
X103080Y-295500D01*
X104246D01*
X104829Y-294917D01*
X86937Y-380000D02*
Y-376501D01*
X88686D01*
X89270Y-377084D01*
Y-378251D01*
X88686Y-378834D01*
X86937D01*
X88103D02*
X89270Y-380000D01*
X92769Y-376501D02*
X90436D01*
Y-378251D01*
X91602Y-377667D01*
X92185D01*
X92769Y-378251D01*
Y-379417D01*
X92185Y-380000D01*
X91019D01*
X90436Y-379417D01*
X93935Y-380583D02*
X96267D01*
X97434Y-376501D02*
Y-380000D01*
X99183D01*
X99766Y-379417D01*
Y-377084D01*
X99183Y-376501D01*
X97434D01*
X56000Y-186501D02*
Y-189417D01*
X56583Y-190000D01*
X57749D01*
X58333Y-189417D01*
Y-186501D01*
X59499Y-190000D02*
X60665D01*
X60082D01*
Y-186501D01*
X59499Y-187084D01*
X62415Y-190583D02*
X64747D01*
X65913Y-186501D02*
Y-190000D01*
X67663D01*
X68246Y-189417D01*
Y-188834D01*
X67663Y-188251D01*
X65913D01*
X67663D01*
X68246Y-187667D01*
Y-187084D01*
X67663Y-186501D01*
X65913D01*
X55000Y-266501D02*
Y-269417D01*
X55583Y-270000D01*
X56749D01*
X57333Y-269417D01*
Y-266501D01*
X58499Y-270000D02*
X59665D01*
X59082D01*
Y-266501D01*
X58499Y-267084D01*
X61415Y-270583D02*
X63747D01*
X67246Y-267084D02*
X66663Y-266501D01*
X65497D01*
X64913Y-267084D01*
Y-269417D01*
X65497Y-270000D01*
X66663D01*
X67246Y-269417D01*
X55305Y-350251D02*
Y-353167D01*
X55888Y-353750D01*
X57055D01*
X57638Y-353167D01*
Y-350251D01*
X58804Y-353750D02*
X59970D01*
X59387D01*
Y-350251D01*
X58804Y-350834D01*
X61720Y-354333D02*
X64052D01*
X65219Y-350251D02*
Y-353750D01*
X66968D01*
X67551Y-353167D01*
Y-350834D01*
X66968Y-350251D01*
X65219D01*
X112000Y-196501D02*
Y-199417D01*
X112583Y-200000D01*
X113749D01*
X114333Y-199417D01*
Y-196501D01*
X117831Y-200000D02*
X115499D01*
X117831Y-197667D01*
Y-197084D01*
X117248Y-196501D01*
X116082D01*
X115499Y-197084D01*
X118998Y-200583D02*
X121330D01*
X122497Y-196501D02*
Y-200000D01*
X124246D01*
X124829Y-199417D01*
Y-198834D01*
X124246Y-198251D01*
X122497D01*
X124246D01*
X124829Y-197667D01*
Y-197084D01*
X124246Y-196501D01*
X122497D01*
X111000Y-278438D02*
Y-281354D01*
X111583Y-281937D01*
X112749D01*
X113333Y-281354D01*
Y-278438D01*
X116831Y-281937D02*
X114499D01*
X116831Y-279604D01*
Y-279021D01*
X116248Y-278438D01*
X115082D01*
X114499Y-279021D01*
X117998Y-282520D02*
X120330D01*
X123829Y-279021D02*
X123246Y-278438D01*
X122080D01*
X121497Y-279021D01*
Y-281354D01*
X122080Y-281937D01*
X123246D01*
X123829Y-281354D01*
X109000Y-356501D02*
Y-359417D01*
X109583Y-360000D01*
X110749D01*
X111333Y-359417D01*
Y-356501D01*
X114831Y-360000D02*
X112499D01*
X114831Y-357667D01*
Y-357084D01*
X114248Y-356501D01*
X113082D01*
X112499Y-357084D01*
X115998Y-360583D02*
X118330D01*
X119497Y-356501D02*
Y-360000D01*
X121246D01*
X121829Y-359417D01*
Y-357084D01*
X121246Y-356501D01*
X119497D01*
X76499Y-16500D02*
X73583D01*
X73000Y-17083D01*
Y-18249D01*
X73583Y-18833D01*
X76499D01*
X73000Y-19999D02*
Y-21165D01*
Y-20582D01*
X76499D01*
X75916Y-19999D01*
Y-22915D02*
X76499Y-23498D01*
Y-24664D01*
X75916Y-25247D01*
X73583D01*
X73000Y-24664D01*
Y-23498D01*
X73583Y-22915D01*
X75916D01*
X73000Y-28746D02*
Y-26414D01*
X75333Y-28746D01*
X75916D01*
X76499Y-28163D01*
Y-26997D01*
X75916Y-26414D01*
D31*
X126579Y-683551D02*
G03*
X126579Y-683551I-492J0D01*
G01*
X110366Y-684669D02*
G03*
X110366Y-684669I-492J0D01*
G01*
X57240Y-696153D02*
G03*
X57240Y-696153I-492J0D01*
G01*
X124579Y-600276D02*
G03*
X124579Y-600276I-492J0D01*
G01*
X106366Y-601669D02*
G03*
X106366Y-601669I-492J0D01*
G01*
X57240Y-612153D02*
G03*
X57240Y-612153I-492J0D01*
G01*
X125579Y-515276D02*
G03*
X125579Y-515276I-492J0D01*
G01*
X106366Y-515669D02*
G03*
X106366Y-515669I-492J0D01*
G01*
X57240Y-528154D02*
G03*
X57240Y-528154I-492J0D01*
G01*
X58240Y-443153D02*
G03*
X58240Y-443153I-492J0D01*
G01*
X108366Y-429339D02*
G03*
X108366Y-429339I-492J0D01*
G01*
X123579Y-428276D02*
G03*
X123579Y-428276I-492J0D01*
G01*
X108366Y-344339D02*
G03*
X108366Y-344339I-492J0D01*
G01*
X124579Y-343276D02*
G03*
X124579Y-343276I-492J0D01*
G01*
X109366Y-264669D02*
G03*
X109366Y-264669I-492J0D01*
G01*
X60240Y-272153D02*
G03*
X60240Y-272153I-492J0D01*
G01*
X109366Y-186339D02*
G03*
X109366Y-186339I-492J0D01*
G01*
X125579Y-184276D02*
G03*
X125579Y-184276I-492J0D01*
G01*
X60240Y-192154D02*
G03*
X60240Y-192154I-492J0D01*
G01*
X124579Y-264276D02*
G03*
X124579Y-264276I-492J0D01*
G01*
X108366Y-107669D02*
G03*
X108366Y-107669I-492J0D01*
G01*
X58740Y-111153D02*
G03*
X58740Y-111153I-492J0D01*
G01*
X88181Y-10500D02*
G03*
X88181Y-10500I-492J0D01*
G01*
X123579Y-107276D02*
G03*
X123579Y-107276I-492J0D01*
G01*
X59240Y-358154D02*
G03*
X59240Y-358154I-492J0D01*
G01*
D32*
X66000Y-700307D02*
G03*
X66000Y-700307I-787J0D01*
G01*
Y-616307D02*
G03*
X66000Y-616307I-787J0D01*
G01*
Y-532307D02*
G03*
X66000Y-532307I-787J0D01*
G01*
X67000Y-447307D02*
G03*
X67000Y-447307I-787J0D01*
G01*
X69000Y-276307D02*
G03*
X69000Y-276307I-787J0D01*
G01*
Y-196307D02*
G03*
X69000Y-196307I-787J0D01*
G01*
X67500Y-115307D02*
G03*
X67500Y-115307I-787J0D01*
G01*
X68000Y-362307D02*
G03*
X68000Y-362307I-787J0D01*
G01*
D33*
X124906Y-691032D02*
Y-687094D01*
X121756Y-691032D02*
X124906D01*
X113094D02*
Y-687094D01*
Y-691032D02*
X116244D01*
X108102Y-691953D02*
Y-688949D01*
X105543Y-691953D02*
X108102D01*
X95898D02*
Y-688949D01*
Y-691953D02*
X98457D01*
X92543Y-714461D02*
X93331D01*
X92543Y-709539D02*
X93331D01*
X17539Y-699394D02*
Y-698606D01*
X22461Y-699394D02*
Y-698606D01*
X27539Y-699394D02*
Y-698606D01*
X32461Y-699394D02*
Y-698606D01*
X37539Y-699394D02*
Y-698606D01*
X42461Y-699394D02*
Y-698606D01*
X44539Y-716394D02*
Y-715606D01*
X49461Y-716394D02*
Y-715606D01*
X62063Y-716843D02*
X69937D01*
X62063Y-697157D02*
X69937D01*
Y-716843D02*
Y-697157D01*
X62063Y-716843D02*
Y-697157D01*
X122906Y-607756D02*
Y-603819D01*
X119756Y-607756D02*
X122906D01*
X111094D02*
Y-603819D01*
Y-607756D02*
X114244D01*
X104102Y-608953D02*
Y-605949D01*
X101543Y-608953D02*
X104102D01*
X91898D02*
Y-605949D01*
Y-608953D02*
X94457D01*
X91606Y-629461D02*
X92394D01*
X91606Y-624539D02*
X92394D01*
X16539Y-616394D02*
Y-615606D01*
X21461Y-616394D02*
Y-615606D01*
X36539Y-616394D02*
Y-615606D01*
X41461Y-616394D02*
Y-615606D01*
X26539Y-616394D02*
Y-615606D01*
X31461Y-616394D02*
Y-615606D01*
X44539Y-633394D02*
Y-632606D01*
X49461Y-633394D02*
Y-632606D01*
X62063Y-632842D02*
X69937D01*
X62063Y-613158D02*
X69937D01*
Y-632842D02*
Y-613158D01*
X62063Y-632842D02*
Y-613158D01*
X130000Y-710000D02*
X140000D01*
Y-690000D01*
X130000D02*
X140000D01*
X130000Y-710000D02*
Y-690000D01*
X1000Y-710000D02*
X11000D01*
Y-690000D01*
X1000D02*
X11000D01*
X1000Y-710000D02*
Y-690000D01*
X123906Y-522756D02*
Y-518819D01*
X120756Y-522756D02*
X123906D01*
X112094D02*
Y-518819D01*
Y-522756D02*
X115244D01*
X104102Y-522953D02*
Y-519949D01*
X101543Y-522953D02*
X104102D01*
X91898D02*
Y-519949D01*
Y-522953D02*
X94457D01*
X17539Y-533394D02*
Y-532606D01*
X22461Y-533394D02*
Y-532606D01*
X37539Y-533394D02*
Y-532606D01*
X42461Y-533394D02*
Y-532606D01*
X92606Y-543461D02*
X93394D01*
X92606Y-538539D02*
X93394D01*
X45539Y-547394D02*
Y-546606D01*
X50461Y-547394D02*
Y-546606D01*
X62063Y-548842D02*
X69937D01*
X62063Y-529157D02*
X69937D01*
Y-548842D02*
Y-529157D01*
X62063Y-548842D02*
Y-529157D01*
X27539Y-533394D02*
Y-532606D01*
X32461Y-533394D02*
Y-532606D01*
X91543Y-461461D02*
X92331D01*
X91543Y-456539D02*
X92331D01*
X27539Y-447394D02*
Y-446606D01*
X32461Y-447394D02*
Y-446606D01*
X44539Y-462457D02*
Y-461669D01*
X49461Y-462457D02*
Y-461669D01*
X63063Y-463842D02*
X70937D01*
X63063Y-444158D02*
X70937D01*
Y-463842D02*
Y-444158D01*
X63063Y-463842D02*
Y-444158D01*
X106102Y-436622D02*
Y-433618D01*
X103543Y-436622D02*
X106102D01*
X93898D02*
Y-433618D01*
Y-436622D02*
X96457D01*
X121906Y-435756D02*
Y-431819D01*
X118756Y-435756D02*
X121906D01*
X110094D02*
Y-431819D01*
Y-435756D02*
X113244D01*
X130000Y-625000D02*
X140000D01*
Y-605000D01*
X130000D02*
X140000D01*
X130000Y-625000D02*
Y-605000D01*
X1000Y-625000D02*
X11000D01*
Y-605000D01*
X1000D02*
X11000D01*
X1000Y-625000D02*
Y-605000D01*
X130000Y-540000D02*
X140000D01*
Y-520000D01*
X130000D02*
X140000D01*
X130000Y-540000D02*
Y-520000D01*
X1000Y-541000D02*
X11000D01*
Y-521000D01*
X1000D02*
X11000D01*
X1000Y-541000D02*
Y-521000D01*
X130000Y-455000D02*
X140000D01*
Y-435000D01*
X130000D02*
X140000D01*
X130000Y-455000D02*
Y-435000D01*
X1000Y-455000D02*
X11000D01*
Y-435000D01*
X1000D02*
X11000D01*
X1000Y-455000D02*
Y-435000D01*
X17000Y-677013D02*
Y-667013D01*
Y-677013D02*
X37000D01*
Y-667013D01*
X17000D02*
X37000D01*
X17000Y-663000D02*
Y-653000D01*
Y-663000D02*
X37000D01*
Y-653000D01*
X17000D02*
X37000D01*
X41000Y-663000D02*
Y-653000D01*
Y-663000D02*
X61000D01*
Y-653000D01*
X41000D02*
X61000D01*
Y-677013D02*
Y-667013D01*
X41000D02*
X61000D01*
X41000Y-677013D02*
Y-667013D01*
Y-677013D02*
X61000D01*
X17000Y-592000D02*
Y-582000D01*
Y-592000D02*
X37000D01*
Y-582000D01*
X17000D02*
X37000D01*
X17000Y-578000D02*
Y-568000D01*
Y-578000D02*
X37000D01*
Y-568000D01*
X17000D02*
X37000D01*
X41000Y-578000D02*
Y-568000D01*
Y-578000D02*
X61000D01*
Y-568000D01*
X41000D02*
X61000D01*
Y-592000D02*
Y-582000D01*
X41000D02*
X61000D01*
X41000Y-592000D02*
Y-582000D01*
Y-592000D02*
X61000D01*
X17000Y-507000D02*
Y-497000D01*
Y-507000D02*
X37000D01*
Y-497000D01*
X17000D02*
X37000D01*
X17000Y-493000D02*
Y-483000D01*
Y-493000D02*
X37000D01*
Y-483000D01*
X17000D02*
X37000D01*
X41000Y-493000D02*
Y-483000D01*
Y-493000D02*
X61000D01*
Y-483000D01*
X41000D02*
X61000D01*
X61476Y-507000D02*
Y-497000D01*
X41476D02*
X61476D01*
X41476Y-507000D02*
Y-497000D01*
Y-507000D02*
X61476D01*
X17000Y-422000D02*
Y-412000D01*
Y-422000D02*
X37000D01*
Y-412000D01*
X17000D02*
X37000D01*
X17000Y-408000D02*
Y-398000D01*
Y-408000D02*
X37000D01*
Y-398000D01*
X17000D02*
X37000D01*
X37539Y-447457D02*
Y-446669D01*
X42461Y-447457D02*
Y-446669D01*
X17539Y-447331D02*
Y-446543D01*
X22461Y-447331D02*
Y-446543D01*
X41000Y-408000D02*
Y-398000D01*
Y-408000D02*
X61000D01*
Y-398000D01*
X41000D02*
X61000D01*
Y-422000D02*
Y-412000D01*
X41000D02*
X61000D01*
X41000Y-422000D02*
Y-412000D01*
Y-422000D02*
X61000D01*
X92543Y-369539D02*
X93331D01*
X92543Y-374461D02*
X93331D01*
X93898Y-351622D02*
X96457D01*
X93898D02*
Y-348618D01*
X103543Y-351622D02*
X106102D01*
Y-348618D01*
X111094Y-350756D02*
X114244D01*
X111094D02*
Y-346819D01*
X119756Y-350756D02*
X122906D01*
Y-346819D01*
X42461Y-359394D02*
Y-358606D01*
X37539Y-359394D02*
Y-358606D01*
X32461Y-359394D02*
Y-358606D01*
X27539Y-359394D02*
Y-358606D01*
X22461Y-359394D02*
Y-358606D01*
X17539Y-359394D02*
Y-358606D01*
X50461Y-379457D02*
Y-378669D01*
X45539Y-379457D02*
Y-378669D01*
X130000Y-370000D02*
Y-350000D01*
X140000D01*
Y-370000D02*
Y-350000D01*
X130000Y-370000D02*
X140000D01*
X2000D02*
Y-350000D01*
X12000D01*
Y-370000D02*
Y-350000D01*
X2000Y-370000D02*
X12000D01*
X94898Y-271953D02*
X97457D01*
X94898D02*
Y-268949D01*
X104543Y-271953D02*
X107102D01*
Y-268949D01*
X42461Y-278394D02*
Y-277606D01*
X37539Y-278394D02*
Y-277606D01*
X32461Y-278457D02*
Y-277669D01*
X27539Y-278457D02*
Y-277669D01*
X22461Y-278394D02*
Y-277606D01*
X17539Y-278394D02*
Y-277606D01*
X52461Y-291394D02*
Y-290606D01*
X47539Y-291394D02*
Y-290606D01*
X97606Y-285539D02*
X98394D01*
X97606Y-290461D02*
X98394D01*
X65063Y-292843D02*
Y-273158D01*
X72937Y-292843D02*
Y-273158D01*
X65063D02*
X72937D01*
X65063Y-292843D02*
X72937D01*
X90606Y-203539D02*
X91394D01*
X90606Y-208461D02*
X91394D01*
X52461Y-212457D02*
Y-211669D01*
X47539Y-212457D02*
Y-211669D01*
X129000Y-290000D02*
Y-270000D01*
X139000D01*
Y-290000D02*
Y-270000D01*
X129000Y-290000D02*
X139000D01*
X1000D02*
Y-270000D01*
X11000D01*
Y-290000D02*
Y-270000D01*
X1000Y-290000D02*
X11000D01*
X42461Y-198394D02*
Y-197606D01*
X37539Y-198394D02*
Y-197606D01*
X32461Y-198394D02*
Y-197606D01*
X27539Y-198394D02*
Y-197606D01*
X22461Y-198457D02*
Y-197669D01*
X17539Y-198457D02*
Y-197669D01*
X94898Y-193622D02*
X97457D01*
X94898D02*
Y-190618D01*
X104543Y-193622D02*
X107102D01*
Y-190618D01*
X129000Y-210000D02*
Y-190000D01*
X139000D01*
Y-210000D02*
Y-190000D01*
X129000Y-210000D02*
X139000D01*
X112094Y-191756D02*
X115244D01*
X112094D02*
Y-187819D01*
X120756Y-191756D02*
X123906D01*
Y-187819D01*
X65063Y-212842D02*
Y-193157D01*
X72937Y-212842D02*
Y-193157D01*
X65063D02*
X72937D01*
X65063Y-212842D02*
X72937D01*
X111094Y-271756D02*
X114244D01*
X111094D02*
Y-267819D01*
X119756Y-271756D02*
X122906D01*
Y-267819D01*
X1000Y-210000D02*
Y-190000D01*
X11000D01*
Y-210000D02*
Y-190000D01*
X1000Y-210000D02*
X11000D01*
X79295Y-42457D02*
X92681D01*
X79295Y-49543D02*
X92681D01*
Y-42654D02*
Y-42457D01*
X79295Y-42654D02*
X84413D01*
X92681Y-49543D02*
Y-49347D01*
X79295D02*
X84413D01*
X93898Y-114953D02*
X96457D01*
X93898D02*
Y-111949D01*
X103543Y-114953D02*
X106102D01*
Y-111949D01*
X24000Y-17000D02*
X44000D01*
X24000D02*
Y-7000D01*
X44000D01*
Y-17000D02*
Y-7000D01*
X1000Y-132000D02*
Y-112000D01*
X11000D01*
Y-132000D02*
Y-112000D01*
X1000Y-132000D02*
X11000D01*
X21461Y-121457D02*
Y-120669D01*
X16539Y-121457D02*
Y-120669D01*
X63563Y-131843D02*
Y-112157D01*
X71437Y-131843D02*
Y-112157D01*
X63563D02*
X71437D01*
X63563Y-131843D02*
X71437D01*
X61311Y-15717D02*
X87689D01*
X61311Y-30283D02*
X87689D01*
Y-15717D01*
X61311Y-30283D02*
Y-15717D01*
X17000Y-76000D02*
X37000D01*
Y-86000D02*
Y-76000D01*
X17000Y-86000D02*
X37000D01*
X17000D02*
Y-76000D01*
Y-90000D02*
X37000D01*
Y-100000D02*
Y-90000D01*
X17000Y-100000D02*
X37000D01*
X17000D02*
Y-90000D01*
X41476Y-76000D02*
X61476D01*
Y-86000D02*
Y-76000D01*
X41476Y-86000D02*
X61476D01*
X41476D02*
Y-76000D01*
Y-100000D02*
X61476D01*
X41476D02*
Y-90000D01*
X61476D01*
Y-100000D02*
Y-90000D01*
X51461Y-134394D02*
Y-133606D01*
X46539Y-134394D02*
Y-133606D01*
X31461Y-121394D02*
Y-120606D01*
X26539Y-121394D02*
Y-120606D01*
X41461Y-121394D02*
Y-120606D01*
X36539Y-121394D02*
Y-120606D01*
X88543Y-122539D02*
X89331D01*
X88543Y-127461D02*
X89331D01*
X110094Y-114756D02*
X113244D01*
X110094D02*
Y-110819D01*
X118756Y-114756D02*
X121906D01*
Y-110819D01*
X130000Y-132000D02*
Y-112000D01*
X140000D01*
Y-132000D02*
Y-112000D01*
X130000Y-132000D02*
X140000D01*
X83835Y-52047D02*
X88165D01*
X83835Y-57953D02*
X88165D01*
X42953Y-33677D02*
Y-29346D01*
X37047Y-33677D02*
Y-29346D01*
X17000Y-154000D02*
X37000D01*
Y-164000D02*
Y-154000D01*
X17000Y-164000D02*
X37000D01*
X17000D02*
Y-154000D01*
Y-234000D02*
X37000D01*
Y-244000D02*
Y-234000D01*
X17000Y-244000D02*
X37000D01*
X17000D02*
Y-234000D01*
Y-313000D02*
X37000D01*
Y-323000D02*
Y-313000D01*
X17000Y-323000D02*
X37000D01*
X17000D02*
Y-313000D01*
Y-168000D02*
X37000D01*
Y-178000D02*
Y-168000D01*
X17000Y-178000D02*
X37000D01*
X17000D02*
Y-168000D01*
Y-248000D02*
X37000D01*
Y-258000D02*
Y-248000D01*
X17000Y-258000D02*
X37000D01*
X17000D02*
Y-248000D01*
Y-327000D02*
X37000D01*
Y-337000D02*
Y-327000D01*
X17000Y-337000D02*
X37000D01*
X17000D02*
Y-327000D01*
X41476Y-154000D02*
X61476D01*
Y-164000D02*
Y-154000D01*
X41476Y-164000D02*
X61476D01*
X41476D02*
Y-154000D01*
X41000Y-234000D02*
X61000D01*
Y-244000D02*
Y-234000D01*
X41000Y-244000D02*
X61000D01*
X41000D02*
Y-234000D01*
Y-313000D02*
X61000D01*
Y-323000D02*
Y-313000D01*
X41000Y-323000D02*
X61000D01*
X41000D02*
Y-313000D01*
X41476Y-178000D02*
X61476D01*
X41476D02*
Y-168000D01*
X61476D01*
Y-178000D02*
Y-168000D01*
X41000Y-258000D02*
X61000D01*
X41000D02*
Y-248000D01*
X61000D01*
Y-258000D02*
Y-248000D01*
X41000Y-337000D02*
X61000D01*
X41000D02*
Y-327000D01*
X61000D01*
Y-337000D02*
Y-327000D01*
X64063Y-378842D02*
Y-359157D01*
X71937Y-378842D02*
Y-359157D01*
X64063D02*
X71937D01*
X64063Y-378842D02*
X71937D01*
X2000Y-75000D02*
X134000D01*
X40000Y-88000D02*
X105331D01*
X105000Y-102000D02*
Y-75669D01*
Y-180000D02*
Y-153669D01*
X40000Y-166000D02*
X105331D01*
X2000Y-153000D02*
X134000D01*
X105000Y-260000D02*
Y-233669D01*
X40000Y-246000D02*
X105331D01*
X2000Y-233000D02*
X134000D01*
X105000Y-339000D02*
Y-312669D01*
X40000Y-325000D02*
X105331D01*
X2000Y-312000D02*
X134000D01*
X105000Y-424000D02*
Y-397669D01*
X40000Y-410000D02*
X105331D01*
X2000Y-397000D02*
X134000D01*
X105000Y-509000D02*
Y-482669D01*
X40000Y-495000D02*
X105331D01*
X2000Y-482000D02*
X134000D01*
X105000Y-594000D02*
Y-567669D01*
X40000Y-580000D02*
X105331D01*
X2000Y-567000D02*
X134000D01*
X105000Y-679000D02*
Y-652669D01*
X40000Y-665000D02*
X105331D01*
X2000Y-652000D02*
X134000D01*
D34*
X39066Y-102000D02*
Y-68000D01*
X1000Y-102000D02*
X140000D01*
X1000D02*
Y-76063D01*
X9063Y-68000D01*
X128000D02*
X140066Y-80066D01*
X9063Y-68000D02*
X128000D01*
X140066Y-102000D02*
Y-80000D01*
Y-180000D02*
Y-158000D01*
X9063Y-146000D02*
X128000D01*
X140066Y-158066D01*
X1000Y-154063D02*
X9063Y-146000D01*
X1000Y-180000D02*
Y-154063D01*
Y-180000D02*
X140000D01*
X39066D02*
Y-146000D01*
X140066Y-260000D02*
Y-238000D01*
X9063Y-226000D02*
X128000D01*
X140066Y-238066D01*
X1000Y-234063D02*
X9063Y-226000D01*
X1000Y-260000D02*
Y-234063D01*
Y-260000D02*
X140000D01*
X39066D02*
Y-226000D01*
X140066Y-339000D02*
Y-317000D01*
X9063Y-305000D02*
X128000D01*
X140066Y-317066D01*
X1000Y-313063D02*
X9063Y-305000D01*
X1000Y-339000D02*
Y-313063D01*
Y-339000D02*
X140000D01*
X39066D02*
Y-305000D01*
X140066Y-424000D02*
Y-402000D01*
X9063Y-390000D02*
X128000D01*
X140066Y-402066D01*
X1000Y-398063D02*
X9063Y-390000D01*
X1000Y-424000D02*
Y-398063D01*
Y-424000D02*
X140000D01*
X39066D02*
Y-390000D01*
X140066Y-509000D02*
Y-487000D01*
X9063Y-475000D02*
X128000D01*
X140066Y-487066D01*
X1000Y-483063D02*
X9063Y-475000D01*
X1000Y-509000D02*
Y-483063D01*
Y-509000D02*
X140000D01*
X39066D02*
Y-475000D01*
X140066Y-594000D02*
Y-572000D01*
X9063Y-560000D02*
X128000D01*
X140066Y-572066D01*
X1000Y-568063D02*
X9063Y-560000D01*
X1000Y-594000D02*
Y-568063D01*
Y-594000D02*
X140000D01*
X39066D02*
Y-560000D01*
X140066Y-679000D02*
Y-657000D01*
X9063Y-645000D02*
X128000D01*
X140066Y-657066D01*
X1000Y-653063D02*
X9063Y-645000D01*
X1000Y-679000D02*
Y-653063D01*
Y-679000D02*
X140000D01*
X39066D02*
Y-645000D01*
D35*
X3000Y-32000D02*
X5624D01*
X4312D01*
Y-24128D01*
X3000Y-25440D01*
X14807Y-32000D02*
X9560D01*
X14807Y-26752D01*
Y-25440D01*
X13495Y-24128D01*
X10871D01*
X9560Y-25440D01*
X17431Y-24128D02*
Y-29376D01*
X20055Y-32000D01*
X22679Y-29376D01*
Y-24128D01*
X20000Y-19064D02*
X25248D01*
X22624Y-16440D02*
Y-21688D01*
D36*
X4624Y-54000D02*
X2000D01*
X4624Y-51376D01*
Y-50720D01*
X3968Y-50064D01*
X2656D01*
X2000Y-50720D01*
X5936D02*
X6592Y-50064D01*
X7904D01*
X8560Y-50720D01*
Y-53344D01*
X7904Y-54000D01*
X6592D01*
X5936Y-53344D01*
Y-50720D01*
X12495Y-54000D02*
X9871D01*
X12495Y-51376D01*
Y-50720D01*
X11839Y-50064D01*
X10527D01*
X9871Y-50720D01*
X13807D02*
X14463Y-50064D01*
X15775D01*
X16431Y-50720D01*
Y-53344D01*
X15775Y-54000D01*
X14463D01*
X13807Y-53344D01*
Y-50720D01*
X21679Y-54000D02*
X24303Y-51376D01*
X25614Y-54000D02*
X28238Y-51376D01*
X36110D02*
X34142D01*
X33486Y-52032D01*
Y-53344D01*
X34142Y-54000D01*
X36110D01*
X37422D02*
Y-50064D01*
Y-52688D02*
X39390Y-51376D01*
X37422Y-52688D02*
X39390Y-54000D01*
X2000Y-48000D02*
Y-45376D01*
X3312Y-44064D01*
X4624Y-45376D01*
Y-48000D01*
Y-46032D01*
X2000D01*
X5936Y-45376D02*
Y-47344D01*
X6592Y-48000D01*
X8560D01*
Y-45376D01*
X9871Y-48656D02*
X12495D01*
X14463Y-45376D02*
X15775D01*
X16431Y-46032D01*
Y-48000D01*
X14463D01*
X13807Y-47344D01*
X14463Y-46688D01*
X16431D01*
X17743Y-48000D02*
Y-45376D01*
X19711D01*
X20367Y-46032D01*
Y-48000D01*
X22335Y-45376D02*
X23647D01*
X24303Y-46032D01*
Y-48000D01*
X22335D01*
X21679Y-47344D01*
X22335Y-46688D01*
X24303D01*
X25614Y-48000D02*
X26926D01*
X26270D01*
Y-44064D01*
X25614D01*
X29550Y-48000D02*
X30862D01*
X31518Y-47344D01*
Y-46032D01*
X30862Y-45376D01*
X29550D01*
X28894Y-46032D01*
Y-47344D01*
X29550Y-48000D01*
X34142Y-49312D02*
X34798D01*
X35454Y-48656D01*
Y-45376D01*
X33486D01*
X32830Y-46032D01*
Y-47344D01*
X33486Y-48000D01*
X35454D01*
X36766Y-48656D02*
X39390D01*
X43325Y-45376D02*
X41357D01*
X40701Y-46032D01*
Y-47344D01*
X41357Y-48000D01*
X43325D01*
X45293D02*
X46605D01*
X47261Y-47344D01*
Y-46032D01*
X46605Y-45376D01*
X45293D01*
X44637Y-46032D01*
Y-47344D01*
X45293Y-48000D01*
X48573D02*
Y-45376D01*
X50541D01*
X51197Y-46032D01*
Y-48000D01*
X52509Y-45376D02*
X53821Y-48000D01*
X55133Y-45376D01*
D37*
X10000Y-70851D02*
Y-74000D01*
X11574D01*
X12099Y-73475D01*
Y-71376D01*
X11574Y-70851D01*
X10000D01*
X13149Y-74000D02*
X14198D01*
X13673D01*
Y-71901D01*
X13149D01*
X15772D02*
X16822Y-74000D01*
X17872Y-71901D01*
X18921Y-74000D02*
X19971D01*
X19446D01*
Y-71901D01*
X18921D01*
X21545Y-74000D02*
X23119D01*
X23644Y-73475D01*
X23119Y-72951D01*
X22070D01*
X21545Y-72426D01*
X22070Y-71901D01*
X23644D01*
X24693Y-74000D02*
X25743D01*
X25218D01*
Y-71901D01*
X24693D01*
X27842Y-74000D02*
X28892D01*
X29416Y-73475D01*
Y-72426D01*
X28892Y-71901D01*
X27842D01*
X27317Y-72426D01*
Y-73475D01*
X27842Y-74000D01*
X30466D02*
Y-71901D01*
X32040D01*
X32565Y-72426D01*
Y-74000D01*
X41970Y-73000D02*
X43019D01*
X43544Y-72475D01*
Y-71426D01*
X43019Y-70901D01*
X41970D01*
X41445Y-71426D01*
Y-72475D01*
X41970Y-73000D01*
X44594Y-70901D02*
Y-72475D01*
X45118Y-73000D01*
X46692D01*
Y-70901D01*
X48267Y-70376D02*
Y-70901D01*
X47742D01*
X48792D01*
X48267D01*
Y-72475D01*
X48792Y-73000D01*
X50366Y-74050D02*
Y-70901D01*
X51940D01*
X52465Y-71426D01*
Y-72475D01*
X51940Y-73000D01*
X50366D01*
X53514Y-70901D02*
Y-72475D01*
X54039Y-73000D01*
X55613D01*
Y-70901D01*
X57188Y-70376D02*
Y-70901D01*
X56663D01*
X57713D01*
X57188D01*
Y-72475D01*
X57713Y-73000D01*
X62436D02*
X63485D01*
X62960D01*
Y-69851D01*
X62436D01*
X65059Y-73000D02*
X66109D01*
X65584D01*
Y-70901D01*
X65059D01*
X67683Y-73000D02*
Y-70901D01*
X68208D01*
X68733Y-71426D01*
Y-73000D01*
Y-71426D01*
X69257Y-70901D01*
X69782Y-71426D01*
Y-73000D01*
X70832D02*
X71881D01*
X71356D01*
Y-70901D01*
X70832D01*
X73980Y-70376D02*
Y-70901D01*
X73456D01*
X74505D01*
X73980D01*
Y-72475D01*
X74505Y-73000D01*
X76604Y-70901D02*
X77654D01*
X78179Y-71426D01*
Y-73000D01*
X76604D01*
X76079Y-72475D01*
X76604Y-71951D01*
X78179D01*
X79753Y-70376D02*
Y-70901D01*
X79228D01*
X80278D01*
X79753D01*
Y-72475D01*
X80278Y-73000D01*
X81852D02*
X82901D01*
X82377D01*
Y-70901D01*
X81852D01*
X85000Y-73000D02*
X86050D01*
X86575Y-72475D01*
Y-71426D01*
X86050Y-70901D01*
X85000D01*
X84476Y-71426D01*
Y-72475D01*
X85000Y-73000D01*
X87624D02*
Y-70901D01*
X89198D01*
X89723Y-71426D01*
Y-73000D01*
X65000Y-77901D02*
X66049Y-80000D01*
X67099Y-77901D01*
X68673Y-80000D02*
X69723D01*
X70248Y-79475D01*
Y-78426D01*
X69723Y-77901D01*
X68673D01*
X68149Y-78426D01*
Y-79475D01*
X68673Y-80000D01*
X71297D02*
X72347D01*
X71822D01*
Y-76851D01*
X71297D01*
X74446Y-77376D02*
Y-77901D01*
X73921D01*
X74971D01*
X74446D01*
Y-79475D01*
X74971Y-80000D01*
X77070Y-77901D02*
X78119D01*
X78644Y-78426D01*
Y-80000D01*
X77070D01*
X76545Y-79475D01*
X77070Y-78951D01*
X78644D01*
X80743Y-81050D02*
X81268D01*
X81792Y-80525D01*
Y-77901D01*
X80218D01*
X79693Y-78426D01*
Y-79475D01*
X80218Y-80000D01*
X81792D01*
X84416D02*
X83367D01*
X82842Y-79475D01*
Y-78426D01*
X83367Y-77901D01*
X84416D01*
X84941Y-78426D01*
Y-78951D01*
X82842D01*
X91238Y-80000D02*
X90714Y-79475D01*
X90189Y-80000D01*
X89664D01*
X89139Y-79475D01*
Y-78951D01*
X89664Y-78426D01*
X89139Y-77901D01*
Y-77376D01*
X89664Y-76851D01*
X90189D01*
X90714Y-77376D01*
Y-77901D01*
X90189Y-78426D01*
X90714Y-78951D01*
Y-79475D01*
X91238Y-78426D02*
X90714Y-78951D01*
X89664Y-78426D02*
X90189D01*
X4000Y-82000D02*
X5049D01*
X4525D01*
Y-78851D01*
X4000Y-79376D01*
X6624Y-82000D02*
X8723Y-79901D01*
X9772Y-82000D02*
X10822D01*
X10297D01*
Y-78851D01*
X9772Y-79376D01*
X12396D02*
X12921Y-78851D01*
X13971D01*
X14495Y-79376D01*
Y-81475D01*
X13971Y-82000D01*
X12921D01*
X12396Y-81475D01*
Y-79376D01*
X5000Y-96000D02*
X6050D01*
X5525D01*
Y-92851D01*
X5000Y-93376D01*
X7624Y-96000D02*
X9723Y-93901D01*
X12871Y-92851D02*
X10772D01*
Y-94426D01*
X11822Y-93901D01*
X12347D01*
X12871Y-94426D01*
Y-95475D01*
X12347Y-96000D01*
X11297D01*
X10772Y-95475D01*
X65000Y-96000D02*
X66049D01*
X65525D01*
Y-92851D01*
X65000D01*
X67624Y-96000D02*
X68673D01*
X68149D01*
Y-93901D01*
X67624D01*
X70248Y-96000D02*
Y-93901D01*
X70772D01*
X71297Y-94426D01*
Y-96000D01*
Y-94426D01*
X71822Y-93901D01*
X72347Y-94426D01*
Y-96000D01*
X73396D02*
X74446D01*
X73921D01*
Y-93901D01*
X73396D01*
X76545Y-93376D02*
Y-93901D01*
X76020D01*
X77070D01*
X76545D01*
Y-95475D01*
X77070Y-96000D01*
X79169Y-93901D02*
X80218D01*
X80743Y-94426D01*
Y-96000D01*
X79169D01*
X78644Y-95475D01*
X79169Y-94950D01*
X80743D01*
X82317Y-93376D02*
Y-93901D01*
X81792D01*
X82842D01*
X82317D01*
Y-95475D01*
X82842Y-96000D01*
X84416D02*
X85466D01*
X84941D01*
Y-93901D01*
X84416D01*
X87565Y-96000D02*
X88614D01*
X89139Y-95475D01*
Y-94426D01*
X88614Y-93901D01*
X87565D01*
X87040Y-94426D01*
Y-95475D01*
X87565Y-96000D01*
X90189D02*
Y-93901D01*
X91763D01*
X92288Y-94426D01*
Y-96000D01*
X97011D02*
X98060D01*
X98585Y-95475D01*
Y-94426D01*
X98060Y-93901D01*
X97011D01*
X96486Y-94426D01*
Y-95475D01*
X97011Y-96000D01*
X100159D02*
Y-93376D01*
Y-94426D01*
X99634D01*
X100684D01*
X100159D01*
Y-93376D01*
X100684Y-92851D01*
X102783Y-96000D02*
Y-93376D01*
Y-94426D01*
X102258D01*
X103308D01*
X102783D01*
Y-93376D01*
X103308Y-92851D01*
X67099Y-82901D02*
X65525D01*
X65000Y-83426D01*
Y-84475D01*
X65525Y-85000D01*
X67099D01*
X68149Y-82901D02*
Y-84475D01*
X68673Y-85000D01*
X70248D01*
Y-82901D01*
X71297D02*
Y-85000D01*
Y-83951D01*
X71822Y-83426D01*
X72347Y-82901D01*
X72872D01*
X74446D02*
Y-85000D01*
Y-83951D01*
X74971Y-83426D01*
X75495Y-82901D01*
X76020D01*
X79169Y-85000D02*
X78119D01*
X77594Y-84475D01*
Y-83426D01*
X78119Y-82901D01*
X79169D01*
X79693Y-83426D01*
Y-83951D01*
X77594D01*
X80743Y-85000D02*
Y-82901D01*
X82317D01*
X82842Y-83426D01*
Y-85000D01*
X84416Y-82376D02*
Y-82901D01*
X83891D01*
X84941D01*
X84416D01*
Y-84475D01*
X84941Y-85000D01*
X89664D02*
X90714D01*
X90189D01*
Y-81851D01*
X89664D01*
X92288Y-85000D02*
X93337D01*
X92813D01*
Y-82901D01*
X92288D01*
X94912Y-85000D02*
Y-82901D01*
X95436D01*
X95961Y-83426D01*
Y-85000D01*
Y-83426D01*
X96486Y-82901D01*
X97011Y-83426D01*
Y-85000D01*
X98060D02*
X99110D01*
X98585D01*
Y-82901D01*
X98060D01*
X101209Y-82376D02*
Y-82901D01*
X100684D01*
X101734D01*
X101209D01*
Y-84475D01*
X101734Y-85000D01*
X107000Y-78851D02*
Y-82000D01*
X108574D01*
X109099Y-81475D01*
Y-80950D01*
Y-80426D01*
X108574Y-79901D01*
X107000D01*
X110673Y-82000D02*
X111723D01*
X112248Y-81475D01*
Y-80426D01*
X111723Y-79901D01*
X110673D01*
X110149Y-80426D01*
Y-81475D01*
X110673Y-82000D01*
X113822Y-79376D02*
Y-79901D01*
X113297D01*
X114347D01*
X113822D01*
Y-81475D01*
X114347Y-82000D01*
X115921Y-78851D02*
Y-82000D01*
Y-80426D01*
X116446Y-79901D01*
X117495D01*
X118020Y-80426D01*
Y-82000D01*
X122743D02*
X123793D01*
X124317Y-81475D01*
Y-80426D01*
X123793Y-79901D01*
X122743D01*
X122218Y-80426D01*
Y-81475D01*
X122743Y-82000D01*
X125367Y-83049D02*
Y-79901D01*
X126941D01*
X127466Y-80426D01*
Y-81475D01*
X126941Y-82000D01*
X125367D01*
X130090D02*
X129040D01*
X128515Y-81475D01*
Y-80426D01*
X129040Y-79901D01*
X130090D01*
X130614Y-80426D01*
Y-80950D01*
X128515D01*
X131664Y-82000D02*
Y-79901D01*
X133238D01*
X133763Y-80426D01*
Y-82000D01*
X134813Y-79901D02*
X135337D01*
Y-80426D01*
X134813D01*
Y-79901D01*
Y-81475D02*
X135337D01*
Y-82000D01*
X134813D01*
Y-81475D01*
X108525Y-88000D02*
X109574D01*
X110099Y-87475D01*
Y-86426D01*
X109574Y-85901D01*
X108525D01*
X108000Y-86426D01*
Y-87475D01*
X108525Y-88000D01*
X111149D02*
Y-85901D01*
X112723D01*
X113248Y-86426D01*
Y-88000D01*
X114297D02*
X115347D01*
X114822D01*
Y-84851D01*
X114297D01*
X116921Y-85901D02*
Y-87475D01*
X117446Y-88000D01*
X119020D01*
Y-88525D01*
X118495Y-89050D01*
X117971D01*
X119020Y-88000D02*
Y-85901D01*
X108000Y-98000D02*
X109049D01*
X108525D01*
Y-94851D01*
X108000D01*
X110624Y-98000D02*
X111673D01*
X111149D01*
Y-95901D01*
X110624D01*
X113248Y-98000D02*
Y-95901D01*
X113772D01*
X114297Y-96426D01*
Y-98000D01*
Y-96426D01*
X114822Y-95901D01*
X115347Y-96426D01*
Y-98000D01*
X116396D02*
X117446D01*
X116921D01*
Y-95901D01*
X116396D01*
X119545Y-95376D02*
Y-95901D01*
X119020D01*
X120070D01*
X119545D01*
Y-97475D01*
X120070Y-98000D01*
X110099Y-90901D02*
X108525D01*
X108000Y-91426D01*
Y-92475D01*
X108525Y-93000D01*
X110099D01*
X111149Y-90901D02*
Y-92475D01*
X111673Y-93000D01*
X113248D01*
Y-90901D01*
X114297D02*
Y-93000D01*
Y-91951D01*
X114822Y-91426D01*
X115347Y-90901D01*
X115872D01*
X117446D02*
Y-93000D01*
Y-91951D01*
X117971Y-91426D01*
X118495Y-90901D01*
X119020D01*
X122169Y-93000D02*
X121119D01*
X120594Y-92475D01*
Y-91426D01*
X121119Y-90901D01*
X122169D01*
X122693Y-91426D01*
Y-91951D01*
X120594D01*
X123743Y-93000D02*
Y-90901D01*
X125317D01*
X125842Y-91426D01*
Y-93000D01*
X127416Y-90376D02*
Y-90901D01*
X126892D01*
X127941D01*
X127416D01*
Y-92475D01*
X127941Y-93000D01*
X110099Y-168901D02*
X108525D01*
X108000Y-169426D01*
Y-170475D01*
X108525Y-171000D01*
X110099D01*
X111149Y-168901D02*
Y-170475D01*
X111673Y-171000D01*
X113248D01*
Y-168901D01*
X114297D02*
Y-171000D01*
Y-169950D01*
X114822Y-169426D01*
X115347Y-168901D01*
X115872D01*
X117446D02*
Y-171000D01*
Y-169950D01*
X117971Y-169426D01*
X118495Y-168901D01*
X119020D01*
X122169Y-171000D02*
X121119D01*
X120594Y-170475D01*
Y-169426D01*
X121119Y-168901D01*
X122169D01*
X122693Y-169426D01*
Y-169950D01*
X120594D01*
X123743Y-171000D02*
Y-168901D01*
X125317D01*
X125842Y-169426D01*
Y-171000D01*
X127416Y-168376D02*
Y-168901D01*
X126892D01*
X127941D01*
X127416D01*
Y-170475D01*
X127941Y-171000D01*
X108000Y-176000D02*
X109049D01*
X108525D01*
Y-172851D01*
X108000D01*
X110624Y-176000D02*
X111673D01*
X111149D01*
Y-173901D01*
X110624D01*
X113248Y-176000D02*
Y-173901D01*
X113772D01*
X114297Y-174426D01*
Y-176000D01*
Y-174426D01*
X114822Y-173901D01*
X115347Y-174426D01*
Y-176000D01*
X116396D02*
X117446D01*
X116921D01*
Y-173901D01*
X116396D01*
X119545Y-173376D02*
Y-173901D01*
X119020D01*
X120070D01*
X119545D01*
Y-175475D01*
X120070Y-176000D01*
X108525Y-166000D02*
X109574D01*
X110099Y-165475D01*
Y-164426D01*
X109574Y-163901D01*
X108525D01*
X108000Y-164426D01*
Y-165475D01*
X108525Y-166000D01*
X111149D02*
Y-163901D01*
X112723D01*
X113248Y-164426D01*
Y-166000D01*
X114297D02*
X115347D01*
X114822D01*
Y-162851D01*
X114297D01*
X116921Y-163901D02*
Y-165475D01*
X117446Y-166000D01*
X119020D01*
Y-166525D01*
X118495Y-167050D01*
X117971D01*
X119020Y-166000D02*
Y-163901D01*
X107000Y-156851D02*
Y-160000D01*
X108574D01*
X109099Y-159475D01*
Y-158950D01*
Y-158426D01*
X108574Y-157901D01*
X107000D01*
X110673Y-160000D02*
X111723D01*
X112248Y-159475D01*
Y-158426D01*
X111723Y-157901D01*
X110673D01*
X110149Y-158426D01*
Y-159475D01*
X110673Y-160000D01*
X113822Y-157376D02*
Y-157901D01*
X113297D01*
X114347D01*
X113822D01*
Y-159475D01*
X114347Y-160000D01*
X115921Y-156851D02*
Y-160000D01*
Y-158426D01*
X116446Y-157901D01*
X117495D01*
X118020Y-158426D01*
Y-160000D01*
X122743D02*
X123793D01*
X124317Y-159475D01*
Y-158426D01*
X123793Y-157901D01*
X122743D01*
X122218Y-158426D01*
Y-159475D01*
X122743Y-160000D01*
X125367Y-161049D02*
Y-157901D01*
X126941D01*
X127466Y-158426D01*
Y-159475D01*
X126941Y-160000D01*
X125367D01*
X130090D02*
X129040D01*
X128515Y-159475D01*
Y-158426D01*
X129040Y-157901D01*
X130090D01*
X130614Y-158426D01*
Y-158950D01*
X128515D01*
X131664Y-160000D02*
Y-157901D01*
X133238D01*
X133763Y-158426D01*
Y-160000D01*
X134813Y-157901D02*
X135337D01*
Y-158426D01*
X134813D01*
Y-157901D01*
Y-159475D02*
X135337D01*
Y-160000D01*
X134813D01*
Y-159475D01*
X67099Y-160901D02*
X65525D01*
X65000Y-161426D01*
Y-162475D01*
X65525Y-163000D01*
X67099D01*
X68149Y-160901D02*
Y-162475D01*
X68673Y-163000D01*
X70248D01*
Y-160901D01*
X71297D02*
Y-163000D01*
Y-161951D01*
X71822Y-161426D01*
X72347Y-160901D01*
X72872D01*
X74446D02*
Y-163000D01*
Y-161951D01*
X74971Y-161426D01*
X75495Y-160901D01*
X76020D01*
X79169Y-163000D02*
X78119D01*
X77594Y-162475D01*
Y-161426D01*
X78119Y-160901D01*
X79169D01*
X79693Y-161426D01*
Y-161951D01*
X77594D01*
X80743Y-163000D02*
Y-160901D01*
X82317D01*
X82842Y-161426D01*
Y-163000D01*
X84416Y-160376D02*
Y-160901D01*
X83891D01*
X84941D01*
X84416D01*
Y-162475D01*
X84941Y-163000D01*
X89664D02*
X90714D01*
X90189D01*
Y-159851D01*
X89664D01*
X92288Y-163000D02*
X93337D01*
X92813D01*
Y-160901D01*
X92288D01*
X94912Y-163000D02*
Y-160901D01*
X95436D01*
X95961Y-161426D01*
Y-163000D01*
Y-161426D01*
X96486Y-160901D01*
X97011Y-161426D01*
Y-163000D01*
X98060D02*
X99110D01*
X98585D01*
Y-160901D01*
X98060D01*
X101209Y-160376D02*
Y-160901D01*
X100684D01*
X101734D01*
X101209D01*
Y-162475D01*
X101734Y-163000D01*
X65000Y-174000D02*
X66049D01*
X65525D01*
Y-170851D01*
X65000D01*
X67624Y-174000D02*
X68673D01*
X68149D01*
Y-171901D01*
X67624D01*
X70248Y-174000D02*
Y-171901D01*
X70772D01*
X71297Y-172426D01*
Y-174000D01*
Y-172426D01*
X71822Y-171901D01*
X72347Y-172426D01*
Y-174000D01*
X73396D02*
X74446D01*
X73921D01*
Y-171901D01*
X73396D01*
X76545Y-171376D02*
Y-171901D01*
X76020D01*
X77070D01*
X76545D01*
Y-173475D01*
X77070Y-174000D01*
X79169Y-171901D02*
X80218D01*
X80743Y-172426D01*
Y-174000D01*
X79169D01*
X78644Y-173475D01*
X79169Y-172950D01*
X80743D01*
X82317Y-171376D02*
Y-171901D01*
X81792D01*
X82842D01*
X82317D01*
Y-173475D01*
X82842Y-174000D01*
X84416D02*
X85466D01*
X84941D01*
Y-171901D01*
X84416D01*
X87565Y-174000D02*
X88614D01*
X89139Y-173475D01*
Y-172426D01*
X88614Y-171901D01*
X87565D01*
X87040Y-172426D01*
Y-173475D01*
X87565Y-174000D01*
X90189D02*
Y-171901D01*
X91763D01*
X92288Y-172426D01*
Y-174000D01*
X97011D02*
X98060D01*
X98585Y-173475D01*
Y-172426D01*
X98060Y-171901D01*
X97011D01*
X96486Y-172426D01*
Y-173475D01*
X97011Y-174000D01*
X100159D02*
Y-171376D01*
Y-172426D01*
X99634D01*
X100684D01*
X100159D01*
Y-171376D01*
X100684Y-170851D01*
X102783Y-174000D02*
Y-171376D01*
Y-172426D01*
X102258D01*
X103308D01*
X102783D01*
Y-171376D01*
X103308Y-170851D01*
X5000Y-174000D02*
X6050D01*
X5525D01*
Y-170851D01*
X5000Y-171376D01*
X7624Y-174000D02*
X9723Y-171901D01*
X12871Y-170851D02*
X10772D01*
Y-172426D01*
X11822Y-171901D01*
X12347D01*
X12871Y-172426D01*
Y-173475D01*
X12347Y-174000D01*
X11297D01*
X10772Y-173475D01*
X4000Y-160000D02*
X5049D01*
X4525D01*
Y-156851D01*
X4000Y-157376D01*
X6624Y-160000D02*
X8723Y-157901D01*
X9772Y-160000D02*
X10822D01*
X10297D01*
Y-156851D01*
X9772Y-157376D01*
X12396D02*
X12921Y-156851D01*
X13971D01*
X14495Y-157376D01*
Y-159475D01*
X13971Y-160000D01*
X12921D01*
X12396Y-159475D01*
Y-157376D01*
X65000Y-155901D02*
X66049Y-158000D01*
X67099Y-155901D01*
X68673Y-158000D02*
X69723D01*
X70248Y-157475D01*
Y-156426D01*
X69723Y-155901D01*
X68673D01*
X68149Y-156426D01*
Y-157475D01*
X68673Y-158000D01*
X71297D02*
X72347D01*
X71822D01*
Y-154851D01*
X71297D01*
X74446Y-155376D02*
Y-155901D01*
X73921D01*
X74971D01*
X74446D01*
Y-157475D01*
X74971Y-158000D01*
X77070Y-155901D02*
X78119D01*
X78644Y-156426D01*
Y-158000D01*
X77070D01*
X76545Y-157475D01*
X77070Y-156950D01*
X78644D01*
X80743Y-159049D02*
X81268D01*
X81792Y-158525D01*
Y-155901D01*
X80218D01*
X79693Y-156426D01*
Y-157475D01*
X80218Y-158000D01*
X81792D01*
X84416D02*
X83367D01*
X82842Y-157475D01*
Y-156426D01*
X83367Y-155901D01*
X84416D01*
X84941Y-156426D01*
Y-156950D01*
X82842D01*
X91238Y-158000D02*
X90714Y-157475D01*
X90189Y-158000D01*
X89664D01*
X89139Y-157475D01*
Y-156950D01*
X89664Y-156426D01*
X89139Y-155901D01*
Y-155376D01*
X89664Y-154851D01*
X90189D01*
X90714Y-155376D01*
Y-155901D01*
X90189Y-156426D01*
X90714Y-156950D01*
Y-157475D01*
X91238Y-156426D02*
X90714Y-156950D01*
X89664Y-156426D02*
X90189D01*
X41970Y-151000D02*
X43019D01*
X43544Y-150475D01*
Y-149426D01*
X43019Y-148901D01*
X41970D01*
X41445Y-149426D01*
Y-150475D01*
X41970Y-151000D01*
X44594Y-148901D02*
Y-150475D01*
X45118Y-151000D01*
X46692D01*
Y-148901D01*
X48267Y-148376D02*
Y-148901D01*
X47742D01*
X48792D01*
X48267D01*
Y-150475D01*
X48792Y-151000D01*
X50366Y-152050D02*
Y-148901D01*
X51940D01*
X52465Y-149426D01*
Y-150475D01*
X51940Y-151000D01*
X50366D01*
X53514Y-148901D02*
Y-150475D01*
X54039Y-151000D01*
X55613D01*
Y-148901D01*
X57188Y-148376D02*
Y-148901D01*
X56663D01*
X57713D01*
X57188D01*
Y-150475D01*
X57713Y-151000D01*
X62436D02*
X63485D01*
X62960D01*
Y-147851D01*
X62436D01*
X65059Y-151000D02*
X66109D01*
X65584D01*
Y-148901D01*
X65059D01*
X67683Y-151000D02*
Y-148901D01*
X68208D01*
X68733Y-149426D01*
Y-151000D01*
Y-149426D01*
X69257Y-148901D01*
X69782Y-149426D01*
Y-151000D01*
X70832D02*
X71881D01*
X71356D01*
Y-148901D01*
X70832D01*
X73980Y-148376D02*
Y-148901D01*
X73456D01*
X74505D01*
X73980D01*
Y-150475D01*
X74505Y-151000D01*
X76604Y-148901D02*
X77654D01*
X78179Y-149426D01*
Y-151000D01*
X76604D01*
X76079Y-150475D01*
X76604Y-149951D01*
X78179D01*
X79753Y-148376D02*
Y-148901D01*
X79228D01*
X80278D01*
X79753D01*
Y-150475D01*
X80278Y-151000D01*
X81852D02*
X82901D01*
X82377D01*
Y-148901D01*
X81852D01*
X85000Y-151000D02*
X86050D01*
X86575Y-150475D01*
Y-149426D01*
X86050Y-148901D01*
X85000D01*
X84476Y-149426D01*
Y-150475D01*
X85000Y-151000D01*
X87624D02*
Y-148901D01*
X89198D01*
X89723Y-149426D01*
Y-151000D01*
X10000Y-148851D02*
Y-152000D01*
X11574D01*
X12099Y-151475D01*
Y-149376D01*
X11574Y-148851D01*
X10000D01*
X13149Y-152000D02*
X14198D01*
X13673D01*
Y-149901D01*
X13149D01*
X15772D02*
X16822Y-152000D01*
X17872Y-149901D01*
X18921Y-152000D02*
X19971D01*
X19446D01*
Y-149901D01*
X18921D01*
X21545Y-152000D02*
X23119D01*
X23644Y-151475D01*
X23119Y-150951D01*
X22070D01*
X21545Y-150426D01*
X22070Y-149901D01*
X23644D01*
X24693Y-152000D02*
X25743D01*
X25218D01*
Y-149901D01*
X24693D01*
X27842Y-152000D02*
X28892D01*
X29416Y-151475D01*
Y-150426D01*
X28892Y-149901D01*
X27842D01*
X27317Y-150426D01*
Y-151475D01*
X27842Y-152000D01*
X30466D02*
Y-149901D01*
X32040D01*
X32565Y-150426D01*
Y-152000D01*
X110099Y-248901D02*
X108525D01*
X108000Y-249426D01*
Y-250475D01*
X108525Y-251000D01*
X110099D01*
X111149Y-248901D02*
Y-250475D01*
X111673Y-251000D01*
X113248D01*
Y-248901D01*
X114297D02*
Y-251000D01*
Y-249951D01*
X114822Y-249426D01*
X115347Y-248901D01*
X115872D01*
X117446D02*
Y-251000D01*
Y-249951D01*
X117971Y-249426D01*
X118495Y-248901D01*
X119020D01*
X122169Y-251000D02*
X121119D01*
X120594Y-250475D01*
Y-249426D01*
X121119Y-248901D01*
X122169D01*
X122693Y-249426D01*
Y-249951D01*
X120594D01*
X123743Y-251000D02*
Y-248901D01*
X125317D01*
X125842Y-249426D01*
Y-251000D01*
X127416Y-248376D02*
Y-248901D01*
X126892D01*
X127941D01*
X127416D01*
Y-250475D01*
X127941Y-251000D01*
X108000Y-256000D02*
X109049D01*
X108525D01*
Y-252851D01*
X108000D01*
X110624Y-256000D02*
X111673D01*
X111149D01*
Y-253901D01*
X110624D01*
X113248Y-256000D02*
Y-253901D01*
X113772D01*
X114297Y-254426D01*
Y-256000D01*
Y-254426D01*
X114822Y-253901D01*
X115347Y-254426D01*
Y-256000D01*
X116396D02*
X117446D01*
X116921D01*
Y-253901D01*
X116396D01*
X119545Y-253376D02*
Y-253901D01*
X119020D01*
X120070D01*
X119545D01*
Y-255475D01*
X120070Y-256000D01*
X108525Y-246000D02*
X109574D01*
X110099Y-245475D01*
Y-244426D01*
X109574Y-243901D01*
X108525D01*
X108000Y-244426D01*
Y-245475D01*
X108525Y-246000D01*
X111149D02*
Y-243901D01*
X112723D01*
X113248Y-244426D01*
Y-246000D01*
X114297D02*
X115347D01*
X114822D01*
Y-242851D01*
X114297D01*
X116921Y-243901D02*
Y-245475D01*
X117446Y-246000D01*
X119020D01*
Y-246525D01*
X118495Y-247049D01*
X117971D01*
X119020Y-246000D02*
Y-243901D01*
X107000Y-236851D02*
Y-240000D01*
X108574D01*
X109099Y-239475D01*
Y-238950D01*
Y-238426D01*
X108574Y-237901D01*
X107000D01*
X110673Y-240000D02*
X111723D01*
X112248Y-239475D01*
Y-238426D01*
X111723Y-237901D01*
X110673D01*
X110149Y-238426D01*
Y-239475D01*
X110673Y-240000D01*
X113822Y-237376D02*
Y-237901D01*
X113297D01*
X114347D01*
X113822D01*
Y-239475D01*
X114347Y-240000D01*
X115921Y-236851D02*
Y-240000D01*
Y-238426D01*
X116446Y-237901D01*
X117495D01*
X118020Y-238426D01*
Y-240000D01*
X122743D02*
X123793D01*
X124317Y-239475D01*
Y-238426D01*
X123793Y-237901D01*
X122743D01*
X122218Y-238426D01*
Y-239475D01*
X122743Y-240000D01*
X125367Y-241050D02*
Y-237901D01*
X126941D01*
X127466Y-238426D01*
Y-239475D01*
X126941Y-240000D01*
X125367D01*
X130090D02*
X129040D01*
X128515Y-239475D01*
Y-238426D01*
X129040Y-237901D01*
X130090D01*
X130614Y-238426D01*
Y-238950D01*
X128515D01*
X131664Y-240000D02*
Y-237901D01*
X133238D01*
X133763Y-238426D01*
Y-240000D01*
X134813Y-237901D02*
X135337D01*
Y-238426D01*
X134813D01*
Y-237901D01*
Y-239475D02*
X135337D01*
Y-240000D01*
X134813D01*
Y-239475D01*
X67099Y-240901D02*
X65525D01*
X65000Y-241426D01*
Y-242475D01*
X65525Y-243000D01*
X67099D01*
X68149Y-240901D02*
Y-242475D01*
X68673Y-243000D01*
X70248D01*
Y-240901D01*
X71297D02*
Y-243000D01*
Y-241950D01*
X71822Y-241426D01*
X72347Y-240901D01*
X72872D01*
X74446D02*
Y-243000D01*
Y-241950D01*
X74971Y-241426D01*
X75495Y-240901D01*
X76020D01*
X79169Y-243000D02*
X78119D01*
X77594Y-242475D01*
Y-241426D01*
X78119Y-240901D01*
X79169D01*
X79693Y-241426D01*
Y-241950D01*
X77594D01*
X80743Y-243000D02*
Y-240901D01*
X82317D01*
X82842Y-241426D01*
Y-243000D01*
X84416Y-240376D02*
Y-240901D01*
X83891D01*
X84941D01*
X84416D01*
Y-242475D01*
X84941Y-243000D01*
X89664D02*
X90714D01*
X90189D01*
Y-239851D01*
X89664D01*
X92288Y-243000D02*
X93337D01*
X92813D01*
Y-240901D01*
X92288D01*
X94912Y-243000D02*
Y-240901D01*
X95436D01*
X95961Y-241426D01*
Y-243000D01*
Y-241426D01*
X96486Y-240901D01*
X97011Y-241426D01*
Y-243000D01*
X98060D02*
X99110D01*
X98585D01*
Y-240901D01*
X98060D01*
X101209Y-240376D02*
Y-240901D01*
X100684D01*
X101734D01*
X101209D01*
Y-242475D01*
X101734Y-243000D01*
X65000Y-254000D02*
X66049D01*
X65525D01*
Y-250851D01*
X65000D01*
X67624Y-254000D02*
X68673D01*
X68149D01*
Y-251901D01*
X67624D01*
X70248Y-254000D02*
Y-251901D01*
X70772D01*
X71297Y-252426D01*
Y-254000D01*
Y-252426D01*
X71822Y-251901D01*
X72347Y-252426D01*
Y-254000D01*
X73396D02*
X74446D01*
X73921D01*
Y-251901D01*
X73396D01*
X76545Y-251376D02*
Y-251901D01*
X76020D01*
X77070D01*
X76545D01*
Y-253475D01*
X77070Y-254000D01*
X79169Y-251901D02*
X80218D01*
X80743Y-252426D01*
Y-254000D01*
X79169D01*
X78644Y-253475D01*
X79169Y-252951D01*
X80743D01*
X82317Y-251376D02*
Y-251901D01*
X81792D01*
X82842D01*
X82317D01*
Y-253475D01*
X82842Y-254000D01*
X84416D02*
X85466D01*
X84941D01*
Y-251901D01*
X84416D01*
X87565Y-254000D02*
X88614D01*
X89139Y-253475D01*
Y-252426D01*
X88614Y-251901D01*
X87565D01*
X87040Y-252426D01*
Y-253475D01*
X87565Y-254000D01*
X90189D02*
Y-251901D01*
X91763D01*
X92288Y-252426D01*
Y-254000D01*
X97011D02*
X98060D01*
X98585Y-253475D01*
Y-252426D01*
X98060Y-251901D01*
X97011D01*
X96486Y-252426D01*
Y-253475D01*
X97011Y-254000D01*
X100159D02*
Y-251376D01*
Y-252426D01*
X99634D01*
X100684D01*
X100159D01*
Y-251376D01*
X100684Y-250851D01*
X102783Y-254000D02*
Y-251376D01*
Y-252426D01*
X102258D01*
X103308D01*
X102783D01*
Y-251376D01*
X103308Y-250851D01*
X5000Y-254000D02*
X6050D01*
X5525D01*
Y-250851D01*
X5000Y-251376D01*
X7624Y-254000D02*
X9723Y-251901D01*
X12871Y-250851D02*
X10772D01*
Y-252426D01*
X11822Y-251901D01*
X12347D01*
X12871Y-252426D01*
Y-253475D01*
X12347Y-254000D01*
X11297D01*
X10772Y-253475D01*
X4000Y-240000D02*
X5049D01*
X4525D01*
Y-236851D01*
X4000Y-237376D01*
X6624Y-240000D02*
X8723Y-237901D01*
X9772Y-240000D02*
X10822D01*
X10297D01*
Y-236851D01*
X9772Y-237376D01*
X12396D02*
X12921Y-236851D01*
X13971D01*
X14495Y-237376D01*
Y-239475D01*
X13971Y-240000D01*
X12921D01*
X12396Y-239475D01*
Y-237376D01*
X65000Y-235901D02*
X66049Y-238000D01*
X67099Y-235901D01*
X68673Y-238000D02*
X69723D01*
X70248Y-237475D01*
Y-236426D01*
X69723Y-235901D01*
X68673D01*
X68149Y-236426D01*
Y-237475D01*
X68673Y-238000D01*
X71297D02*
X72347D01*
X71822D01*
Y-234851D01*
X71297D01*
X74446Y-235376D02*
Y-235901D01*
X73921D01*
X74971D01*
X74446D01*
Y-237475D01*
X74971Y-238000D01*
X77070Y-235901D02*
X78119D01*
X78644Y-236426D01*
Y-238000D01*
X77070D01*
X76545Y-237475D01*
X77070Y-236950D01*
X78644D01*
X80743Y-239050D02*
X81268D01*
X81792Y-238525D01*
Y-235901D01*
X80218D01*
X79693Y-236426D01*
Y-237475D01*
X80218Y-238000D01*
X81792D01*
X84416D02*
X83367D01*
X82842Y-237475D01*
Y-236426D01*
X83367Y-235901D01*
X84416D01*
X84941Y-236426D01*
Y-236950D01*
X82842D01*
X91238Y-238000D02*
X90714Y-237475D01*
X90189Y-238000D01*
X89664D01*
X89139Y-237475D01*
Y-236950D01*
X89664Y-236426D01*
X89139Y-235901D01*
Y-235376D01*
X89664Y-234851D01*
X90189D01*
X90714Y-235376D01*
Y-235901D01*
X90189Y-236426D01*
X90714Y-236950D01*
Y-237475D01*
X91238Y-236426D02*
X90714Y-236950D01*
X89664Y-236426D02*
X90189D01*
X41970Y-231000D02*
X43019D01*
X43544Y-230475D01*
Y-229426D01*
X43019Y-228901D01*
X41970D01*
X41445Y-229426D01*
Y-230475D01*
X41970Y-231000D01*
X44594Y-228901D02*
Y-230475D01*
X45118Y-231000D01*
X46692D01*
Y-228901D01*
X48267Y-228376D02*
Y-228901D01*
X47742D01*
X48792D01*
X48267D01*
Y-230475D01*
X48792Y-231000D01*
X50366Y-232049D02*
Y-228901D01*
X51940D01*
X52465Y-229426D01*
Y-230475D01*
X51940Y-231000D01*
X50366D01*
X53514Y-228901D02*
Y-230475D01*
X54039Y-231000D01*
X55613D01*
Y-228901D01*
X57188Y-228376D02*
Y-228901D01*
X56663D01*
X57713D01*
X57188D01*
Y-230475D01*
X57713Y-231000D01*
X62436D02*
X63485D01*
X62960D01*
Y-227851D01*
X62436D01*
X65059Y-231000D02*
X66109D01*
X65584D01*
Y-228901D01*
X65059D01*
X67683Y-231000D02*
Y-228901D01*
X68208D01*
X68733Y-229426D01*
Y-231000D01*
Y-229426D01*
X69257Y-228901D01*
X69782Y-229426D01*
Y-231000D01*
X70832D02*
X71881D01*
X71356D01*
Y-228901D01*
X70832D01*
X73980Y-228376D02*
Y-228901D01*
X73456D01*
X74505D01*
X73980D01*
Y-230475D01*
X74505Y-231000D01*
X76604Y-228901D02*
X77654D01*
X78179Y-229426D01*
Y-231000D01*
X76604D01*
X76079Y-230475D01*
X76604Y-229950D01*
X78179D01*
X79753Y-228376D02*
Y-228901D01*
X79228D01*
X80278D01*
X79753D01*
Y-230475D01*
X80278Y-231000D01*
X81852D02*
X82901D01*
X82377D01*
Y-228901D01*
X81852D01*
X85000Y-231000D02*
X86050D01*
X86575Y-230475D01*
Y-229426D01*
X86050Y-228901D01*
X85000D01*
X84476Y-229426D01*
Y-230475D01*
X85000Y-231000D01*
X87624D02*
Y-228901D01*
X89198D01*
X89723Y-229426D01*
Y-231000D01*
X10000Y-228851D02*
Y-232000D01*
X11574D01*
X12099Y-231475D01*
Y-229376D01*
X11574Y-228851D01*
X10000D01*
X13149Y-232000D02*
X14198D01*
X13673D01*
Y-229901D01*
X13149D01*
X15772D02*
X16822Y-232000D01*
X17872Y-229901D01*
X18921Y-232000D02*
X19971D01*
X19446D01*
Y-229901D01*
X18921D01*
X21545Y-232000D02*
X23119D01*
X23644Y-231475D01*
X23119Y-230950D01*
X22070D01*
X21545Y-230426D01*
X22070Y-229901D01*
X23644D01*
X24693Y-232000D02*
X25743D01*
X25218D01*
Y-229901D01*
X24693D01*
X27842Y-232000D02*
X28892D01*
X29416Y-231475D01*
Y-230426D01*
X28892Y-229901D01*
X27842D01*
X27317Y-230426D01*
Y-231475D01*
X27842Y-232000D01*
X30466D02*
Y-229901D01*
X32040D01*
X32565Y-230426D01*
Y-232000D01*
X110099Y-327901D02*
X108525D01*
X108000Y-328426D01*
Y-329475D01*
X108525Y-330000D01*
X110099D01*
X111149Y-327901D02*
Y-329475D01*
X111673Y-330000D01*
X113248D01*
Y-327901D01*
X114297D02*
Y-330000D01*
Y-328951D01*
X114822Y-328426D01*
X115347Y-327901D01*
X115872D01*
X117446D02*
Y-330000D01*
Y-328951D01*
X117971Y-328426D01*
X118495Y-327901D01*
X119020D01*
X122169Y-330000D02*
X121119D01*
X120594Y-329475D01*
Y-328426D01*
X121119Y-327901D01*
X122169D01*
X122693Y-328426D01*
Y-328951D01*
X120594D01*
X123743Y-330000D02*
Y-327901D01*
X125317D01*
X125842Y-328426D01*
Y-330000D01*
X127416Y-327376D02*
Y-327901D01*
X126892D01*
X127941D01*
X127416D01*
Y-329475D01*
X127941Y-330000D01*
X108000Y-335000D02*
X109049D01*
X108525D01*
Y-331851D01*
X108000D01*
X110624Y-335000D02*
X111673D01*
X111149D01*
Y-332901D01*
X110624D01*
X113248Y-335000D02*
Y-332901D01*
X113772D01*
X114297Y-333426D01*
Y-335000D01*
Y-333426D01*
X114822Y-332901D01*
X115347Y-333426D01*
Y-335000D01*
X116396D02*
X117446D01*
X116921D01*
Y-332901D01*
X116396D01*
X119545Y-332376D02*
Y-332901D01*
X119020D01*
X120070D01*
X119545D01*
Y-334475D01*
X120070Y-335000D01*
X108525Y-325000D02*
X109574D01*
X110099Y-324475D01*
Y-323426D01*
X109574Y-322901D01*
X108525D01*
X108000Y-323426D01*
Y-324475D01*
X108525Y-325000D01*
X111149D02*
Y-322901D01*
X112723D01*
X113248Y-323426D01*
Y-325000D01*
X114297D02*
X115347D01*
X114822D01*
Y-321851D01*
X114297D01*
X116921Y-322901D02*
Y-324475D01*
X117446Y-325000D01*
X119020D01*
Y-325525D01*
X118495Y-326049D01*
X117971D01*
X119020Y-325000D02*
Y-322901D01*
X107000Y-315851D02*
Y-319000D01*
X108574D01*
X109099Y-318475D01*
Y-317951D01*
Y-317426D01*
X108574Y-316901D01*
X107000D01*
X110673Y-319000D02*
X111723D01*
X112248Y-318475D01*
Y-317426D01*
X111723Y-316901D01*
X110673D01*
X110149Y-317426D01*
Y-318475D01*
X110673Y-319000D01*
X113822Y-316376D02*
Y-316901D01*
X113297D01*
X114347D01*
X113822D01*
Y-318475D01*
X114347Y-319000D01*
X115921Y-315851D02*
Y-319000D01*
Y-317426D01*
X116446Y-316901D01*
X117495D01*
X118020Y-317426D01*
Y-319000D01*
X122743D02*
X123793D01*
X124317Y-318475D01*
Y-317426D01*
X123793Y-316901D01*
X122743D01*
X122218Y-317426D01*
Y-318475D01*
X122743Y-319000D01*
X125367Y-320050D02*
Y-316901D01*
X126941D01*
X127466Y-317426D01*
Y-318475D01*
X126941Y-319000D01*
X125367D01*
X130090D02*
X129040D01*
X128515Y-318475D01*
Y-317426D01*
X129040Y-316901D01*
X130090D01*
X130614Y-317426D01*
Y-317951D01*
X128515D01*
X131664Y-319000D02*
Y-316901D01*
X133238D01*
X133763Y-317426D01*
Y-319000D01*
X134813Y-316901D02*
X135337D01*
Y-317426D01*
X134813D01*
Y-316901D01*
Y-318475D02*
X135337D01*
Y-319000D01*
X134813D01*
Y-318475D01*
X67099Y-319901D02*
X65525D01*
X65000Y-320426D01*
Y-321475D01*
X65525Y-322000D01*
X67099D01*
X68149Y-319901D02*
Y-321475D01*
X68673Y-322000D01*
X70248D01*
Y-319901D01*
X71297D02*
Y-322000D01*
Y-320951D01*
X71822Y-320426D01*
X72347Y-319901D01*
X72872D01*
X74446D02*
Y-322000D01*
Y-320951D01*
X74971Y-320426D01*
X75495Y-319901D01*
X76020D01*
X79169Y-322000D02*
X78119D01*
X77594Y-321475D01*
Y-320426D01*
X78119Y-319901D01*
X79169D01*
X79693Y-320426D01*
Y-320951D01*
X77594D01*
X80743Y-322000D02*
Y-319901D01*
X82317D01*
X82842Y-320426D01*
Y-322000D01*
X84416Y-319376D02*
Y-319901D01*
X83891D01*
X84941D01*
X84416D01*
Y-321475D01*
X84941Y-322000D01*
X89664D02*
X90714D01*
X90189D01*
Y-318851D01*
X89664D01*
X92288Y-322000D02*
X93337D01*
X92813D01*
Y-319901D01*
X92288D01*
X94912Y-322000D02*
Y-319901D01*
X95436D01*
X95961Y-320426D01*
Y-322000D01*
Y-320426D01*
X96486Y-319901D01*
X97011Y-320426D01*
Y-322000D01*
X98060D02*
X99110D01*
X98585D01*
Y-319901D01*
X98060D01*
X101209Y-319376D02*
Y-319901D01*
X100684D01*
X101734D01*
X101209D01*
Y-321475D01*
X101734Y-322000D01*
X65000Y-333000D02*
X66049D01*
X65525D01*
Y-329851D01*
X65000D01*
X67624Y-333000D02*
X68673D01*
X68149D01*
Y-330901D01*
X67624D01*
X70248Y-333000D02*
Y-330901D01*
X70772D01*
X71297Y-331426D01*
Y-333000D01*
Y-331426D01*
X71822Y-330901D01*
X72347Y-331426D01*
Y-333000D01*
X73396D02*
X74446D01*
X73921D01*
Y-330901D01*
X73396D01*
X76545Y-330376D02*
Y-330901D01*
X76020D01*
X77070D01*
X76545D01*
Y-332475D01*
X77070Y-333000D01*
X79169Y-330901D02*
X80218D01*
X80743Y-331426D01*
Y-333000D01*
X79169D01*
X78644Y-332475D01*
X79169Y-331950D01*
X80743D01*
X82317Y-330376D02*
Y-330901D01*
X81792D01*
X82842D01*
X82317D01*
Y-332475D01*
X82842Y-333000D01*
X84416D02*
X85466D01*
X84941D01*
Y-330901D01*
X84416D01*
X87565Y-333000D02*
X88614D01*
X89139Y-332475D01*
Y-331426D01*
X88614Y-330901D01*
X87565D01*
X87040Y-331426D01*
Y-332475D01*
X87565Y-333000D01*
X90189D02*
Y-330901D01*
X91763D01*
X92288Y-331426D01*
Y-333000D01*
X97011D02*
X98060D01*
X98585Y-332475D01*
Y-331426D01*
X98060Y-330901D01*
X97011D01*
X96486Y-331426D01*
Y-332475D01*
X97011Y-333000D01*
X100159D02*
Y-330376D01*
Y-331426D01*
X99634D01*
X100684D01*
X100159D01*
Y-330376D01*
X100684Y-329851D01*
X102783Y-333000D02*
Y-330376D01*
Y-331426D01*
X102258D01*
X103308D01*
X102783D01*
Y-330376D01*
X103308Y-329851D01*
X5000Y-333000D02*
X6050D01*
X5525D01*
Y-329851D01*
X5000Y-330376D01*
X7624Y-333000D02*
X9723Y-330901D01*
X12871Y-329851D02*
X10772D01*
Y-331426D01*
X11822Y-330901D01*
X12347D01*
X12871Y-331426D01*
Y-332475D01*
X12347Y-333000D01*
X11297D01*
X10772Y-332475D01*
X4000Y-319000D02*
X5049D01*
X4525D01*
Y-315851D01*
X4000Y-316376D01*
X6624Y-319000D02*
X8723Y-316901D01*
X9772Y-319000D02*
X10822D01*
X10297D01*
Y-315851D01*
X9772Y-316376D01*
X12396D02*
X12921Y-315851D01*
X13971D01*
X14495Y-316376D01*
Y-318475D01*
X13971Y-319000D01*
X12921D01*
X12396Y-318475D01*
Y-316376D01*
X65000Y-314901D02*
X66049Y-317000D01*
X67099Y-314901D01*
X68673Y-317000D02*
X69723D01*
X70248Y-316475D01*
Y-315426D01*
X69723Y-314901D01*
X68673D01*
X68149Y-315426D01*
Y-316475D01*
X68673Y-317000D01*
X71297D02*
X72347D01*
X71822D01*
Y-313851D01*
X71297D01*
X74446Y-314376D02*
Y-314901D01*
X73921D01*
X74971D01*
X74446D01*
Y-316475D01*
X74971Y-317000D01*
X77070Y-314901D02*
X78119D01*
X78644Y-315426D01*
Y-317000D01*
X77070D01*
X76545Y-316475D01*
X77070Y-315950D01*
X78644D01*
X80743Y-318050D02*
X81268D01*
X81792Y-317525D01*
Y-314901D01*
X80218D01*
X79693Y-315426D01*
Y-316475D01*
X80218Y-317000D01*
X81792D01*
X84416D02*
X83367D01*
X82842Y-316475D01*
Y-315426D01*
X83367Y-314901D01*
X84416D01*
X84941Y-315426D01*
Y-315950D01*
X82842D01*
X91238Y-317000D02*
X90714Y-316475D01*
X90189Y-317000D01*
X89664D01*
X89139Y-316475D01*
Y-315950D01*
X89664Y-315426D01*
X89139Y-314901D01*
Y-314376D01*
X89664Y-313851D01*
X90189D01*
X90714Y-314376D01*
Y-314901D01*
X90189Y-315426D01*
X90714Y-315950D01*
Y-316475D01*
X91238Y-315426D02*
X90714Y-315950D01*
X89664Y-315426D02*
X90189D01*
X41970Y-310000D02*
X43019D01*
X43544Y-309475D01*
Y-308426D01*
X43019Y-307901D01*
X41970D01*
X41445Y-308426D01*
Y-309475D01*
X41970Y-310000D01*
X44594Y-307901D02*
Y-309475D01*
X45118Y-310000D01*
X46692D01*
Y-307901D01*
X48267Y-307376D02*
Y-307901D01*
X47742D01*
X48792D01*
X48267D01*
Y-309475D01*
X48792Y-310000D01*
X50366Y-311050D02*
Y-307901D01*
X51940D01*
X52465Y-308426D01*
Y-309475D01*
X51940Y-310000D01*
X50366D01*
X53514Y-307901D02*
Y-309475D01*
X54039Y-310000D01*
X55613D01*
Y-307901D01*
X57188Y-307376D02*
Y-307901D01*
X56663D01*
X57713D01*
X57188D01*
Y-309475D01*
X57713Y-310000D01*
X62436D02*
X63485D01*
X62960D01*
Y-306851D01*
X62436D01*
X65059Y-310000D02*
X66109D01*
X65584D01*
Y-307901D01*
X65059D01*
X67683Y-310000D02*
Y-307901D01*
X68208D01*
X68733Y-308426D01*
Y-310000D01*
Y-308426D01*
X69257Y-307901D01*
X69782Y-308426D01*
Y-310000D01*
X70832D02*
X71881D01*
X71356D01*
Y-307901D01*
X70832D01*
X73980Y-307376D02*
Y-307901D01*
X73456D01*
X74505D01*
X73980D01*
Y-309475D01*
X74505Y-310000D01*
X76604Y-307901D02*
X77654D01*
X78179Y-308426D01*
Y-310000D01*
X76604D01*
X76079Y-309475D01*
X76604Y-308950D01*
X78179D01*
X79753Y-307376D02*
Y-307901D01*
X79228D01*
X80278D01*
X79753D01*
Y-309475D01*
X80278Y-310000D01*
X81852D02*
X82901D01*
X82377D01*
Y-307901D01*
X81852D01*
X85000Y-310000D02*
X86050D01*
X86575Y-309475D01*
Y-308426D01*
X86050Y-307901D01*
X85000D01*
X84476Y-308426D01*
Y-309475D01*
X85000Y-310000D01*
X87624D02*
Y-307901D01*
X89198D01*
X89723Y-308426D01*
Y-310000D01*
X10000Y-307851D02*
Y-311000D01*
X11574D01*
X12099Y-310475D01*
Y-308376D01*
X11574Y-307851D01*
X10000D01*
X13149Y-311000D02*
X14198D01*
X13673D01*
Y-308901D01*
X13149D01*
X15772D02*
X16822Y-311000D01*
X17872Y-308901D01*
X18921Y-311000D02*
X19971D01*
X19446D01*
Y-308901D01*
X18921D01*
X21545Y-311000D02*
X23119D01*
X23644Y-310475D01*
X23119Y-309950D01*
X22070D01*
X21545Y-309426D01*
X22070Y-308901D01*
X23644D01*
X24693Y-311000D02*
X25743D01*
X25218D01*
Y-308901D01*
X24693D01*
X27842Y-311000D02*
X28892D01*
X29416Y-310475D01*
Y-309426D01*
X28892Y-308901D01*
X27842D01*
X27317Y-309426D01*
Y-310475D01*
X27842Y-311000D01*
X30466D02*
Y-308901D01*
X32040D01*
X32565Y-309426D01*
Y-311000D01*
X110099Y-412901D02*
X108525D01*
X108000Y-413426D01*
Y-414475D01*
X108525Y-415000D01*
X110099D01*
X111149Y-412901D02*
Y-414475D01*
X111673Y-415000D01*
X113248D01*
Y-412901D01*
X114297D02*
Y-415000D01*
Y-413950D01*
X114822Y-413426D01*
X115347Y-412901D01*
X115872D01*
X117446D02*
Y-415000D01*
Y-413950D01*
X117971Y-413426D01*
X118495Y-412901D01*
X119020D01*
X122169Y-415000D02*
X121119D01*
X120594Y-414475D01*
Y-413426D01*
X121119Y-412901D01*
X122169D01*
X122693Y-413426D01*
Y-413950D01*
X120594D01*
X123743Y-415000D02*
Y-412901D01*
X125317D01*
X125842Y-413426D01*
Y-415000D01*
X127416Y-412376D02*
Y-412901D01*
X126892D01*
X127941D01*
X127416D01*
Y-414475D01*
X127941Y-415000D01*
X108000Y-420000D02*
X109049D01*
X108525D01*
Y-416851D01*
X108000D01*
X110624Y-420000D02*
X111673D01*
X111149D01*
Y-417901D01*
X110624D01*
X113248Y-420000D02*
Y-417901D01*
X113772D01*
X114297Y-418426D01*
Y-420000D01*
Y-418426D01*
X114822Y-417901D01*
X115347Y-418426D01*
Y-420000D01*
X116396D02*
X117446D01*
X116921D01*
Y-417901D01*
X116396D01*
X119545Y-417376D02*
Y-417901D01*
X119020D01*
X120070D01*
X119545D01*
Y-419475D01*
X120070Y-420000D01*
X108525Y-410000D02*
X109574D01*
X110099Y-409475D01*
Y-408426D01*
X109574Y-407901D01*
X108525D01*
X108000Y-408426D01*
Y-409475D01*
X108525Y-410000D01*
X111149D02*
Y-407901D01*
X112723D01*
X113248Y-408426D01*
Y-410000D01*
X114297D02*
X115347D01*
X114822D01*
Y-406851D01*
X114297D01*
X116921Y-407901D02*
Y-409475D01*
X117446Y-410000D01*
X119020D01*
Y-410525D01*
X118495Y-411050D01*
X117971D01*
X119020Y-410000D02*
Y-407901D01*
X107000Y-400851D02*
Y-404000D01*
X108574D01*
X109099Y-403475D01*
Y-402950D01*
Y-402426D01*
X108574Y-401901D01*
X107000D01*
X110673Y-404000D02*
X111723D01*
X112248Y-403475D01*
Y-402426D01*
X111723Y-401901D01*
X110673D01*
X110149Y-402426D01*
Y-403475D01*
X110673Y-404000D01*
X113822Y-401376D02*
Y-401901D01*
X113297D01*
X114347D01*
X113822D01*
Y-403475D01*
X114347Y-404000D01*
X115921Y-400851D02*
Y-404000D01*
Y-402426D01*
X116446Y-401901D01*
X117495D01*
X118020Y-402426D01*
Y-404000D01*
X122743D02*
X123793D01*
X124317Y-403475D01*
Y-402426D01*
X123793Y-401901D01*
X122743D01*
X122218Y-402426D01*
Y-403475D01*
X122743Y-404000D01*
X125367Y-405050D02*
Y-401901D01*
X126941D01*
X127466Y-402426D01*
Y-403475D01*
X126941Y-404000D01*
X125367D01*
X130090D02*
X129040D01*
X128515Y-403475D01*
Y-402426D01*
X129040Y-401901D01*
X130090D01*
X130614Y-402426D01*
Y-402950D01*
X128515D01*
X131664Y-404000D02*
Y-401901D01*
X133238D01*
X133763Y-402426D01*
Y-404000D01*
X134813Y-401901D02*
X135337D01*
Y-402426D01*
X134813D01*
Y-401901D01*
Y-403475D02*
X135337D01*
Y-404000D01*
X134813D01*
Y-403475D01*
X67099Y-404901D02*
X65525D01*
X65000Y-405426D01*
Y-406475D01*
X65525Y-407000D01*
X67099D01*
X68149Y-404901D02*
Y-406475D01*
X68673Y-407000D01*
X70248D01*
Y-404901D01*
X71297D02*
Y-407000D01*
Y-405950D01*
X71822Y-405426D01*
X72347Y-404901D01*
X72872D01*
X74446D02*
Y-407000D01*
Y-405950D01*
X74971Y-405426D01*
X75495Y-404901D01*
X76020D01*
X79169Y-407000D02*
X78119D01*
X77594Y-406475D01*
Y-405426D01*
X78119Y-404901D01*
X79169D01*
X79693Y-405426D01*
Y-405950D01*
X77594D01*
X80743Y-407000D02*
Y-404901D01*
X82317D01*
X82842Y-405426D01*
Y-407000D01*
X84416Y-404376D02*
Y-404901D01*
X83891D01*
X84941D01*
X84416D01*
Y-406475D01*
X84941Y-407000D01*
X89664D02*
X90714D01*
X90189D01*
Y-403851D01*
X89664D01*
X92288Y-407000D02*
X93337D01*
X92813D01*
Y-404901D01*
X92288D01*
X94912Y-407000D02*
Y-404901D01*
X95436D01*
X95961Y-405426D01*
Y-407000D01*
Y-405426D01*
X96486Y-404901D01*
X97011Y-405426D01*
Y-407000D01*
X98060D02*
X99110D01*
X98585D01*
Y-404901D01*
X98060D01*
X101209Y-404376D02*
Y-404901D01*
X100684D01*
X101734D01*
X101209D01*
Y-406475D01*
X101734Y-407000D01*
X65000Y-418000D02*
X66049D01*
X65525D01*
Y-414851D01*
X65000D01*
X67624Y-418000D02*
X68673D01*
X68149D01*
Y-415901D01*
X67624D01*
X70248Y-418000D02*
Y-415901D01*
X70772D01*
X71297Y-416426D01*
Y-418000D01*
Y-416426D01*
X71822Y-415901D01*
X72347Y-416426D01*
Y-418000D01*
X73396D02*
X74446D01*
X73921D01*
Y-415901D01*
X73396D01*
X76545Y-415376D02*
Y-415901D01*
X76020D01*
X77070D01*
X76545D01*
Y-417475D01*
X77070Y-418000D01*
X79169Y-415901D02*
X80218D01*
X80743Y-416426D01*
Y-418000D01*
X79169D01*
X78644Y-417475D01*
X79169Y-416951D01*
X80743D01*
X82317Y-415376D02*
Y-415901D01*
X81792D01*
X82842D01*
X82317D01*
Y-417475D01*
X82842Y-418000D01*
X84416D02*
X85466D01*
X84941D01*
Y-415901D01*
X84416D01*
X87565Y-418000D02*
X88614D01*
X89139Y-417475D01*
Y-416426D01*
X88614Y-415901D01*
X87565D01*
X87040Y-416426D01*
Y-417475D01*
X87565Y-418000D01*
X90189D02*
Y-415901D01*
X91763D01*
X92288Y-416426D01*
Y-418000D01*
X97011D02*
X98060D01*
X98585Y-417475D01*
Y-416426D01*
X98060Y-415901D01*
X97011D01*
X96486Y-416426D01*
Y-417475D01*
X97011Y-418000D01*
X100159D02*
Y-415376D01*
Y-416426D01*
X99634D01*
X100684D01*
X100159D01*
Y-415376D01*
X100684Y-414851D01*
X102783Y-418000D02*
Y-415376D01*
Y-416426D01*
X102258D01*
X103308D01*
X102783D01*
Y-415376D01*
X103308Y-414851D01*
X5000Y-418000D02*
X6050D01*
X5525D01*
Y-414851D01*
X5000Y-415376D01*
X7624Y-418000D02*
X9723Y-415901D01*
X12871Y-414851D02*
X10772D01*
Y-416426D01*
X11822Y-415901D01*
X12347D01*
X12871Y-416426D01*
Y-417475D01*
X12347Y-418000D01*
X11297D01*
X10772Y-417475D01*
X4000Y-404000D02*
X5049D01*
X4525D01*
Y-400851D01*
X4000Y-401376D01*
X6624Y-404000D02*
X8723Y-401901D01*
X9772Y-404000D02*
X10822D01*
X10297D01*
Y-400851D01*
X9772Y-401376D01*
X12396D02*
X12921Y-400851D01*
X13971D01*
X14495Y-401376D01*
Y-403475D01*
X13971Y-404000D01*
X12921D01*
X12396Y-403475D01*
Y-401376D01*
X65000Y-399901D02*
X66049Y-402000D01*
X67099Y-399901D01*
X68673Y-402000D02*
X69723D01*
X70248Y-401475D01*
Y-400426D01*
X69723Y-399901D01*
X68673D01*
X68149Y-400426D01*
Y-401475D01*
X68673Y-402000D01*
X71297D02*
X72347D01*
X71822D01*
Y-398851D01*
X71297D01*
X74446Y-399376D02*
Y-399901D01*
X73921D01*
X74971D01*
X74446D01*
Y-401475D01*
X74971Y-402000D01*
X77070Y-399901D02*
X78119D01*
X78644Y-400426D01*
Y-402000D01*
X77070D01*
X76545Y-401475D01*
X77070Y-400950D01*
X78644D01*
X80743Y-403050D02*
X81268D01*
X81792Y-402525D01*
Y-399901D01*
X80218D01*
X79693Y-400426D01*
Y-401475D01*
X80218Y-402000D01*
X81792D01*
X84416D02*
X83367D01*
X82842Y-401475D01*
Y-400426D01*
X83367Y-399901D01*
X84416D01*
X84941Y-400426D01*
Y-400950D01*
X82842D01*
X91238Y-402000D02*
X90714Y-401475D01*
X90189Y-402000D01*
X89664D01*
X89139Y-401475D01*
Y-400950D01*
X89664Y-400426D01*
X89139Y-399901D01*
Y-399376D01*
X89664Y-398851D01*
X90189D01*
X90714Y-399376D01*
Y-399901D01*
X90189Y-400426D01*
X90714Y-400950D01*
Y-401475D01*
X91238Y-400426D02*
X90714Y-400950D01*
X89664Y-400426D02*
X90189D01*
X41970Y-395000D02*
X43019D01*
X43544Y-394475D01*
Y-393426D01*
X43019Y-392901D01*
X41970D01*
X41445Y-393426D01*
Y-394475D01*
X41970Y-395000D01*
X44594Y-392901D02*
Y-394475D01*
X45118Y-395000D01*
X46692D01*
Y-392901D01*
X48267Y-392376D02*
Y-392901D01*
X47742D01*
X48792D01*
X48267D01*
Y-394475D01*
X48792Y-395000D01*
X50366Y-396049D02*
Y-392901D01*
X51940D01*
X52465Y-393426D01*
Y-394475D01*
X51940Y-395000D01*
X50366D01*
X53514Y-392901D02*
Y-394475D01*
X54039Y-395000D01*
X55613D01*
Y-392901D01*
X57188Y-392376D02*
Y-392901D01*
X56663D01*
X57713D01*
X57188D01*
Y-394475D01*
X57713Y-395000D01*
X62436D02*
X63485D01*
X62960D01*
Y-391851D01*
X62436D01*
X65059Y-395000D02*
X66109D01*
X65584D01*
Y-392901D01*
X65059D01*
X67683Y-395000D02*
Y-392901D01*
X68208D01*
X68733Y-393426D01*
Y-395000D01*
Y-393426D01*
X69257Y-392901D01*
X69782Y-393426D01*
Y-395000D01*
X70832D02*
X71881D01*
X71356D01*
Y-392901D01*
X70832D01*
X73980Y-392376D02*
Y-392901D01*
X73456D01*
X74505D01*
X73980D01*
Y-394475D01*
X74505Y-395000D01*
X76604Y-392901D02*
X77654D01*
X78179Y-393426D01*
Y-395000D01*
X76604D01*
X76079Y-394475D01*
X76604Y-393951D01*
X78179D01*
X79753Y-392376D02*
Y-392901D01*
X79228D01*
X80278D01*
X79753D01*
Y-394475D01*
X80278Y-395000D01*
X81852D02*
X82901D01*
X82377D01*
Y-392901D01*
X81852D01*
X85000Y-395000D02*
X86050D01*
X86575Y-394475D01*
Y-393426D01*
X86050Y-392901D01*
X85000D01*
X84476Y-393426D01*
Y-394475D01*
X85000Y-395000D01*
X87624D02*
Y-392901D01*
X89198D01*
X89723Y-393426D01*
Y-395000D01*
X10000Y-392851D02*
Y-396000D01*
X11574D01*
X12099Y-395475D01*
Y-393376D01*
X11574Y-392851D01*
X10000D01*
X13149Y-396000D02*
X14198D01*
X13673D01*
Y-393901D01*
X13149D01*
X15772D02*
X16822Y-396000D01*
X17872Y-393901D01*
X18921Y-396000D02*
X19971D01*
X19446D01*
Y-393901D01*
X18921D01*
X21545Y-396000D02*
X23119D01*
X23644Y-395475D01*
X23119Y-394951D01*
X22070D01*
X21545Y-394426D01*
X22070Y-393901D01*
X23644D01*
X24693Y-396000D02*
X25743D01*
X25218D01*
Y-393901D01*
X24693D01*
X27842Y-396000D02*
X28892D01*
X29416Y-395475D01*
Y-394426D01*
X28892Y-393901D01*
X27842D01*
X27317Y-394426D01*
Y-395475D01*
X27842Y-396000D01*
X30466D02*
Y-393901D01*
X32040D01*
X32565Y-394426D01*
Y-396000D01*
X110099Y-497901D02*
X108525D01*
X108000Y-498426D01*
Y-499475D01*
X108525Y-500000D01*
X110099D01*
X111149Y-497901D02*
Y-499475D01*
X111673Y-500000D01*
X113248D01*
Y-497901D01*
X114297D02*
Y-500000D01*
Y-498950D01*
X114822Y-498426D01*
X115347Y-497901D01*
X115872D01*
X117446D02*
Y-500000D01*
Y-498950D01*
X117971Y-498426D01*
X118495Y-497901D01*
X119020D01*
X122169Y-500000D02*
X121119D01*
X120594Y-499475D01*
Y-498426D01*
X121119Y-497901D01*
X122169D01*
X122693Y-498426D01*
Y-498950D01*
X120594D01*
X123743Y-500000D02*
Y-497901D01*
X125317D01*
X125842Y-498426D01*
Y-500000D01*
X127416Y-497376D02*
Y-497901D01*
X126892D01*
X127941D01*
X127416D01*
Y-499475D01*
X127941Y-500000D01*
X108000Y-505000D02*
X109049D01*
X108525D01*
Y-501851D01*
X108000D01*
X110624Y-505000D02*
X111673D01*
X111149D01*
Y-502901D01*
X110624D01*
X113248Y-505000D02*
Y-502901D01*
X113772D01*
X114297Y-503426D01*
Y-505000D01*
Y-503426D01*
X114822Y-502901D01*
X115347Y-503426D01*
Y-505000D01*
X116396D02*
X117446D01*
X116921D01*
Y-502901D01*
X116396D01*
X119545Y-502376D02*
Y-502901D01*
X119020D01*
X120070D01*
X119545D01*
Y-504475D01*
X120070Y-505000D01*
X108525Y-495000D02*
X109574D01*
X110099Y-494475D01*
Y-493426D01*
X109574Y-492901D01*
X108525D01*
X108000Y-493426D01*
Y-494475D01*
X108525Y-495000D01*
X111149D02*
Y-492901D01*
X112723D01*
X113248Y-493426D01*
Y-495000D01*
X114297D02*
X115347D01*
X114822D01*
Y-491851D01*
X114297D01*
X116921Y-492901D02*
Y-494475D01*
X117446Y-495000D01*
X119020D01*
Y-495525D01*
X118495Y-496049D01*
X117971D01*
X119020Y-495000D02*
Y-492901D01*
X107000Y-485851D02*
Y-489000D01*
X108574D01*
X109099Y-488475D01*
Y-487951D01*
Y-487426D01*
X108574Y-486901D01*
X107000D01*
X110673Y-489000D02*
X111723D01*
X112248Y-488475D01*
Y-487426D01*
X111723Y-486901D01*
X110673D01*
X110149Y-487426D01*
Y-488475D01*
X110673Y-489000D01*
X113822Y-486376D02*
Y-486901D01*
X113297D01*
X114347D01*
X113822D01*
Y-488475D01*
X114347Y-489000D01*
X115921Y-485851D02*
Y-489000D01*
Y-487426D01*
X116446Y-486901D01*
X117495D01*
X118020Y-487426D01*
Y-489000D01*
X122743D02*
X123793D01*
X124317Y-488475D01*
Y-487426D01*
X123793Y-486901D01*
X122743D01*
X122218Y-487426D01*
Y-488475D01*
X122743Y-489000D01*
X125367Y-490050D02*
Y-486901D01*
X126941D01*
X127466Y-487426D01*
Y-488475D01*
X126941Y-489000D01*
X125367D01*
X130090D02*
X129040D01*
X128515Y-488475D01*
Y-487426D01*
X129040Y-486901D01*
X130090D01*
X130614Y-487426D01*
Y-487951D01*
X128515D01*
X131664Y-489000D02*
Y-486901D01*
X133238D01*
X133763Y-487426D01*
Y-489000D01*
X134813Y-486901D02*
X135337D01*
Y-487426D01*
X134813D01*
Y-486901D01*
Y-488475D02*
X135337D01*
Y-489000D01*
X134813D01*
Y-488475D01*
X67099Y-489901D02*
X65525D01*
X65000Y-490426D01*
Y-491475D01*
X65525Y-492000D01*
X67099D01*
X68149Y-489901D02*
Y-491475D01*
X68673Y-492000D01*
X70248D01*
Y-489901D01*
X71297D02*
Y-492000D01*
Y-490950D01*
X71822Y-490426D01*
X72347Y-489901D01*
X72872D01*
X74446D02*
Y-492000D01*
Y-490950D01*
X74971Y-490426D01*
X75495Y-489901D01*
X76020D01*
X79169Y-492000D02*
X78119D01*
X77594Y-491475D01*
Y-490426D01*
X78119Y-489901D01*
X79169D01*
X79693Y-490426D01*
Y-490950D01*
X77594D01*
X80743Y-492000D02*
Y-489901D01*
X82317D01*
X82842Y-490426D01*
Y-492000D01*
X84416Y-489376D02*
Y-489901D01*
X83891D01*
X84941D01*
X84416D01*
Y-491475D01*
X84941Y-492000D01*
X89664D02*
X90714D01*
X90189D01*
Y-488851D01*
X89664D01*
X92288Y-492000D02*
X93337D01*
X92813D01*
Y-489901D01*
X92288D01*
X94912Y-492000D02*
Y-489901D01*
X95436D01*
X95961Y-490426D01*
Y-492000D01*
Y-490426D01*
X96486Y-489901D01*
X97011Y-490426D01*
Y-492000D01*
X98060D02*
X99110D01*
X98585D01*
Y-489901D01*
X98060D01*
X101209Y-489376D02*
Y-489901D01*
X100684D01*
X101734D01*
X101209D01*
Y-491475D01*
X101734Y-492000D01*
X65000Y-503000D02*
X66049D01*
X65525D01*
Y-499851D01*
X65000D01*
X67624Y-503000D02*
X68673D01*
X68149D01*
Y-500901D01*
X67624D01*
X70248Y-503000D02*
Y-500901D01*
X70772D01*
X71297Y-501426D01*
Y-503000D01*
Y-501426D01*
X71822Y-500901D01*
X72347Y-501426D01*
Y-503000D01*
X73396D02*
X74446D01*
X73921D01*
Y-500901D01*
X73396D01*
X76545Y-500376D02*
Y-500901D01*
X76020D01*
X77070D01*
X76545D01*
Y-502475D01*
X77070Y-503000D01*
X79169Y-500901D02*
X80218D01*
X80743Y-501426D01*
Y-503000D01*
X79169D01*
X78644Y-502475D01*
X79169Y-501951D01*
X80743D01*
X82317Y-500376D02*
Y-500901D01*
X81792D01*
X82842D01*
X82317D01*
Y-502475D01*
X82842Y-503000D01*
X84416D02*
X85466D01*
X84941D01*
Y-500901D01*
X84416D01*
X87565Y-503000D02*
X88614D01*
X89139Y-502475D01*
Y-501426D01*
X88614Y-500901D01*
X87565D01*
X87040Y-501426D01*
Y-502475D01*
X87565Y-503000D01*
X90189D02*
Y-500901D01*
X91763D01*
X92288Y-501426D01*
Y-503000D01*
X97011D02*
X98060D01*
X98585Y-502475D01*
Y-501426D01*
X98060Y-500901D01*
X97011D01*
X96486Y-501426D01*
Y-502475D01*
X97011Y-503000D01*
X100159D02*
Y-500376D01*
Y-501426D01*
X99634D01*
X100684D01*
X100159D01*
Y-500376D01*
X100684Y-499851D01*
X102783Y-503000D02*
Y-500376D01*
Y-501426D01*
X102258D01*
X103308D01*
X102783D01*
Y-500376D01*
X103308Y-499851D01*
X5000Y-503000D02*
X6050D01*
X5525D01*
Y-499851D01*
X5000Y-500376D01*
X7624Y-503000D02*
X9723Y-500901D01*
X12871Y-499851D02*
X10772D01*
Y-501426D01*
X11822Y-500901D01*
X12347D01*
X12871Y-501426D01*
Y-502475D01*
X12347Y-503000D01*
X11297D01*
X10772Y-502475D01*
X4000Y-489000D02*
X5049D01*
X4525D01*
Y-485851D01*
X4000Y-486376D01*
X6624Y-489000D02*
X8723Y-486901D01*
X9772Y-489000D02*
X10822D01*
X10297D01*
Y-485851D01*
X9772Y-486376D01*
X12396D02*
X12921Y-485851D01*
X13971D01*
X14495Y-486376D01*
Y-488475D01*
X13971Y-489000D01*
X12921D01*
X12396Y-488475D01*
Y-486376D01*
X65000Y-484901D02*
X66049Y-487000D01*
X67099Y-484901D01*
X68673Y-487000D02*
X69723D01*
X70248Y-486475D01*
Y-485426D01*
X69723Y-484901D01*
X68673D01*
X68149Y-485426D01*
Y-486475D01*
X68673Y-487000D01*
X71297D02*
X72347D01*
X71822D01*
Y-483851D01*
X71297D01*
X74446Y-484376D02*
Y-484901D01*
X73921D01*
X74971D01*
X74446D01*
Y-486475D01*
X74971Y-487000D01*
X77070Y-484901D02*
X78119D01*
X78644Y-485426D01*
Y-487000D01*
X77070D01*
X76545Y-486475D01*
X77070Y-485951D01*
X78644D01*
X80743Y-488050D02*
X81268D01*
X81792Y-487525D01*
Y-484901D01*
X80218D01*
X79693Y-485426D01*
Y-486475D01*
X80218Y-487000D01*
X81792D01*
X84416D02*
X83367D01*
X82842Y-486475D01*
Y-485426D01*
X83367Y-484901D01*
X84416D01*
X84941Y-485426D01*
Y-485951D01*
X82842D01*
X91238Y-487000D02*
X90714Y-486475D01*
X90189Y-487000D01*
X89664D01*
X89139Y-486475D01*
Y-485951D01*
X89664Y-485426D01*
X89139Y-484901D01*
Y-484376D01*
X89664Y-483851D01*
X90189D01*
X90714Y-484376D01*
Y-484901D01*
X90189Y-485426D01*
X90714Y-485951D01*
Y-486475D01*
X91238Y-485426D02*
X90714Y-485951D01*
X89664Y-485426D02*
X90189D01*
X41970Y-480000D02*
X43019D01*
X43544Y-479475D01*
Y-478426D01*
X43019Y-477901D01*
X41970D01*
X41445Y-478426D01*
Y-479475D01*
X41970Y-480000D01*
X44594Y-477901D02*
Y-479475D01*
X45118Y-480000D01*
X46692D01*
Y-477901D01*
X48267Y-477376D02*
Y-477901D01*
X47742D01*
X48792D01*
X48267D01*
Y-479475D01*
X48792Y-480000D01*
X50366Y-481049D02*
Y-477901D01*
X51940D01*
X52465Y-478426D01*
Y-479475D01*
X51940Y-480000D01*
X50366D01*
X53514Y-477901D02*
Y-479475D01*
X54039Y-480000D01*
X55613D01*
Y-477901D01*
X57188Y-477376D02*
Y-477901D01*
X56663D01*
X57713D01*
X57188D01*
Y-479475D01*
X57713Y-480000D01*
X62436D02*
X63485D01*
X62960D01*
Y-476851D01*
X62436D01*
X65059Y-480000D02*
X66109D01*
X65584D01*
Y-477901D01*
X65059D01*
X67683Y-480000D02*
Y-477901D01*
X68208D01*
X68733Y-478426D01*
Y-480000D01*
Y-478426D01*
X69257Y-477901D01*
X69782Y-478426D01*
Y-480000D01*
X70832D02*
X71881D01*
X71356D01*
Y-477901D01*
X70832D01*
X73980Y-477376D02*
Y-477901D01*
X73456D01*
X74505D01*
X73980D01*
Y-479475D01*
X74505Y-480000D01*
X76604Y-477901D02*
X77654D01*
X78179Y-478426D01*
Y-480000D01*
X76604D01*
X76079Y-479475D01*
X76604Y-478951D01*
X78179D01*
X79753Y-477376D02*
Y-477901D01*
X79228D01*
X80278D01*
X79753D01*
Y-479475D01*
X80278Y-480000D01*
X81852D02*
X82901D01*
X82377D01*
Y-477901D01*
X81852D01*
X85000Y-480000D02*
X86050D01*
X86575Y-479475D01*
Y-478426D01*
X86050Y-477901D01*
X85000D01*
X84476Y-478426D01*
Y-479475D01*
X85000Y-480000D01*
X87624D02*
Y-477901D01*
X89198D01*
X89723Y-478426D01*
Y-480000D01*
X10000Y-477851D02*
Y-481000D01*
X11574D01*
X12099Y-480475D01*
Y-478376D01*
X11574Y-477851D01*
X10000D01*
X13149Y-481000D02*
X14198D01*
X13673D01*
Y-478901D01*
X13149D01*
X15772D02*
X16822Y-481000D01*
X17872Y-478901D01*
X18921Y-481000D02*
X19971D01*
X19446D01*
Y-478901D01*
X18921D01*
X21545Y-481000D02*
X23119D01*
X23644Y-480475D01*
X23119Y-479951D01*
X22070D01*
X21545Y-479426D01*
X22070Y-478901D01*
X23644D01*
X24693Y-481000D02*
X25743D01*
X25218D01*
Y-478901D01*
X24693D01*
X27842Y-481000D02*
X28892D01*
X29416Y-480475D01*
Y-479426D01*
X28892Y-478901D01*
X27842D01*
X27317Y-479426D01*
Y-480475D01*
X27842Y-481000D01*
X30466D02*
Y-478901D01*
X32040D01*
X32565Y-479426D01*
Y-481000D01*
X110099Y-582901D02*
X108525D01*
X108000Y-583426D01*
Y-584475D01*
X108525Y-585000D01*
X110099D01*
X111149Y-582901D02*
Y-584475D01*
X111673Y-585000D01*
X113248D01*
Y-582901D01*
X114297D02*
Y-585000D01*
Y-583951D01*
X114822Y-583426D01*
X115347Y-582901D01*
X115872D01*
X117446D02*
Y-585000D01*
Y-583951D01*
X117971Y-583426D01*
X118495Y-582901D01*
X119020D01*
X122169Y-585000D02*
X121119D01*
X120594Y-584475D01*
Y-583426D01*
X121119Y-582901D01*
X122169D01*
X122693Y-583426D01*
Y-583951D01*
X120594D01*
X123743Y-585000D02*
Y-582901D01*
X125317D01*
X125842Y-583426D01*
Y-585000D01*
X127416Y-582376D02*
Y-582901D01*
X126892D01*
X127941D01*
X127416D01*
Y-584475D01*
X127941Y-585000D01*
X108000Y-590000D02*
X109049D01*
X108525D01*
Y-586851D01*
X108000D01*
X110624Y-590000D02*
X111673D01*
X111149D01*
Y-587901D01*
X110624D01*
X113248Y-590000D02*
Y-587901D01*
X113772D01*
X114297Y-588426D01*
Y-590000D01*
Y-588426D01*
X114822Y-587901D01*
X115347Y-588426D01*
Y-590000D01*
X116396D02*
X117446D01*
X116921D01*
Y-587901D01*
X116396D01*
X119545Y-587376D02*
Y-587901D01*
X119020D01*
X120070D01*
X119545D01*
Y-589475D01*
X120070Y-590000D01*
X108525Y-580000D02*
X109574D01*
X110099Y-579475D01*
Y-578426D01*
X109574Y-577901D01*
X108525D01*
X108000Y-578426D01*
Y-579475D01*
X108525Y-580000D01*
X111149D02*
Y-577901D01*
X112723D01*
X113248Y-578426D01*
Y-580000D01*
X114297D02*
X115347D01*
X114822D01*
Y-576851D01*
X114297D01*
X116921Y-577901D02*
Y-579475D01*
X117446Y-580000D01*
X119020D01*
Y-580525D01*
X118495Y-581049D01*
X117971D01*
X119020Y-580000D02*
Y-577901D01*
X107000Y-570851D02*
Y-574000D01*
X108574D01*
X109099Y-573475D01*
Y-572951D01*
Y-572426D01*
X108574Y-571901D01*
X107000D01*
X110673Y-574000D02*
X111723D01*
X112248Y-573475D01*
Y-572426D01*
X111723Y-571901D01*
X110673D01*
X110149Y-572426D01*
Y-573475D01*
X110673Y-574000D01*
X113822Y-571376D02*
Y-571901D01*
X113297D01*
X114347D01*
X113822D01*
Y-573475D01*
X114347Y-574000D01*
X115921Y-570851D02*
Y-574000D01*
Y-572426D01*
X116446Y-571901D01*
X117495D01*
X118020Y-572426D01*
Y-574000D01*
X122743D02*
X123793D01*
X124317Y-573475D01*
Y-572426D01*
X123793Y-571901D01*
X122743D01*
X122218Y-572426D01*
Y-573475D01*
X122743Y-574000D01*
X125367Y-575049D02*
Y-571901D01*
X126941D01*
X127466Y-572426D01*
Y-573475D01*
X126941Y-574000D01*
X125367D01*
X130090D02*
X129040D01*
X128515Y-573475D01*
Y-572426D01*
X129040Y-571901D01*
X130090D01*
X130614Y-572426D01*
Y-572951D01*
X128515D01*
X131664Y-574000D02*
Y-571901D01*
X133238D01*
X133763Y-572426D01*
Y-574000D01*
X134813Y-571901D02*
X135337D01*
Y-572426D01*
X134813D01*
Y-571901D01*
Y-573475D02*
X135337D01*
Y-574000D01*
X134813D01*
Y-573475D01*
X67099Y-574901D02*
X65525D01*
X65000Y-575426D01*
Y-576475D01*
X65525Y-577000D01*
X67099D01*
X68149Y-574901D02*
Y-576475D01*
X68673Y-577000D01*
X70248D01*
Y-574901D01*
X71297D02*
Y-577000D01*
Y-575950D01*
X71822Y-575426D01*
X72347Y-574901D01*
X72872D01*
X74446D02*
Y-577000D01*
Y-575950D01*
X74971Y-575426D01*
X75495Y-574901D01*
X76020D01*
X79169Y-577000D02*
X78119D01*
X77594Y-576475D01*
Y-575426D01*
X78119Y-574901D01*
X79169D01*
X79693Y-575426D01*
Y-575950D01*
X77594D01*
X80743Y-577000D02*
Y-574901D01*
X82317D01*
X82842Y-575426D01*
Y-577000D01*
X84416Y-574376D02*
Y-574901D01*
X83891D01*
X84941D01*
X84416D01*
Y-576475D01*
X84941Y-577000D01*
X89664D02*
X90714D01*
X90189D01*
Y-573851D01*
X89664D01*
X92288Y-577000D02*
X93337D01*
X92813D01*
Y-574901D01*
X92288D01*
X94912Y-577000D02*
Y-574901D01*
X95436D01*
X95961Y-575426D01*
Y-577000D01*
Y-575426D01*
X96486Y-574901D01*
X97011Y-575426D01*
Y-577000D01*
X98060D02*
X99110D01*
X98585D01*
Y-574901D01*
X98060D01*
X101209Y-574376D02*
Y-574901D01*
X100684D01*
X101734D01*
X101209D01*
Y-576475D01*
X101734Y-577000D01*
X65000Y-588000D02*
X66049D01*
X65525D01*
Y-584851D01*
X65000D01*
X67624Y-588000D02*
X68673D01*
X68149D01*
Y-585901D01*
X67624D01*
X70248Y-588000D02*
Y-585901D01*
X70772D01*
X71297Y-586426D01*
Y-588000D01*
Y-586426D01*
X71822Y-585901D01*
X72347Y-586426D01*
Y-588000D01*
X73396D02*
X74446D01*
X73921D01*
Y-585901D01*
X73396D01*
X76545Y-585376D02*
Y-585901D01*
X76020D01*
X77070D01*
X76545D01*
Y-587475D01*
X77070Y-588000D01*
X79169Y-585901D02*
X80218D01*
X80743Y-586426D01*
Y-588000D01*
X79169D01*
X78644Y-587475D01*
X79169Y-586950D01*
X80743D01*
X82317Y-585376D02*
Y-585901D01*
X81792D01*
X82842D01*
X82317D01*
Y-587475D01*
X82842Y-588000D01*
X84416D02*
X85466D01*
X84941D01*
Y-585901D01*
X84416D01*
X87565Y-588000D02*
X88614D01*
X89139Y-587475D01*
Y-586426D01*
X88614Y-585901D01*
X87565D01*
X87040Y-586426D01*
Y-587475D01*
X87565Y-588000D01*
X90189D02*
Y-585901D01*
X91763D01*
X92288Y-586426D01*
Y-588000D01*
X97011D02*
X98060D01*
X98585Y-587475D01*
Y-586426D01*
X98060Y-585901D01*
X97011D01*
X96486Y-586426D01*
Y-587475D01*
X97011Y-588000D01*
X100159D02*
Y-585376D01*
Y-586426D01*
X99634D01*
X100684D01*
X100159D01*
Y-585376D01*
X100684Y-584851D01*
X102783Y-588000D02*
Y-585376D01*
Y-586426D01*
X102258D01*
X103308D01*
X102783D01*
Y-585376D01*
X103308Y-584851D01*
X5000Y-588000D02*
X6050D01*
X5525D01*
Y-584851D01*
X5000Y-585376D01*
X7624Y-588000D02*
X9723Y-585901D01*
X12871Y-584851D02*
X10772D01*
Y-586426D01*
X11822Y-585901D01*
X12347D01*
X12871Y-586426D01*
Y-587475D01*
X12347Y-588000D01*
X11297D01*
X10772Y-587475D01*
X4000Y-574000D02*
X5049D01*
X4525D01*
Y-570851D01*
X4000Y-571376D01*
X6624Y-574000D02*
X8723Y-571901D01*
X9772Y-574000D02*
X10822D01*
X10297D01*
Y-570851D01*
X9772Y-571376D01*
X12396D02*
X12921Y-570851D01*
X13971D01*
X14495Y-571376D01*
Y-573475D01*
X13971Y-574000D01*
X12921D01*
X12396Y-573475D01*
Y-571376D01*
X65000Y-569901D02*
X66049Y-572000D01*
X67099Y-569901D01*
X68673Y-572000D02*
X69723D01*
X70248Y-571475D01*
Y-570426D01*
X69723Y-569901D01*
X68673D01*
X68149Y-570426D01*
Y-571475D01*
X68673Y-572000D01*
X71297D02*
X72347D01*
X71822D01*
Y-568851D01*
X71297D01*
X74446Y-569376D02*
Y-569901D01*
X73921D01*
X74971D01*
X74446D01*
Y-571475D01*
X74971Y-572000D01*
X77070Y-569901D02*
X78119D01*
X78644Y-570426D01*
Y-572000D01*
X77070D01*
X76545Y-571475D01*
X77070Y-570951D01*
X78644D01*
X80743Y-573049D02*
X81268D01*
X81792Y-572525D01*
Y-569901D01*
X80218D01*
X79693Y-570426D01*
Y-571475D01*
X80218Y-572000D01*
X81792D01*
X84416D02*
X83367D01*
X82842Y-571475D01*
Y-570426D01*
X83367Y-569901D01*
X84416D01*
X84941Y-570426D01*
Y-570951D01*
X82842D01*
X91238Y-572000D02*
X90714Y-571475D01*
X90189Y-572000D01*
X89664D01*
X89139Y-571475D01*
Y-570951D01*
X89664Y-570426D01*
X89139Y-569901D01*
Y-569376D01*
X89664Y-568851D01*
X90189D01*
X90714Y-569376D01*
Y-569901D01*
X90189Y-570426D01*
X90714Y-570951D01*
Y-571475D01*
X91238Y-570426D02*
X90714Y-570951D01*
X89664Y-570426D02*
X90189D01*
X41970Y-565000D02*
X43019D01*
X43544Y-564475D01*
Y-563426D01*
X43019Y-562901D01*
X41970D01*
X41445Y-563426D01*
Y-564475D01*
X41970Y-565000D01*
X44594Y-562901D02*
Y-564475D01*
X45118Y-565000D01*
X46692D01*
Y-562901D01*
X48267Y-562376D02*
Y-562901D01*
X47742D01*
X48792D01*
X48267D01*
Y-564475D01*
X48792Y-565000D01*
X50366Y-566049D02*
Y-562901D01*
X51940D01*
X52465Y-563426D01*
Y-564475D01*
X51940Y-565000D01*
X50366D01*
X53514Y-562901D02*
Y-564475D01*
X54039Y-565000D01*
X55613D01*
Y-562901D01*
X57188Y-562376D02*
Y-562901D01*
X56663D01*
X57713D01*
X57188D01*
Y-564475D01*
X57713Y-565000D01*
X62436D02*
X63485D01*
X62960D01*
Y-561851D01*
X62436D01*
X65059Y-565000D02*
X66109D01*
X65584D01*
Y-562901D01*
X65059D01*
X67683Y-565000D02*
Y-562901D01*
X68208D01*
X68733Y-563426D01*
Y-565000D01*
Y-563426D01*
X69257Y-562901D01*
X69782Y-563426D01*
Y-565000D01*
X70832D02*
X71881D01*
X71356D01*
Y-562901D01*
X70832D01*
X73980Y-562376D02*
Y-562901D01*
X73456D01*
X74505D01*
X73980D01*
Y-564475D01*
X74505Y-565000D01*
X76604Y-562901D02*
X77654D01*
X78179Y-563426D01*
Y-565000D01*
X76604D01*
X76079Y-564475D01*
X76604Y-563950D01*
X78179D01*
X79753Y-562376D02*
Y-562901D01*
X79228D01*
X80278D01*
X79753D01*
Y-564475D01*
X80278Y-565000D01*
X81852D02*
X82901D01*
X82377D01*
Y-562901D01*
X81852D01*
X85000Y-565000D02*
X86050D01*
X86575Y-564475D01*
Y-563426D01*
X86050Y-562901D01*
X85000D01*
X84476Y-563426D01*
Y-564475D01*
X85000Y-565000D01*
X87624D02*
Y-562901D01*
X89198D01*
X89723Y-563426D01*
Y-565000D01*
X10000Y-562851D02*
Y-566000D01*
X11574D01*
X12099Y-565475D01*
Y-563376D01*
X11574Y-562851D01*
X10000D01*
X13149Y-566000D02*
X14198D01*
X13673D01*
Y-563901D01*
X13149D01*
X15772D02*
X16822Y-566000D01*
X17872Y-563901D01*
X18921Y-566000D02*
X19971D01*
X19446D01*
Y-563901D01*
X18921D01*
X21545Y-566000D02*
X23119D01*
X23644Y-565475D01*
X23119Y-564951D01*
X22070D01*
X21545Y-564426D01*
X22070Y-563901D01*
X23644D01*
X24693Y-566000D02*
X25743D01*
X25218D01*
Y-563901D01*
X24693D01*
X27842Y-566000D02*
X28892D01*
X29416Y-565475D01*
Y-564426D01*
X28892Y-563901D01*
X27842D01*
X27317Y-564426D01*
Y-565475D01*
X27842Y-566000D01*
X30466D02*
Y-563901D01*
X32040D01*
X32565Y-564426D01*
Y-566000D01*
X110099Y-667901D02*
X108525D01*
X108000Y-668426D01*
Y-669475D01*
X108525Y-670000D01*
X110099D01*
X111149Y-667901D02*
Y-669475D01*
X111673Y-670000D01*
X113248D01*
Y-667901D01*
X114297D02*
Y-670000D01*
Y-668951D01*
X114822Y-668426D01*
X115347Y-667901D01*
X115872D01*
X117446D02*
Y-670000D01*
Y-668951D01*
X117971Y-668426D01*
X118495Y-667901D01*
X119020D01*
X122169Y-670000D02*
X121119D01*
X120594Y-669475D01*
Y-668426D01*
X121119Y-667901D01*
X122169D01*
X122693Y-668426D01*
Y-668951D01*
X120594D01*
X123743Y-670000D02*
Y-667901D01*
X125317D01*
X125842Y-668426D01*
Y-670000D01*
X127416Y-667376D02*
Y-667901D01*
X126892D01*
X127941D01*
X127416D01*
Y-669475D01*
X127941Y-670000D01*
X108000Y-675000D02*
X109049D01*
X108525D01*
Y-671851D01*
X108000D01*
X110624Y-675000D02*
X111673D01*
X111149D01*
Y-672901D01*
X110624D01*
X113248Y-675000D02*
Y-672901D01*
X113772D01*
X114297Y-673426D01*
Y-675000D01*
Y-673426D01*
X114822Y-672901D01*
X115347Y-673426D01*
Y-675000D01*
X116396D02*
X117446D01*
X116921D01*
Y-672901D01*
X116396D01*
X119545Y-672376D02*
Y-672901D01*
X119020D01*
X120070D01*
X119545D01*
Y-674475D01*
X120070Y-675000D01*
X108525Y-665000D02*
X109574D01*
X110099Y-664475D01*
Y-663426D01*
X109574Y-662901D01*
X108525D01*
X108000Y-663426D01*
Y-664475D01*
X108525Y-665000D01*
X111149D02*
Y-662901D01*
X112723D01*
X113248Y-663426D01*
Y-665000D01*
X114297D02*
X115347D01*
X114822D01*
Y-661851D01*
X114297D01*
X116921Y-662901D02*
Y-664475D01*
X117446Y-665000D01*
X119020D01*
Y-665525D01*
X118495Y-666049D01*
X117971D01*
X119020Y-665000D02*
Y-662901D01*
X107000Y-655851D02*
Y-659000D01*
X108574D01*
X109099Y-658475D01*
Y-657950D01*
Y-657426D01*
X108574Y-656901D01*
X107000D01*
X110673Y-659000D02*
X111723D01*
X112248Y-658475D01*
Y-657426D01*
X111723Y-656901D01*
X110673D01*
X110149Y-657426D01*
Y-658475D01*
X110673Y-659000D01*
X113822Y-656376D02*
Y-656901D01*
X113297D01*
X114347D01*
X113822D01*
Y-658475D01*
X114347Y-659000D01*
X115921Y-655851D02*
Y-659000D01*
Y-657426D01*
X116446Y-656901D01*
X117495D01*
X118020Y-657426D01*
Y-659000D01*
X122743D02*
X123793D01*
X124317Y-658475D01*
Y-657426D01*
X123793Y-656901D01*
X122743D01*
X122218Y-657426D01*
Y-658475D01*
X122743Y-659000D01*
X125367Y-660049D02*
Y-656901D01*
X126941D01*
X127466Y-657426D01*
Y-658475D01*
X126941Y-659000D01*
X125367D01*
X130090D02*
X129040D01*
X128515Y-658475D01*
Y-657426D01*
X129040Y-656901D01*
X130090D01*
X130614Y-657426D01*
Y-657950D01*
X128515D01*
X131664Y-659000D02*
Y-656901D01*
X133238D01*
X133763Y-657426D01*
Y-659000D01*
X134813Y-656901D02*
X135337D01*
Y-657426D01*
X134813D01*
Y-656901D01*
Y-658475D02*
X135337D01*
Y-659000D01*
X134813D01*
Y-658475D01*
X67099Y-659901D02*
X65525D01*
X65000Y-660426D01*
Y-661475D01*
X65525Y-662000D01*
X67099D01*
X68149Y-659901D02*
Y-661475D01*
X68673Y-662000D01*
X70248D01*
Y-659901D01*
X71297D02*
Y-662000D01*
Y-660951D01*
X71822Y-660426D01*
X72347Y-659901D01*
X72872D01*
X74446D02*
Y-662000D01*
Y-660951D01*
X74971Y-660426D01*
X75495Y-659901D01*
X76020D01*
X79169Y-662000D02*
X78119D01*
X77594Y-661475D01*
Y-660426D01*
X78119Y-659901D01*
X79169D01*
X79693Y-660426D01*
Y-660951D01*
X77594D01*
X80743Y-662000D02*
Y-659901D01*
X82317D01*
X82842Y-660426D01*
Y-662000D01*
X84416Y-659376D02*
Y-659901D01*
X83891D01*
X84941D01*
X84416D01*
Y-661475D01*
X84941Y-662000D01*
X89664D02*
X90714D01*
X90189D01*
Y-658851D01*
X89664D01*
X92288Y-662000D02*
X93337D01*
X92813D01*
Y-659901D01*
X92288D01*
X94912Y-662000D02*
Y-659901D01*
X95436D01*
X95961Y-660426D01*
Y-662000D01*
Y-660426D01*
X96486Y-659901D01*
X97011Y-660426D01*
Y-662000D01*
X98060D02*
X99110D01*
X98585D01*
Y-659901D01*
X98060D01*
X101209Y-659376D02*
Y-659901D01*
X100684D01*
X101734D01*
X101209D01*
Y-661475D01*
X101734Y-662000D01*
X65000Y-673000D02*
X66049D01*
X65525D01*
Y-669851D01*
X65000D01*
X67624Y-673000D02*
X68673D01*
X68149D01*
Y-670901D01*
X67624D01*
X70248Y-673000D02*
Y-670901D01*
X70772D01*
X71297Y-671426D01*
Y-673000D01*
Y-671426D01*
X71822Y-670901D01*
X72347Y-671426D01*
Y-673000D01*
X73396D02*
X74446D01*
X73921D01*
Y-670901D01*
X73396D01*
X76545Y-670376D02*
Y-670901D01*
X76020D01*
X77070D01*
X76545D01*
Y-672475D01*
X77070Y-673000D01*
X79169Y-670901D02*
X80218D01*
X80743Y-671426D01*
Y-673000D01*
X79169D01*
X78644Y-672475D01*
X79169Y-671950D01*
X80743D01*
X82317Y-670376D02*
Y-670901D01*
X81792D01*
X82842D01*
X82317D01*
Y-672475D01*
X82842Y-673000D01*
X84416D02*
X85466D01*
X84941D01*
Y-670901D01*
X84416D01*
X87565Y-673000D02*
X88614D01*
X89139Y-672475D01*
Y-671426D01*
X88614Y-670901D01*
X87565D01*
X87040Y-671426D01*
Y-672475D01*
X87565Y-673000D01*
X90189D02*
Y-670901D01*
X91763D01*
X92288Y-671426D01*
Y-673000D01*
X97011D02*
X98060D01*
X98585Y-672475D01*
Y-671426D01*
X98060Y-670901D01*
X97011D01*
X96486Y-671426D01*
Y-672475D01*
X97011Y-673000D01*
X100159D02*
Y-670376D01*
Y-671426D01*
X99634D01*
X100684D01*
X100159D01*
Y-670376D01*
X100684Y-669851D01*
X102783Y-673000D02*
Y-670376D01*
Y-671426D01*
X102258D01*
X103308D01*
X102783D01*
Y-670376D01*
X103308Y-669851D01*
X5000Y-673000D02*
X6050D01*
X5525D01*
Y-669851D01*
X5000Y-670376D01*
X7624Y-673000D02*
X9723Y-670901D01*
X12871Y-669851D02*
X10772D01*
Y-671426D01*
X11822Y-670901D01*
X12347D01*
X12871Y-671426D01*
Y-672475D01*
X12347Y-673000D01*
X11297D01*
X10772Y-672475D01*
X4000Y-659000D02*
X5049D01*
X4525D01*
Y-655851D01*
X4000Y-656376D01*
X6624Y-659000D02*
X8723Y-656901D01*
X9772Y-659000D02*
X10822D01*
X10297D01*
Y-655851D01*
X9772Y-656376D01*
X12396D02*
X12921Y-655851D01*
X13971D01*
X14495Y-656376D01*
Y-658475D01*
X13971Y-659000D01*
X12921D01*
X12396Y-658475D01*
Y-656376D01*
X65000Y-654901D02*
X66049Y-657000D01*
X67099Y-654901D01*
X68673Y-657000D02*
X69723D01*
X70248Y-656475D01*
Y-655426D01*
X69723Y-654901D01*
X68673D01*
X68149Y-655426D01*
Y-656475D01*
X68673Y-657000D01*
X71297D02*
X72347D01*
X71822D01*
Y-653851D01*
X71297D01*
X74446Y-654376D02*
Y-654901D01*
X73921D01*
X74971D01*
X74446D01*
Y-656475D01*
X74971Y-657000D01*
X77070Y-654901D02*
X78119D01*
X78644Y-655426D01*
Y-657000D01*
X77070D01*
X76545Y-656475D01*
X77070Y-655950D01*
X78644D01*
X80743Y-658049D02*
X81268D01*
X81792Y-657525D01*
Y-654901D01*
X80218D01*
X79693Y-655426D01*
Y-656475D01*
X80218Y-657000D01*
X81792D01*
X84416D02*
X83367D01*
X82842Y-656475D01*
Y-655426D01*
X83367Y-654901D01*
X84416D01*
X84941Y-655426D01*
Y-655950D01*
X82842D01*
X91238Y-657000D02*
X90714Y-656475D01*
X90189Y-657000D01*
X89664D01*
X89139Y-656475D01*
Y-655950D01*
X89664Y-655426D01*
X89139Y-654901D01*
Y-654376D01*
X89664Y-653851D01*
X90189D01*
X90714Y-654376D01*
Y-654901D01*
X90189Y-655426D01*
X90714Y-655950D01*
Y-656475D01*
X91238Y-655426D02*
X90714Y-655950D01*
X89664Y-655426D02*
X90189D01*
X41970Y-650000D02*
X43019D01*
X43544Y-649475D01*
Y-648426D01*
X43019Y-647901D01*
X41970D01*
X41445Y-648426D01*
Y-649475D01*
X41970Y-650000D01*
X44594Y-647901D02*
Y-649475D01*
X45118Y-650000D01*
X46692D01*
Y-647901D01*
X48267Y-647376D02*
Y-647901D01*
X47742D01*
X48792D01*
X48267D01*
Y-649475D01*
X48792Y-650000D01*
X50366Y-651050D02*
Y-647901D01*
X51940D01*
X52465Y-648426D01*
Y-649475D01*
X51940Y-650000D01*
X50366D01*
X53514Y-647901D02*
Y-649475D01*
X54039Y-650000D01*
X55613D01*
Y-647901D01*
X57188Y-647376D02*
Y-647901D01*
X56663D01*
X57713D01*
X57188D01*
Y-649475D01*
X57713Y-650000D01*
X62436D02*
X63485D01*
X62960D01*
Y-646851D01*
X62436D01*
X65059Y-650000D02*
X66109D01*
X65584D01*
Y-647901D01*
X65059D01*
X67683Y-650000D02*
Y-647901D01*
X68208D01*
X68733Y-648426D01*
Y-650000D01*
Y-648426D01*
X69257Y-647901D01*
X69782Y-648426D01*
Y-650000D01*
X70832D02*
X71881D01*
X71356D01*
Y-647901D01*
X70832D01*
X73980Y-647376D02*
Y-647901D01*
X73456D01*
X74505D01*
X73980D01*
Y-649475D01*
X74505Y-650000D01*
X76604Y-647901D02*
X77654D01*
X78179Y-648426D01*
Y-650000D01*
X76604D01*
X76079Y-649475D01*
X76604Y-648950D01*
X78179D01*
X79753Y-647376D02*
Y-647901D01*
X79228D01*
X80278D01*
X79753D01*
Y-649475D01*
X80278Y-650000D01*
X81852D02*
X82901D01*
X82377D01*
Y-647901D01*
X81852D01*
X85000Y-650000D02*
X86050D01*
X86575Y-649475D01*
Y-648426D01*
X86050Y-647901D01*
X85000D01*
X84476Y-648426D01*
Y-649475D01*
X85000Y-650000D01*
X87624D02*
Y-647901D01*
X89198D01*
X89723Y-648426D01*
Y-650000D01*
X10000Y-647851D02*
Y-651000D01*
X11574D01*
X12099Y-650475D01*
Y-648376D01*
X11574Y-647851D01*
X10000D01*
X13149Y-651000D02*
X14198D01*
X13673D01*
Y-648901D01*
X13149D01*
X15772D02*
X16822Y-651000D01*
X17872Y-648901D01*
X18921Y-651000D02*
X19971D01*
X19446D01*
Y-648901D01*
X18921D01*
X21545Y-651000D02*
X23119D01*
X23644Y-650475D01*
X23119Y-649951D01*
X22070D01*
X21545Y-649426D01*
X22070Y-648901D01*
X23644D01*
X24693Y-651000D02*
X25743D01*
X25218D01*
Y-648901D01*
X24693D01*
X27842Y-651000D02*
X28892D01*
X29416Y-650475D01*
Y-649426D01*
X28892Y-648901D01*
X27842D01*
X27317Y-649426D01*
Y-650475D01*
X27842Y-651000D01*
X30466D02*
Y-648901D01*
X32040D01*
X32565Y-649426D01*
Y-651000D01*
M02*
