M48
;Layer_Color=9474304
;FILE_FORMAT=2:5
INCH,LZ
;TYPE=PLATED
T1F00S00C0.01968
T2F00S00C0.02756
T3F00S00C0.02800
T4F00S00C0.04331
;TYPE=NON_PLATED
T5F00S00C0.13800
%
T01
X0024Y-0766502
X00385Y-0762501
X005Y-0767001
X00575Y-0756501
X0072307Y-0768502
X00875Y-0763502
X0107Y-0753064
X00705Y-0737501
X00465Y-0728001
X0041445Y-0698501
X00365Y-069697
X0052Y-0689501
X0047Y-0659001
X0088937Y-0696001
X0093Y-0695502
X01125Y-0677501
X01307Y-0709101
X01299Y-0640101
X01185Y-0628502
X00895Y-0627001
X006Y-0619501
X00405Y-0627001
X005Y-0592501
X00505Y-0562501
X0039Y-0560002
X00575Y-0551502
X00805Y-0562501
X01135Y-0561001
X0111Y-0539002
X01265Y-0510501
X0127Y-0498001
X01175
X0046Y-0527501
X01335Y-0586001
X008Y-0493002
X00635Y-04925
X0065Y-0469501
X00555Y-0449002
X0049Y-0436001
X0046Y-0423501
X0015Y-0440501
X00185Y-0459502
X00165Y-0490001
X0037Y-0485501
X00415Y-0377502
X00665Y-0381
X0071Y-0380564
X00795Y-0387001
X01045Y-0393002
X0129Y-0390002
X01345Y-0421501
X01175Y-0453502
X00575Y-0340501
X00165Y-0350501
X00145Y-0330001
X00405Y-0339001
X00475Y-0314502
X0038Y-0267501
X0017Y-0265002
X0016Y-0277502
X00155Y-0242501
Y-0219501
X00405Y-0225002
X00425Y-0237001
X0056Y-0228502
X00475Y-0204001
X00905Y-0197502
X01305Y-0185502
X01335Y-0220002
X01255Y-0281939
X0116Y-0281001
X0125984Y-0296336
X0084Y-0273501
X00675Y-0267002
X0003Y-0065501
X00095Y-0106001
X0016Y-0113502
X00455Y-0119501
X00595Y-0116501
X00555Y-0127501
X0057693Y-0161939
X00635Y-0163002
X0076Y-0162002
X00365Y-0164502
X00475Y-0093502
X00805Y-0072
X01245Y-0078001
X0118Y-0122502
X0114Y-0171002
X01225Y-0172502
X0136Y-0175002
X0028055Y-0040501
X00215Y-0022501
X01085Y-0013002
X01125Y-00055
T02
X00265Y-0743002
X01165Y-0744501
X01055Y-0693502
X0076Y-0673501
X006952Y-0631
X0081Y-0603502
X01185Y-0609001
X00885Y-0543002
X00735Y-0458002
X00755Y-0436502
X00415Y-0445002
X00675Y-03925
X0027Y-0379502
X0087Y-0356001
X0109Y-0345002
X01105Y-0234001
X0077Y-0247002
X00745Y-0215002
X00415Y-0278001
X0005Y-0336001
X0017Y-0163002
X00395Y-0114002
X00645Y-0138002
X01095Y-0124502
X01085Y-0053
X00695Y-0052501
X0069Y-0037501
X00385
X00155Y-0050502
T03
X00195Y-0728502
Y-0714501
X00215Y-0695438
X00195Y-0661502
X0105Y-0660002
X01035Y-0714501
X01045Y-0728502
X01055Y-0647502
X01095Y-0594501
Y-0580502
X01045Y-0529501
X01035Y-0515501
X00205
Y-0529501
X00215Y-0497502
X00205Y-0568502
X00215Y-0580502
Y-0594501
Y-0632502
X00195Y-0646501
X00215Y-0424502
Y-0410501
Y-0395501
X01115Y-0410501
Y-0424502
X0111Y-0375501
X0108Y-0483002
X01085Y-0316501
Y-0302502
X0113Y-0263001
X01125Y-0203502
X01145Y-0189502
X00215
Y-0203502
X00245Y-0282502
X00215Y-0302502
Y-0316501
X00175Y-0177501
X0021Y-0091501
Y-0081002
X0027476Y-0067478
X0029Y-0058002
X0036453Y-0058501
X00485Y-0057002
X01075Y-0081502
Y-0093502
X0105Y-0151002
T04
X00065Y-0757651
Y-0747651
X0006Y-0694939
Y-0684938
X01335Y-0684502
Y-0694501
X01315Y-0747651
Y-0757651
X01365Y-0627001
Y-0617001
X01345Y-0560565
Y-0550564
X0006
Y-0560565
X00065Y-0617001
Y-0627001
Y-0474502
Y-0464501
X00075Y-0368002
Y-0358001
X01355
Y-0368002
Y-0464501
Y-0474502
X0136Y-0259001
Y-0249002
X00065
Y-0259001
X00085Y-0148502
Y-0138502
X01355Y-0138002
Y-0148002
X00765Y-0008002
X00665
T05
X001259Y-0771654
X01307
X0129921Y-0011811
X0011811
M30
